<svg id="Layer_1" data-name="Layer 1" xmlns="http://www.w3.org/2000/svg" xmlns:xlink="http://www.w3.org/1999/xlink" viewBox="0 0 180.027 204.805"><defs><style>.cls-1,.cls-10,.cls-11,.cls-12,.cls-17,.cls-37,.cls-38{fill:#42e8e0;}.cls-1{opacity:0.1;}.cls-1,.cls-10,.cls-12,.cls-16,.cls-17,.cls-22,.cls-25,.cls-28,.cls-29,.cls-35,.cls-36,.cls-37,.cls-38,.cls-4,.cls-5,.cls-8,.cls-9{isolation:isolate;}.cls-2{fill:url(#linear-gradient);}.cls-3{fill:url(#linear-gradient-2);}.cls-16,.cls-22,.cls-25,.cls-28,.cls-35,.cls-36,.cls-37,.cls-4,.cls-8{opacity:0.5;}.cls-4{fill:url(#linear-gradient-3);}.cls-5,.cls-9{opacity:0.48;}.cls-5{fill:url(#linear-gradient-4);}.cls-6{fill:#bcbeff;}.cls-7{fill:#fff;}.cls-8{fill:#1bc9bc;}.cls-9{fill:url(#linear-gradient-5);}.cls-10{opacity:0.4;}.cls-12,.cls-29{opacity:0.8;}.cls-13{fill:url(#radial-gradient);}.cls-14{fill:url(#linear-gradient-6);}.cls-15{fill:#251c72;}.cls-16{fill:url(#radial-gradient-2);}.cls-17{opacity:0.6;}.cls-18{fill:url(#radial-gradient-3);}.cls-19{fill:url(#linear-gradient-7);}.cls-20{fill:url(#radial-gradient-4);}.cls-21{fill:url(#linear-gradient-8);}.cls-22{fill:url(#radial-gradient-5);}.cls-23{fill:url(#radial-gradient-6);}.cls-24{fill:url(#linear-gradient-9);}.cls-25{fill:url(#radial-gradient-7);}.cls-26{fill:url(#radial-gradient-8);}.cls-27{fill:url(#linear-gradient-10);}.cls-28{fill:url(#radial-gradient-9);}.cls-29{fill:url(#radial-gradient-10);}.cls-30{fill:url(#linear-gradient-11);}.cls-31{fill:url(#linear-gradient-12);}.cls-32{fill:url(#linear-gradient-13);}.cls-33{fill:url(#radial-gradient-11);}.cls-34{fill:url(#linear-gradient-14);}.cls-35{fill:url(#radial-gradient-12);}.cls-36{fill:#99fff7;}.cls-38{opacity:0.3;}.cls-39{fill:url(#linear-gradient-15);}.cls-40{fill:url(#linear-gradient-16);}</style><linearGradient id="linear-gradient" x1="1481.03" y1="-124.041" x2="1595.211" y2="-190.234" gradientTransform="matrix(0.498, -0.867, -0.867, -0.498, -733.578, 1419.865)" gradientUnits="userSpaceOnUse"><stop offset="0" stop-color="#bcbeff"/><stop offset="0.308" stop-color="#9297ee"/><stop offset="0.595" stop-color="#727ae2"/><stop offset="0.836" stop-color="#5e67da"/><stop offset="1" stop-color="#5761d7"/></linearGradient><linearGradient id="linear-gradient-2" x1="1606.166" y1="-182.655" x2="1503.367" y2="-107.39" gradientTransform="matrix(0.498, -0.867, -0.867, -0.498, -733.578, 1419.865)" gradientUnits="userSpaceOnUse"><stop offset="0" stop-color="#5761d7"/><stop offset="0.164" stop-color="#5e67da"/><stop offset="0.405" stop-color="#727ae2"/><stop offset="0.692" stop-color="#9297ee"/><stop offset="1" stop-color="#bcbeff"/></linearGradient><linearGradient id="linear-gradient-3" x1="1507.794" y1="-150.853" x2="1588.577" y2="-150.853" gradientTransform="matrix(0.5, -0.866, -0.866, -0.5, -736.009, 1418.135)" gradientUnits="userSpaceOnUse"><stop offset="0" stop-color="#42e8e0"/><stop offset="0.151" stop-color="#43e3e0"/><stop offset="0.328" stop-color="#45d5df"/><stop offset="0.52" stop-color="#49bddd"/><stop offset="0.721" stop-color="#4e9cdb"/><stop offset="0.927" stop-color="#5472d8"/><stop offset="1" stop-color="#5761d7"/></linearGradient><linearGradient id="linear-gradient-4" x1="1504.281" y1="-152.757" x2="1585.064" y2="-152.757" gradientTransform="matrix(0.5, -0.866, -0.866, -0.5, -735.999, 1418.137)" gradientUnits="userSpaceOnUse"><stop offset="0" stop-color="#42e8e0"/><stop offset="0.104" stop-color="#3fd9d6"/><stop offset="0.303" stop-color="#36b2bd"/><stop offset="0.577" stop-color="#287394"/><stop offset="0.913" stop-color="#141d5b"/><stop offset="1" stop-color="#0f054c"/></linearGradient><linearGradient id="linear-gradient-5" x1="329.114" y1="357.279" x2="478.613" y2="357.279" gradientTransform="translate(-234.034 -234.139)" xlink:href="#linear-gradient-4"/><radialGradient id="radial-gradient" cx="-274.93" cy="0.965" r="22.925" gradientTransform="translate(389.149 184.408) rotate(16.732)" gradientUnits="userSpaceOnUse"><stop offset="0" stop-color="#c0bff6"/><stop offset="1" stop-color="#393091"/></radialGradient><linearGradient id="linear-gradient-6" x1="-285.56" y1="16.022" x2="-272.006" y2="1.387" gradientTransform="translate(389.149 184.408) rotate(16.732)" gradientUnits="userSpaceOnUse"><stop offset="0" stop-color="#2fd3c7"/><stop offset="0.088" stop-color="#31b6bd"/><stop offset="0.229" stop-color="#338db0"/><stop offset="0.373" stop-color="#356ba5"/><stop offset="0.521" stop-color="#37519c"/><stop offset="0.671" stop-color="#383f96"/><stop offset="0.828" stop-color="#393492"/><stop offset="1" stop-color="#393091"/></linearGradient><radialGradient id="radial-gradient-2" cx="2314.695" cy="3675.083" r="14.878" gradientTransform="translate(-3332.899 2740.098) rotate(-95.106)" gradientUnits="userSpaceOnUse"><stop offset="0" stop-color="#42e8e0"/><stop offset="0.106" stop-color="#37b6bf"/><stop offset="0.22" stop-color="#2c87a1"/><stop offset="0.338" stop-color="#235f87"/><stop offset="0.459" stop-color="#1c3f72"/><stop offset="0.582" stop-color="#162561"/><stop offset="0.711" stop-color="#121355"/><stop offset="0.846" stop-color="#10084e"/><stop offset="1" stop-color="#0f054c"/></radialGradient><radialGradient id="radial-gradient-3" cx="39.588" cy="-79.887" r="70.158" gradientTransform="translate(143.586 117.634) rotate(11.186)" xlink:href="#radial-gradient"/><linearGradient id="linear-gradient-7" x1="-508.867" y1="594.9" x2="-484.547" y2="594.9" gradientTransform="matrix(0.537, -0.843, 0.843, 0.537, -94.773, -652.545)" gradientUnits="userSpaceOnUse"><stop offset="0" stop-color="#706ec4"/><stop offset="0.022" stop-color="#6d6bc2"/><stop offset="0.251" stop-color="#5651ac"/><stop offset="0.486" stop-color="#463f9d"/><stop offset="0.731" stop-color="#3c3494"/><stop offset="1" stop-color="#393091"/></linearGradient><radialGradient id="radial-gradient-4" cx="1041.769" cy="429.372" r="69.31" gradientTransform="translate(-622.954 -353.302) scale(0.778 1.059)" xlink:href="#radial-gradient"/><linearGradient id="linear-gradient-8" x1="1018.102" y1="475.81" x2="1018.102" y2="406.516" gradientTransform="translate(-622.954 -353.302) scale(0.778 1.059)" xlink:href="#linear-gradient-6"/><radialGradient id="radial-gradient-5" cx="402.331" cy="296.718" r="41.743" gradientTransform="translate(-310.189 -194.951)" xlink:href="#radial-gradient-2"/><radialGradient id="radial-gradient-6" cx="424.382" cy="250.582" r="54.096" gradientTransform="translate(-310.189 -194.951)" xlink:href="#radial-gradient"/><linearGradient id="linear-gradient-9" x1="404.408" y1="273.828" x2="404.408" y2="200.494" gradientTransform="translate(-310.189 -194.951)" xlink:href="#linear-gradient-6"/><radialGradient id="radial-gradient-7" cx="394.441" cy="297.463" r="26.571" gradientTransform="translate(-234.034 -234.139)" gradientUnits="userSpaceOnUse"><stop offset="0" stop-color="#42e8e0"/><stop offset="0.059" stop-color="#3ccbcd"/><stop offset="0.178" stop-color="#3098ac"/><stop offset="0.3" stop-color="#266b8f"/><stop offset="0.421" stop-color="#1e4777"/><stop offset="0.541" stop-color="#172a65"/><stop offset="0.662" stop-color="#131657"/><stop offset="0.782" stop-color="#100a50"/><stop offset="0.902" stop-color="#0f064d"/><stop offset="1" stop-color="#0f054c"/></radialGradient><radialGradient id="radial-gradient-8" cx="64.08" cy="-22.439" r="25.357" gradientTransform="translate(147.171 95.644) rotate(32.625)" xlink:href="#radial-gradient"/><linearGradient id="linear-gradient-10" x1="50.262" y1="-4.386" x2="66.786" y2="-22.231" gradientTransform="translate(147.171 95.644) rotate(32.625)" xlink:href="#linear-gradient-6"/><radialGradient id="radial-gradient-9" cx="441.691" cy="351.545" r="22.646" gradientTransform="translate(-234.034 -234.139)" xlink:href="#radial-gradient-2"/><radialGradient id="radial-gradient-10" cx="423.46" cy="-1562.362" r="21.346" gradientTransform="translate(-310.189 2052.994) scale(1 1.285)" gradientUnits="userSpaceOnUse"><stop offset="0" stop-color="#2b237c"/><stop offset="0.31" stop-color="#251c72"/><stop offset="1" stop-color="#0f054c"/></radialGradient><linearGradient id="linear-gradient-11" x1="440.247" y1="269.565" x2="409.896" y2="278.795" gradientTransform="translate(-310.189 -194.951)" gradientUnits="userSpaceOnUse"><stop offset="0" stop-color="#bcbeff"/><stop offset="0.151" stop-color="#a3a7f5"/><stop offset="0.387" stop-color="#8289e8"/><stop offset="0.612" stop-color="#6a73df"/><stop offset="0.822" stop-color="#5c66d9"/><stop offset="1" stop-color="#5761d7"/></linearGradient><linearGradient id="linear-gradient-12" x1="434.994" y1="271.491" x2="393.404" y2="276.446" xlink:href="#linear-gradient-11"/><linearGradient id="linear-gradient-13" x1="428.756" y1="283.718" x2="450.425" y2="247.876" gradientTransform="translate(-310.189 -194.951)" gradientUnits="userSpaceOnUse"><stop offset="0" stop-color="#42e8e0"/><stop offset="0.119" stop-color="#42e2de"/><stop offset="0.27" stop-color="#41d3d7"/><stop offset="0.439" stop-color="#40b9cc"/><stop offset="0.62" stop-color="#3e94bc"/><stop offset="0.81" stop-color="#3c66a8"/><stop offset="1" stop-color="#393091"/></linearGradient><radialGradient id="radial-gradient-11" cx="-235.009" cy="29.079" r="22.925" gradientTransform="translate(-234.034 -234.139)" xlink:href="#radial-gradient"/><linearGradient id="linear-gradient-14" x1="-194.807" y1="27.815" x2="-181.253" y2="13.18" xlink:href="#linear-gradient-6"/><radialGradient id="radial-gradient-12" cx="2482.908" cy="3922.147" r="14.878" gradientTransform="translate(-234.034 -234.139)" xlink:href="#radial-gradient-2"/><linearGradient id="linear-gradient-15" x1="1572.142" y1="-71.699" x2="1686.324" y2="-137.892" xlink:href="#linear-gradient"/><linearGradient id="linear-gradient-16" x1="1697.257" y1="-130.294" x2="1594.458" y2="-55.029" xlink:href="#linear-gradient-2"/></defs><title>ai-1</title><g id="Ñëîé_1" data-name="Ñëîé 1"><path class="cls-1" d="M252.117,161.339l-65.686,37.922-65.683-37.923,65.685-37.922Z" transform="translate(-76.155 0)"/><path class="cls-2" d="M112.749,161.407c-.008.465-.007.931.019,1.4l19.056,15.942,30.854,11.485,21.732-4.874,20.783-5.941,21.183-16.305.543-.436a19.274,19.274,0,0,0-.194-3.922l11.241-14.907a33.866,33.866,0,0,1,4.127,6.663l2.478-1.986.011,12.76v.935l-.02.015c-.293,10.8-7.548,21.561-21.807,29.829-29.159,16.907-76.485,17-105.7.2-14.5-8.334-21.805-19.259-21.937-30.217h0v-.46l.028-13.525,2.656,2.221a32.415,32.415,0,0,1,2.227-3.935C103.366,152.023,106.691,159.007,112.749,161.407Z" transform="translate(-76.155 0)"/><path class="cls-3" d="M221.442,130.378c.4.22.806.43,1.2.655a51.949,51.949,0,0,1,15.324,12.816l-11.237,14.9c-1.106-7.484-6.6-14.786-16.534-20.5-22.331-12.837-58.5-12.769-80.781.152-10.989,6.372-16.528,14.679-16.661,23-6.058-2.4-9.381-9.384-12.731-15.066a45.2,45.2,0,0,1,11.46-11.58l-2.571.534s17.568-15.257,18.218-15.4,35.81-9.459,35.81-9.459l39.584,3.478Z" transform="translate(-76.155 0)"/><ellipse class="cls-4" cx="168.79" cy="152.737" rx="57.121" ry="32.979" transform="translate(-76.442 0.319) rotate(-0.108)"/><ellipse class="cls-5" cx="168.694" cy="156.732" rx="57.121" ry="32.979" transform="translate(-76.45 0.318) rotate(-0.108)"/><path class="cls-6" d="M222.621,117.621c-29.22-16.8-76.546-16.709-105.7.2s-29.109,44.228.112,61.028,76.546,16.71,105.7-.2S251.842,134.419,222.621,117.621Zm-12.449,7.218c22.331,12.838,22.369,33.718.086,46.639s-58.45,12.988-80.781.151-22.368-33.718-.085-46.639,58.45-12.988,80.78-.151Z" transform="translate(-76.155 0)"/><path class="cls-6" d="M222.621,117.621c-29.22-16.8-76.546-16.709-105.7.2s-29.109,44.228.112,61.028,76.546,16.71,105.7-.2S251.842,134.419,222.621,117.621Zm-12.449,7.218c22.331,12.838,22.369,33.718.086,46.639s-58.45,12.988-80.781.151-22.368-33.718-.085-46.639,58.45-12.988,80.78-.151Z" transform="translate(-76.155 0)"/><path class="cls-7" d="M116.646,177.7c29.22,16.8,76.546,16.709,105.7-.2,17.948-10.407,24.811-24.758,20.636-38.174,4.944,13.74-1.793,28.617-20.253,39.321-29.158,16.907-76.484,17-105.7.2-11.235-6.459-18.14-14.475-20.748-22.855C99.146,163.961,105.924,171.538,116.646,177.7Z" transform="translate(-76.155 0)"/><path class="cls-7" d="M129.009,123.849c22.283-12.921,58.45-12.988,80.781-.151,8.651,4.973,13.94,11.155,15.9,17.612-2.215-6.04-7.378-11.788-15.516-16.466-22.33-12.837-58.5-12.769-80.78.151-13.651,7.915-18.909,18.816-15.813,29.027C109.715,143.482,114.846,132.061,129.009,123.849Z" transform="translate(-76.155 0)"/><ellipse class="cls-8" cx="170.046" cy="111.866" rx="74.937" ry="43.265" transform="translate(-76.365 0.321) rotate(-0.108)"/><path class="cls-9" d="M244.579,56.661,207.788,75.643l-46.1,16.75L117.031,73.768,95.08,54.891v93.164h.013c-.122,11.15,7.185,22.312,21.936,30.792,29.22,16.8,76.546,16.71,105.7-.2,14.6-8.464,21.872-19.538,21.835-30.6h.011Z" transform="translate(-76.155 0)"/><path class="cls-10" d="M141.872,172.023a1.817,1.817,0,1,0-2.569-.082,1.816,1.816,0,0,0,2.569.082Z" transform="translate(-76.155 0)"/><path class="cls-11" d="M162.9,170.449a1.818,1.818,0,1,0-2.57-.082h0a1.817,1.817,0,0,0,2.568.082Z" transform="translate(-76.155 0)"/><path class="cls-10" d="M157.709,142.276a1.956,1.956,0,1,0-2.765-.089h0a1.956,1.956,0,0,0,2.763.089Z" transform="translate(-76.155 0)"/><path class="cls-10" d="M155.516,147.836a1.168,1.168,0,1,0-1.651-.052,1.168,1.168,0,0,0,1.651.052Z" transform="translate(-76.155 0)"/><path class="cls-12" d="M153.1,144.949a.751.751,0,1,0-1.062-.033A.752.752,0,0,0,153.1,144.949Z" transform="translate(-76.155 0)"/><path class="cls-12" d="M158.11,161.6a.751.751,0,1,0-1.062-.034A.753.753,0,0,0,158.11,161.6Z" transform="translate(-76.155 0)"/><path class="cls-10" d="M147.513,140.1a.228.228,0,1,0-.322-.01h0a.226.226,0,0,0,.319.013l0,0Z" transform="translate(-76.155 0)"/><path class="cls-12" d="M148.883,149.534a.228.228,0,1,0-.322-.01h0A.228.228,0,0,0,148.883,149.534Z" transform="translate(-76.155 0)"/><path class="cls-12" d="M151.824,167.5a.228.228,0,1,0-.322-.01h0A.228.228,0,0,0,151.824,167.5Z" transform="translate(-76.155 0)"/><path class="cls-12" d="M149.741,164.638a.228.228,0,1,0-.323-.011A.231.231,0,0,0,149.741,164.638Z" transform="translate(-76.155 0)"/><path class="cls-10" d="M141.972,150.814a2.774,2.774,0,1,0-3.922-.124,2.773,2.773,0,0,0,3.922.124Z" transform="translate(-76.155 0)"/><path class="cls-11" d="M127.032,156.212a1.38,1.38,0,1,0-1.951-.062A1.381,1.381,0,0,0,127.032,156.212Z" transform="translate(-76.155 0)"/><path class="cls-10" d="M151.994,156.18a1.38,1.38,0,1,0-1.951-.062A1.381,1.381,0,0,0,151.994,156.18Z" transform="translate(-76.155 0)"/><path class="cls-10" d="M141.966,133.4a1.38,1.38,0,1,0-1.951-.061A1.381,1.381,0,0,0,141.966,133.4Z" transform="translate(-76.155 0)"/><path class="cls-10" d="M124.532,143.322a1.38,1.38,0,1,0-1.951-.062A1.381,1.381,0,0,0,124.532,143.322Z" transform="translate(-76.155 0)"/><path class="cls-10" d="M171.9,147.623a1.38,1.38,0,1,0-1.951-.062A1.381,1.381,0,0,0,171.9,147.623Z" transform="translate(-76.155 0)"/><path class="cls-10" d="M161.925,123.461a1.38,1.38,0,1,0-1.951-.062A1.381,1.381,0,0,0,161.925,123.461Z" transform="translate(-76.155 0)"/><path class="cls-11" d="M180.1,126.049a.665.665,0,1,0-.94-.029h0a.664.664,0,0,0,.939.03Z" transform="translate(-76.155 0)"/><path class="cls-10" d="M146,167.37a.809.809,0,1,0-1.144-.037h0A.81.81,0,0,0,146,167.37Z" transform="translate(-76.155 0)"/><path class="cls-11" d="M144.429,144.455a.809.809,0,1,0-1.144-.037h0A.81.81,0,0,0,144.429,144.455Z" transform="translate(-76.155 0)"/><path class="cls-11" d="M134.066,144.149a.546.546,0,1,0-.772-.024.546.546,0,0,0,.772.024Z" transform="translate(-76.155 0)"/><path class="cls-11" d="M132.516,144.1a.793.793,0,1,0-1.121-.035.793.793,0,0,0,1.121.035Z" transform="translate(-76.155 0)"/><path class="cls-11" d="M132.24,145.992a.439.439,0,1,0-.621-.02h0a.439.439,0,0,0,.619.02Z" transform="translate(-76.155 0)"/><path class="cls-10" d="M139.852,159.037a.571.571,0,1,0-.807-.027h0a.569.569,0,0,0,.8.028l0,0Z" transform="translate(-76.155 0)"/><path class="cls-10" d="M156.466,161.361a.57.57,0,1,0-.806-.025A.571.571,0,0,0,156.466,161.361Z" transform="translate(-76.155 0)"/><path class="cls-11" d="M143.388,159.921a1.358,1.358,0,1,0-1.361-1.356,1.357,1.357,0,0,0,1.361,1.356Z" transform="translate(-76.155 0)"/><path class="cls-13" d="M128.466,112.649c-1.285,4.268-8.186,12.563-12.454,11.278s-4.285-11.663-3-15.931a8.071,8.071,0,0,1,15.5,4.509h0C128.5,112.554,128.481,112.6,128.466,112.649Z" transform="translate(-76.155 0)"/><path class="cls-14" d="M128.466,112.649c-1.285,4.268-8.186,12.563-12.454,11.278s-4.285-11.663-3-15.931a8.071,8.071,0,0,1,15.5,4.509h0C128.5,112.554,128.481,112.6,128.466,112.649Z" transform="translate(-76.155 0)"/><path class="cls-15" d="M120.252,102.649a7.8,7.8,0,0,1,6.4,2.972c1.3,1.842.527,3.5-1.715,3.7a7.8,7.8,0,0,1-6.4-2.972C117.242,104.5,118.01,102.849,120.252,102.649Z" transform="translate(-76.155 0)"/><path class="cls-16" d="M120.252,102.649a7.8,7.8,0,0,1,6.4,2.972c1.3,1.842.527,3.5-1.715,3.7a7.8,7.8,0,0,1-6.4-2.972C117.242,104.5,118.01,102.849,120.252,102.649Z" transform="translate(-76.155 0)"/><path class="cls-11" d="M117.912,104.736a3.036,3.036,0,0,1,1.707-.625,7.8,7.8,0,0,1,6.4,2.972,3.116,3.116,0,0,1,.624,1.607c.814-.684.879-1.835.009-3.072a7.8,7.8,0,0,0-6.4-2.972C118.7,102.785,117.855,103.622,117.912,104.736Z" transform="translate(-76.155 0)"/><path class="cls-17" d="M127.773,100.461a.635.635,0,1,0,.62.65h0a.634.634,0,0,0-.619-.649h0Z" transform="translate(-76.155 0)"/><path class="cls-11" d="M121.775,96.033a1.564,1.564,0,1,0,.011,0Z" transform="translate(-76.155 0)"/><path class="cls-17" d="M130.966,92.418a.9.9,0,1,0,.878.922h0a.9.9,0,0,0-.877-.922Z" transform="translate(-76.155 0)"/><path class="cls-11" d="M127.371,93.131a.615.615,0,1,0,.6.63h0A.617.617,0,0,0,127.371,93.131Z" transform="translate(-76.155 0)"/><path class="cls-11" d="M128.052,91.749a.421.421,0,1,0,.411.431A.422.422,0,0,0,128.052,91.749Z" transform="translate(-76.155 0)"/><path class="cls-17" d="M122.871,103.59a.891.891,0,1,0,.87.912h0a.891.891,0,0,0-.87-.912Z" transform="translate(-76.155 0)"/><path class="cls-11" d="M125.571,103.294a1.332,1.332,0,1,0,1.3,1.363h0A1.332,1.332,0,0,0,125.571,103.294Z" transform="translate(-76.155 0)"/><path class="cls-18" d="M151.821,88.155a12.154,12.154,0,1,1-9.563-14.283,12.153,12.153,0,0,1,9.563,14.283Z" transform="translate(-76.155 0)"/><path class="cls-19" d="M146.428,75.543a12.154,12.154,0,1,1-16.781,3.722,12.153,12.153,0,0,1,16.781-3.722Z" transform="translate(-76.155 0)"/><path class="cls-20" d="M200.51,107.861c0,23.593-14.05,42.72-31.381,42.72s-31.381-19.12-31.381-42.72S151.8,77.2,169.129,77.2,200.51,84.272,200.51,107.861Z" transform="translate(-76.155 0)"/><path class="cls-21" d="M200.51,107.861c0,23.593-14.05,42.72-31.381,42.72s-31.381-19.12-31.381-42.72S151.8,77.2,169.129,77.2,200.51,84.272,200.51,107.861Z" transform="translate(-76.155 0)"/><ellipse class="cls-15" cx="92.974" cy="89.886" rx="21.417" ry="12.365"/><ellipse class="cls-22" cx="92.974" cy="89.886" rx="21.417" ry="12.365"/><path class="cls-11" d="M153.985,84.436c8.363-4.828,21.924-4.828,30.288,0,3.455,1.994,5.479,4.5,6.079,7.1.854-3.689-1.169-7.557-6.079-10.391-8.364-4.829-21.925-4.829-30.288,0-4.909,2.834-6.933,6.7-6.079,10.39C148.507,88.938,150.53,86.431,153.985,84.436Z" transform="translate(-76.155 0)"/><path class="cls-6" d="M159.786,44.2c0,5.761-4.045,12.765-9.033,15.646s-9.034.545-9.034-5.215,4.047-12.77,9.034-15.646S159.786,38.439,159.786,44.2Z" transform="translate(-76.155 0)"/><circle class="cls-23" cx="94.219" cy="60.372" r="32.006"/><circle class="cls-24" cx="94.219" cy="60.372" r="32.006"/><path class="cls-15" d="M160.388,75.532c-.817,6.294-5.567,8.271-10.61,4.416s-8.466-12.087-7.649-18.377,5.568-8.271,10.61-4.416S161.206,69.238,160.388,75.532Z" transform="translate(-76.155 0)"/><path class="cls-25" d="M160.388,75.532c-.817,6.294-5.567,8.271-10.61,4.416s-8.466-12.087-7.649-18.377,5.568-8.271,10.61-4.416S161.206,69.238,160.388,75.532Z" transform="translate(-76.155 0)"/><path class="cls-11" d="M156.225,70.082c-.3,2.288-2.024,3.006-3.856,1.6A8,8,0,0,1,149.589,65c.3-2.288,2.023-3.006,3.856-1.6A8,8,0,0,1,156.225,70.082Z" transform="translate(-76.155 0)"/><path class="cls-11" d="M152.2,79.03c-5.042-3.855-8.466-12.083-7.649-18.377a7.757,7.757,0,0,1,2.715-5.441c-2.636.247-4.632,2.483-5.136,6.359-.817,6.294,2.607,14.521,7.649,18.377,2.987,2.283,5.871,2.52,7.9,1.026A7.979,7.979,0,0,1,152.2,79.03Z" transform="translate(-76.155 0)"/><path class="cls-11" d="M150.213,79.743c-5.043-3.855-8.467-12.083-7.65-18.377.379-2.914,1.6-4.9,3.3-5.812-1.928.793-3.328,2.861-3.738,6.017-.817,6.294,2.607,14.522,7.649,18.377,2.707,2.07,5.328,2.452,7.3,1.4C155.166,82.131,152.726,81.661,150.213,79.743Z" transform="translate(-76.155 0)"/><circle class="cls-26" cx="203.622" cy="115.982" r="12.154" transform="translate(-104.443 82.342) rotate(-21.412)"/><circle class="cls-27" cx="203.622" cy="115.982" r="12.154" transform="translate(-104.443 82.342) rotate(-21.412)"/><path class="cls-15" d="M215.3,116.22a11.877,11.877,0,0,1-5.373,9.306c-2.968,1.713-5.373.324-5.373-3.1a11.872,11.872,0,0,1,5.373-9.306C212.9,111.4,215.3,112.793,215.3,116.22Z" transform="translate(-76.155 0)"/><path class="cls-28" d="M215.3,116.22a11.877,11.877,0,0,1-5.373,9.306c-2.968,1.713-5.373.324-5.373-3.1a11.872,11.872,0,0,1,5.373-9.306C212.9,111.4,215.3,112.793,215.3,116.22Z" transform="translate(-76.155 0)"/><path class="cls-11" d="M212.451,112.389a4.61,4.61,0,0,1,.717,2.672,11.877,11.877,0,0,1-5.373,9.306,4.76,4.76,0,0,1-2.522.729c.927,1.326,2.663,1.58,4.657.43a11.877,11.877,0,0,0,5.373-9.306C215.3,113.849,214.147,112.449,212.451,112.389Z" transform="translate(-76.155 0)"/><polygon class="cls-15" points="121.232 72.08 109.638 78.774 109.638 65.387 121.232 58.693 121.232 72.08"/><polygon class="cls-29" points="119.509 59.688 119.509 71.146 109.638 76.845 109.638 78.774 121.232 72.08 121.232 58.693 119.509 59.688"/><polygon class="cls-11" points="111.852 69.044 110.813 69.644 110.813 68.445 111.852 67.845 111.852 69.044"/><polygon class="cls-11" points="114.056 66.235 113.018 66.834 113.018 65.635 114.056 65.035 114.056 66.235"/><polygon class="cls-11" points="116.26 66.499 115.222 67.099 115.222 65.9 116.26 65.3 116.26 66.499"/><polygon class="cls-11" points="116.26 69.644 115.222 70.244 115.222 69.044 116.26 68.445 116.26 69.644"/><polygon class="cls-11" points="114.933 72.063 113.895 72.662 113.895 71.463 114.933 70.863 114.933 72.063"/><polygon class="cls-11" points="118.534 68.331 117.495 68.931 117.495 67.732 118.534 67.132 118.534 68.331"/><polygon class="cls-30" points="130.575 68.551 131.845 66.352 130.575 65.621 118.982 72.315 118.982 85.702 120.251 86.432 121.519 84.237 130.575 79.008 130.575 68.551"/><polygon class="cls-31" points="131.845 79.739 120.251 86.432 120.251 73.045 131.845 66.352 131.845 79.739"/><polygon class="cls-32" points="131.845 79.739 120.251 86.432 120.251 73.045 131.845 66.352 131.845 79.739"/><path class="cls-33" d="M211.966,150.11c-1.284,4.268-8.186,12.563-12.454,11.278s-4.285-11.664-3-15.931a8.071,8.071,0,0,1,15.5,4.509h0C212,150.014,211.981,150.062,211.966,150.11Z" transform="translate(-76.155 0)"/><path class="cls-34" d="M211.966,150.11c-1.284,4.268-8.186,12.563-12.454,11.278s-4.285-11.664-3-15.931a8.071,8.071,0,0,1,15.5,4.509h0C212,150.014,211.981,150.062,211.966,150.11Z" transform="translate(-76.155 0)"/><path class="cls-15" d="M203.751,140.106a7.8,7.8,0,0,1,6.4,2.972c1.294,1.842.526,3.5-1.716,3.7a7.8,7.8,0,0,1-6.4-2.972C200.741,141.961,201.509,140.306,203.751,140.106Z" transform="translate(-76.155 0)"/><path class="cls-35" d="M203.751,140.106a7.8,7.8,0,0,1,6.4,2.972c1.294,1.842.526,3.5-1.716,3.7a7.8,7.8,0,0,1-6.4-2.972C200.741,141.961,201.509,140.306,203.751,140.106Z" transform="translate(-76.155 0)"/><path class="cls-11" d="M201.411,142.2a3.016,3.016,0,0,1,1.707-.625,7.8,7.8,0,0,1,6.4,2.972,3.117,3.117,0,0,1,.625,1.607c.813-.684.878-1.835.009-3.072a7.8,7.8,0,0,0-6.4-2.972C202.2,140.249,201.354,141.082,201.411,142.2Z" transform="translate(-76.155 0)"/><path class="cls-17" d="M210.087,134.982a.635.635,0,1,0-.9-.029.635.635,0,0,0,.9.029Z" transform="translate(-76.155 0)"/><path class="cls-11" d="M217.471,133.937a1.606,1.606,0,1,0-2.27-.072h0A1.606,1.606,0,0,0,217.471,133.937Z" transform="translate(-76.155 0)"/><path class="cls-17" d="M213.452,142.961a.9.9,0,1,0-1.272-.042h0A.9.9,0,0,0,213.452,142.961Z" transform="translate(-76.155 0)"/><path class="cls-11" d="M215.516,139.929a.615.615,0,1,0-.87-.027.615.615,0,0,0,.87.027Z" transform="translate(-76.155 0)"/><path class="cls-11" d="M216,141.392a.421.421,0,1,0-.595-.019h0A.422.422,0,0,0,216,141.392Z" transform="translate(-76.155 0)"/><path class="cls-17" d="M211.391,129.317a.891.891,0,1,0-1.259-.04h0a.89.89,0,0,0,1.258.041h0Z" transform="translate(-76.155 0)"/><path class="cls-11" d="M209.673,131.421a1.332,1.332,0,1,0-1.883-.06A1.333,1.333,0,0,0,209.673,131.421Z" transform="translate(-76.155 0)"/><path class="cls-36" d="M223.089,140.549c-29.233,16.951-76.681,17.04-105.976.2-14.268-8.2-21.578-18.907-21.968-29.69-.406,11.385,6.9,22.835,21.968,31.494,29.3,16.841,76.743,16.753,105.976-.2,15-8.7,22.266-20.139,21.855-31.5C244.56,121.619,237.291,132.319,223.089,140.549Z" transform="translate(-76.155 0)"/><path class="cls-37" d="M222.631,142.59c-29.22,16.8-76.546,16.709-105.7-.2-14.6-8.464-21.872-19.538-21.834-30.595H95.08v36.254h.012c-.038,11.057,7.238,22.131,21.834,30.6,29.159,16.907,76.485,17,105.705.2,14.751-8.48,22.057-19.642,21.936-30.792h.012V111.8h-.013C244.688,122.949,237.382,134.11,222.631,142.59Z" transform="translate(-76.155 0)"/><path class="cls-38" d="M95.08,56.661l36.791,18.982,46.1,16.75,44.657-18.625,21.948-18.877v93.164h-.01c.121,11.15-7.185,22.312-21.936,30.792-29.22,16.8-76.546,16.71-105.7-.2-14.6-8.464-21.872-19.538-21.834-30.6h-.012Z" transform="translate(-76.155 0)"/><path class="cls-39" d="M112.749,56.327c-.008.466-.007.931.019,1.4l19.056,15.934,30.854,11.488,21.732-4.874,20.783-5.941,21.183-16.3.543-.436a19.288,19.288,0,0,0-.194-3.923l11.237-14.9a33.845,33.845,0,0,1,4.127,6.664l2.477-1.985.011,12.761v.935l-.02.015c-.293,10.8-7.548,21.56-21.807,29.828-29.159,16.907-76.485,17-105.7.2-14.5-8.334-21.8-19.258-21.937-30.216h0v-.46l.028-13.526L97.8,45.207a32.839,32.839,0,0,1,2.227-3.935C103.366,46.943,106.691,53.927,112.749,56.327Z" transform="translate(-76.155 0)"/><path class="cls-40" d="M221.442,25.3c.4.219.806.429,1.2.655a51.991,51.991,0,0,1,15.324,12.812q-5.618,7.452-11.237,14.9c-1.106-7.484-6.6-14.786-16.534-20.5-22.331-12.837-58.5-12.77-80.781.151-10.989,6.372-16.528,14.68-16.661,23-6.058-2.4-9.381-9.384-12.731-15.066a45.181,45.181,0,0,1,11.46-11.579l-2.571.534s17.568-15.257,18.218-15.4,35.81-9.459,35.81-9.459l39.584,3.478Z" transform="translate(-76.155 0)"/><path class="cls-6" d="M222.621,12.541c-29.22-16.8-76.546-16.709-105.7.2s-29.109,44.231.112,61.029,76.546,16.709,105.7-.2S251.842,29.339,222.621,12.541Zm-12.449,7.22C232.5,32.6,232.541,53.479,210.258,66.4s-58.45,12.989-80.781.152-22.368-33.718-.085-46.639S187.842,6.923,210.172,19.761Z" transform="translate(-76.155 0)"/><path class="cls-6" d="M222.621,12.541c-29.22-16.8-76.546-16.709-105.7.2s-29.109,44.231.112,61.029,76.546,16.709,105.7-.2S251.842,29.339,222.621,12.541Zm-12.449,7.22C232.5,32.6,232.541,53.479,210.258,66.4s-58.45,12.989-80.781.152-22.368-33.718-.085-46.639S187.842,6.923,210.172,19.761Z" transform="translate(-76.155 0)"/><path class="cls-7" d="M116.646,72.622c29.22,16.8,76.546,16.709,105.7-.2,17.948-10.407,24.811-24.759,20.636-38.174,4.944,13.739-1.793,28.616-20.253,39.32-29.158,16.907-76.484,17-105.7.2-11.235-6.458-18.14-14.474-20.748-22.855C99.146,58.876,105.924,66.461,116.646,72.622Z" transform="translate(-76.155 0)"/><path class="cls-7" d="M129.009,18.761c22.283-12.921,58.45-12.989,80.781-.152,8.651,4.973,13.94,11.155,15.9,17.612-2.215-6.04-7.378-11.787-15.516-16.465-22.33-12.838-58.5-12.77-80.78.151-13.651,7.915-18.909,18.816-15.813,29.026C109.715,38.4,114.846,26.976,129.009,18.761Z" transform="translate(-76.155 0)"/><path class="cls-11" d="M85.771,181.407a1.869,1.869,0,1,0-2.643-.084A1.87,1.87,0,0,0,85.771,181.407Z" transform="translate(-76.155 0)"/><path class="cls-10" d="M80.434,152.429a2.011,2.011,0,1,0-2.843-.091A2.012,2.012,0,0,0,80.434,152.429Z" transform="translate(-76.155 0)"/><path class="cls-10" d="M78.178,158.149a1.2,1.2,0,1,0-1.7-.054,1.2,1.2,0,0,0,1.7.054Z" transform="translate(-76.155 0)"/><path class="cls-12" d="M80.847,172.3a.773.773,0,1,0-1.093-.034A.774.774,0,0,0,80.847,172.3Z" transform="translate(-76.155 0)"/><path class="cls-10" d="M95.03,157.928a1.42,1.42,0,1,0-2.007-.065h0a1.419,1.419,0,0,0,2.006.064h0Z" transform="translate(-76.155 0)"/><path class="cls-10" d="M84.766,133.079a1.42,1.42,0,1,0-2.007-.065h0A1.42,1.42,0,0,0,84.766,133.079Z" transform="translate(-76.155 0)"/><path class="cls-11" d="M103.466,135.739a.684.684,0,1,0-.967-.031A.685.685,0,0,0,103.466,135.739Z" transform="translate(-76.155 0)"/><path class="cls-10" d="M79.152,172.061a.586.586,0,1,0-.829-.026.585.585,0,0,0,.829.026Z" transform="translate(-76.155 0)"/><path class="cls-10" d="M226.227,175.249A2.579,2.579,0,1,0,226,178.89a2.579,2.579,0,0,0,.232-3.641Z" transform="translate(-76.155 0)"/><path class="cls-10" d="M233.466,178.379a1.54,1.54,0,1,0-.138,2.174,1.54,1.54,0,0,0,.138-2.174Z" transform="translate(-76.155 0)"/><path class="cls-12" d="M229.56,181.449a.991.991,0,1,0-.089,1.4A.992.992,0,0,0,229.56,181.449Z" transform="translate(-76.155 0)"/><path class="cls-12" d="M251.718,175.538a.991.991,0,1,0-.089,1.4A.992.992,0,0,0,251.718,175.538Z" transform="translate(-76.155 0)"/><path class="cls-10" d="M222.926,188.6a.3.3,0,1,0-.027.424.3.3,0,0,0,.027-.424Z" transform="translate(-76.155 0)"/><path class="cls-12" d="M235.424,187.2a.3.3,0,1,0-.027.424.3.3,0,0,0,.027-.424Z" transform="translate(-76.155 0)"/><path class="cls-12" d="M255.373,186.7a.3.3,0,1,0-.027.424.3.3,0,0,0,.027-.424Z" transform="translate(-76.155 0)"/><path class="cls-10" d="M236.822,196.361a3.66,3.66,0,1,0-.33,5.166h0a3.659,3.659,0,0,0,.331-5.163Z" transform="translate(-76.155 0)"/><path class="cls-10" d="M244.317,183.373a1.821,1.821,0,1,0-.165,2.57h0a1.82,1.82,0,0,0,.164-2.569h0Z" transform="translate(-76.155 0)"/><path class="cls-10" d="M213.866,195.63a1.821,1.821,0,1,0-.165,2.57h0a1.82,1.82,0,0,0,.164-2.569h0Z" transform="translate(-76.155 0)"/><path class="cls-10" d="M233.874,156.768a1.821,1.821,0,1,0-.165,2.57h0a1.82,1.82,0,0,0,.164-2.569h0Z" transform="translate(-76.155 0)"/><path class="cls-10" d="M201.6,168.9a1.82,1.82,0,1,0-.163,2.569A1.821,1.821,0,0,0,201.6,168.9Z" transform="translate(-76.155 0)"/><path class="cls-11" d="M205.774,145.049a.877.877,0,1,0-.079,1.238.877.877,0,0,0,.079-1.238Z" transform="translate(-76.155 0)"/><path class="cls-11" d="M228.541,192.854a1.066,1.066,0,1,0-.1,1.5l0,0h0A1.065,1.065,0,0,0,228.541,192.854Z" transform="translate(-76.155 0)"/><path class="cls-10" d="M247.573,199.5a.752.752,0,1,0-.067,1.061h0A.753.753,0,0,0,247.573,199.5Z" transform="translate(-76.155 0)"/><path class="cls-10" d="M251.341,177.7a.752.752,0,1,0-.068,1.061h0A.753.753,0,0,0,251.341,177.7Z" transform="translate(-76.155 0)"/><path class="cls-11" d="M248.887,194.876a1.851,1.851,0,1,0-.166,2.613,1.85,1.85,0,0,0,.166-2.613Z" transform="translate(-76.155 0)"/><path class="cls-10" d="M234.431,107.5a2.87,2.87,0,1,1-.429,4.036h0A2.87,2.87,0,0,1,234.431,107.5Z" transform="translate(-76.155 0)"/><path class="cls-11" d="M241.439,74.949a2.87,2.87,0,1,1-.429,4.036h0A2.87,2.87,0,0,1,241.439,74.949Z" transform="translate(-76.155 0)"/><path class="cls-12" d="M254.252,84.361a1.186,1.186,0,1,1-.178,1.669,1.186,1.186,0,0,1,.178-1.669Z" transform="translate(-76.155 0)"/><path class="cls-12" d="M243.666,92.91a.36.36,0,1,1-.054.506h0a.359.359,0,0,1,.053-.5Z" transform="translate(-76.155 0)"/><path class="cls-12" d="M247.685,96.788a.36.36,0,1,1-.054.506h0a.359.359,0,0,1,.053-.5Z" transform="translate(-76.155 0)"/><path class="cls-10" d="M242.6,102.055a1.3,1.3,0,1,1-.006,0Z" transform="translate(-76.155 0)"/><path class="cls-10" d="M254.3,113.468a.9.9,0,1,1-.134,1.266.9.9,0,0,1,.134-1.266Z" transform="translate(-76.155 0)"/><path class="cls-10" d="M254.26,86.984a.9.9,0,1,1-.135,1.266.9.9,0,0,1,.135-1.266Z" transform="translate(-76.155 0)"/></g></svg>