<svg id="Layer_1" data-name="Layer 1" xmlns="http://www.w3.org/2000/svg" xmlns:xlink="http://www.w3.org/1999/xlink" viewBox="0 0 396.822 229.104"><defs><style>.cls-1,.cls-12,.cls-13,.cls-14,.cls-15,.cls-16,.cls-17,.cls-18{opacity:0.5;}.cls-1,.cls-12,.cls-13,.cls-14,.cls-15,.cls-16,.cls-17,.cls-18,.cls-19,.cls-7{isolation:isolate;}.cls-1{fill:url(#radial-gradient);}.cls-2{opacity:0.9;}.cls-3{fill:#080344;}.cls-16,.cls-19,.cls-4{fill:#42e8e0;}.cls-5{fill:url(#linear-gradient);}.cls-6{fill:url(#linear-gradient-2);}.cls-7{fill:#180d5b;opacity:0.1;}.cls-8{fill:#fff;}.cls-9{fill:url(#linear-gradient-3);}.cls-10{fill:#bcbeff;}.cls-11{fill:#0f054c;}.cls-12{fill:url(#linear-gradient-4);}.cls-13{fill:url(#linear-gradient-5);}.cls-14{fill:url(#linear-gradient-6);}.cls-15{fill:url(#linear-gradient-7);}.cls-17{fill:url(#linear-gradient-8);}.cls-18{fill:url(#linear-gradient-9);}.cls-19{opacity:0.8;}</style><radialGradient id="radial-gradient" cx="-2748.058" cy="27.916" r="162.004" gradientTransform="matrix(0.866, 0.5, 0.866, -0.5, 2554.054, 1502.539)" gradientUnits="userSpaceOnUse"><stop offset="0" stop-color="#42e8e0"/><stop offset="0.158" stop-color="#33adb8" stop-opacity="0.74"/><stop offset="0.316" stop-color="#267994" stop-opacity="0.515"/><stop offset="0.47" stop-color="#1b4f78" stop-opacity="0.33"/><stop offset="0.618" stop-color="#132e61" stop-opacity="0.186"/><stop offset="0.759" stop-color="#0d1651" stop-opacity="0.083"/><stop offset="0.89" stop-color="#090847" stop-opacity="0.021"/><stop offset="1" stop-color="#080344" stop-opacity="0"/></radialGradient><linearGradient id="linear-gradient" x1="1766.081" y1="-104.734" x2="1484.578" y2="102.167" gradientTransform="translate(1701.108 298.129) rotate(180)" gradientUnits="userSpaceOnUse"><stop offset="0" stop-color="#5761d7"/><stop offset="0.178" stop-color="#5c66d9"/><stop offset="0.388" stop-color="#6a73df"/><stop offset="0.613" stop-color="#8289e8"/><stop offset="0.849" stop-color="#a3a7f5"/><stop offset="1" stop-color="#bcbeff"/></linearGradient><linearGradient id="linear-gradient-2" x1="1185.32" y1="92.993" x2="1597.671" y2="92.993" gradientTransform="translate(1701.108 298.129) rotate(180)" gradientUnits="userSpaceOnUse"><stop offset="0" stop-color="#c0bff6"/><stop offset="0.294" stop-color="#c5c4f7"/><stop offset="0.64" stop-color="#d3d2f9"/><stop offset="1" stop-color="#e9e9fd"/></linearGradient><linearGradient id="linear-gradient-3" x1="1379.965" y1="74.717" x2="1589.337" y2="74.717" gradientTransform="translate(1701.108 197.541) rotate(180)" gradientUnits="userSpaceOnUse"><stop offset="0" stop-color="#5761d7"/><stop offset="0.164" stop-color="#5e67da"/><stop offset="0.405" stop-color="#727ae2"/><stop offset="0.692" stop-color="#9297ee"/><stop offset="1" stop-color="#bcbeff"/></linearGradient><linearGradient id="linear-gradient-4" x1="1439.217" y1="103.009" x2="1564.888" y2="103.009" gradientTransform="translate(1701.108 197.541) rotate(180)" gradientUnits="userSpaceOnUse"><stop offset="0" stop-color="#42e8e0"/><stop offset="0.151" stop-color="#43e3e0"/><stop offset="0.328" stop-color="#45d5df"/><stop offset="0.52" stop-color="#49bddd"/><stop offset="0.721" stop-color="#4e9cdb"/><stop offset="0.927" stop-color="#5472d8"/><stop offset="1" stop-color="#5761d7"/></linearGradient><linearGradient id="linear-gradient-5" x1="1502.052" y1="125.722" x2="1564.888" y2="125.722" xlink:href="#linear-gradient-4"/><linearGradient id="linear-gradient-6" x1="1439.217" y1="125.722" x2="1502.053" y2="125.722" xlink:href="#linear-gradient-4"/><linearGradient id="linear-gradient-7" x1="1439.217" y1="112.157" x2="1564.888" y2="112.157" xlink:href="#linear-gradient-4"/><linearGradient id="linear-gradient-8" x1="1502.053" y1="89.444" x2="1564.888" y2="89.444" xlink:href="#linear-gradient-4"/><linearGradient id="linear-gradient-9" x1="1439.217" y1="89.444" x2="1502.053" y2="89.444" xlink:href="#linear-gradient-4"/></defs><title>chip-1</title><g id="Ñëîé_1" data-name="Ñëîé 1"><ellipse class="cls-1" cx="198.411" cy="114.552" rx="198.411" ry="114.552"/><g class="cls-2"><polygon class="cls-3" points="199.885 179.474 87.687 114.697 199.882 49.92 312.081 114.698 199.885 179.474"/></g><path class="cls-4" d="M199.477,288.461a11.138,11.138,0,0,1-5.415-1.349L75.462,218.64c-1.542-.89-2.426-2.093-2.426-3.3a3.063,3.063,0,0,1,1.758-2.59L194.73,143.505c2.463-1.421,6.773-1.249,9.6.386l118.6,68.472c1.542.89,2.426,2.092,2.426,3.3a3.063,3.063,0,0,1-1.758,2.59L203.666,287.5h0A8.555,8.555,0,0,1,199.477,288.461Zm-.553-145.332a7.933,7.933,0,0,0-3.893.894L75.1,213.267a2.5,2.5,0,0,0-1.462,2.076c0,.988.776,2,2.13,2.784l118.6,68.471c2.669,1.54,6.711,1.715,9.01.386l119.936-69.246a2.5,2.5,0,0,0,1.462-2.076c0-.988-.776-2-2.13-2.782l-118.6-68.472A10.518,10.518,0,0,0,198.924,143.129Zm4.593,144.113Z" transform="translate(0 -100.588)"/><path class="cls-5" d="M73.336,205.135h7.235l114.312-66c2.385-1.377,6.552-1.2,9.306.386L318.035,205.25h7.028v5.779h0a2.756,2.756,0,0,1-1.6,2.342L203.517,282.616c-2.385,1.377-6.552,1.2-9.306-.386l-118.6-68.472c-1.544-.891-2.316-2.04-2.276-3.119h0Z" transform="translate(0 -100.588)"/><path class="cls-6" d="M203.517,276.873l119.94-69.244c2.385-1.377,2.086-3.783-.669-5.373l-118.6-68.472c-2.754-1.59-6.921-1.762-9.306-.385L74.946,202.642c-2.385,1.377-2.086,3.783.668,5.373l118.6,68.472C196.965,278.077,201.132,278.25,203.517,276.873Z" transform="translate(0 -100.588)"/><path class="cls-7" d="M203.219,271.917l111.652-64.462c2.221-1.282,1.942-3.521-.622-5l-110.4-63.742c-2.564-1.48-6.442-1.641-8.663-.359L83.529,202.814c-2.221,1.282-1.942,3.522.622,5l110.406,63.744C197.12,273.039,201,273.2,203.219,271.917Z" transform="translate(0 -100.588)"/><path class="cls-8" d="M75.614,207.351l118.6,68.472c2.754,1.59,6.921,1.763,9.306.386l119.937-69.246a2.9,2.9,0,0,0,1.579-2.011,2.644,2.644,0,0,1-1.579,2.677l-119.94,69.244c-2.385,1.377-6.552,1.2-9.306-.386l-118.6-68.472c-1.66-.959-2.422-2.213-2.247-3.361A4.11,4.11,0,0,0,75.614,207.351Z" transform="translate(0 -100.588)"/><path class="cls-4" d="M207.557,154.688a2.1,2.1,0,0,1-1.057-.275,2.681,2.681,0,0,1-1.163-2.467v-2.564a1.55,1.55,0,0,0-2.579-1.488l-2.221,1.281a.434.434,0,0,1-.434-.752l2.221-1.281a2.391,2.391,0,0,1,3.88,2.24v2.564a1.549,1.549,0,0,0,2.579,1.489l10.632-6.139a.434.434,0,0,1,.451.742l-.018.01-10.631,6.139A3.364,3.364,0,0,1,207.557,154.688Z" transform="translate(0 -100.588)"/><path class="cls-4" d="M211.7,157.066a2.091,2.091,0,0,1-1.056-.274,2.68,2.68,0,0,1-1.164-2.467v-2.564a1.549,1.549,0,0,0-2.579-1.489l-2.22,1.282a.434.434,0,1,1-.434-.752h0l2.221-1.282a2.392,2.392,0,0,1,3.88,2.241v2.568a1.549,1.549,0,0,0,2.58,1.488l10.631-6.138a.434.434,0,0,1,.433.752l-10.63,6.134A3.364,3.364,0,0,1,211.7,157.066Z" transform="translate(0 -100.588)"/><path class="cls-4" d="M215.831,159.445a2.087,2.087,0,0,1-1.058-.275,2.676,2.676,0,0,1-1.162-2.466v-2.565a1.549,1.549,0,0,0-2.58-1.488l-2.22,1.282a.434.434,0,0,1-.433-.752l2.22-1.282a2.391,2.391,0,0,1,3.88,2.24V156.7a1.549,1.549,0,0,0,2.579,1.488l10.631-6.138a.434.434,0,1,1,.434.752h0l-10.631,6.138A3.364,3.364,0,0,1,215.831,159.445Z" transform="translate(0 -100.588)"/><path class="cls-4" d="M219.966,161.829a2.088,2.088,0,0,1-1.058-.276,2.675,2.675,0,0,1-1.162-2.465v-2.565a1.549,1.549,0,0,0-2.579-1.488l-2.221,1.282a.434.434,0,0,1-.451-.742l.018-.01,2.22-1.282a2.391,2.391,0,0,1,3.88,2.24v2.565a1.55,1.55,0,0,0,2.579,1.488l10.632-6.138a.434.434,0,0,1,.434.752h0l-10.632,6.138A3.364,3.364,0,0,1,219.966,161.829Z" transform="translate(0 -100.588)"/><path class="cls-4" d="M224.1,164.2a2.1,2.1,0,0,1-1.058-.276,2.68,2.68,0,0,1-1.162-2.466V158.9a1.549,1.549,0,0,0-2.579-1.488l-2.221,1.281a.434.434,0,1,1-.434-.752l2.221-1.281a2.391,2.391,0,0,1,3.88,2.24v2.564a1.55,1.55,0,0,0,2.58,1.489l10.631-6.139a.434.434,0,0,1,.451.742l-.018.01-10.63,6.139A3.367,3.367,0,0,1,224.1,164.2Z" transform="translate(0 -100.588)"/><path class="cls-4" d="M228.236,166.581a2.083,2.083,0,0,1-1.057-.275,2.676,2.676,0,0,1-1.163-2.467v-2.563a1.55,1.55,0,0,0-2.58-1.489l-2.219,1.282a.434.434,0,0,1-.434-.752l2.22-1.282a2.392,2.392,0,0,1,3.881,2.241v2.563a1.549,1.549,0,0,0,2.579,1.489l10.631-6.138a.434.434,0,0,1,.433.752L229.9,166.08A3.364,3.364,0,0,1,228.236,166.581Z" transform="translate(0 -100.588)"/><path class="cls-4" d="M232.371,168.96a2.086,2.086,0,0,1-1.057-.275,2.676,2.676,0,0,1-1.163-2.467v-2.564a1.549,1.549,0,0,0-2.579-1.488l-2.221,1.282a.434.434,0,0,1-.433-.752l2.221-1.282a2.391,2.391,0,0,1,3.879,2.24v2.564a1.55,1.55,0,0,0,2.58,1.489l10.63-6.138a.434.434,0,0,1,.434.752l-10.631,6.138A3.364,3.364,0,0,1,232.371,168.96Z" transform="translate(0 -100.588)"/><path class="cls-4" d="M236.506,171.338a2.085,2.085,0,0,1-1.057-.274,2.679,2.679,0,0,1-1.163-2.467v-2.568a1.549,1.549,0,0,0-2.579-1.488l-2.221,1.282a.434.434,0,0,1-.451-.742l.018-.01,2.22-1.282a2.391,2.391,0,0,1,3.884,2.24v2.564a1.55,1.55,0,0,0,2.579,1.489l10.632-6.138a.434.434,0,0,1,.434.752h0l-10.632,6.137A3.373,3.373,0,0,1,236.506,171.338Z" transform="translate(0 -100.588)"/><path class="cls-4" d="M240.641,173.717a2.087,2.087,0,0,1-1.058-.275,2.68,2.68,0,0,1-1.162-2.467v-2.563a1.55,1.55,0,0,0-2.579-1.489l-2.221,1.282a.439.439,0,0,1-.593-.16.433.433,0,0,1,.158-.592h0l2.221-1.282a2.391,2.391,0,0,1,3.88,2.241v2.563a1.55,1.55,0,0,0,2.58,1.489l10.631-6.138a.434.434,0,0,1,.451.742l-.018.01-10.63,6.138A3.367,3.367,0,0,1,240.641,173.717Z" transform="translate(0 -100.588)"/><path class="cls-4" d="M244.776,176.1a2.083,2.083,0,0,1-1.057-.275,2.681,2.681,0,0,1-1.163-2.467v-2.563a1.55,1.55,0,0,0-2.58-1.49l-2.219,1.283a.434.434,0,1,1-.434-.752l2.22-1.283a2.392,2.392,0,0,1,3.881,2.242v2.563A1.549,1.549,0,0,0,246,174.843l10.631-6.138a.434.434,0,0,1,.433.752L246.436,175.6A3.364,3.364,0,0,1,244.776,176.1Z" transform="translate(0 -100.588)"/><path class="cls-4" d="M248.911,178.474a2.105,2.105,0,0,1-1.057-.274,2.679,2.679,0,0,1-1.163-2.467V173.17a1.55,1.55,0,0,0-2.579-1.49l-2.221,1.282a.433.433,0,0,1-.433-.751h0l2.221-1.283a2.391,2.391,0,0,1,3.879,2.242v2.559a1.55,1.55,0,0,0,2.58,1.488l10.631-6.137a.434.434,0,0,1,.434.752l-10.632,6.137A3.358,3.358,0,0,1,248.911,178.474Z" transform="translate(0 -100.588)"/><path class="cls-4" d="M253.046,180.853a2.1,2.1,0,0,1-1.057-.274,2.679,2.679,0,0,1-1.163-2.467v-2.565a1.549,1.549,0,0,0-2.579-1.488l-2.221,1.282a.434.434,0,0,1-.451-.742l.018-.01,2.22-1.282a2.391,2.391,0,0,1,3.88,2.24v2.565a1.549,1.549,0,0,0,2.579,1.488l10.632-6.138a.434.434,0,0,1,.434.752l-10.632,6.138A3.364,3.364,0,0,1,253.046,180.853Z" transform="translate(0 -100.588)"/><path class="cls-4" d="M257.181,183.229a2.1,2.1,0,0,1-1.057-.275,2.676,2.676,0,0,1-1.162-2.467v-2.558a1.55,1.55,0,0,0-2.58-1.488l-2.22,1.281a.434.434,0,1,1-.434-.752l2.22-1.281a2.392,2.392,0,0,1,3.881,2.24v2.564a1.549,1.549,0,0,0,2.579,1.489l10.631-6.138a.434.434,0,0,1,.434.752l-10.631,6.133A3.366,3.366,0,0,1,257.181,183.229Z" transform="translate(0 -100.588)"/><path class="cls-4" d="M261.316,185.611a2.1,2.1,0,0,1-1.057-.275,2.68,2.68,0,0,1-1.162-2.467v-2.564a1.55,1.55,0,0,0-2.58-1.489L254.3,180.1a.434.434,0,1,1-.434-.752l2.221-1.282a2.392,2.392,0,0,1,3.88,2.241v2.564a1.549,1.549,0,0,0,2.579,1.489l10.631-6.139a.434.434,0,0,1,.433.752l-10.631,6.139A3.364,3.364,0,0,1,261.316,185.611Z" transform="translate(0 -100.588)"/><path class="cls-4" d="M265.451,187.989a2.083,2.083,0,0,1-1.057-.275,2.674,2.674,0,0,1-1.163-2.466v-2.564a1.549,1.549,0,0,0-2.579-1.489l-2.221,1.282a.434.434,0,0,1-.433-.752l2.221-1.282a2.391,2.391,0,0,1,3.879,2.241v2.564a1.55,1.55,0,0,0,2.58,1.488l10.631-6.138a.434.434,0,0,1,.434.752l-10.632,6.138A3.364,3.364,0,0,1,265.451,187.989Z" transform="translate(0 -100.588)"/><path class="cls-4" d="M269.586,190.368a2.083,2.083,0,0,1-1.057-.275,2.676,2.676,0,0,1-1.163-2.466v-2.565a1.549,1.549,0,0,0-2.579-1.488l-2.221,1.282a.434.434,0,0,1-.451-.742l.018-.01,2.22-1.282a2.391,2.391,0,0,1,3.88,2.24v2.567a1.55,1.55,0,0,0,2.58,1.488l10.631-6.138a.434.434,0,0,1,.434.752l-10.631,6.138A3.358,3.358,0,0,1,269.586,190.368Z" transform="translate(0 -100.588)"/><path class="cls-4" d="M273.722,192.747a2.088,2.088,0,0,1-1.058-.276,2.673,2.673,0,0,1-1.162-2.466v-2.564a1.55,1.55,0,0,0-2.58-1.488l-2.22,1.282a.434.434,0,1,1-.434-.752h0l2.22-1.282a2.391,2.391,0,0,1,3.881,2.24v2.564a1.549,1.549,0,0,0,2.579,1.489l10.631-6.138a.434.434,0,0,1,.434.752h0l-10.631,6.138A3.364,3.364,0,0,1,273.722,192.747Z" transform="translate(0 -100.588)"/><path class="cls-4" d="M277.857,195.129a2.084,2.084,0,0,1-1.057-.276,2.679,2.679,0,0,1-1.163-2.467v-2.563a1.55,1.55,0,0,0-2.58-1.488l-2.22,1.281a.434.434,0,0,1-.434-.752h0l2.221-1.281a2.391,2.391,0,0,1,3.88,2.24v2.563a1.55,1.55,0,0,0,2.579,1.49l10.632-6.139a.434.434,0,0,1,.433.752l-10.632,6.14A3.362,3.362,0,0,1,277.857,195.129Z" transform="translate(0 -100.588)"/><path class="cls-4" d="M281.991,197.5a2.085,2.085,0,0,1-1.057-.274,2.679,2.679,0,0,1-1.163-2.467V192.2a1.549,1.549,0,0,0-2.579-1.489l-2.22,1.282a.434.434,0,1,1-.434-.752l2.221-1.282a2.392,2.392,0,0,1,3.88,2.241v2.563a1.549,1.549,0,0,0,2.579,1.489l10.631-6.138a.434.434,0,0,1,.434.752L283.651,197A3.363,3.363,0,0,1,281.991,197.5Z" transform="translate(0 -100.588)"/><path class="cls-4" d="M286.126,199.882a2.085,2.085,0,0,1-1.057-.274,2.681,2.681,0,0,1-1.163-2.467v-2.564a1.549,1.549,0,0,0-2.579-1.489l-2.221,1.283a.434.434,0,0,1-.433-.752l2.22-1.282a2.391,2.391,0,0,1,3.88,2.24v2.564a1.55,1.55,0,0,0,2.58,1.489l10.631-6.138a.434.434,0,0,1,.434.752l-10.631,6.137A3.367,3.367,0,0,1,286.126,199.882Z" transform="translate(0 -100.588)"/><path class="cls-4" d="M190.617,154.882a3.362,3.362,0,0,1-1.659-.5l-10.632-6.138a.434.434,0,0,1,.434-.752l10.631,6.139a1.551,1.551,0,0,0,2.58-1.49v-2.563a2.391,2.391,0,0,1,3.879-2.241l2.221,1.282a.434.434,0,0,1-.433.752l-2.221-1.283a1.55,1.55,0,0,0-2.579,1.49v2.563a2.681,2.681,0,0,1-1.163,2.467A2.086,2.086,0,0,1,190.617,154.882Z" transform="translate(0 -100.588)"/><path class="cls-4" d="M186.483,157.26a3.363,3.363,0,0,1-1.66-.5l-10.632-6.137a.434.434,0,0,1,.434-.752h0l10.632,6.137a1.549,1.549,0,0,0,2.579-1.488v-2.563a2.392,2.392,0,0,1,3.88-2.242l2.22,1.283a.434.434,0,1,1-.415.762l-.018-.01-2.221-1.283a1.55,1.55,0,0,0-2.579,1.49v2.563a2.677,2.677,0,0,1-1.163,2.467A2.084,2.084,0,0,1,186.483,157.26Z" transform="translate(0 -100.588)"/><path class="cls-4" d="M182.348,159.639a3.369,3.369,0,0,1-1.661-.5L170.057,153a.434.434,0,0,1,.434-.752l10.631,6.137a1.549,1.549,0,0,0,2.58-1.488v-2.564a2.391,2.391,0,0,1,3.88-2.241l2.221,1.283a.434.434,0,0,1-.434.752h0l-2.221-1.283a1.55,1.55,0,0,0-2.579,1.489V156.9a2.681,2.681,0,0,1-1.163,2.467A2.086,2.086,0,0,1,182.348,159.639Z" transform="translate(0 -100.588)"/><path class="cls-4" d="M178.213,162.018a3.363,3.363,0,0,1-1.66-.5l-10.631-6.137a.434.434,0,0,1,.433-.752l10.631,6.137a1.549,1.549,0,0,0,2.579-1.488v-2.565a2.392,2.392,0,0,1,3.881-2.24l2.22,1.283a.434.434,0,1,1-.406.767l-.028-.016-2.219-1.282a1.55,1.55,0,0,0-2.581,1.488v2.565a2.676,2.676,0,0,1-1.162,2.466A2.1,2.1,0,0,1,178.213,162.018Z" transform="translate(0 -100.588)"/><path class="cls-4" d="M174.077,164.4a3.362,3.362,0,0,1-1.659-.5l-10.632-6.139a.434.434,0,1,1,.434-.752h0l10.631,6.139a1.55,1.55,0,0,0,2.58-1.489v-2.564a2.391,2.391,0,0,1,3.879-2.24l2.221,1.277a.434.434,0,0,1-.433.752l-2.221-1.281a1.549,1.549,0,0,0-2.579,1.488v2.564a2.681,2.681,0,0,1-1.163,2.467A2.1,2.1,0,0,1,174.077,164.4Z" transform="translate(0 -100.588)"/><path class="cls-4" d="M169.943,166.775a3.366,3.366,0,0,1-1.661-.5l-10.631-6.138a.434.434,0,1,1,.434-.752l10.631,6.138a1.55,1.55,0,0,0,2.58-1.488v-2.564a2.391,2.391,0,0,1,3.88-2.241l2.22,1.282a.434.434,0,1,1-.415.762l-.018-.01-2.221-1.282a1.549,1.549,0,0,0-2.579,1.489v2.564A2.681,2.681,0,0,1,171,166.5,2.094,2.094,0,0,1,169.943,166.775Z" transform="translate(0 -100.588)"/><path class="cls-4" d="M165.807,169.154a3.363,3.363,0,0,1-1.66-.5l-10.631-6.138a.434.434,0,0,1,.434-.752l10.631,6.138a1.549,1.549,0,0,0,2.576-1.489v-2.565a2.391,2.391,0,0,1,3.881-2.24l2.22,1.282a.434.434,0,0,1-.434.752l-2.22-1.282a1.55,1.55,0,0,0-2.58,1.488v2.565a2.68,2.68,0,0,1-1.162,2.467A2.1,2.1,0,0,1,165.807,169.154Z" transform="translate(0 -100.588)"/><path class="cls-4" d="M161.673,171.529a3.363,3.363,0,0,1-1.66-.5l-10.631-6.138a.434.434,0,0,1,.433-.752l10.631,6.138a1.549,1.549,0,0,0,2.579-1.488v-2.56a2.391,2.391,0,0,1,3.88-2.24l2.221,1.282a.434.434,0,0,1-.434.752l-2.22-1.282a1.55,1.55,0,0,0-2.58,1.488v2.565a2.675,2.675,0,0,1-1.162,2.465A2.091,2.091,0,0,1,161.673,171.529Z" transform="translate(0 -100.588)"/><path class="cls-4" d="M157.537,173.912a3.362,3.362,0,0,1-1.659-.5l-10.632-6.139a.434.434,0,1,1,.434-.752l10.631,6.139a1.55,1.55,0,0,0,2.579-1.489v-2.564a2.391,2.391,0,0,1,3.88-2.24l2.221,1.281a.434.434,0,1,1-.434.752l-2.22-1.281a1.549,1.549,0,0,0-2.579,1.488v2.564a2.676,2.676,0,0,1-1.163,2.466A2.087,2.087,0,0,1,157.537,173.912Z" transform="translate(0 -100.588)"/><path class="cls-4" d="M153.4,176.29a3.366,3.366,0,0,1-1.661-.5l-10.631-6.138a.434.434,0,0,1,.434-.752h0l10.631,6.138a1.55,1.55,0,0,0,2.58-1.489v-2.563a2.391,2.391,0,0,1,3.88-2.241l2.22,1.282a.434.434,0,0,1-.433.752L158.2,169.5a1.549,1.549,0,0,0-2.579,1.489v2.563a2.677,2.677,0,0,1-1.163,2.467A2.085,2.085,0,0,1,153.4,176.29Z" transform="translate(0 -100.588)"/><path class="cls-4" d="M149.267,178.669a3.363,3.363,0,0,1-1.66-.5l-10.631-6.14a.434.434,0,0,1,.434-.752h0l10.631,6.138a1.55,1.55,0,0,0,2.579-1.489v-2.564a2.392,2.392,0,0,1,3.881-2.24l2.22,1.282a.434.434,0,0,1-.434.752l-2.22-1.282a1.549,1.549,0,0,0-2.58,1.488v2.567a2.676,2.676,0,0,1-1.162,2.467A2.085,2.085,0,0,1,149.267,178.669Z" transform="translate(0 -100.588)"/><path class="cls-4" d="M145.133,181.047a3.352,3.352,0,0,1-1.66-.5l-10.632-6.137a.434.434,0,1,1,.415-.762l.018.01,10.632,6.138a1.549,1.549,0,0,0,2.579-1.489v-2.564a2.391,2.391,0,0,1,3.88-2.24l2.221,1.282a.434.434,0,1,1-.434.752l-2.221-1.283a1.55,1.55,0,0,0-2.579,1.489v2.564a2.68,2.68,0,0,1-1.162,2.466A2.085,2.085,0,0,1,145.133,181.047Z" transform="translate(0 -100.588)"/><path class="cls-4" d="M141,183.429a3.362,3.362,0,0,1-1.659-.5l-10.632-6.138a.434.434,0,0,1,.434-.752l10.631,6.138a1.549,1.549,0,0,0,2.579-1.489v-2.563a2.392,2.392,0,0,1,3.88-2.241l2.221,1.282a.434.434,0,0,1-.434.752l-2.22-1.282a1.549,1.549,0,0,0-2.579,1.489v2.563a2.681,2.681,0,0,1-1.163,2.467A2.086,2.086,0,0,1,141,183.429Z" transform="translate(0 -100.588)"/><path class="cls-4" d="M136.862,185.8a3.363,3.363,0,0,1-1.66-.5l-10.631-6.137a.434.434,0,0,1,.434-.752h0l10.631,6.137a1.549,1.549,0,0,0,2.579-1.488V180.5a2.392,2.392,0,0,1,3.881-2.242l2.219,1.283a.434.434,0,0,1-.433.752l-2.22-1.283a1.55,1.55,0,0,0-2.58,1.49v2.563a2.68,2.68,0,0,1-1.162,2.467A2.1,2.1,0,0,1,136.862,185.8Z" transform="translate(0 -100.588)"/><path class="cls-4" d="M132.727,188.183a3.363,3.363,0,0,1-1.66-.5l-10.631-6.137a.434.434,0,0,1,.434-.752l10.631,6.137a1.549,1.549,0,0,0,2.579-1.488v-2.564a2.392,2.392,0,0,1,3.88-2.241l2.221,1.283a.434.434,0,1,1-.406.767l-.028-.016-2.221-1.282a1.55,1.55,0,0,0-2.579,1.489v2.564a2.677,2.677,0,0,1-1.163,2.467A2.094,2.094,0,0,1,132.727,188.183Z" transform="translate(0 -100.588)"/><path class="cls-4" d="M128.593,190.562a3.366,3.366,0,0,1-1.661-.5L116.3,183.924a.434.434,0,1,1,.415-.762l.018.01,10.632,6.138a1.549,1.549,0,0,0,2.579-1.488v-2.565a2.391,2.391,0,0,1,3.88-2.24l2.221,1.282a.434.434,0,1,1-.434.752l-2.221-1.282a1.55,1.55,0,0,0-2.579,1.488v2.565a2.679,2.679,0,0,1-1.163,2.467A2.09,2.09,0,0,1,128.593,190.562Z" transform="translate(0 -100.588)"/><path class="cls-4" d="M124.457,192.941a3.363,3.363,0,0,1-1.66-.5L112.166,186.3a.434.434,0,0,1,.433-.752l10.631,6.139a1.55,1.55,0,0,0,2.58-1.489v-2.564a2.391,2.391,0,0,1,3.88-2.24l2.221,1.281a.434.434,0,0,1-.434.752l-2.22-1.281a1.549,1.549,0,0,0-2.579,1.488V190.2a2.681,2.681,0,0,1-1.163,2.467A2.1,2.1,0,0,1,124.457,192.941Z" transform="translate(0 -100.588)"/><path class="cls-4" d="M120.322,195.32a3.363,3.363,0,0,1-1.66-.5l-10.631-6.139a.434.434,0,1,1,.434-.752h0l10.631,6.139a1.55,1.55,0,0,0,2.579-1.489v-2.564a2.392,2.392,0,0,1,3.881-2.241l2.219,1.282a.434.434,0,0,1-.433.752l-2.22-1.282a1.55,1.55,0,0,0-2.58,1.489v2.564a2.68,2.68,0,0,1-1.162,2.467A2.1,2.1,0,0,1,120.322,195.32Z" transform="translate(0 -100.588)"/><path class="cls-4" d="M116.187,197.7a3.363,3.363,0,0,1-1.66-.5L103.9,191.06a.434.434,0,0,1,.434-.752h0l10.632,6.138a1.55,1.55,0,0,0,2.579-1.488v-2.564a2.391,2.391,0,0,1,3.88-2.241l2.22,1.282a.434.434,0,1,1-.415.762l-.018-.01-2.221-1.282a1.549,1.549,0,0,0-2.579,1.489v2.564a2.674,2.674,0,0,1-1.163,2.466A2.085,2.085,0,0,1,116.187,197.7Z" transform="translate(0 -100.588)"/><path class="cls-4" d="M112.057,200.077a3.366,3.366,0,0,1-1.661-.5l-10.639-6.139a.434.434,0,1,1,.415-.762l.018.01,10.632,6.138a1.549,1.549,0,0,0,2.579-1.488v-2.565a2.391,2.391,0,0,1,3.88-2.24l2.221,1.282a.434.434,0,0,1-.434.752h0l-2.221-1.282a1.549,1.549,0,0,0-2.579,1.488v2.565a2.674,2.674,0,0,1-1.163,2.466A2.083,2.083,0,0,1,112.057,200.077Z" transform="translate(0 -100.588)"/><polygon class="cls-9" points="117.361 94.522 117.361 103.963 199.054 151.128 280.75 103.961 280.75 94.521 117.361 94.522"/><polygon class="cls-10" points="199.054 141.688 280.75 94.521 199.057 47.355 117.361 94.522 199.054 141.688"/><polygon class="cls-8" points="199.054 140.585 279.795 93.969 280.75 94.521 199.054 141.688 117.361 94.522 118.316 93.971 199.054 140.585"/><polygon class="cls-11" points="199.055 130.809 261.889 94.531 199.056 58.254 136.222 94.532 199.055 130.809"/><polygon class="cls-12" points="199.055 130.81 261.891 94.532 199.056 58.254 136.22 94.533 199.055 130.81"/><polygon class="cls-13" points="199.056 49.106 136.22 85.385 136.22 94.532 199.056 58.254 199.056 49.106"/><polygon class="cls-14" points="199.055 58.254 261.891 94.531 261.891 85.384 199.056 49.106 199.055 58.254"/><polygon class="cls-15" points="199.055 121.662 261.891 85.384 199.056 49.106 136.22 85.385 199.055 121.662"/><polygon class="cls-16" points="199.055 99.88 224.163 85.384 199.056 70.888 173.948 85.384 199.055 99.88"/><polygon class="cls-16" points="199.056 72.222 175.103 86.051 173.948 85.384 199.056 70.888 224.163 85.384 223.008 86.051 199.056 72.222"/><polygon class="cls-17" points="199.055 121.662 199.055 130.81 136.22 94.532 136.22 85.385 199.055 121.662"/><polygon class="cls-18" points="261.891 85.384 261.891 94.531 199.055 130.81 199.055 121.662 261.891 85.384"/><polygon class="cls-19" points="199.055 120.664 261.026 84.884 261.891 85.384 199.055 121.662 136.22 85.385 137.085 84.885 199.055 120.664"/><path class="cls-4" d="M178.543,263.1a.433.433,0,0,1-.217-.809l10.632-6.138a6.669,6.669,0,0,0,3.013-5.218v-2.563a7.519,7.519,0,0,1,3.446-5.971l2.221-1.281a.434.434,0,0,1,.433.752l-2.221,1.281a6.67,6.67,0,0,0-3.012,5.219v2.563a7.516,7.516,0,0,1-3.447,5.97l-10.634,6.138A.434.434,0,0,1,178.543,263.1Z" transform="translate(0 -100.588)"/><path class="cls-4" d="M174.408,260.718a.433.433,0,0,1-.217-.809l10.632-6.138a6.669,6.669,0,0,0,3.013-5.218v-2.564a7.519,7.519,0,0,1,3.446-5.97l2.221-1.281a.434.434,0,0,1,.451.742l-.018.01-2.22,1.281a6.669,6.669,0,0,0-3.013,5.218v2.564a7.519,7.519,0,0,1-3.446,5.97l-10.632,6.138A.445.445,0,0,1,174.408,260.718Z" transform="translate(0 -100.588)"/><path class="cls-4" d="M170.273,258.336a.434.434,0,0,1-.217-.81l10.631-6.138a6.666,6.666,0,0,0,3.014-5.218v-2.564a7.519,7.519,0,0,1,3.446-5.97l2.221-1.282a.434.434,0,1,1,.434.752h0l-2.221,1.282a6.669,6.669,0,0,0-3.013,5.218v2.564a7.512,7.512,0,0,1-3.447,5.97l-10.631,6.138A.435.435,0,0,1,170.273,258.336Z" transform="translate(0 -100.588)"/><path class="cls-4" d="M166.139,255.953a.434.434,0,0,1-.217-.81l10.631-6.138a6.662,6.662,0,0,0,3.012-5.217v-2.565a7.517,7.517,0,0,1,3.448-5.97l2.219-1.282a.434.434,0,0,1,.434.752l-2.22,1.282a6.67,6.67,0,0,0-3.014,5.218v2.565a7.51,7.51,0,0,1-3.446,5.969L166.357,255.9A.436.436,0,0,1,166.139,255.953Z" transform="translate(0 -100.588)"/><path class="cls-4" d="M162,253.57a.434.434,0,0,1-.217-.81l10.632-6.137a6.669,6.669,0,0,0,3.013-5.218V238.84a7.517,7.517,0,0,1,3.446-5.969l2.221-1.283a.434.434,0,0,1,.433.752l-2.221,1.283a6.667,6.667,0,0,0-3.012,5.217v2.565a7.522,7.522,0,0,1-3.447,5.97l-10.631,6.137A.435.435,0,0,1,162,253.57Z" transform="translate(0 -100.588)"/><path class="cls-4" d="M157.868,251.187a.433.433,0,0,1-.217-.809l10.631-6.138a6.669,6.669,0,0,0,3.014-5.218v-2.564a7.516,7.516,0,0,1,3.446-5.97l2.221-1.282a.434.434,0,0,1,.451.742l-.018.01-2.22,1.282a6.669,6.669,0,0,0-3.013,5.218v2.564a7.516,7.516,0,0,1-3.447,5.97l-10.631,6.137A.435.435,0,0,1,157.868,251.187Z" transform="translate(0 -100.588)"/><path class="cls-4" d="M153.733,248.8a.433.433,0,0,1-.217-.809l10.631-6.138a6.67,6.67,0,0,0,3.01-5.218v-2.564a7.516,7.516,0,0,1,3.447-5.97l2.22-1.282a.434.434,0,0,1,.434.752l-2.22,1.282a6.67,6.67,0,0,0-3.014,5.218v2.564a7.515,7.515,0,0,1-3.446,5.97l-10.631,6.138A.434.434,0,0,1,153.733,248.8Z" transform="translate(0 -100.588)"/><path class="cls-4" d="M149.6,246.421a.433.433,0,0,1-.216-.809l10.631-6.138a6.668,6.668,0,0,0,3.012-5.218v-2.564a7.52,7.52,0,0,1,3.447-5.97l2.22-1.282a.434.434,0,0,1,.434.752l-2.221,1.282a6.669,6.669,0,0,0-3.013,5.218v2.564a7.519,7.519,0,0,1-3.446,5.97l-10.631,6.138A.434.434,0,0,1,149.6,246.421Z" transform="translate(0 -100.588)"/><path class="cls-4" d="M145.463,244.039a.434.434,0,0,1-.217-.81l10.632-6.138a6.667,6.667,0,0,0,3.012-5.217v-2.565a7.522,7.522,0,0,1,3.447-5.97l2.22-1.282a.434.434,0,1,1,.434.752h0l-2.221,1.282a6.668,6.668,0,0,0-3.012,5.218v2.565a7.518,7.518,0,0,1-3.447,5.969l-10.631,6.138A.435.435,0,0,1,145.463,244.039Z" transform="translate(0 -100.588)"/><path class="cls-4" d="M141.328,241.656a.434.434,0,0,1-.217-.81l10.631-6.137a6.67,6.67,0,0,0,3.014-5.218v-2.562a7.515,7.515,0,0,1,3.446-5.969l2.221-1.283a.434.434,0,0,1,.433.752l-2.22,1.283a6.663,6.663,0,0,0-3.013,5.217v2.565a7.518,7.518,0,0,1-3.447,5.97L141.545,241.6A.433.433,0,0,1,141.328,241.656Z" transform="translate(0 -100.588)"/><path class="cls-4" d="M137.193,239.273a.434.434,0,0,1-.217-.81l10.631-6.134a6.669,6.669,0,0,0,3.013-5.218v-2.564a7.516,7.516,0,0,1,3.447-5.97l2.22-1.282a.434.434,0,1,1,.434.752l-2.22,1.282a6.67,6.67,0,0,0-3.014,5.218v2.564a7.519,7.519,0,0,1-3.446,5.97l-10.631,6.137A.433.433,0,0,1,137.193,239.273Z" transform="translate(0 -100.588)"/><path class="cls-4" d="M133.057,236.89a.433.433,0,0,1-.216-.809l10.632-6.138a6.668,6.668,0,0,0,3.012-5.218v-2.564a7.519,7.519,0,0,1,3.446-5.97l2.226-1.282a.434.434,0,1,1,.434.752h0l-2.221,1.282a6.669,6.669,0,0,0-3.013,5.218v2.568a7.519,7.519,0,0,1-3.446,5.97l-10.637,6.13A.438.438,0,0,1,133.057,236.89Z" transform="translate(0 -100.588)"/><path class="cls-4" d="M128.923,234.507a.433.433,0,0,1-.217-.809l10.632-6.138a6.668,6.668,0,0,0,3.012-5.218v-2.564a7.516,7.516,0,0,1,3.447-5.97l2.22-1.282a.434.434,0,1,1,.434.752l-2.221,1.282a6.668,6.668,0,0,0-3.012,5.218v2.564a7.518,7.518,0,0,1-3.447,5.97L129.14,234.45A.434.434,0,0,1,128.923,234.507Z" transform="translate(0 -100.588)"/><path class="cls-4" d="M124.788,232.129a.434.434,0,0,1-.217-.81l10.631-6.138a6.67,6.67,0,0,0,3.013-5.217V217.4a7.516,7.516,0,0,1,3.447-5.97l2.22-1.282a.434.434,0,0,1,.433.752l-2.219,1.282a6.669,6.669,0,0,0-3.014,5.218v2.565a7.517,7.517,0,0,1-3.446,5.969l-10.631,6.138A.435.435,0,0,1,124.788,232.129Z" transform="translate(0 -100.588)"/><path class="cls-4" d="M120.657,229.742a.434.434,0,0,1-.217-.81l10.631-6.137a6.669,6.669,0,0,0,3.013-5.218v-2.565a7.519,7.519,0,0,1,3.446-5.969l2.221-1.283a.434.434,0,1,1,.434.752l-2.221,1.283a6.663,6.663,0,0,0-3.013,5.217v2.565a7.519,7.519,0,0,1-3.446,5.969l-10.631,6.138A.435.435,0,0,1,120.657,229.742Z" transform="translate(0 -100.588)"/><path class="cls-4" d="M116.517,227.359a.434.434,0,0,1-.216-.81l10.631-6.137a6.665,6.665,0,0,0,3.013-5.218v-2.565a7.519,7.519,0,0,1,3.446-5.97l2.221-1.282a.434.434,0,1,1,.434.752h0l-2.221,1.282a6.669,6.669,0,0,0-3.013,5.218v2.564a7.519,7.519,0,0,1-3.446,5.97L116.734,227.3A.436.436,0,0,1,116.517,227.359Z" transform="translate(0 -100.588)"/><path class="cls-4" d="M112.383,224.976a.433.433,0,0,1-.217-.809l10.631-6.138a6.669,6.669,0,0,0,3.013-5.218v-2.564a7.512,7.512,0,0,1,3.447-5.97l2.22-1.282a.434.434,0,0,1,.434.752h0l-2.221,1.282a6.664,6.664,0,0,0-3.012,5.218v2.564a7.515,7.515,0,0,1-3.448,5.97L112.6,224.919A.431.431,0,0,1,112.383,224.976Z" transform="translate(0 -100.588)"/><path class="cls-4" d="M108.248,222.593a.433.433,0,0,1-.217-.809l10.631-6.138a6.669,6.669,0,0,0,3.013-5.218v-2.564a7.512,7.512,0,0,1,3.447-5.97l2.22-1.282a.434.434,0,0,1,.433.752l-2.219,1.282a6.663,6.663,0,0,0-3.014,5.218v2.565a7.519,7.519,0,0,1-3.446,5.97l-10.631,6.138A.444.444,0,0,1,108.248,222.593Z" transform="translate(0 -100.588)"/><path class="cls-4" d="M104.112,220.211a.434.434,0,0,1-.217-.81l10.632-6.138a6.669,6.669,0,0,0,3.013-5.218v-2.564a7.519,7.519,0,0,1,3.446-5.97l2.221-1.282a.434.434,0,0,1,.451.742l-.018.01-2.22,1.282a6.669,6.669,0,0,0-3.013,5.218v2.564a7.519,7.519,0,0,1-3.446,5.97l-10.632,6.138A.435.435,0,0,1,104.112,220.211Z" transform="translate(0 -100.588)"/><path class="cls-4" d="M99.977,217.829a.434.434,0,0,1-.216-.81l10.631-6.138a6.663,6.663,0,0,0,3.013-5.217V203.1a7.519,7.519,0,0,1,3.446-5.97l2.221-1.282a.434.434,0,1,1,.434.752l-2.221,1.282a6.669,6.669,0,0,0-3.013,5.218v2.565a7.517,7.517,0,0,1-3.446,5.969l-10.632,6.138A.435.435,0,0,1,99.977,217.829Z" transform="translate(0 -100.588)"/><path class="cls-4" d="M219.857,263.1a.431.431,0,0,1-.216-.057l-10.631-6.138a7.512,7.512,0,0,1-3.447-5.97v-2.563a6.67,6.67,0,0,0-3.012-5.219l-2.221-1.281a.434.434,0,0,1,.434-.752l2.22,1.281a7.517,7.517,0,0,1,3.447,5.971v2.563a6.664,6.664,0,0,0,3.012,5.218l10.631,6.138a.433.433,0,0,1-.217.809Z" transform="translate(0 -100.588)"/><path class="cls-4" d="M223.992,260.718a.445.445,0,0,1-.217-.057l-10.632-6.138a7.519,7.519,0,0,1-3.446-5.97v-2.564a6.665,6.665,0,0,0-3.013-5.218l-2.22-1.281a.434.434,0,0,1,.433-.752l2.221,1.281a7.519,7.519,0,0,1,3.446,5.97v2.564a6.669,6.669,0,0,0,3.013,5.218l10.632,6.138a.433.433,0,0,1-.217.809Z" transform="translate(0 -100.588)"/><path class="cls-4" d="M228.127,258.336a.435.435,0,0,1-.217-.058l-10.631-6.138a7.512,7.512,0,0,1-3.447-5.97v-2.564a6.669,6.669,0,0,0-3.013-5.218l-2.221-1.282a.434.434,0,0,1,.434-.752l2.221,1.282a7.519,7.519,0,0,1,3.446,5.97v2.564a6.666,6.666,0,0,0,3.014,5.218l10.631,6.138a.434.434,0,0,1-.217.81Z" transform="translate(0 -100.588)"/><path class="cls-4" d="M232.262,255.953a.435.435,0,0,1-.217-.058l-10.631-6.138a7.51,7.51,0,0,1-3.446-5.969v-2.565a6.67,6.67,0,0,0-3.014-5.218l-2.22-1.282a.434.434,0,1,1,.434-.752l2.22,1.282a7.518,7.518,0,0,1,3.447,5.97v2.565a6.663,6.663,0,0,0,3.013,5.217l10.63,6.138a.434.434,0,0,1-.216.81Z" transform="translate(0 -100.588)"/><path class="cls-4" d="M236.4,253.57a.432.432,0,0,1-.216-.058l-10.632-6.137a7.522,7.522,0,0,1-3.447-5.97V238.84a6.667,6.667,0,0,0-3.012-5.217l-2.221-1.283a.434.434,0,0,1,.434-.752l2.22,1.283a7.518,7.518,0,0,1,3.447,5.969v2.565a6.668,6.668,0,0,0,3.012,5.218l10.632,6.137a.434.434,0,0,1-.217.81Z" transform="translate(0 -100.588)"/><path class="cls-4" d="M240.532,251.187a.434.434,0,0,1-.217-.057l-10.632-6.138a7.519,7.519,0,0,1-3.446-5.97v-2.564a6.665,6.665,0,0,0-3.013-5.218L221,229.958a.434.434,0,0,1,.433-.752l2.221,1.282a7.519,7.519,0,0,1,3.446,5.97v2.564a6.669,6.669,0,0,0,3.013,5.218l10.632,6.138a.433.433,0,0,1-.217.809Z" transform="translate(0 -100.588)"/><path class="cls-4" d="M244.667,248.8a.434.434,0,0,1-.217-.057l-10.631-6.138a7.516,7.516,0,0,1-3.447-5.97v-2.564a6.669,6.669,0,0,0-3.013-5.218l-2.22-1.282a.434.434,0,0,1,.415-.762l.018.01,2.221,1.282a7.519,7.519,0,0,1,3.446,5.97v2.564a6.67,6.67,0,0,0,3.014,5.218L244.884,248a.433.433,0,0,1-.217.809Z" transform="translate(0 -100.588)"/><path class="cls-4" d="M248.8,246.421a.434.434,0,0,1-.217-.057l-10.628-6.135a7.515,7.515,0,0,1-3.446-5.97V231.7a6.67,6.67,0,0,0-3.014-5.218l-2.22-1.282a.434.434,0,0,1,.434-.752l2.22,1.282a7.516,7.516,0,0,1,3.447,5.97v2.564a6.665,6.665,0,0,0,3.013,5.218l10.63,6.138a.433.433,0,0,1-.216.809Z" transform="translate(0 -100.588)"/><path class="cls-4" d="M252.937,244.039a.432.432,0,0,1-.216-.058l-10.632-6.138a7.518,7.518,0,0,1-3.447-5.969v-2.565a6.668,6.668,0,0,0-3.012-5.218l-2.221-1.282a.434.434,0,0,1,.434-.752l2.22,1.282a7.522,7.522,0,0,1,3.447,5.97v2.565a6.667,6.667,0,0,0,3.012,5.217l10.635,6.138a.434.434,0,0,1-.217.81Z" transform="translate(0 -100.588)"/><path class="cls-4" d="M257.072,241.656a.435.435,0,0,1-.217-.058l-10.631-6.137a7.518,7.518,0,0,1-3.447-5.97v-2.562a6.667,6.667,0,0,0-3.012-5.217l-2.221-1.283a.434.434,0,0,1,.433-.752l2.221,1.283a7.515,7.515,0,0,1,3.446,5.969v2.565a6.67,6.67,0,0,0,3.014,5.218l10.631,6.137a.434.434,0,0,1-.217.81Z" transform="translate(0 -100.588)"/><path class="cls-4" d="M261.207,239.273a.435.435,0,0,1-.217-.058l-10.633-6.137a7.519,7.519,0,0,1-3.446-5.97v-2.564a6.67,6.67,0,0,0-3.014-5.218l-2.219-1.282a.434.434,0,1,1,.415-.762l.018.01,2.22,1.282a7.516,7.516,0,0,1,3.447,5.97v2.564a6.669,6.669,0,0,0,3.013,5.218l10.631,6.137a.434.434,0,0,1-.217.81Z" transform="translate(0 -100.588)"/><path class="cls-4" d="M265.343,236.89a.434.434,0,0,1-.217-.057L254.494,230.7a7.519,7.519,0,0,1-3.446-5.97v-2.564a6.669,6.669,0,0,0-3.013-5.218l-2.221-1.282a.434.434,0,0,1,.434-.752l2.221,1.282a7.519,7.519,0,0,1,3.446,5.97v2.568a6.665,6.665,0,0,0,3.013,5.218l10.631,6.138a.433.433,0,0,1-.216.809Z" transform="translate(0 -100.588)"/><path class="cls-4" d="M269.477,234.507a.431.431,0,0,1-.216-.057l-10.632-6.138a7.52,7.52,0,0,1-3.447-5.97v-2.564a6.668,6.668,0,0,0-3.012-5.218l-2.221-1.282a.434.434,0,0,1,.434-.752h0l2.22,1.282a7.518,7.518,0,0,1,3.447,5.97v2.564a6.668,6.668,0,0,0,3.012,5.218l10.632,6.138a.433.433,0,0,1-.217.809Z" transform="translate(0 -100.588)"/><path class="cls-4" d="M273.612,232.129a.435.435,0,0,1-.217-.058l-10.63-6.138a7.513,7.513,0,0,1-3.448-5.969V217.4a6.668,6.668,0,0,0-3.012-5.218l-2.221-1.282a.434.434,0,0,1,.433-.752l2.221,1.282a7.519,7.519,0,0,1,3.446,5.97v2.565a6.667,6.667,0,0,0,3.014,5.217l10.631,6.138a.434.434,0,0,1-.217.81Z" transform="translate(0 -100.588)"/><path class="cls-4" d="M277.747,229.742a.435.435,0,0,1-.217-.058L266.9,223.546a7.517,7.517,0,0,1-3.446-5.969v-2.565a6.667,6.667,0,0,0-3.014-5.217l-2.219-1.283a.434.434,0,1,1,.415-.762l.018.01,2.22,1.283a7.516,7.516,0,0,1,3.447,5.969v2.565a6.669,6.669,0,0,0,3.013,5.218l10.631,6.137a.434.434,0,0,1-.217.81Z" transform="translate(0 -100.588)"/><path class="cls-4" d="M281.883,227.359a.435.435,0,0,1-.217-.058l-10.632-6.137a7.519,7.519,0,0,1-3.446-5.97v-2.565a6.669,6.669,0,0,0-3.013-5.218l-2.218-1.282a.434.434,0,1,1,.434-.752l2.221,1.282a7.519,7.519,0,0,1,3.446,5.97v2.564a6.665,6.665,0,0,0,3.013,5.218l10.631,6.137a.434.434,0,0,1-.216.81Z" transform="translate(0 -100.588)"/><path class="cls-4" d="M286.017,224.976a.431.431,0,0,1-.216-.057l-10.631-6.138a7.512,7.512,0,0,1-3.447-5.97v-2.564a6.665,6.665,0,0,0-3.013-5.218l-2.221-1.282a.434.434,0,0,1,.434-.752h0l2.22,1.282a7.512,7.512,0,0,1,3.447,5.97v2.564a6.667,6.667,0,0,0,3.013,5.218l10.631,6.138a.433.433,0,0,1-.217.809Z" transform="translate(0 -100.588)"/><path class="cls-4" d="M290.157,222.593a.434.434,0,0,1-.217-.057L279.31,216.4a7.516,7.516,0,0,1-3.447-5.97v-2.564a6.665,6.665,0,0,0-3.013-5.218l-2.22-1.282a.434.434,0,0,1,.433-.752l2.22,1.282a7.512,7.512,0,0,1,3.447,5.97v2.565a6.669,6.669,0,0,0,3.013,5.218l10.631,6.138a.433.433,0,0,1-.217.809Z" transform="translate(0 -100.588)"/><path class="cls-4" d="M294.287,220.211a.435.435,0,0,1-.217-.058l-10.631-6.138a7.519,7.519,0,0,1-3.446-5.97v-2.564a6.669,6.669,0,0,0-3.013-5.218l-2.22-1.282a.434.434,0,1,1,.415-.762l.018.01,2.221,1.282a7.519,7.519,0,0,1,3.446,5.97v2.564a6.669,6.669,0,0,0,3.013,5.218L294.5,219.4a.434.434,0,0,1-.217.81Z" transform="translate(0 -100.588)"/><path class="cls-4" d="M298.423,217.829a.435.435,0,0,1-.217-.058l-10.632-6.142a7.517,7.517,0,0,1-3.446-5.969V203.1a6.669,6.669,0,0,0-3.013-5.218l-2.221-1.282a.434.434,0,0,1,.434-.752l2.221,1.286A7.519,7.519,0,0,1,285,203.1v2.565a6.67,6.67,0,0,0,3.013,5.217l10.632,6.138a.434.434,0,0,1-.217.81Z" transform="translate(0 -100.588)"/></g></svg>