<svg xmlns="http://www.w3.org/2000/svg" xmlns:xlink="http://www.w3.org/1999/xlink" viewBox="0 0 196.352 188.64"><defs><style>.cls-1{isolation:isolate;}.cls-11,.cls-14,.cls-15,.cls-2{fill:#42e8e0;}.cls-18,.cls-2{mix-blend-mode:lighten;}.cls-3{fill:url(#Áåçûìÿííûé_ãðàäèåíò_18);}.cls-4{fill:#bcbeff;}.cls-5{fill:#fff;}.cls-6{fill:#0f054c;}.cls-10,.cls-11,.cls-12,.cls-13,.cls-7,.cls-8,.cls-9{opacity:0.5;}.cls-7{fill:url(#Áåçûìÿííûé_ãðàäèåíò_15);}.cls-8{fill:url(#Áåçûìÿííûé_ãðàäèåíò_15-2);}.cls-9{fill:url(#Áåçûìÿííûé_ãðàäèåíò_15-3);}.cls-10{fill:url(#Áåçûìÿííûé_ãðàäèåíò_15-4);}.cls-12{fill:url(#Áåçûìÿííûé_ãðàäèåíò_15-5);}.cls-13{fill:url(#Áåçûìÿííûé_ãðàäèåíò_15-6);}.cls-14{opacity:0.8;}.cls-16{fill:#2fd3c7;}.cls-17{fill:#18b2a3;opacity:0.7;}.cls-18{fill:url(#linear-gradient);}</style><linearGradient id="Áåçûìÿííûé_ãðàäèåíò_18" x1="-22.384" y1="149.692" x2="184.613" y2="149.692" gradientUnits="userSpaceOnUse"><stop offset="0" stop-color="#5761d7"/><stop offset="0.164" stop-color="#5e67da"/><stop offset="0.405" stop-color="#727ae2"/><stop offset="0.692" stop-color="#9297ee"/><stop offset="1" stop-color="#bcbeff"/></linearGradient><linearGradient id="Áåçûìÿííûé_ãðàäèåíò_15" x1="36.197" y1="121.721" x2="160.441" y2="121.721" gradientUnits="userSpaceOnUse"><stop offset="0" stop-color="#42e8e0"/><stop offset="0.151" stop-color="#43e3e0"/><stop offset="0.328" stop-color="#45d5df"/><stop offset="0.52" stop-color="#49bddd"/><stop offset="0.721" stop-color="#4e9cdb"/><stop offset="0.927" stop-color="#5472d8"/><stop offset="1" stop-color="#5761d7"/></linearGradient><linearGradient id="Áåçûìÿííûé_ãðàäèåíò_15-2" x1="98.318" y1="99.266" x2="160.441" y2="99.266" xlink:href="#Áåçûìÿííûé_ãðàäèåíò_15"/><linearGradient id="Áåçûìÿííûé_ãðàäèåíò_15-3" x1="36.197" y1="99.265" x2="98.32" y2="99.265" xlink:href="#Áåçûìÿííûé_ãðàäèåíò_15"/><linearGradient id="Áåçûìÿííûé_ãðàäèåíò_15-4" x1="36.197" y1="112.677" x2="160.441" y2="112.677" xlink:href="#Áåçûìÿííûé_ãðàäèåíò_15"/><linearGradient id="Áåçûìÿííûé_ãðàäèåíò_15-5" x1="98.32" y1="135.132" x2="160.441" y2="135.132" xlink:href="#Áåçûìÿííûé_ãðàäèåíò_15"/><linearGradient id="Áåçûìÿííûé_ãðàäèåíò_15-6" x1="36.197" y1="135.132" x2="98.32" y2="135.132" xlink:href="#Áåçûìÿííûé_ãðàäèåíò_15"/><linearGradient id="linear-gradient" x1="98.274" y1="148.543" x2="98.274" gradientUnits="userSpaceOnUse"><stop offset="0" stop-color="#42e8e0"/><stop offset="0.002" stop-color="#42e7df" stop-opacity="0.995"/><stop offset="0.114" stop-color="#36b2bd" stop-opacity="0.764"/><stop offset="0.227" stop-color="#2c859f" stop-opacity="0.562"/><stop offset="0.344" stop-color="#235d86" stop-opacity="0.389"/><stop offset="0.464" stop-color="#1c3d71" stop-opacity="0.248"/><stop offset="0.586" stop-color="#162561" stop-opacity="0.139"/><stop offset="0.713" stop-color="#121355" stop-opacity="0.061"/><stop offset="0.847" stop-color="#10084e" stop-opacity="0.015"/><stop offset="1" stop-color="#0f054c" stop-opacity="0"/></linearGradient></defs><title>chip3</title><g class="cls-1"><g id="Ñëîé_1" data-name="Ñëîé 1"><path class="cls-2" d="M185.431,138.137a3.056,3.056,0,0,1-1.506-.459l-10.51-6.069.158-.273,10.511,6.068a1.793,1.793,0,0,0,2.956-1.707v-2.534a2.1,2.1,0,0,1,3.43-1.98l2.195,1.267-.158.274-2.195-1.268a1.793,1.793,0,0,0-2.956,1.707V135.7a2.392,2.392,0,0,1-1.015,2.2A1.807,1.807,0,0,1,185.431,138.137Z" transform="translate(-95.521 -56.66)"/><path class="cls-2" d="M181.343,140.488a3.048,3.048,0,0,1-1.506-.459l-10.51-6.068.158-.274L180,139.756a1.793,1.793,0,0,0,2.955-1.707v-2.534a2.1,2.1,0,0,1,3.431-1.981l2.195,1.268-.158.273-2.2-1.267a1.793,1.793,0,0,0-2.956,1.707v2.534a2.394,2.394,0,0,1-1.015,2.2A1.8,1.8,0,0,1,181.343,140.488Z" transform="translate(-95.521 -56.66)"/><path class="cls-2" d="M177.255,142.84a3.059,3.059,0,0,1-1.506-.459l-10.51-6.069.158-.273,10.51,6.068a1.793,1.793,0,0,0,2.956-1.706v-2.535a2.1,2.1,0,0,1,3.43-1.98l2.2,1.267-.158.274-2.2-1.268a1.793,1.793,0,0,0-2.955,1.707V140.4a2.394,2.394,0,0,1-1.014,2.2A1.79,1.79,0,0,1,177.255,142.84Z" transform="translate(-95.521 -56.66)"/><path class="cls-2" d="M173.167,145.191a3.048,3.048,0,0,1-1.506-.459l-10.511-6.068.159-.273,10.51,6.068a1.793,1.793,0,0,0,2.956-1.706v-2.535a2.1,2.1,0,0,1,3.431-1.981l2.2,1.268-.158.273-2.2-1.267a1.793,1.793,0,0,0-2.956,1.707v2.535a2.392,2.392,0,0,1-1.014,2.2A1.8,1.8,0,0,1,173.167,145.191Z" transform="translate(-95.521 -56.66)"/><path class="cls-2" d="M169.079,147.543a3.045,3.045,0,0,1-1.506-.459l-10.51-6.068.158-.273,10.51,6.067a1.793,1.793,0,0,0,2.956-1.706v-2.535a2.1,2.1,0,0,1,3.43-1.98l2.2,1.267-.159.274-2.195-1.268A1.794,1.794,0,0,0,171,142.569V145.1a2.391,2.391,0,0,1-1.014,2.2A1.787,1.787,0,0,1,169.079,147.543Z" transform="translate(-95.521 -56.66)"/><path class="cls-2" d="M164.99,149.9a3.055,3.055,0,0,1-1.5-.459l-10.511-6.068.158-.273,10.511,6.068a1.793,1.793,0,0,0,2.956-1.707v-2.535a2.1,2.1,0,0,1,3.43-1.98l2.2,1.267-.159.273-2.195-1.266a1.793,1.793,0,0,0-2.956,1.706v2.535a2.392,2.392,0,0,1-1.014,2.2A1.8,1.8,0,0,1,164.99,149.9Z" transform="translate(-95.521 -56.66)"/><path class="cls-2" d="M160.9,152.247a3.059,3.059,0,0,1-1.506-.459l-10.51-6.068.158-.274,10.511,6.069a1.794,1.794,0,0,0,2.956-1.707v-2.536a2.1,2.1,0,0,1,3.43-1.979l2.195,1.267-.158.274-2.2-1.268a1.793,1.793,0,0,0-2.956,1.706v2.536a2.393,2.393,0,0,1-1.014,2.2A1.8,1.8,0,0,1,160.9,152.247Z" transform="translate(-95.521 -56.66)"/><path class="cls-2" d="M156.813,154.6a3.062,3.062,0,0,1-1.5-.459L144.8,148.071l.158-.273,10.511,6.068a1.793,1.793,0,0,0,2.955-1.707v-2.534a2.1,2.1,0,0,1,3.431-1.981l2.195,1.268-.158.273-2.195-1.267a1.793,1.793,0,0,0-2.956,1.707v2.534a2.394,2.394,0,0,1-1.014,2.2A1.8,1.8,0,0,1,156.813,154.6Z" transform="translate(-95.521 -56.66)"/><path class="cls-2" d="M152.726,156.95a3.045,3.045,0,0,1-1.506-.459l-10.51-6.068.158-.274,10.51,6.069a1.793,1.793,0,0,0,2.956-1.707v-2.535a2.1,2.1,0,0,1,3.431-1.98l2.2,1.268-.158.273-2.2-1.268a1.793,1.793,0,0,0-2.955,1.707v2.535a2.392,2.392,0,0,1-1.015,2.205A1.806,1.806,0,0,1,152.726,156.95Z" transform="translate(-95.521 -56.66)"/><path class="cls-2" d="M148.638,159.3a3.059,3.059,0,0,1-1.506-.459l-10.51-6.069.158-.273,10.511,6.068a1.792,1.792,0,0,0,2.955-1.707v-2.534a2.1,2.1,0,0,1,3.431-1.98l2.2,1.267-.158.274-2.195-1.268a1.793,1.793,0,0,0-2.956,1.707v2.534a2.394,2.394,0,0,1-1.015,2.205A1.787,1.787,0,0,1,148.638,159.3Z" transform="translate(-95.521 -56.66)"/><path class="cls-2" d="M144.55,161.653a3.045,3.045,0,0,1-1.506-.459l-10.51-6.068.158-.274,10.51,6.069a1.793,1.793,0,0,0,2.956-1.706V156.68a2.1,2.1,0,0,1,3.43-1.981l2.2,1.268-.159.273-2.195-1.267a1.793,1.793,0,0,0-2.955,1.707v2.535a2.392,2.392,0,0,1-1.015,2.2A1.8,1.8,0,0,1,144.55,161.653Z" transform="translate(-95.521 -56.66)"/><path class="cls-2" d="M140.462,164.005a3.059,3.059,0,0,1-1.506-.459l-10.511-6.069.159-.273,10.51,6.068a1.793,1.793,0,0,0,2.956-1.706v-2.535a2.1,2.1,0,0,1,3.43-1.98l2.2,1.267-.158.274-2.2-1.268a1.793,1.793,0,0,0-2.956,1.707v2.535a2.392,2.392,0,0,1-1.014,2.2A1.787,1.787,0,0,1,140.462,164.005Z" transform="translate(-95.521 -56.66)"/><path class="cls-2" d="M136.373,166.357a3.055,3.055,0,0,1-1.5-.459l-10.511-6.068.159-.273,10.51,6.068a1.793,1.793,0,0,0,2.956-1.707v-2.535a2.1,2.1,0,0,1,3.43-1.98l2.195,1.267-.158.273-2.2-1.266a1.793,1.793,0,0,0-2.956,1.706v2.535a2.392,2.392,0,0,1-1.014,2.2A1.8,1.8,0,0,1,136.373,166.357Z" transform="translate(-95.521 -56.66)"/><path class="cls-2" d="M132.285,168.709a3.055,3.055,0,0,1-1.5-.459l-10.511-6.068.158-.274,10.511,6.068a1.793,1.793,0,0,0,2.956-1.707v-2.535a2.1,2.1,0,0,1,3.43-1.979l2.2,1.267-.159.274-2.195-1.268a1.793,1.793,0,0,0-2.956,1.706v2.535a2.394,2.394,0,0,1-1.014,2.2A1.8,1.8,0,0,1,132.285,168.709Z" transform="translate(-95.521 -56.66)"/><path class="cls-2" d="M128.2,171.06a3.056,3.056,0,0,1-1.506-.459l-10.51-6.068.158-.273,10.511,6.068a1.793,1.793,0,0,0,2.956-1.707v-2.535a2.1,2.1,0,0,1,3.43-1.98l2.2,1.268-.158.273-2.195-1.267a1.793,1.793,0,0,0-2.956,1.706v2.535a2.392,2.392,0,0,1-1.014,2.2A1.8,1.8,0,0,1,128.2,171.06Z" transform="translate(-95.521 -56.66)"/><path class="cls-2" d="M124.109,173.412a3.042,3.042,0,0,1-1.5-.459l-10.511-6.068.158-.274,10.511,6.069a1.793,1.793,0,0,0,2.955-1.707v-2.535a2.1,2.1,0,0,1,3.431-1.98l2.195,1.267-.158.274-2.195-1.268a1.793,1.793,0,0,0-2.956,1.707v2.535a2.4,2.4,0,0,1-1.015,2.2A1.806,1.806,0,0,1,124.109,173.412Z" transform="translate(-95.521 -56.66)"/><path class="cls-2" d="M120.021,175.764a3.056,3.056,0,0,1-1.506-.459l-10.51-6.069.158-.273,10.51,6.068a1.793,1.793,0,0,0,2.956-1.707V170.79a2.1,2.1,0,0,1,3.431-1.981l2.195,1.268-.158.273-2.2-1.267a1.792,1.792,0,0,0-2.955,1.707v2.534a2.394,2.394,0,0,1-1.015,2.2A1.807,1.807,0,0,1,120.021,175.764Z" transform="translate(-95.521 -56.66)"/><path class="cls-2" d="M115.933,178.115a3.051,3.051,0,0,1-1.506-.459l-10.51-6.068.158-.274,10.51,6.069a1.793,1.793,0,0,0,2.956-1.706v-2.536a2.1,2.1,0,0,1,3.431-1.98l2.2,1.268-.158.273-2.2-1.268a1.794,1.794,0,0,0-2.956,1.707v2.536a2.39,2.39,0,0,1-1.014,2.2A1.8,1.8,0,0,1,115.933,178.115Z" transform="translate(-95.521 -56.66)"/><path class="cls-2" d="M111.845,180.467a3.056,3.056,0,0,1-1.506-.459l-10.51-6.069.158-.273,10.51,6.068a1.793,1.793,0,0,0,2.956-1.706v-2.535a2.1,2.1,0,0,1,3.43-1.98l2.2,1.267-.159.274-2.2-1.268a1.792,1.792,0,0,0-2.955,1.707v2.535a2.392,2.392,0,0,1-1.015,2.2A1.787,1.787,0,0,1,111.845,180.467Z" transform="translate(-95.521 -56.66)"/><path class="cls-2" d="M107.757,182.818a3.048,3.048,0,0,1-1.506-.459L95.74,176.291l.158-.274,10.511,6.069a1.793,1.793,0,0,0,2.956-1.706v-2.535a2.1,2.1,0,0,1,3.43-1.981l2.2,1.268-.158.273-2.2-1.267a1.793,1.793,0,0,0-2.956,1.707v2.535a2.392,2.392,0,0,1-1.014,2.2A1.8,1.8,0,0,1,107.757,182.818Z" transform="translate(-95.521 -56.66)"/><path class="cls-2" d="M202.183,138.329a1.8,1.8,0,0,1-.911-.235,2.393,2.393,0,0,1-1.014-2.2v-2.536a1.793,1.793,0,0,0-2.956-1.706l-2.195,1.267-.158-.274,2.195-1.266a2.1,2.1,0,0,1,3.43,1.979v2.536a1.794,1.794,0,0,0,2.956,1.707l10.511-6.069.158.274-10.511,6.068A3.052,3.052,0,0,1,202.183,138.329Z" transform="translate(-95.521 -56.66)"/><path class="cls-2" d="M206.271,140.681a1.8,1.8,0,0,1-.911-.236,2.392,2.392,0,0,1-1.014-2.2v-2.535A1.793,1.793,0,0,0,201.39,134l-2.195,1.267-.158-.273,2.195-1.268a2.1,2.1,0,0,1,3.431,1.98v2.535a1.793,1.793,0,0,0,2.955,1.707l10.511-6.068.158.273-10.511,6.069A3.063,3.063,0,0,1,206.271,140.681Z" transform="translate(-95.521 -56.66)"/><path class="cls-2" d="M210.359,143.032a1.8,1.8,0,0,1-.911-.235,2.392,2.392,0,0,1-1.014-2.2v-2.535a1.793,1.793,0,0,0-2.955-1.707l-2.2,1.268-.158-.273,2.195-1.268a2.1,2.1,0,0,1,3.43,1.98v2.535a1.794,1.794,0,0,0,2.957,1.707l10.51-6.069.158.274-10.51,6.068A3.056,3.056,0,0,1,210.359,143.032Z" transform="translate(-95.521 -56.66)"/><path class="cls-2" d="M214.447,145.384a1.8,1.8,0,0,1-.91-.235,2.394,2.394,0,0,1-1.015-2.205V140.41a1.793,1.793,0,0,0-2.956-1.707l-2.195,1.268-.158-.274,2.195-1.267a2.1,2.1,0,0,1,3.431,1.98v2.534a1.792,1.792,0,0,0,2.955,1.707l10.511-6.068.158.273-10.51,6.069A3.056,3.056,0,0,1,214.447,145.384Z" transform="translate(-95.521 -56.66)"/><path class="cls-2" d="M218.535,147.735a1.8,1.8,0,0,1-.91-.234,2.394,2.394,0,0,1-1.015-2.205v-2.534a1.793,1.793,0,0,0-2.955-1.707l-2.2,1.267-.158-.273,2.2-1.268a2.1,2.1,0,0,1,3.43,1.981V145.3A1.793,1.793,0,0,0,219.883,147l10.51-6.069.158.274-10.51,6.068A3.048,3.048,0,0,1,218.535,147.735Z" transform="translate(-95.521 -56.66)"/><path class="cls-2" d="M222.623,150.087a1.787,1.787,0,0,1-.91-.235,2.391,2.391,0,0,1-1.014-2.2v-2.535a1.793,1.793,0,0,0-2.956-1.707l-2.2,1.268-.158-.274,2.195-1.267a2.1,2.1,0,0,1,3.431,1.98v2.535a1.793,1.793,0,0,0,2.956,1.706l10.51-6.068.159.273-10.511,6.069A3.059,3.059,0,0,1,222.623,150.087Z" transform="translate(-95.521 -56.66)"/><path class="cls-2" d="M226.711,152.438a1.8,1.8,0,0,1-.91-.234,2.392,2.392,0,0,1-1.014-2.2v-2.535a1.793,1.793,0,0,0-2.956-1.707l-2.195,1.267-.158-.273,2.195-1.268a2.1,2.1,0,0,1,3.43,1.981V150a1.793,1.793,0,0,0,2.956,1.706l10.51-6.068.159.273-10.511,6.068A3.045,3.045,0,0,1,226.711,152.438Z" transform="translate(-95.521 -56.66)"/><path class="cls-2" d="M230.8,154.791a1.8,1.8,0,0,1-.911-.235,2.394,2.394,0,0,1-1.014-2.205v-2.535a1.793,1.793,0,0,0-2.956-1.706l-2.2,1.267-.159-.274,2.2-1.266a2.1,2.1,0,0,1,3.43,1.979v2.535a1.793,1.793,0,0,0,2.956,1.707l10.511-6.068.158.274-10.511,6.068A3.055,3.055,0,0,1,230.8,154.791Z" transform="translate(-95.521 -56.66)"/><path class="cls-2" d="M234.888,157.142a1.8,1.8,0,0,1-.911-.235,2.392,2.392,0,0,1-1.014-2.2v-2.535a1.793,1.793,0,0,0-2.956-1.706l-2.195,1.267-.158-.273,2.195-1.268a2.1,2.1,0,0,1,3.43,1.98V154.7a1.793,1.793,0,0,0,2.956,1.707l10.511-6.068.158.273-10.51,6.068A3.056,3.056,0,0,1,234.888,157.142Z" transform="translate(-95.521 -56.66)"/><path class="cls-2" d="M238.976,159.494a1.8,1.8,0,0,1-.911-.235,2.392,2.392,0,0,1-1.014-2.2v-2.536a1.793,1.793,0,0,0-2.956-1.706l-2.195,1.268-.158-.273,2.2-1.268a2.1,2.1,0,0,1,3.431,1.979v2.536a1.793,1.793,0,0,0,2.955,1.707l10.511-6.069.158.274-10.511,6.068A3.052,3.052,0,0,1,238.976,159.494Z" transform="translate(-95.521 -56.66)"/><path class="cls-2" d="M243.064,161.846a1.8,1.8,0,0,1-.911-.236,2.392,2.392,0,0,1-1.014-2.2v-2.534a1.792,1.792,0,0,0-2.955-1.707l-2.2,1.268-.158-.274,2.195-1.268a2.1,2.1,0,0,1,3.431,1.981v2.534a1.793,1.793,0,0,0,2.956,1.707l10.51-6.068.158.273-10.51,6.069A3.066,3.066,0,0,1,243.064,161.846Z" transform="translate(-95.521 -56.66)"/><path class="cls-2" d="M247.152,164.2a1.806,1.806,0,0,1-.91-.234,2.394,2.394,0,0,1-1.014-2.2v-2.534a1.794,1.794,0,0,0-2.957-1.708l-2.195,1.268-.158-.273,2.195-1.268a2.1,2.1,0,0,1,3.431,1.981v2.534a1.793,1.793,0,0,0,2.956,1.707l10.51-6.069.158.274-10.51,6.068A3.045,3.045,0,0,1,247.152,164.2Z" transform="translate(-95.521 -56.66)"/><path class="cls-2" d="M251.24,166.549a1.787,1.787,0,0,1-.91-.235,2.394,2.394,0,0,1-1.015-2.2v-2.534a1.793,1.793,0,0,0-2.955-1.707l-2.2,1.268-.159-.274,2.2-1.267a2.1,2.1,0,0,1,3.43,1.98v2.534a1.793,1.793,0,0,0,2.956,1.707l10.51-6.068.158.273-10.51,6.069A3.056,3.056,0,0,1,251.24,166.549Z" transform="translate(-95.521 -56.66)"/><path class="cls-2" d="M255.328,168.9a1.8,1.8,0,0,1-.91-.234,2.392,2.392,0,0,1-1.014-2.2v-2.535a1.793,1.793,0,0,0-2.956-1.707l-2.2,1.267-.158-.273,2.2-1.268a2.1,2.1,0,0,1,3.43,1.981v2.535a1.793,1.793,0,0,0,2.956,1.706l10.511-6.068.158.273-10.511,6.068A3.048,3.048,0,0,1,255.328,168.9Z" transform="translate(-95.521 -56.66)"/><path class="cls-2" d="M259.417,171.252a1.788,1.788,0,0,1-.911-.235,2.391,2.391,0,0,1-1.014-2.2v-2.535a1.794,1.794,0,0,0-2.956-1.707l-2.195,1.268-.158-.274,2.195-1.267a2.1,2.1,0,0,1,3.43,1.98v2.535a1.793,1.793,0,0,0,2.956,1.706l10.51-6.068.159.274-10.511,6.068A3.045,3.045,0,0,1,259.417,171.252Z" transform="translate(-95.521 -56.66)"/><path class="cls-2" d="M263.505,173.6a1.8,1.8,0,0,1-.911-.235,2.392,2.392,0,0,1-1.014-2.2V168.63a1.793,1.793,0,0,0-2.956-1.706l-2.2,1.266-.158-.273,2.195-1.267a2.1,2.1,0,0,1,3.43,1.98v2.535a1.793,1.793,0,0,0,2.956,1.707l10.511-6.068.158.273-10.511,6.068A3.055,3.055,0,0,1,263.505,173.6Z" transform="translate(-95.521 -56.66)"/><path class="cls-2" d="M267.593,175.956a1.8,1.8,0,0,1-.911-.235,2.394,2.394,0,0,1-1.014-2.205v-2.535a1.793,1.793,0,0,0-2.956-1.706l-2.195,1.268-.158-.274L262.554,169a2.1,2.1,0,0,1,3.43,1.979v2.535a1.794,1.794,0,0,0,2.956,1.708l10.511-6.069.158.274L269.1,175.5A3.056,3.056,0,0,1,267.593,175.956Z" transform="translate(-95.521 -56.66)"/><path class="cls-2" d="M271.681,178.308a1.8,1.8,0,0,1-.91-.236,2.39,2.39,0,0,1-1.015-2.2v-2.534a1.793,1.793,0,0,0-2.956-1.707l-2.195,1.267-.158-.273,2.195-1.268a2.1,2.1,0,0,1,3.431,1.981v2.534a1.793,1.793,0,0,0,2.955,1.707l10.511-6.068.158.273-10.51,6.069A3.069,3.069,0,0,1,271.681,178.308Z" transform="translate(-95.521 -56.66)"/><path class="cls-2" d="M275.77,180.659a1.807,1.807,0,0,1-.911-.234,2.394,2.394,0,0,1-1.015-2.205v-2.535a1.793,1.793,0,0,0-2.955-1.707l-2.2,1.268-.158-.273,2.195-1.268a2.1,2.1,0,0,1,3.431,1.98v2.535a1.793,1.793,0,0,0,2.956,1.707l10.51-6.069.158.274-10.51,6.068A3.048,3.048,0,0,1,275.77,180.659Z" transform="translate(-95.521 -56.66)"/><path class="cls-2" d="M279.857,183.011a1.8,1.8,0,0,1-.91-.235,2.394,2.394,0,0,1-1.014-2.205v-2.534a1.793,1.793,0,0,0-2.956-1.707l-2.2,1.268-.158-.274,2.195-1.267a2.1,2.1,0,0,1,3.431,1.98v2.534a1.793,1.793,0,0,0,2.956,1.707l10.51-6.068.159.273-10.511,6.069A3.059,3.059,0,0,1,279.857,183.011Z" transform="translate(-95.521 -56.66)"/><polygon class="cls-3" points="179.087 121.711 179.087 131.044 98.32 177.675 17.551 131.043 17.551 121.71 179.087 121.711"/><polygon class="cls-4" points="98.32 168.342 17.551 121.71 98.318 75.079 179.087 121.711 98.32 168.342"/><polygon class="cls-5" points="98.32 167.251 18.496 121.165 17.551 121.71 98.32 168.342 179.087 121.711 178.142 121.166 98.32 167.251"/><polygon class="cls-6" points="98.32 157.586 36.198 121.72 98.318 85.855 160.44 121.721 98.32 157.586"/><polygon class="cls-7" points="98.32 157.588 36.197 121.721 98.318 85.855 160.441 121.722 98.32 157.588"/><polygon class="cls-8" points="98.318 76.811 160.441 112.677 160.441 121.721 98.318 85.854 98.318 76.811"/><polygon class="cls-9" points="98.32 85.854 36.197 121.72 36.197 112.676 98.318 76.811 98.32 85.854"/><polygon class="cls-10" points="98.32 148.543 36.197 112.676 98.318 76.811 160.441 112.677 98.32 148.543"/><polygon class="cls-11" points="98.319 127.008 73.496 112.677 98.319 98.346 123.142 112.677 98.319 127.008"/><polygon class="cls-11" points="98.319 99.664 122 113.337 123.142 112.677 98.319 98.346 73.496 112.677 74.638 113.336 98.319 99.664"/><polygon class="cls-12" points="98.32 148.543 98.32 157.587 160.441 121.721 160.441 112.677 98.32 148.543"/><polygon class="cls-13" points="36.197 112.676 36.197 121.72 98.32 157.587 98.32 148.543 36.197 112.676"/><polygon class="cls-14" points="98.32 147.556 37.052 112.183 36.197 112.676 98.32 148.543 160.441 112.677 159.586 112.184 98.32 147.556"/><path class="cls-2" d="M214.041,245.3l-10.511-6.069a7.24,7.24,0,0,1-3.272-5.667v-2.535a6.894,6.894,0,0,0-3.114-5.393l-2.195-1.268.158-.273,2.195,1.267a7.244,7.244,0,0,1,3.272,5.667v2.535a6.891,6.891,0,0,0,3.114,5.394l10.511,6.068Z" transform="translate(-95.521 -56.66)"/><path class="cls-2" d="M218.129,242.944l-10.511-6.068a7.244,7.244,0,0,1-3.272-5.667v-2.535a6.891,6.891,0,0,0-3.114-5.394l-2.195-1.267.158-.274,2.195,1.268a7.239,7.239,0,0,1,3.273,5.667v2.535a6.9,6.9,0,0,0,3.113,5.393l10.511,6.069Z" transform="translate(-95.521 -56.66)"/><path class="cls-2" d="M222.217,240.589l-10.51-6.069a7.244,7.244,0,0,1-3.273-5.668v-2.534a6.9,6.9,0,0,0-3.114-5.394l-2.195-1.267.158-.273,2.2,1.266a7.244,7.244,0,0,1,3.271,5.668v2.534a6.894,6.894,0,0,0,3.115,5.4l10.51,6.068Z" transform="translate(-95.521 -56.66)"/><path class="cls-2" d="M226.305,238.232l-10.511-6.068a7.24,7.24,0,0,1-3.272-5.667v-2.535a6.894,6.894,0,0,0-3.114-5.394l-2.195-1.267.158-.274,2.195,1.268a7.242,7.242,0,0,1,3.273,5.667V226.5a6.894,6.894,0,0,0,3.114,5.394l10.51,6.068Z" transform="translate(-95.521 -56.66)"/><path class="cls-2" d="M230.393,235.877l-10.51-6.069a7.24,7.24,0,0,1-3.273-5.667v-2.535a6.893,6.893,0,0,0-3.113-5.393l-2.2-1.268.158-.273,2.2,1.267a7.24,7.24,0,0,1,3.272,5.667v2.535a6.894,6.894,0,0,0,3.114,5.394l10.51,6.068Z" transform="translate(-95.521 -56.66)"/><path class="cls-2" d="M234.481,233.52l-10.51-6.067a7.244,7.244,0,0,1-3.272-5.668v-2.534a6.9,6.9,0,0,0-3.115-5.4l-2.195-1.266.158-.274,2.2,1.267a7.245,7.245,0,0,1,3.272,5.668v2.534a6.9,6.9,0,0,0,3.114,5.4l10.511,6.067Z" transform="translate(-95.521 -56.66)"/><path class="cls-2" d="M238.569,231.165l-10.51-6.068a7.238,7.238,0,0,1-3.272-5.667v-2.536a6.894,6.894,0,0,0-3.114-5.393l-2.195-1.268.158-.273,2.195,1.267a7.244,7.244,0,0,1,3.272,5.667v2.536a6.891,6.891,0,0,0,3.114,5.393l10.511,6.068Z" transform="translate(-95.521 -56.66)"/><path class="cls-2" d="M242.658,228.809l-10.511-6.068a7.244,7.244,0,0,1-3.272-5.667v-2.535a6.894,6.894,0,0,0-3.114-5.394l-2.2-1.267.159-.274,2.2,1.268a7.238,7.238,0,0,1,3.272,5.667v2.535a6.9,6.9,0,0,0,3.114,5.394l10.511,6.068Z" transform="translate(-95.521 -56.66)"/><path class="cls-2" d="M246.746,226.453l-10.511-6.067a7.245,7.245,0,0,1-3.272-5.668v-2.535a6.9,6.9,0,0,0-3.114-5.394l-2.195-1.267.158-.273,2.195,1.267a7.241,7.241,0,0,1,3.272,5.667v2.535a6.894,6.894,0,0,0,3.115,5.394l10.51,6.068Z" transform="translate(-95.521 -56.66)"/><path class="cls-2" d="M250.834,224.1l-10.511-6.069a7.24,7.24,0,0,1-3.272-5.667v-2.535a6.9,6.9,0,0,0-3.114-5.394l-2.2-1.267.158-.274,2.195,1.268a7.242,7.242,0,0,1,3.273,5.667v2.535a6.893,6.893,0,0,0,3.113,5.394l10.511,6.068Z" transform="translate(-95.521 -56.66)"/><path class="cls-2" d="M254.922,221.742l-10.51-6.068a7.242,7.242,0,0,1-3.273-5.667v-2.535a6.891,6.891,0,0,0-3.114-5.394l-2.195-1.268.158-.273,2.2,1.268a7.24,7.24,0,0,1,3.272,5.667v2.535a6.894,6.894,0,0,0,3.114,5.393l10.51,6.069Z" transform="translate(-95.521 -56.66)"/><path class="cls-2" d="M259.01,219.386l-10.51-6.069a7.238,7.238,0,0,1-3.272-5.667v-2.534a6.894,6.894,0,0,0-3.115-5.394l-2.195-1.267.158-.273,2.195,1.266a7.244,7.244,0,0,1,3.273,5.668v2.534a6.891,6.891,0,0,0,3.114,5.394l10.51,6.068Z" transform="translate(-95.521 -56.66)"/><path class="cls-2" d="M263.1,217.03l-10.51-6.068a7.239,7.239,0,0,1-3.273-5.667V202.76a6.9,6.9,0,0,0-3.113-5.394l-2.2-1.267.159-.274,2.2,1.268a7.244,7.244,0,0,1,3.272,5.667V205.3a6.891,6.891,0,0,0,3.114,5.393l10.51,6.069Z" transform="translate(-95.521 -56.66)"/><path class="cls-2" d="M267.187,214.675l-10.511-6.069a7.244,7.244,0,0,1-3.272-5.667V200.4a6.891,6.891,0,0,0-3.114-5.393l-2.2-1.268.158-.273,2.2,1.267a7.24,7.24,0,0,1,3.272,5.667v2.535a6.894,6.894,0,0,0,3.114,5.394l10.511,6.068Z" transform="translate(-95.521 -56.66)"/><path class="cls-2" d="M271.274,212.318l-10.51-6.068a7.238,7.238,0,0,1-3.272-5.667v-2.534a6.9,6.9,0,0,0-3.114-5.4l-2.195-1.267.158-.274,2.195,1.268a7.245,7.245,0,0,1,3.272,5.668v2.534a6.891,6.891,0,0,0,3.114,5.393l10.511,6.069Z" transform="translate(-95.521 -56.66)"/><path class="cls-2" d="M275.363,209.963l-10.511-6.069a7.24,7.24,0,0,1-3.272-5.667v-2.535a6.894,6.894,0,0,0-3.114-5.393l-2.195-1.268.158-.273,2.2,1.267a7.241,7.241,0,0,1,3.272,5.667v2.535a6.891,6.891,0,0,0,3.114,5.394l10.511,6.068Z" transform="translate(-95.521 -56.66)"/><path class="cls-2" d="M279.451,207.607l-10.511-6.068a7.244,7.244,0,0,1-3.272-5.667v-2.535a6.891,6.891,0,0,0-3.114-5.394l-2.195-1.267.158-.274,2.195,1.268a7.238,7.238,0,0,1,3.272,5.667v2.535a6.9,6.9,0,0,0,3.115,5.394l10.51,6.068Z" transform="translate(-95.521 -56.66)"/><path class="cls-2" d="M283.539,205.251l-10.511-6.068a7.242,7.242,0,0,1-3.272-5.667v-2.535a6.9,6.9,0,0,0-3.114-5.394l-2.195-1.268.158-.273,2.195,1.267a7.244,7.244,0,0,1,3.273,5.668v2.535a6.891,6.891,0,0,0,3.114,5.393l10.51,6.068Z" transform="translate(-95.521 -56.66)"/><path class="cls-2" d="M287.627,202.9l-10.51-6.068a7.242,7.242,0,0,1-3.273-5.667v-2.535a6.9,6.9,0,0,0-3.114-5.394l-2.195-1.267.158-.274,2.2,1.268a7.244,7.244,0,0,1,3.272,5.667v2.535a6.9,6.9,0,0,0,3.114,5.394l10.51,6.068Z" transform="translate(-95.521 -56.66)"/><path class="cls-2" d="M291.715,200.54l-10.51-6.068a7.241,7.241,0,0,1-3.272-5.667v-2.536a6.889,6.889,0,0,0-3.115-5.393l-2.195-1.268.158-.273,2.2,1.267a7.24,7.24,0,0,1,3.272,5.667v2.536a6.894,6.894,0,0,0,3.114,5.393l10.511,6.068Z" transform="translate(-95.521 -56.66)"/><path class="cls-2" d="M173.354,245.3l-.158-.274,10.511-6.068a6.891,6.891,0,0,0,3.114-5.394v-2.535a7.244,7.244,0,0,1,3.272-5.667l2.2-1.267.158.273-2.195,1.268a6.894,6.894,0,0,0-3.114,5.393v2.535a7.24,7.24,0,0,1-3.272,5.667Z" transform="translate(-95.521 -56.66)"/><path class="cls-2" d="M169.266,242.944l-.158-.273,10.511-6.069a6.9,6.9,0,0,0,3.113-5.393v-2.535a7.239,7.239,0,0,1,3.273-5.667l2.195-1.268.158.274-2.195,1.267a6.891,6.891,0,0,0-3.114,5.394v2.535a7.244,7.244,0,0,1-3.272,5.667Z" transform="translate(-95.521 -56.66)"/><path class="cls-2" d="M165.178,240.589l-.158-.274,10.51-6.068a6.894,6.894,0,0,0,3.115-5.4v-2.534a7.241,7.241,0,0,1,3.272-5.668l2.195-1.266.158.273-2.2,1.267a6.9,6.9,0,0,0-3.114,5.394v2.534a7.244,7.244,0,0,1-3.273,5.668Z" transform="translate(-95.521 -56.66)"/><path class="cls-2" d="M161.09,238.232l-.158-.273,10.51-6.068a6.894,6.894,0,0,0,3.114-5.394v-2.535a7.242,7.242,0,0,1,3.273-5.667l2.195-1.268.158.274-2.195,1.267a6.894,6.894,0,0,0-3.114,5.394V226.5a7.24,7.24,0,0,1-3.272,5.667Z" transform="translate(-95.521 -56.66)"/><path class="cls-2" d="M157,235.877l-.158-.274,10.511-6.068a6.894,6.894,0,0,0,3.114-5.394v-2.535a7.24,7.24,0,0,1,3.272-5.667l2.2-1.267.158.273-2.2,1.268a6.893,6.893,0,0,0-3.113,5.393v2.535a7.24,7.24,0,0,1-3.273,5.667Z" transform="translate(-95.521 -56.66)"/><path class="cls-2" d="M152.914,233.52l-.159-.273,10.511-6.067a6.9,6.9,0,0,0,3.114-5.4v-2.534a7.245,7.245,0,0,1,3.272-5.668l2.2-1.267.158.274-2.195,1.266a6.9,6.9,0,0,0-3.115,5.4v2.534a7.243,7.243,0,0,1-3.272,5.668Z" transform="translate(-95.521 -56.66)"/><path class="cls-2" d="M148.825,231.165l-.158-.274,10.511-6.068a6.891,6.891,0,0,0,3.114-5.393v-2.536a7.244,7.244,0,0,1,3.272-5.667l2.195-1.267.158.273-2.195,1.268a6.894,6.894,0,0,0-3.114,5.393v2.536a7.238,7.238,0,0,1-3.272,5.667Z" transform="translate(-95.521 -56.66)"/><path class="cls-2" d="M144.737,228.809l-.158-.273,10.511-6.068a6.9,6.9,0,0,0,3.114-5.394v-2.535a7.238,7.238,0,0,1,3.272-5.667l2.195-1.268.159.274-2.2,1.267a6.894,6.894,0,0,0-3.114,5.394v2.535a7.244,7.244,0,0,1-3.272,5.667Z" transform="translate(-95.521 -56.66)"/><path class="cls-2" d="M136.561,224.1l-.158-.274,10.511-6.068a6.893,6.893,0,0,0,3.113-5.394v-2.535a7.242,7.242,0,0,1,3.273-5.667l2.195-1.268.158.274-2.195,1.267a6.9,6.9,0,0,0-3.114,5.394v2.535a7.24,7.24,0,0,1-3.272,5.667Z" transform="translate(-95.521 -56.66)"/><path class="cls-2" d="M132.473,221.742l-.159-.273,10.511-6.069a6.894,6.894,0,0,0,3.114-5.393v-2.535a7.24,7.24,0,0,1,3.272-5.667l2.2-1.268.158.273-2.195,1.268a6.891,6.891,0,0,0-3.114,5.394v2.535a7.242,7.242,0,0,1-3.273,5.667Z" transform="translate(-95.521 -56.66)"/><path class="cls-2" d="M128.385,219.386l-.158-.274,10.51-6.068a6.891,6.891,0,0,0,3.114-5.394v-2.534a7.244,7.244,0,0,1,3.273-5.668l2.195-1.266.158.273-2.195,1.267a6.894,6.894,0,0,0-3.115,5.394v2.534a7.239,7.239,0,0,1-3.271,5.667Z" transform="translate(-95.521 -56.66)"/><path class="cls-2" d="M124.3,217.03l-.158-.273,10.511-6.069a6.891,6.891,0,0,0,3.114-5.393V202.76a7.244,7.244,0,0,1,3.272-5.667l2.195-1.268.159.274-2.2,1.267a6.9,6.9,0,0,0-3.113,5.394V205.3a7.239,7.239,0,0,1-3.273,5.667Z" transform="translate(-95.521 -56.66)"/><path class="cls-2" d="M120.209,214.675l-.159-.274,10.511-6.068a6.894,6.894,0,0,0,3.114-5.394V200.4a7.24,7.24,0,0,1,3.272-5.667l2.2-1.267.158.273-2.2,1.268a6.891,6.891,0,0,0-3.114,5.393v2.535a7.244,7.244,0,0,1-3.272,5.667Z" transform="translate(-95.521 -56.66)"/><path class="cls-2" d="M116.12,212.318l-.158-.273,10.511-6.069a6.891,6.891,0,0,0,3.114-5.393v-2.534a7.245,7.245,0,0,1,3.272-5.668l2.195-1.268.158.274-2.195,1.267a6.9,6.9,0,0,0-3.114,5.4v2.534a7.238,7.238,0,0,1-3.272,5.667Z" transform="translate(-95.521 -56.66)"/><path class="cls-2" d="M112.032,209.963l-.158-.274,10.511-6.068a6.891,6.891,0,0,0,3.114-5.394v-2.535a7.241,7.241,0,0,1,3.272-5.667l2.2-1.267.159.273-2.2,1.268a6.894,6.894,0,0,0-3.114,5.393v2.535a7.24,7.24,0,0,1-3.272,5.667Z" transform="translate(-95.521 -56.66)"/><path class="cls-2" d="M107.944,207.607l-.158-.273,10.51-6.068a6.9,6.9,0,0,0,3.115-5.394v-2.535a7.238,7.238,0,0,1,3.272-5.667l2.195-1.268.158.274-2.2,1.267a6.891,6.891,0,0,0-3.114,5.394v2.535a7.244,7.244,0,0,1-3.272,5.667Z" transform="translate(-95.521 -56.66)"/><path class="cls-2" d="M103.856,205.251l-.158-.274,10.511-6.068a6.893,6.893,0,0,0,3.113-5.393v-2.535a7.244,7.244,0,0,1,3.273-5.668l2.2-1.267.158.273-2.195,1.268a6.9,6.9,0,0,0-3.114,5.394v2.535a7.242,7.242,0,0,1-3.272,5.667Z" transform="translate(-95.521 -56.66)"/><path class="cls-2" d="M99.768,202.9l-.159-.273,10.511-6.068a6.9,6.9,0,0,0,3.114-5.394v-2.535a7.244,7.244,0,0,1,3.272-5.667l2.2-1.268.158.274-2.195,1.267a6.9,6.9,0,0,0-3.114,5.394v2.535a7.242,7.242,0,0,1-3.273,5.667Z" transform="translate(-95.521 -56.66)"/><path class="cls-2" d="M95.68,200.54l-.159-.274,10.511-6.068a6.894,6.894,0,0,0,3.114-5.393v-2.536a7.24,7.24,0,0,1,3.272-5.667l2.2-1.267.158.273-2.2,1.268a6.889,6.889,0,0,0-3.115,5.393v2.536a7.241,7.241,0,0,1-3.272,5.667Z" transform="translate(-95.521 -56.66)"/><polygon class="cls-15" points="98.32 81.134 83.252 72.434 83.252 89.832 98.32 98.532 113.387 89.832 113.387 72.434 98.32 81.134"/><polygon class="cls-15" points="98.32 98.532 83.252 89.832 83.252 72.434 98.32 81.134 98.32 98.532"/><polygon class="cls-16" points="113.388 89.832 98.32 98.532 98.32 81.134 113.388 72.434 113.388 89.832"/><polygon class="cls-15" points="98.32 81.134 83.252 72.434 98.319 63.735 113.387 72.435 98.32 81.134"/><polygon class="cls-5" points="98.32 81.134 83.906 72.811 83.252 73.189 98.32 81.888 113.387 73.189 112.734 72.812 98.32 81.134"/><polygon class="cls-15" points="117.892 92.301 102.824 83.601 102.824 100.999 117.892 109.699 132.959 100.999 132.959 83.601 117.892 92.301"/><polygon class="cls-15" points="117.892 109.699 102.824 101 102.824 83.601 117.892 92.301 117.892 109.699"/><polygon class="cls-16" points="132.959 101 117.892 109.699 117.892 92.301 132.959 83.601 132.959 101"/><polygon class="cls-15" points="117.892 92.301 102.824 83.601 117.891 74.902 132.959 83.602 117.892 92.301"/><polygon class="cls-5" points="117.892 92.301 103.478 83.979 102.824 84.356 117.892 93.055 132.959 84.356 132.305 83.979 117.892 92.301"/><polygon class="cls-15" points="137.464 103.468 122.396 94.769 122.396 112.167 137.464 120.866 152.531 112.167 152.531 94.769 137.464 103.468"/><polygon class="cls-15" points="137.464 120.866 122.396 112.167 122.396 94.769 137.464 103.468 137.464 120.866"/><polygon class="cls-16" points="152.531 112.167 137.464 120.866 137.464 103.468 152.531 94.769 152.531 112.167"/><polygon class="cls-15" points="137.464 103.468 122.396 94.769 137.463 86.07 152.531 94.769 137.464 103.468"/><polygon class="cls-5" points="137.464 103.468 123.05 95.146 122.396 95.523 137.464 104.223 152.531 95.524 152.531 94.769 137.464 103.468"/><polygon class="cls-15" points="78.748 93.056 63.68 84.356 63.68 101.754 78.748 110.453 93.816 101.754 93.816 84.356 78.748 93.056"/><polygon class="cls-15" points="78.748 110.454 63.68 101.754 63.68 84.356 78.748 93.056 78.748 110.454"/><polygon class="cls-16" points="93.816 101.754 78.748 110.454 78.748 93.056 93.816 84.356 93.816 101.754"/><polygon class="cls-15" points="78.748 93.056 63.68 84.356 78.748 75.657 93.815 84.356 78.748 93.056"/><polygon class="cls-5" points="78.748 93.056 64.334 84.734 63.68 85.111 78.748 93.81 93.815 85.111 93.162 84.734 78.748 93.056"/><polygon class="cls-15" points="98.32 104.223 83.252 95.523 83.252 112.922 98.32 121.621 113.387 112.922 113.387 95.523 98.32 104.223"/><polygon class="cls-15" points="98.32 121.621 83.252 112.922 83.252 95.523 98.32 104.223 98.32 121.621"/><polygon class="cls-16" points="113.388 112.922 98.32 121.621 98.32 104.223 113.388 95.523 113.388 112.922"/><polygon class="cls-15" points="98.32 104.223 83.252 95.523 98.319 86.824 113.387 95.524 98.32 104.223"/><polygon class="cls-5" points="98.32 104.223 83.906 95.901 83.252 96.278 98.32 104.977 113.387 96.278 112.734 95.901 98.32 104.223"/><polygon class="cls-15" points="117.892 115.39 102.824 106.691 102.824 124.089 117.892 132.788 132.959 124.089 132.959 106.691 117.892 115.39"/><polygon class="cls-15" points="117.892 132.788 102.824 124.089 102.824 106.691 117.892 115.39 117.892 132.788"/><polygon class="cls-16" points="132.959 124.089 117.892 132.788 117.892 115.39 132.959 106.691 132.959 124.089"/><polygon class="cls-15" points="117.892 115.39 102.824 106.691 117.891 97.992 132.959 106.691 117.892 115.39"/><polygon class="cls-5" points="117.892 115.39 103.478 107.068 102.824 107.445 117.892 116.145 132.959 107.445 132.959 106.691 117.892 115.39"/><polygon class="cls-15" points="59.176 104.977 44.109 96.278 44.109 113.676 59.176 122.376 74.244 113.676 74.244 96.278 59.176 104.977"/><polygon class="cls-15" points="59.176 122.376 44.109 113.676 44.109 96.278 59.176 104.977 59.176 122.376"/><polygon class="cls-16" points="74.244 113.676 59.176 122.376 59.176 104.977 74.244 96.278 74.244 113.676"/><polygon class="cls-15" points="59.176 104.977 44.109 96.278 59.176 87.579 74.243 96.278 59.176 104.977"/><polygon class="cls-5" points="59.176 104.977 44.109 96.278 44.109 97.033 59.176 105.732 74.243 97.033 73.59 96.656 59.176 104.977"/><polygon class="cls-15" points="78.748 116.145 63.68 107.445 63.68 124.843 78.748 133.543 93.816 124.843 93.816 107.445 78.748 116.145"/><polygon class="cls-15" points="78.748 133.543 63.68 124.844 63.68 107.445 78.748 116.145 78.748 133.543"/><polygon class="cls-16" points="93.816 124.844 78.748 133.543 78.748 116.145 93.816 107.445 93.816 124.844"/><polygon class="cls-15" points="78.748 116.145 63.68 107.445 78.748 98.746 93.815 107.446 78.748 116.145"/><polygon class="cls-5" points="78.748 116.145 63.68 107.445 63.68 108.2 78.748 116.899 93.815 108.2 93.162 107.823 78.748 116.145"/><polygon class="cls-15" points="98.32 127.312 83.252 118.613 83.252 136.011 98.32 144.71 113.387 136.011 113.387 118.613 98.32 127.312"/><polygon class="cls-15" points="98.32 144.71 83.252 136.011 83.252 118.613 98.32 127.312 98.32 144.71"/><polygon class="cls-16" points="113.388 136.011 98.32 144.71 98.32 127.312 113.388 118.613 113.388 136.011"/><polygon class="cls-15" points="98.32 127.312 83.252 118.613 98.319 109.913 113.387 118.613 98.32 127.312"/><polygon class="cls-5" points="98.32 127.312 83.252 118.612 83.252 119.367 98.32 128.067 113.387 119.367 113.387 118.613 98.32 127.312"/><polygon class="cls-15" points="98.32 58.045 83.252 49.345 83.252 66.743 98.32 75.443 113.387 66.743 113.387 49.345 98.32 58.045"/><polygon class="cls-15" points="98.32 75.443 83.252 66.743 83.252 49.345 98.32 58.045 98.32 75.443"/><polygon class="cls-16" points="113.388 66.743 98.32 75.443 98.32 58.045 113.388 49.345 113.388 66.743"/><polygon class="cls-15" points="98.32 58.045 83.252 49.345 98.319 40.646 113.387 49.346 98.32 58.045"/><polygon class="cls-5" points="98.32 58.045 83.906 49.722 83.252 50.1 98.32 58.799 113.387 50.1 112.734 49.723 98.32 58.045"/><polygon class="cls-17" points="98.32 124.478 88.041 118.544 98.32 112.61 108.598 118.544 98.32 124.478"/><polygon class="cls-17" points="78.748 113.311 68.47 107.377 78.748 101.443 89.026 107.377 78.748 113.311"/><polygon class="cls-17" points="117.892 112.556 107.613 106.622 117.891 100.688 128.17 106.622 117.892 112.556"/><polygon class="cls-17" points="137.501 100.771 127.223 94.837 137.501 88.903 147.779 94.837 137.501 100.771"/><polygon class="cls-17" points="59.176 102.144 48.898 96.21 59.176 90.276 69.454 96.21 59.176 102.144"/><polygon class="cls-15" points="117.892 69.212 102.824 60.512 102.824 77.91 117.892 86.61 132.959 77.91 132.959 60.512 117.892 69.212"/><polygon class="cls-15" points="117.892 86.61 102.824 77.911 102.824 60.512 117.892 69.212 117.892 86.61"/><polygon class="cls-16" points="132.959 77.911 117.892 86.61 117.892 69.212 132.959 60.512 132.959 77.911"/><polygon class="cls-15" points="117.892 69.212 102.824 60.512 117.891 51.813 132.959 60.513 117.892 69.212"/><polygon class="cls-5" points="117.892 69.212 103.478 60.89 102.824 61.267 117.892 69.966 132.959 61.267 132.305 60.89 117.892 69.212"/><polygon class="cls-15" points="137.464 80.379 122.396 71.68 122.396 89.078 137.464 97.777 152.531 89.078 152.531 71.68 137.464 80.379"/><polygon class="cls-15" points="137.464 97.777 122.396 89.078 122.396 71.68 137.464 80.379 137.464 97.777"/><polygon class="cls-16" points="152.531 89.078 137.464 97.777 137.464 80.379 152.531 71.68 152.531 89.078"/><polygon class="cls-15" points="137.464 80.379 122.396 71.68 137.463 62.981 152.531 71.68 137.464 80.379"/><polygon class="cls-5" points="137.464 80.379 123.05 72.057 122.396 72.434 137.464 81.134 152.531 72.435 152.531 71.68 137.464 80.379"/><polygon class="cls-15" points="78.748 69.967 63.68 61.267 63.68 78.665 78.748 87.364 93.816 78.665 93.816 61.267 78.748 69.967"/><polygon class="cls-15" points="78.748 87.365 63.68 78.665 63.68 61.267 78.748 69.967 78.748 87.365"/><polygon class="cls-16" points="93.816 78.665 78.748 87.365 78.748 69.967 93.816 61.267 93.816 78.665"/><polygon class="cls-15" points="78.748 69.967 63.68 61.267 78.748 52.568 93.815 61.267 78.748 69.967"/><polygon class="cls-5" points="78.748 69.967 64.334 61.645 63.68 62.022 78.748 70.721 93.815 62.022 93.162 61.645 78.748 69.967"/><polygon class="cls-15" points="98.32 81.134 83.252 72.434 83.252 89.833 98.32 98.532 113.387 89.833 113.387 72.434 98.32 81.134"/><polygon class="cls-15" points="98.32 98.532 83.252 89.833 83.252 72.434 98.32 81.134 98.32 98.532"/><polygon class="cls-16" points="113.388 89.833 98.32 98.532 98.32 81.134 113.388 72.434 113.388 89.833"/><polygon class="cls-15" points="98.32 81.134 83.252 72.434 98.319 63.735 113.387 72.435 98.32 81.134"/><polygon class="cls-5" points="98.32 81.134 83.906 72.812 83.252 73.189 98.32 81.888 113.387 73.189 112.734 72.812 98.32 81.134"/><polygon class="cls-15" points="117.892 92.301 102.824 83.602 102.824 101 117.892 109.699 132.959 101 132.959 83.602 117.892 92.301"/><polygon class="cls-15" points="117.892 109.699 102.824 101 102.824 83.602 117.892 92.301 117.892 109.699"/><polygon class="cls-16" points="132.959 101 117.892 109.699 117.892 92.301 132.959 83.602 132.959 101"/><polygon class="cls-15" points="117.892 92.301 102.824 83.602 117.891 74.903 132.959 83.602 117.892 92.301"/><polygon class="cls-5" points="117.892 92.301 103.478 83.979 102.824 84.356 117.892 93.056 132.959 84.356 132.959 83.602 117.892 92.301"/><polygon class="cls-15" points="59.176 81.889 44.109 73.189 44.109 90.587 59.176 99.286 74.244 90.587 74.244 73.189 59.176 81.889"/><polygon class="cls-15" points="59.176 99.287 44.109 90.587 44.109 73.189 59.176 81.888 59.176 99.287"/><polygon class="cls-16" points="74.244 90.587 59.176 99.287 59.176 81.888 74.244 73.189 74.244 90.587"/><polygon class="cls-15" points="59.176 81.888 44.109 73.189 59.176 64.49 74.243 73.189 59.176 81.888"/><polygon class="cls-5" points="59.176 81.889 44.762 73.566 44.109 73.944 59.176 82.643 74.243 73.944 73.59 73.567 59.176 81.889"/><polygon class="cls-15" points="78.748 93.056 63.68 84.356 63.68 101.754 78.748 110.454 93.816 101.754 93.816 84.356 78.748 93.056"/><polygon class="cls-15" points="78.748 110.454 63.68 101.754 63.68 84.356 78.748 93.056 78.748 110.454"/><polygon class="cls-16" points="93.816 101.754 78.748 110.454 78.748 93.056 93.816 84.356 93.816 101.754"/><polygon class="cls-15" points="78.748 93.056 63.68 84.356 78.748 75.657 93.815 84.357 78.748 93.056"/><polygon class="cls-5" points="78.748 93.056 63.68 84.356 63.68 85.111 78.748 93.81 93.815 85.111 93.162 84.734 78.748 93.056"/><polygon class="cls-15" points="98.32 104.223 83.252 95.524 83.252 112.922 98.32 121.621 113.387 112.922 113.387 95.524 98.32 104.223"/><polygon class="cls-15" points="98.32 121.621 83.252 112.922 83.252 95.524 98.32 104.223 98.32 121.621"/><polygon class="cls-16" points="113.388 112.922 98.32 121.621 98.32 104.223 113.388 95.524 113.388 112.922"/><polygon class="cls-15" points="98.32 104.223 83.252 95.524 98.319 86.824 113.387 95.524 98.32 104.223"/><polygon class="cls-5" points="98.32 104.223 83.252 95.523 83.252 96.278 98.32 104.977 113.387 96.278 113.387 95.524 98.32 104.223"/><polygon class="cls-17" points="137.501 77.784 127.223 71.85 137.501 65.916 147.779 71.85 137.501 77.784"/><polygon class="cls-17" points="59.176 79.157 48.898 73.223 59.176 67.289 69.454 73.223 59.176 79.157"/><polygon class="cls-15" points="98.32 34.956 83.252 26.256 83.252 43.654 98.32 52.354 113.387 43.654 113.387 26.256 98.32 34.956"/><polygon class="cls-15" points="98.32 52.354 83.252 43.654 83.252 26.256 98.32 34.956 98.32 52.354"/><polygon class="cls-16" points="113.388 43.654 98.32 52.354 98.32 34.956 113.388 26.256 113.388 43.654"/><polygon class="cls-15" points="98.32 34.956 83.252 26.256 98.319 17.557 113.387 26.257 98.32 34.956"/><polygon class="cls-5" points="98.32 34.956 83.252 26.256 83.252 27.011 98.32 35.71 113.387 27.011 113.387 26.256 98.32 34.956"/><polygon class="cls-15" points="117.892 46.123 102.824 37.423 102.824 54.822 117.892 63.521 132.959 54.822 132.959 37.423 117.892 46.123"/><polygon class="cls-15" points="117.892 63.521 102.824 54.822 102.824 37.423 117.892 46.123 117.892 63.521"/><polygon class="cls-16" points="132.959 54.822 117.892 63.521 117.892 46.123 132.959 37.423 132.959 54.822"/><polygon class="cls-15" points="117.892 46.123 102.824 37.423 117.891 28.724 132.959 37.424 117.892 46.123"/><polygon class="cls-5" points="117.892 46.123 102.824 37.423 102.824 38.178 117.892 46.877 132.959 38.178 132.959 37.423 117.892 46.123"/><polygon class="cls-15" points="137.464 57.29 122.396 48.591 122.396 65.989 137.464 74.688 152.531 65.989 152.531 48.591 137.464 57.29"/><polygon class="cls-15" points="137.464 74.688 122.396 65.989 122.396 48.591 137.464 57.29 137.464 74.688"/><polygon class="cls-16" points="152.531 65.989 137.464 74.688 137.464 57.29 152.531 48.591 152.531 65.989"/><polygon class="cls-15" points="137.464 57.29 122.396 48.591 137.463 39.892 152.531 48.591 137.464 57.29"/><polygon class="cls-5" points="137.464 57.29 122.396 48.591 122.396 49.345 137.464 58.045 152.531 49.346 152.531 48.591 137.464 57.29"/><polygon class="cls-15" points="78.748 46.878 63.68 38.178 63.68 55.576 78.748 64.275 93.816 55.576 93.816 38.178 78.748 46.878"/><polygon class="cls-15" points="78.748 64.276 63.68 55.576 63.68 38.178 78.748 46.878 78.748 64.276"/><polygon class="cls-16" points="93.816 55.576 78.748 64.276 78.748 46.878 93.816 38.178 93.816 55.576"/><polygon class="cls-15" points="78.748 46.878 63.68 38.178 78.748 29.479 93.815 38.178 78.748 46.878"/><polygon class="cls-5" points="78.748 46.878 63.68 38.178 63.68 38.933 78.748 47.632 93.815 38.933 93.816 38.178 78.748 46.878"/><polygon class="cls-15" points="59.176 58.8 44.109 50.1 44.109 67.498 59.176 76.197 74.244 67.498 74.244 50.1 59.176 58.8"/><polygon class="cls-15" points="59.176 76.198 44.109 67.498 44.109 50.1 59.176 58.799 59.176 76.198"/><polygon class="cls-16" points="74.244 67.498 59.176 76.198 59.176 58.799 74.244 50.1 74.244 67.498"/><polygon class="cls-15" points="59.176 58.799 44.109 50.1 59.176 41.401 74.243 50.1 59.176 58.799"/><polygon class="cls-5" points="59.176 58.8 44.109 50.1 44.109 50.855 59.176 59.554 74.243 50.855 74.244 50.1 59.176 58.8"/><polygon class="cls-18" points="160.441 112.677 160.441 0 36.106 0 36.197 112.676 98.32 148.543 160.441 112.677"/></g></g></svg>