<svg id="Ñëîé_1" data-name="Ñëîé 1" xmlns="http://www.w3.org/2000/svg" xmlns:xlink="http://www.w3.org/1999/xlink" viewBox="0 0 205.321 260.819"><defs><style>.cls-1{fill:#03a7d3;}.cls-1,.cls-17{opacity:0.4;}.cls-18,.cls-19,.cls-2{opacity:0.5;}.cls-3{fill:#380031;}.cls-4{fill:url(#Áåçûìÿííûé_ãðàäèåíò_242);}.cls-5{fill:url(#Áåçûìÿííûé_ãðàäèåíò_297);}.cls-6{fill:url(#Áåçûìÿííûé_ãðàäèåíò_249);}.cls-7{fill:url(#Áåçûìÿííûé_ãðàäèåíò_403);}.cls-8{fill:url(#Áåçûìÿííûé_ãðàäèåíò_249-2);}.cls-9{fill:url(#Áåçûìÿííûé_ãðàäèåíò_318);}.cls-10{fill:url(#Áåçûìÿííûé_ãðàäèåíò_297-2);}.cls-11,.cls-19{fill:#fff;}.cls-12{fill:url(#Áåçûìÿííûé_ãðàäèåíò_297-3);}.cls-13{fill:#11203c;}.cls-14{fill:#121a46;}.cls-15{fill:url(#Áåçûìÿííûé_ãðàäèåíò_242-2);}.cls-16{fill:url(#Áåçûìÿííûé_ãðàäèåíò_506);}.cls-17,.cls-20{fill:#07aadb;}.cls-18{fill:#e6f4f6;}.cls-21{fill:#112564;}.cls-22{fill:url(#Áåçûìÿííûé_ãðàäèåíò_346);}.cls-23{fill:url(#Áåçûìÿííûé_ãðàäèåíò_346-2);}.cls-24{fill:url(#Áåçûìÿííûé_ãðàäèåíò_346-3);}.cls-25{fill:url(#Áåçûìÿííûé_ãðàäèåíò_346-4);}.cls-26{fill:url(#Áåçûìÿííûé_ãðàäèåíò_242-3);}.cls-27{fill:url(#Áåçûìÿííûé_ãðàäèåíò_297-5);}.cls-28{fill:url(#Áåçûìÿííûé_ãðàäèåíò_249-3);}.cls-29{fill:url(#Áåçûìÿííûé_ãðàäèåíò_403-2);}.cls-30{fill:url(#Áåçûìÿííûé_ãðàäèåíò_249-4);}.cls-31{fill:url(#Áåçûìÿííûé_ãðàäèåíò_318-2);}.cls-32{fill:url(#Áåçûìÿííûé_ãðàäèåíò_297-6);}.cls-33{fill:url(#Áåçûìÿííûé_ãðàäèåíò_297-7);}.cls-34{fill:url(#Áåçûìÿííûé_ãðàäèåíò_242-4);}.cls-35{fill:url(#Áåçûìÿííûé_ãðàäèåíò_506-2);}.cls-36{fill:url(#Áåçûìÿííûé_ãðàäèåíò_346-5);}.cls-37{fill:url(#Áåçûìÿííûé_ãðàäèåíò_346-6);}.cls-38{fill:url(#Áåçûìÿííûé_ãðàäèåíò_346-7);}.cls-39{fill:url(#Áåçûìÿííûé_ãðàäèåíò_346-8);}</style><radialGradient id="Áåçûìÿííûé_ãðàäèåíò_242" cx="632.573" cy="213.434" r="166.466" gradientUnits="userSpaceOnUse"><stop offset="0" stop-color="#01c8ef"/><stop offset="0.089" stop-color="#03bee9"/><stop offset="0.239" stop-color="#08a5d7"/><stop offset="0.429" stop-color="#107bbb"/><stop offset="0.446" stop-color="#1177b8"/><stop offset="1" stop-color="#112564"/></radialGradient><linearGradient id="Áåçûìÿííûé_ãðàäèåíò_297" x1="369.54" y1="118.767" x2="602.816" y2="164.329" gradientUnits="userSpaceOnUse"><stop offset="0" stop-color="#01c8ef"/><stop offset="0.138" stop-color="#02c5ed"/><stop offset="0.245" stop-color="#04bbe6"/><stop offset="0.342" stop-color="#07abdb"/><stop offset="0.432" stop-color="#0b94cb"/><stop offset="0.515" stop-color="#1177b8"/><stop offset="1" stop-color="#172f78"/></linearGradient><linearGradient id="Áåçûìÿííûé_ãðàäèåíò_249" x1="387.911" y1="89.053" x2="542.195" y2="119.186" gradientTransform="matrix(0.866, 0.5, 0, 1, 35.211, -131.917)" gradientUnits="userSpaceOnUse"><stop offset="0" stop-color="#01c8ef"/><stop offset="0.089" stop-color="#03bee9"/><stop offset="0.239" stop-color="#08a5d7"/><stop offset="0.429" stop-color="#107bbb"/><stop offset="0.446" stop-color="#1177b8"/><stop offset="1" stop-color="#172f78"/></linearGradient><linearGradient id="Áåçûìÿííûé_ãðàäèåíò_403" x1="475.562" y1="206.865" x2="374.298" y2="170.835" gradientUnits="userSpaceOnUse"><stop offset="0" stop-color="#01c8ef"/><stop offset="0.019" stop-color="#03bee9"/><stop offset="0.051" stop-color="#08a5d7"/><stop offset="0.092" stop-color="#107bbb"/><stop offset="0.095" stop-color="#1177b8"/><stop offset="0.293" stop-color="#135fa3"/><stop offset="0.566" stop-color="#15458b"/><stop offset="0.811" stop-color="#17357d"/><stop offset="1" stop-color="#172f78"/></linearGradient><linearGradient id="Áåçûìÿííûé_ãðàäèåíò_249-2" x1="612.291" y1="173.524" x2="385.571" y2="207.888" gradientTransform="matrix(1, 0, 0, 1, 0, 0)" xlink:href="#Áåçûìÿííûé_ãðàäèåíò_249"/><linearGradient id="Áåçûìÿííûé_ãðàäèåíò_318" x1="571.373" y1="247.164" x2="434.098" y2="179.669" gradientUnits="userSpaceOnUse"><stop offset="0" stop-color="#01c8ef"/><stop offset="0.038" stop-color="#03bee9"/><stop offset="0.101" stop-color="#08a5d7"/><stop offset="0.182" stop-color="#107bbb"/><stop offset="0.189" stop-color="#1177b8"/><stop offset="1" stop-color="#172f78"/></linearGradient><linearGradient id="Áåçûìÿííûé_ãðàäèåíò_297-2" x1="373.611" y1="99.546" x2="606.406" y2="145.014" xlink:href="#Áåçûìÿííûé_ãðàäèåíò_297"/><linearGradient id="Áåçûìÿííûé_ãðàäèåíò_297-3" x1="388.533" y1="103.089" x2="388.565" y2="103.095" xlink:href="#Áåçûìÿííûé_ãðàäèåíò_297"/><radialGradient id="Áåçûìÿííûé_ãðàäèåíò_242-2" cx="569.913" cy="205.993" r="152.174" xlink:href="#Áåçûìÿííûé_ãðàäèåíò_242"/><linearGradient id="Áåçûìÿííûé_ãðàäèåíò_506" x1="338.805" y1="179.368" x2="458.513" y2="210.935" xlink:href="#Áåçûìÿííûé_ãðàäèåíò_242"/><radialGradient id="Áåçûìÿííûé_ãðàäèåíò_346" cx="195" cy="185.32" r="26.963" gradientUnits="userSpaceOnUse"><stop offset="0" stop-color="#01c8ef"/><stop offset="0.14" stop-color="#03bae4"/><stop offset="0.403" stop-color="#0895c8"/><stop offset="0.76" stop-color="#115a9a"/><stop offset="1" stop-color="#172f78"/></radialGradient><radialGradient id="Áåçûìÿííûé_ãðàäèåíò_346-2" cx="516.981" cy="281.58" r="25.967" gradientTransform="matrix(0.866, 0.5, 0, 1, -244.164, -351.021)" xlink:href="#Áåçûìÿííûé_ãðàäèåíò_346"/><radialGradient id="Áåçûìÿííûé_ãðàäèåíò_346-3" cx="656.362" cy="-1649.062" r="80.857" gradientTransform="matrix(0.866, 0.5, 0, 1.182, -425.05, 1770.878)" xlink:href="#Áåçûìÿííûé_ãðàäèåíò_346"/><radialGradient id="Áåçûìÿííûé_ãðàäèåíò_346-4" cx="490.282" cy="-999.218" r="24.481" gradientTransform="translate(-317.396 1369.131) scale(1 1.182)" xlink:href="#Áåçûìÿííûé_ãðàäèåíò_346"/><radialGradient id="Áåçûìÿííûé_ãðàäèåíò_242-3" cx="562.526" cy="252.795" r="166.465" xlink:href="#Áåçûìÿííûé_ãðàäèåíò_242"/><linearGradient id="Áåçûìÿííûé_ãðàäèåíò_297-5" x1="299.493" y1="158.127" x2="532.769" y2="203.689" xlink:href="#Áåçûìÿííûé_ãðàäèåíò_297"/><linearGradient id="Áåçûìÿííûé_ãðàäèåíò_249-3" x1="307.026" y1="168.856" x2="461.309" y2="198.989" xlink:href="#Áåçûìÿííûé_ãðàäèåíò_249"/><linearGradient id="Áåçûìÿííûé_ãðàäèåíò_403-2" x1="405.515" y1="246.226" x2="304.251" y2="210.196" xlink:href="#Áåçûìÿííûé_ãðàäèåíò_403"/><linearGradient id="Áåçûìÿííûé_ãðàäèåíò_249-4" x1="542.244" y1="212.884" x2="315.524" y2="247.248" gradientTransform="matrix(1, 0, 0, 1, 0, 0)" xlink:href="#Áåçûìÿííûé_ãðàäèåíò_249"/><linearGradient id="Áåçûìÿííûé_ãðàäèåíò_318-2" x1="501.326" y1="286.524" x2="364.051" y2="219.029" xlink:href="#Áåçûìÿííûé_ãðàäèåíò_318"/><linearGradient id="Áåçûìÿííûé_ãðàäèåíò_297-6" x1="303.564" y1="138.906" x2="536.359" y2="184.374" xlink:href="#Áåçûìÿííûé_ãðàäèåíò_297"/><linearGradient id="Áåçûìÿííûé_ãðàäèåíò_297-7" x1="318.486" y1="142.449" x2="318.517" y2="142.456" xlink:href="#Áåçûìÿííûé_ãðàäèåíò_297"/><radialGradient id="Áåçûìÿííûé_ãðàäèåíò_242-4" cx="499.867" cy="245.354" r="152.174" xlink:href="#Áåçûìÿííûé_ãðàäèåíò_242"/><linearGradient id="Áåçûìÿííûé_ãðàäèåíò_506-2" x1="268.758" y1="218.728" x2="388.466" y2="250.296" xlink:href="#Áåçûìÿííûé_ãðàäèåíò_242"/><radialGradient id="Áåçûìÿííûé_ãðàäèåíò_346-5" cx="124.953" cy="224.68" r="26.963" xlink:href="#Áåçûìÿííûé_ãðàäèåíò_346"/><radialGradient id="Áåçûìÿííûé_ãðàäèåíò_346-6" cx="436.095" cy="361.383" r="25.967" gradientTransform="matrix(0.866, 0.5, 0, 1, -244.164, -351.021)" xlink:href="#Áåçûìÿííûé_ãðàäèåíò_346"/><radialGradient id="Áåçûìÿííûé_ãðàäèåíò_346-7" cx="575.479" cy="-1581.521" r="80.857" gradientTransform="matrix(0.866, 0.5, 0, 1.182, -425.05, 1770.878)" xlink:href="#Áåçûìÿííûé_ãðàäèåíò_346"/><radialGradient id="Áåçûìÿííûé_ãðàäèåíò_346-8" cx="420.235" cy="-965.906" r="24.481" gradientTransform="translate(-317.396 1369.131) scale(1 1.182)" xlink:href="#Áåçûìÿííûé_ãðàäèåíò_346"/></defs><title>computer-1</title><path class="cls-1" d="M391.092,268.792a1.83,1.83,0,1,1-1.83-1.83A1.83,1.83,0,0,1,391.092,268.792Z" transform="translate(-317.396 -77.256)"/><circle class="cls-1" cx="57.942" cy="90.788" r="1.023"/><g class="cls-2"><path class="cls-3" d="M488.081,126.414l-.006-.035c0,.014.006.032.007.046Z" transform="translate(-317.396 -77.256)"/></g><path class="cls-4" d="M519.064,126.033,435.333,77.691a2.323,2.323,0,0,0-2.405-.177l0,0L388.533,103.1l43.147,94.754V217.47c0,2.69,1.636,5.815,3.653,6.98l11.476,6.626,30.622,67.248,43.946-25.3c.013-.007.026-.016.04-.023l.108-.063v0a3.3,3.3,0,0,0,1.193-2.905V133.014C522.717,130.323,521.081,127.2,519.064,126.033Z" transform="translate(-317.396 -77.256)"/><path class="cls-5" d="M519.064,126.033,435.333,77.691a2.323,2.323,0,0,0-2.405-.177l0,0L388.533,103.1l36.737,80.676,96.021-55.438A6.767,6.767,0,0,0,519.064,126.033Z" transform="translate(-317.396 -77.256)"/><path class="cls-6" d="M474.827,298.276,391.1,249.934c-2.017-1.164-3.653-4.29-3.653-6.98V105.938c0-2.691,1.636-3.927,3.653-2.762l83.731,48.341c2.017,1.165,3.653,4.29,3.653,6.981V295.514C478.48,298.205,476.844,299.441,474.827,298.276Z" transform="translate(-317.396 -77.256)"/><path class="cls-7" d="M442.227,136.292l-48.365-27.924c-1.884-1.088-3.412.067-3.412,2.58V241.373a8.7,8.7,0,0,0,2.15,5.466l49.627-28.652Z" transform="translate(-317.396 -77.256)"/><path class="cls-8" d="M474.705,291.277l-78.2-45.148a8.171,8.171,0,0,1-3.412-6.519V109.185a5.009,5.009,0,0,1,.119-1.107c-1.574-.5-2.764.653-2.764,2.87V241.373a8.173,8.173,0,0,0,3.412,6.52l78.2,45.147c1.579.912,2.9.245,3.293-1.473A3.262,3.262,0,0,1,474.705,291.277Z" transform="translate(-317.396 -77.256)"/><path class="cls-9" d="M472.061,153.516l-39.1-22.574v88.145a8.169,8.169,0,0,0,3.412,6.519l39.1,22.574V160.035A8.173,8.173,0,0,0,472.061,153.516Z" transform="translate(-317.396 -77.256)"/><path class="cls-10" d="M391.1,103.176l83.731,48.341a6.8,6.8,0,0,1,2.253,2.343l44.211-25.525a6.767,6.767,0,0,0-2.227-2.3L435.333,77.691a2.323,2.323,0,0,0-2.405-.177l0,0-44.072,25.4A2.4,2.4,0,0,1,391.1,103.176Z" transform="translate(-317.396 -77.256)"/><path class="cls-11" d="M477.334,152.985a7.409,7.409,0,0,0-2.507-2.343L391.1,102.3a3.585,3.585,0,0,0-.664-.3l-1.579.911a2.4,2.4,0,0,1,2.243.263l83.731,48.341a6.8,6.8,0,0,1,2.253,2.343l44.211-25.524c-.136-.219-.282-.425-.431-.626Z" transform="translate(-317.396 -77.256)"/><path class="cls-12" d="M388.555,103.085l-.022.012h0Z" transform="translate(-317.396 -77.256)"/><path class="cls-12" d="M388.555,103.085l-.022.012h0Z" transform="translate(-317.396 -77.256)"/><path class="cls-13" d="M487.541,278.65a1.666,1.666,0,0,1-.842-.221,2.667,2.667,0,0,1-1.077-2.424V167.59a6.717,6.717,0,0,1,2.814-5.349l25.044-14.459a2.014,2.014,0,0,1,2.058-.14,2.667,2.667,0,0,1,1.077,2.423V258.481a6.721,6.721,0,0,1-2.815,5.349l-25.044,14.459A2.457,2.457,0,0,1,487.541,278.65Zm27.151-130.59a1.823,1.823,0,0,0-.892.277L488.756,162.8a6.013,6.013,0,0,0-2.494,4.794V276.005a2.075,2.075,0,0,0,.757,1.869,1.4,1.4,0,0,0,1.417-.14l25.044-14.459a6.016,6.016,0,0,0,2.494-4.794V150.065a2.069,2.069,0,0,0-.758-1.868A1.025,1.025,0,0,0,514.692,148.06Z" transform="translate(-317.396 -77.256)"/><polygon class="cls-14" points="122.662 185.635 129.053 181.978 129.053 61.492 123.887 58.491 122.662 185.635"/><path class="cls-15" d="M406.2,115.489v124.1c0,2.691,1.635,5.816,3.653,6.981l27.781,16.152c2.017,1.165,3.653-.071,3.653-2.761V135.747Z" transform="translate(-317.396 -77.256)"/><path class="cls-16" d="M472.061,153.516l-26.116-15.078V262.566c0,2.69,1.636,5.815,3.653,6.98l25.875,15.045V160.035A8.173,8.173,0,0,0,472.061,153.516Z" transform="translate(-317.396 -77.256)"/><path class="cls-13" d="M475.473,278.946l-22.112-12.767a7.462,7.462,0,0,1-3.1-5.949V140.93l-.6-.345V260.23a8.119,8.119,0,0,0,3.4,6.466l22.411,12.939Z" transform="translate(-317.396 -77.256)"/><path class="cls-13" d="M435.136,178.722a1.763,1.763,0,0,1-.879-.26l-20.627-11.91a4.619,4.619,0,0,1-1.968-3.733V130.138a1.916,1.916,0,0,1,.785-1.742,1.472,1.472,0,0,1,1.5.1L434.578,140.4a4.623,4.623,0,0,1,1.969,3.734v32.681a1.914,1.914,0,0,1-.786,1.74A1.235,1.235,0,0,1,435.136,178.722Zm-.558-.815a.882.882,0,0,0,.863.095,1.322,1.322,0,0,0,.465-1.185V144.136a4.049,4.049,0,0,0-1.649-3.179L413.63,129.048a.876.876,0,0,0-.863-.1,1.339,1.339,0,0,0-.465,1.186v32.681A4.048,4.048,0,0,0,413.95,166Z" transform="translate(-317.396 -77.256)"/><path class="cls-13" d="M435.137,192.826a1.765,1.765,0,0,1-.88-.261L413.63,180.656a4.62,4.62,0,0,1-1.968-3.732v-3.352a1.915,1.915,0,0,1,.785-1.741,1.467,1.467,0,0,1,1.5.1l20.628,11.909a4.618,4.618,0,0,1,1.969,3.732v3.352a1.913,1.913,0,0,1-.786,1.74A1.234,1.234,0,0,1,435.137,192.826Zm-22.064-20.519a.6.6,0,0,0-.306.08,1.338,1.338,0,0,0-.465,1.185v3.352a4.047,4.047,0,0,0,1.648,3.177l20.628,11.91a.877.877,0,0,0,.863.095,1.338,1.338,0,0,0,.465-1.185v-3.352a4.042,4.042,0,0,0-1.649-3.177l-20.627-11.91A1.173,1.173,0,0,0,413.073,172.307Z" transform="translate(-317.396 -77.256)"/><path class="cls-13" d="M435.137,206.931a1.765,1.765,0,0,1-.88-.261L413.63,194.76a4.619,4.619,0,0,1-1.968-3.733v-3.351a1.916,1.916,0,0,1,.785-1.741,1.465,1.465,0,0,1,1.5.1l20.628,11.91a4.62,4.62,0,0,1,1.969,3.733v3.351a1.916,1.916,0,0,1-.786,1.741A1.231,1.231,0,0,1,435.137,206.931Zm-.559-.816a.884.884,0,0,0,.863.095,1.321,1.321,0,0,0,.465-1.185v-3.351a4.046,4.046,0,0,0-1.649-3.178l-20.627-11.91a.876.876,0,0,0-.863-.095,1.337,1.337,0,0,0-.465,1.185v3.351a4.048,4.048,0,0,0,1.648,3.178Z" transform="translate(-317.396 -77.256)"/><path class="cls-13" d="M435.137,221.034a1.768,1.768,0,0,1-.88-.261L413.63,208.864a4.617,4.617,0,0,1-1.968-3.732V201.78a1.915,1.915,0,0,1,.785-1.741,1.47,1.47,0,0,1,1.5.1l20.628,11.909a4.619,4.619,0,0,1,1.969,3.732v3.353a1.913,1.913,0,0,1-.786,1.739A1.231,1.231,0,0,1,435.137,221.034Zm-22.064-20.518a.6.6,0,0,0-.306.079,1.338,1.338,0,0,0-.465,1.185v3.352a4.048,4.048,0,0,0,1.648,3.178l20.628,11.909a.879.879,0,0,0,.863.095,1.337,1.337,0,0,0,.465-1.184v-3.353a4.045,4.045,0,0,0-1.649-3.177L413.63,200.69A1.172,1.172,0,0,0,413.073,200.516Z" transform="translate(-317.396 -77.256)"/><path class="cls-13" d="M435.137,235.139a1.765,1.765,0,0,1-.88-.261L413.63,222.969a4.622,4.622,0,0,1-1.968-3.733v-3.352a1.916,1.916,0,0,1,.785-1.741,1.47,1.47,0,0,1,1.5.1l20.628,11.909a4.62,4.62,0,0,1,1.969,3.733v3.351a1.915,1.915,0,0,1-.786,1.741A1.234,1.234,0,0,1,435.137,235.139ZM413.073,214.62a.6.6,0,0,0-.306.079,1.338,1.338,0,0,0-.465,1.185v3.352a4.051,4.051,0,0,0,1.648,3.178l20.628,11.909a.875.875,0,0,0,.863.1,1.34,1.34,0,0,0,.465-1.186v-3.351a4.046,4.046,0,0,0-1.649-3.178L413.63,214.8A1.173,1.173,0,0,0,413.073,214.62Z" transform="translate(-317.396 -77.256)"/><path class="cls-13" d="M435.136,249.243a1.764,1.764,0,0,1-.879-.261l-20.627-11.91a4.617,4.617,0,0,1-1.968-3.732v-3.352a1.914,1.914,0,0,1,.785-1.74,1.463,1.463,0,0,1,1.5.1l20.628,11.91a4.618,4.618,0,0,1,1.969,3.732v3.352a1.913,1.913,0,0,1-.786,1.739A1.236,1.236,0,0,1,435.136,249.243Zm-.558-.815a.89.89,0,0,0,.863.094,1.319,1.319,0,0,0,.465-1.184v-3.352a4.046,4.046,0,0,0-1.649-3.178L413.63,228.9a.881.881,0,0,0-.863-.094,1.319,1.319,0,0,0-.465,1.184v3.352a4.044,4.044,0,0,0,1.648,3.177Z" transform="translate(-317.396 -77.256)"/><path class="cls-13" d="M455.143,209.515l-.1-.055a1.538,1.538,0,0,1-.64-1.225v-5.478c0-.472.287-.689.64-.484l.1.055a1.533,1.533,0,0,1,.641,1.224v5.478C455.784,209.5,455.5,209.719,455.143,209.515Z" transform="translate(-317.396 -77.256)"/><path class="cls-17" d="M475.473,290.461V160.035a8.173,8.173,0,0,0-3.412-6.519l-41.313-23.852V269.189h0l41.313,23.851C473.945,294.128,475.473,292.974,475.473,290.461Z" transform="translate(-317.396 -77.256)"/><path class="cls-17" d="M473.477,292.172,432.164,268.32h0V130.482l-1.416-.818V269.189h0l41.313,23.851a1.978,1.978,0,0,0,2.889-.468A2.627,2.627,0,0,1,473.477,292.172Z" transform="translate(-317.396 -77.256)"/><path class="cls-18" d="M435.869,205.742l-.1-.059a1.652,1.652,0,0,1-.689-1.317v-8.954c0-.508.309-.741.689-.521l.1.059a1.649,1.649,0,0,1,.689,1.316v8.955C436.558,205.728,436.25,205.962,435.869,205.742Z" transform="translate(-317.396 -77.256)"/><path class="cls-19" d="M392.39,119.1h-1.111v-3.619a.556.556,0,0,1,.556-.556h0a.556.556,0,0,1,.555.556Z" transform="translate(-317.396 -77.256)"/><path class="cls-19" d="M391.279,119.382h1.111V123a.555.555,0,0,1-.555.555h0a.555.555,0,0,1-.556-.555Z" transform="translate(-317.396 -77.256)"/><path class="cls-19" d="M392.39,235.7h-1.111v-3.619a.556.556,0,0,1,.556-.556h0a.556.556,0,0,1,.555.556Z" transform="translate(-317.396 -77.256)"/><path class="cls-19" d="M391.279,235.981h1.111v3.62a.555.555,0,0,1-.555.555h0a.555.555,0,0,1-.556-.555Z" transform="translate(-317.396 -77.256)"/><polygon class="cls-13" points="183.46 83.355 172.583 89.635 172.583 88.476 183.46 82.196 183.46 83.355"/><polygon class="cls-13" points="195.663 76.31 184.785 82.59 184.785 81.431 195.663 75.151 195.663 76.31"/><polygon class="cls-20" points="183.082 82.414 183.082 83.204 172.583 89.266 172.583 89.635 183.46 83.355 183.46 82.196 183.082 82.414"/><polygon class="cls-20" points="195.285 75.369 195.285 76.159 184.785 82.221 184.785 82.59 195.663 76.31 195.663 75.151 195.285 75.369"/><polygon class="cls-13" points="183.46 86.878 172.583 93.158 172.583 91.999 183.46 85.719 183.46 86.878"/><polygon class="cls-13" points="195.663 79.832 184.785 86.112 184.785 84.954 195.663 78.674 195.663 79.832"/><polygon class="cls-20" points="183.082 85.937 183.082 86.727 172.583 92.789 172.583 93.158 183.46 86.878 183.46 85.719 183.082 85.937"/><polygon class="cls-20" points="195.285 78.892 195.285 79.681 184.785 85.743 184.785 86.112 195.663 79.832 195.663 78.674 195.285 78.892"/><polygon class="cls-13" points="183.46 90.4 172.583 96.68 172.583 95.522 183.46 89.242 183.46 90.4"/><polygon class="cls-13" points="195.663 83.355 184.785 89.635 184.785 88.476 195.663 82.196 195.663 83.355"/><polygon class="cls-20" points="183.082 89.46 183.082 90.249 172.583 96.311 172.583 96.68 183.46 90.4 183.46 89.242 183.082 89.46"/><polygon class="cls-20" points="195.285 82.414 195.285 83.204 184.785 89.266 184.785 89.635 195.663 83.355 195.663 82.196 195.285 82.414"/><polygon class="cls-11" points="98.405 57.594 97.744 57.213 97.744 56.45 98.405 56.831 98.405 57.594"/><polygon class="cls-11" points="98.405 59.103 97.744 58.722 97.744 57.959 98.405 58.341 98.405 59.103"/><polygon class="cls-11" points="98.405 60.612 97.744 60.231 97.744 59.468 98.405 59.85 98.405 60.612"/><polygon class="cls-11" points="98.405 62.122 97.744 61.74 97.744 60.978 98.405 61.359 98.405 62.122"/><polygon class="cls-11" points="98.405 67.173 97.744 66.792 97.744 66.03 98.405 66.411 98.405 67.173"/><polygon class="cls-11" points="101.555 68.993 100.895 68.611 100.895 67.849 101.555 68.23 101.555 68.993"/><polygon class="cls-11" points="102.862 69.747 102.202 69.366 102.202 68.603 102.862 68.985 102.862 69.747"/><polygon class="cls-11" points="102.862 79.316 102.202 78.935 102.202 78.172 102.862 78.554 102.862 79.316"/><polygon class="cls-11" points="102.862 83.129 102.202 82.748 102.202 81.985 102.862 82.366 102.862 83.129"/><polygon class="cls-11" points="104.17 70.502 103.509 70.121 103.509 69.358 104.17 69.739 104.17 70.502"/><polygon class="cls-11" points="98.51 100.078 97.854 99.699 97.854 98.941 98.51 99.32 98.51 100.078"/><polygon class="cls-11" points="99.932 100.899 99.276 100.52 99.276 99.762 99.932 100.141 99.932 100.899"/><polygon class="cls-11" points="101.354 101.72 100.697 101.341 100.697 100.583 101.354 100.962 101.354 101.72"/><polygon class="cls-11" points="102.776 102.541 102.119 102.162 102.119 101.404 102.776 101.783 102.776 102.541"/><polygon class="cls-11" points="102.776 104.588 102.119 104.209 102.119 103.451 102.776 103.83 102.776 104.588"/><polygon class="cls-11" points="105.552 106.191 104.896 105.812 104.896 105.054 105.552 105.433 105.552 106.191"/><polygon class="cls-11" points="112.807 108.332 104.311 103.427 104.311 102.669 112.807 107.574 112.807 108.332"/><polygon class="cls-11" points="97.849 112.939 97.193 112.56 97.193 111.802 97.849 112.181 97.849 112.939"/><polygon class="cls-11" points="99.271 113.759 98.614 113.38 98.614 112.622 99.271 113.001 99.271 113.759"/><polygon class="cls-11" points="100.693 114.58 100.036 114.201 100.036 113.443 100.693 113.822 100.693 114.58"/><polygon class="cls-11" points="97.849 114.997 97.193 114.618 97.193 113.86 97.849 114.239 97.849 114.997"/><polygon class="cls-11" points="99.271 115.818 98.614 115.439 98.614 114.681 99.271 115.06 99.271 115.818"/><polygon class="cls-11" points="100.693 116.639 100.036 116.26 100.036 115.502 100.693 115.881 100.693 116.639"/><polygon class="cls-11" points="99.271 127.817 98.614 127.438 98.614 126.68 99.271 127.059 99.271 127.817"/><polygon class="cls-11" points="100.693 128.638 100.036 128.259 100.036 127.501 100.693 127.88 100.693 128.638"/><polygon class="cls-11" points="103.474 130.278 102.818 129.899 102.818 129.141 103.474 129.52 103.474 130.278"/><polygon class="cls-11" points="104.896 131.098 104.24 130.719 104.24 129.961 104.896 130.34 104.896 131.098"/><polygon class="cls-11" points="107.678 132.738 107.021 132.359 107.021 131.601 107.678 131.98 107.678 132.738"/><polygon class="cls-11" points="101.559 131.967 100.903 131.588 100.903 130.83 101.559 131.209 101.559 131.967"/><polygon class="cls-11" points="109.1 133.559 108.443 133.18 108.443 132.422 109.1 132.801 109.1 133.559"/><polygon class="cls-11" points="106.716 117.776 106.059 117.397 106.059 116.639 106.716 117.018 106.716 117.776"/><polygon class="cls-11" points="108.138 118.597 107.481 118.218 107.481 117.46 108.138 117.839 108.138 118.597"/><path class="cls-17" d="M432.164,130.482l-38.3-22.114c-1.884-1.088-3.412.067-3.412,2.58V241.373a8.173,8.173,0,0,0,3.412,6.52l38.3,22.113Z" transform="translate(-317.396 -77.256)"/><path class="cls-18" d="M427.287,201.128l-.1-.059a1.651,1.651,0,0,1-.688-1.316V190.8c0-.507.308-.741.688-.521l.1.059a1.649,1.649,0,0,1,.689,1.317v8.954C427.976,201.115,427.668,201.348,427.287,201.128Z" transform="translate(-317.396 -77.256)"/><polygon class="cls-21" points="189.265 183.861 179.457 189.524 179.457 173.223 189.265 167.56 189.265 183.861"/><polygon class="cls-22" points="188.435 168.039 188.435 183.418 179.457 188.602 179.457 189.524 189.265 183.861 189.265 167.56 188.435 168.039"/><polygon class="cls-23" points="198.273 189.11 189.265 183.953 189.265 167.56 198.273 172.718 198.273 189.11"/><polygon class="cls-24" points="197.48 189.582 188.471 184.425 188.471 168.032 197.48 173.19 197.48 189.582"/><polygon class="cls-25" points="197.48 189.582 198.273 189.11 198.273 172.718 189.265 167.56 188.471 168.032 197.48 173.19 197.48 189.582"/><polygon class="cls-11" points="183.479 173.515 182.95 173.821 182.95 173.209 183.479 172.903 183.479 173.515"/><polygon class="cls-11" points="184.588 172.875 184.058 173.181 184.058 172.569 184.588 172.263 184.588 172.875"/><polygon class="cls-11" points="185.696 172.235 185.166 172.541 185.166 171.929 185.696 171.623 185.696 172.235"/><polygon class="cls-11" points="185.766 173.434 185.236 173.74 185.236 173.128 185.766 172.823 185.766 173.434"/><polygon class="cls-11" points="181.593 180.169 181.064 180.475 181.064 179.863 181.593 179.557 181.593 180.169"/><polygon class="cls-11" points="187.069 177.777 186.54 178.083 186.54 177.471 187.069 177.166 187.069 177.777"/><polygon class="cls-11" points="181.593 181.649 181.064 181.955 181.064 181.343 181.593 181.037 181.593 181.649"/><polygon class="cls-11" points="181.593 183.129 181.064 183.435 181.064 182.823 181.593 182.517 181.593 183.129"/><polygon class="cls-11" points="181.593 184.609 181.064 184.915 181.064 184.303 181.593 183.997 181.593 184.609"/><polygon class="cls-11" points="186.804 171.595 186.275 171.901 186.275 171.289 186.804 170.984 186.804 171.595"/><g class="cls-2"><path class="cls-3" d="M418.034,165.775l-.006-.035c0,.014.006.031.007.045Z" transform="translate(-317.396 -77.256)"/></g><path class="cls-26" d="M449.017,165.394l-83.731-48.342a2.324,2.324,0,0,0-2.405-.178l0,0-44.392,25.587,43.147,94.754V256.83c0,2.691,1.636,5.816,3.653,6.981l11.476,6.625,30.622,67.248,43.945-25.3.041-.023.108-.062V312.3a3.3,3.3,0,0,0,1.193-2.905V172.374C452.67,169.684,451.034,166.559,449.017,165.394Z" transform="translate(-317.396 -77.256)"/><path class="cls-27" d="M449.017,165.394l-83.731-48.342a2.324,2.324,0,0,0-2.405-.178l0,0-44.392,25.587,36.737,80.677L451.244,167.7A6.758,6.758,0,0,0,449.017,165.394Z" transform="translate(-317.396 -77.256)"/><path class="cls-28" d="M404.78,337.637,321.049,289.3c-2.017-1.165-3.653-4.29-3.653-6.98V145.3c0-2.69,1.636-3.927,3.653-2.762l83.731,48.342c2.017,1.165,3.653,4.29,3.653,6.98V334.875C408.433,337.565,406.8,338.8,404.78,337.637Z" transform="translate(-317.396 -77.256)"/><path class="cls-29" d="M372.18,175.652l-48.365-27.923c-1.884-1.088-3.412.067-3.412,2.579V280.734a8.694,8.694,0,0,0,2.15,5.465l49.627-28.652Z" transform="translate(-317.396 -77.256)"/><path class="cls-30" d="M404.658,330.638l-78.2-45.148a8.17,8.17,0,0,1-3.412-6.519V148.545a5,5,0,0,1,.119-1.106c-1.574-.5-2.764.652-2.764,2.869V280.734a8.173,8.173,0,0,0,3.412,6.519l78.2,45.148c1.579.912,2.9.244,3.293-1.473A3.381,3.381,0,0,1,404.658,330.638Z" transform="translate(-317.396 -77.256)"/><path class="cls-31" d="M402.014,192.877l-39.1-22.574v88.144a8.172,8.172,0,0,0,3.411,6.52l39.1,22.573V199.4A8.171,8.171,0,0,0,402.014,192.877Z" transform="translate(-317.396 -77.256)"/><path class="cls-32" d="M321.049,142.536l83.731,48.342a6.793,6.793,0,0,1,2.253,2.343L451.244,167.7a6.758,6.758,0,0,0-2.227-2.3l-83.731-48.342a2.324,2.324,0,0,0-2.405-.178l0,0-44.072,25.4A2.4,2.4,0,0,1,321.049,142.536Z" transform="translate(-317.396 -77.256)"/><path class="cls-11" d="M407.287,192.345A7.418,7.418,0,0,0,404.78,190l-83.731-48.341a3.457,3.457,0,0,0-.664-.3l-1.579.91a2.4,2.4,0,0,1,2.243.263l83.731,48.342a6.784,6.784,0,0,1,2.253,2.343L451.244,167.7c-.136-.219-.282-.425-.432-.625Z" transform="translate(-317.396 -77.256)"/><path class="cls-33" d="M318.507,142.445l-.021.012h0Z" transform="translate(-317.396 -77.256)"/><path class="cls-33" d="M318.507,142.445l-.021.012h0Z" transform="translate(-317.396 -77.256)"/><path class="cls-13" d="M417.494,318.012a1.67,1.67,0,0,1-.841-.222,2.666,2.666,0,0,1-1.078-2.425V206.95a6.72,6.72,0,0,1,2.814-5.349l25.043-14.459a2.016,2.016,0,0,1,2.058-.14,2.668,2.668,0,0,1,1.077,2.424V297.842a6.721,6.721,0,0,1-2.814,5.348L418.71,317.649A2.441,2.441,0,0,1,417.494,318.012Zm27.15-130.591a1.825,1.825,0,0,0-.891.276L418.71,202.156a6.015,6.015,0,0,0-2.5,4.794V315.365a2.072,2.072,0,0,0,.758,1.869,1.389,1.389,0,0,0,1.416-.139l25.043-14.459a6.018,6.018,0,0,0,2.494-4.794V189.426a2.071,2.071,0,0,0-.758-1.869A1.032,1.032,0,0,0,444.644,187.421Z" transform="translate(-317.396 -77.256)"/><polygon class="cls-14" points="52.615 224.995 59.006 221.338 59.006 100.853 53.84 97.851 52.615 224.995"/><path class="cls-34" d="M336.149,154.849v124.1c0,2.69,1.635,5.815,3.653,6.98l27.78,16.153c2.018,1.165,3.654-.072,3.654-2.762V175.107Z" transform="translate(-317.396 -77.256)"/><path class="cls-35" d="M402.014,192.877,375.9,177.8V301.926c0,2.691,1.635,5.816,3.653,6.981l25.875,15.044V199.4A8.171,8.171,0,0,0,402.014,192.877Z" transform="translate(-317.396 -77.256)"/><path class="cls-13" d="M405.426,318.306l-22.113-12.767a7.461,7.461,0,0,1-3.1-5.949V180.29l-.6-.344V299.59a8.121,8.121,0,0,0,3.4,6.467L405.426,319Z" transform="translate(-317.396 -77.256)"/><path class="cls-13" d="M365.089,218.083a1.758,1.758,0,0,1-.878-.261l-20.628-11.91a4.615,4.615,0,0,1-1.969-3.732V169.5a1.914,1.914,0,0,1,.785-1.74,1.471,1.471,0,0,1,1.5.095l20.628,11.91A4.62,4.62,0,0,1,366.5,183.5v32.682a1.91,1.91,0,0,1-.786,1.739A1.236,1.236,0,0,1,365.089,218.083Zm-.558-.816a.883.883,0,0,0,.863.095,1.32,1.32,0,0,0,.465-1.184V183.5a4.051,4.051,0,0,0-1.648-3.179l-20.628-11.909a.884.884,0,0,0-.864-.095,1.321,1.321,0,0,0-.464,1.185V202.18a4.041,4.041,0,0,0,1.648,3.177Z" transform="translate(-317.396 -77.256)"/><path class="cls-13" d="M365.09,232.186a1.757,1.757,0,0,1-.879-.26l-20.628-11.909a4.62,4.62,0,0,1-1.969-3.733v-3.352a1.913,1.913,0,0,1,.785-1.74,1.466,1.466,0,0,1,1.5.1L364.531,223.2a4.623,4.623,0,0,1,1.969,3.733v3.351a1.91,1.91,0,0,1-.786,1.74A1.224,1.224,0,0,1,365.09,232.186Zm-22.065-20.518a.6.6,0,0,0-.306.079,1.338,1.338,0,0,0-.464,1.185v3.352a4.048,4.048,0,0,0,1.648,3.178l20.628,11.909a.88.88,0,0,0,.863.1,1.34,1.34,0,0,0,.465-1.186V226.93a4.049,4.049,0,0,0-1.648-3.178l-20.628-11.909A1.173,1.173,0,0,0,343.025,211.668Z" transform="translate(-317.396 -77.256)"/><path class="cls-13" d="M365.09,246.291a1.759,1.759,0,0,1-.879-.261l-20.628-11.909a4.618,4.618,0,0,1-1.969-3.733v-3.352a1.912,1.912,0,0,1,.785-1.739,1.464,1.464,0,0,1,1.5.095l20.628,11.91a4.616,4.616,0,0,1,1.969,3.732v3.352a1.912,1.912,0,0,1-.786,1.74A1.231,1.231,0,0,1,365.09,246.291Zm-.559-.815a.889.889,0,0,0,.863.094,1.319,1.319,0,0,0,.465-1.184v-3.352a4.048,4.048,0,0,0-1.648-3.178l-20.628-11.91a.881.881,0,0,0-.864-.095,1.322,1.322,0,0,0-.464,1.185v3.352a4.045,4.045,0,0,0,1.648,3.178Z" transform="translate(-317.396 -77.256)"/><path class="cls-13" d="M365.089,260.4a1.767,1.767,0,0,1-.878-.26l-20.628-11.91a4.617,4.617,0,0,1-1.969-3.733v-3.351a1.915,1.915,0,0,1,.785-1.741,1.467,1.467,0,0,1,1.5.1l20.628,11.909a4.622,4.622,0,0,1,1.969,3.734v3.351a1.91,1.91,0,0,1-.786,1.739A1.226,1.226,0,0,1,365.089,260.4Zm-.558-.815a.885.885,0,0,0,.863.1,1.322,1.322,0,0,0,.465-1.185v-3.351a4.051,4.051,0,0,0-1.648-3.179l-20.628-11.909a.884.884,0,0,0-.864-.095,1.319,1.319,0,0,0-.464,1.185v3.351a4.045,4.045,0,0,0,1.648,3.178Z" transform="translate(-317.396 -77.256)"/><path class="cls-13" d="M365.09,274.5a1.759,1.759,0,0,1-.879-.261l-20.628-11.909a4.618,4.618,0,0,1-1.969-3.732v-3.352a1.913,1.913,0,0,1,.785-1.74,1.469,1.469,0,0,1,1.5.1l20.628,11.909a4.616,4.616,0,0,1,1.969,3.732v3.352a1.911,1.911,0,0,1-.786,1.74A1.234,1.234,0,0,1,365.09,274.5ZM343.025,253.98a.613.613,0,0,0-.306.079,1.34,1.34,0,0,0-.464,1.186V258.6a4.044,4.044,0,0,0,1.648,3.177l20.628,11.909a.875.875,0,0,0,.863.1,1.338,1.338,0,0,0,.465-1.185v-3.352a4.048,4.048,0,0,0-1.648-3.178l-20.628-11.909A1.173,1.173,0,0,0,343.025,253.98Z" transform="translate(-317.396 -77.256)"/><path class="cls-13" d="M365.089,288.6a1.756,1.756,0,0,1-.878-.26l-20.628-11.911a4.614,4.614,0,0,1-1.969-3.732v-3.351a1.913,1.913,0,0,1,.785-1.74,1.466,1.466,0,0,1,1.5.1l20.628,11.91a4.62,4.62,0,0,1,1.969,3.733V286.7a1.909,1.909,0,0,1-.786,1.739A1.226,1.226,0,0,1,365.089,288.6Zm-.558-.815a.883.883,0,0,0,.863.095,1.322,1.322,0,0,0,.465-1.185v-3.351a4.046,4.046,0,0,0-1.648-3.178l-20.628-11.91a.881.881,0,0,0-.864-.1,1.322,1.322,0,0,0-.464,1.185V272.7a4.045,4.045,0,0,0,1.648,3.178Z" transform="translate(-317.396 -77.256)"/><path class="cls-13" d="M385.1,248.875l-.1-.055a1.535,1.535,0,0,1-.64-1.224v-5.479c0-.471.287-.688.64-.484l.1.055a1.535,1.535,0,0,1,.641,1.224v5.479C385.737,248.863,385.45,249.079,385.1,248.875Z" transform="translate(-317.396 -77.256)"/><path class="cls-17" d="M405.426,329.822V199.4a8.171,8.171,0,0,0-3.412-6.519L360.7,169.025V308.549h0L402.014,332.4C403.9,333.489,405.426,332.334,405.426,329.822Z" transform="translate(-317.396 -77.256)"/><path class="cls-17" d="M403.43,331.533l-41.313-23.852h0V169.842l-1.416-.817V308.549h0L402.014,332.4a1.978,1.978,0,0,0,2.889-.468A2.627,2.627,0,0,1,403.43,331.533Z" transform="translate(-317.396 -77.256)"/><path class="cls-18" d="M365.822,245.1l-.1-.059a1.652,1.652,0,0,1-.689-1.316v-8.955c0-.507.309-.74.689-.521l.1.06a1.647,1.647,0,0,1,.689,1.316v8.955C366.511,245.089,366.2,245.322,365.822,245.1Z" transform="translate(-317.396 -77.256)"/><path class="cls-19" d="M322.343,158.465h-1.111v-3.62a.556.556,0,0,1,.555-.556h0a.556.556,0,0,1,.556.556Z" transform="translate(-317.396 -77.256)"/><path class="cls-19" d="M321.232,158.743h1.111v3.619a.556.556,0,0,1-.556.556h0a.556.556,0,0,1-.555-.556Z" transform="translate(-317.396 -77.256)"/><path class="cls-19" d="M322.343,275.064h-1.111v-3.62a.556.556,0,0,1,.555-.556h0a.556.556,0,0,1,.556.556Z" transform="translate(-317.396 -77.256)"/><path class="cls-19" d="M321.232,275.342h1.111v3.619a.556.556,0,0,1-.556.556h0a.556.556,0,0,1-.555-.556Z" transform="translate(-317.396 -77.256)"/><polygon class="cls-13" points="113.413 122.715 102.536 128.995 102.536 127.837 113.413 121.557 113.413 122.715"/><polygon class="cls-13" points="125.616 115.67 114.738 121.95 114.738 120.791 125.616 114.511 125.616 115.67"/><polygon class="cls-20" points="113.035 121.775 113.035 122.564 102.536 128.626 102.536 128.995 113.413 122.715 113.413 121.557 113.035 121.775"/><polygon class="cls-20" points="125.238 114.729 125.238 115.519 114.738 121.581 114.738 121.95 125.616 115.67 125.616 114.511 125.238 114.729"/><polygon class="cls-13" points="113.413 126.238 102.536 132.518 102.536 131.359 113.413 125.079 113.413 126.238"/><polygon class="cls-13" points="125.616 119.193 114.738 125.473 114.738 124.314 125.616 118.034 125.616 119.193"/><polygon class="cls-20" points="113.035 125.297 113.035 126.087 102.536 132.149 102.536 132.518 113.413 126.238 113.413 125.079 113.035 125.297"/><polygon class="cls-20" points="125.238 118.252 125.238 119.042 114.738 125.104 114.738 125.473 125.616 119.193 125.616 118.034 125.238 118.252"/><polygon class="cls-13" points="113.413 129.761 102.536 136.041 102.536 134.882 113.413 128.602 113.413 129.761"/><polygon class="cls-13" points="125.616 122.715 114.738 128.995 114.738 127.837 125.616 121.557 125.616 122.715"/><polygon class="cls-20" points="113.035 128.82 113.035 129.61 102.536 135.672 102.536 136.041 113.413 129.761 113.413 128.602 113.035 128.82"/><polygon class="cls-20" points="125.238 121.775 125.238 122.564 114.738 128.626 114.738 128.995 125.616 122.716 125.616 121.557 125.238 121.775"/><polygon class="cls-11" points="28.358 96.954 27.697 96.573 27.697 95.81 28.358 96.192 28.358 96.954"/><polygon class="cls-11" points="28.358 98.464 27.697 98.082 27.697 97.32 28.358 97.701 28.358 98.464"/><polygon class="cls-11" points="28.358 99.973 27.697 99.591 27.697 98.829 28.358 99.21 28.358 99.973"/><polygon class="cls-11" points="28.358 101.482 27.697 101.101 27.697 100.338 28.358 100.719 28.358 101.482"/><polygon class="cls-11" points="28.358 106.534 27.697 106.153 27.697 105.39 28.358 105.771 28.358 106.534"/><polygon class="cls-11" points="31.508 108.353 30.848 107.972 30.848 107.209 31.508 107.59 31.508 108.353"/><polygon class="cls-11" points="32.815 109.108 32.155 108.726 32.155 107.964 32.815 108.345 32.815 109.108"/><polygon class="cls-11" points="32.815 118.677 32.155 118.295 32.155 117.533 32.815 117.914 32.815 118.677"/><polygon class="cls-11" points="32.815 122.489 32.155 122.108 32.155 121.346 32.815 121.727 32.815 122.489"/><polygon class="cls-11" points="34.122 109.862 33.462 109.481 33.462 108.718 34.122 109.1 34.122 109.862"/><polygon class="cls-11" points="28.463 139.438 27.807 139.059 27.807 138.301 28.463 138.68 28.463 139.438"/><polygon class="cls-11" points="29.885 140.259 29.228 139.88 29.228 139.122 29.885 139.501 29.885 140.259"/><polygon class="cls-11" points="31.307 141.08 30.65 140.701 30.65 139.943 31.307 140.322 31.307 141.08"/><polygon class="cls-11" points="32.729 141.901 32.072 141.522 32.072 140.764 32.729 141.143 32.729 141.901"/><polygon class="cls-11" points="32.729 143.948 32.072 143.569 32.072 142.811 32.729 143.19 32.729 143.948"/><polygon class="cls-11" points="35.505 145.551 34.849 145.172 34.849 144.414 35.505 144.793 35.505 145.551"/><polygon class="cls-11" points="42.76 147.693 34.264 142.788 34.264 142.03 42.76 146.935 42.76 147.693"/><polygon class="cls-11" points="27.802 152.299 27.146 151.92 27.146 151.162 27.802 151.541 27.802 152.299"/><polygon class="cls-11" points="29.224 153.12 28.567 152.741 28.567 151.983 29.224 152.362 29.224 153.12"/><polygon class="cls-11" points="30.646 153.941 29.989 153.562 29.989 152.804 30.646 153.183 30.646 153.941"/><polygon class="cls-11" points="27.802 154.357 27.146 153.978 27.146 153.22 27.802 153.599 27.802 154.357"/><polygon class="cls-11" points="29.224 155.178 28.567 154.799 28.567 154.041 29.224 154.42 29.224 155.178"/><polygon class="cls-11" points="30.646 155.999 29.989 155.62 29.989 154.862 30.646 155.241 30.646 155.999"/><polygon class="cls-11" points="29.224 167.177 28.567 166.798 28.567 166.04 29.224 166.419 29.224 167.177"/><polygon class="cls-11" points="30.646 167.998 29.989 167.619 29.989 166.861 30.646 167.24 30.646 167.998"/><polygon class="cls-11" points="33.427 169.638 32.771 169.259 32.771 168.501 33.427 168.88 33.427 169.638"/><polygon class="cls-11" points="34.849 170.459 34.193 170.08 34.193 169.322 34.849 169.701 34.849 170.459"/><polygon class="cls-11" points="37.631 172.099 36.974 171.72 36.974 170.962 37.631 171.341 37.631 172.099"/><polygon class="cls-11" points="31.512 171.327 30.855 170.948 30.855 170.19 31.512 170.569 31.512 171.327"/><polygon class="cls-11" points="39.052 172.92 38.396 172.541 38.396 171.783 39.052 172.162 39.052 172.92"/><polygon class="cls-11" points="36.669 157.136 36.012 156.757 36.012 155.999 36.669 156.378 36.669 157.136"/><polygon class="cls-11" points="38.09 157.957 37.434 157.578 37.434 156.82 38.09 157.199 38.09 157.957"/><path class="cls-17" d="M362.117,169.842l-38.3-22.113c-1.884-1.088-3.412.067-3.412,2.579V280.734a8.173,8.173,0,0,0,3.412,6.519l38.3,22.113Z" transform="translate(-317.396 -77.256)"/><path class="cls-18" d="M357.24,240.489l-.1-.06a1.65,1.65,0,0,1-.689-1.316v-8.955c0-.507.309-.74.689-.52l.1.059a1.647,1.647,0,0,1,.689,1.316v8.955C357.929,240.475,357.621,240.708,357.24,240.489Z" transform="translate(-317.396 -77.256)"/><polygon class="cls-21" points="119.218 223.222 109.41 228.884 109.41 212.583 119.218 206.921 119.218 223.222"/><polygon class="cls-36" points="118.388 207.4 118.388 222.778 109.41 227.962 109.41 228.884 119.218 223.221 119.218 206.921 118.388 207.4"/><polygon class="cls-37" points="128.226 228.471 119.218 223.313 119.218 206.921 128.226 212.078 128.226 228.471"/><polygon class="cls-38" points="127.433 228.943 118.424 223.785 118.424 207.393 127.433 212.55 127.433 228.943"/><polygon class="cls-39" points="127.433 228.943 128.226 228.471 128.226 212.078 119.218 206.921 118.424 207.393 127.433 212.55 127.433 228.943"/><polygon class="cls-11" points="113.433 212.875 112.903 213.181 112.903 212.569 113.433 212.264 113.433 212.875"/><polygon class="cls-11" points="114.541 212.235 114.011 212.541 114.011 211.93 114.541 211.624 114.541 212.235"/><polygon class="cls-11" points="115.649 211.596 115.119 211.901 115.119 211.29 115.649 210.984 115.649 211.596"/><polygon class="cls-11" points="115.719 212.795 115.189 213.101 115.189 212.489 115.719 212.183 115.719 212.795"/><polygon class="cls-11" points="111.546 219.529 111.017 219.835 111.017 219.223 111.546 218.917 111.546 219.529"/><polygon class="cls-11" points="117.022 217.138 116.493 217.444 116.493 216.832 117.022 216.526 117.022 217.138"/><polygon class="cls-11" points="111.546 221.009 111.017 221.315 111.017 220.703 111.546 220.397 111.546 221.009"/><polygon class="cls-11" points="111.546 222.489 111.017 222.795 111.017 222.183 111.546 221.877 111.546 222.489"/><polygon class="cls-11" points="111.546 223.969 111.017 224.275 111.017 223.663 111.546 223.357 111.546 223.969"/><polygon class="cls-11" points="116.757 210.956 116.228 211.262 116.228 210.65 116.757 210.344 116.757 210.956"/></svg>