<svg xmlns="http://www.w3.org/2000/svg" xmlns:xlink="http://www.w3.org/1999/xlink" viewBox="0 0 180.591 256.181"><defs><style>.cls-1{isolation:isolate;}.cls-2,.cls-20,.cls-37,.cls-45,.cls-46{opacity:0.8;}.cls-2{fill:url(#Áåçûìÿííûé_ãðàäèåíò_19);}.cls-20,.cls-3,.cls-4,.cls-5{fill:#42e8e0;}.cls-3{opacity:0.1;}.cls-15,.cls-36,.cls-5{opacity:0.4;}.cls-6{fill:url(#Áåçûìÿííûé_ãðàäèåíò_54);}.cls-7{fill:url(#Áåçûìÿííûé_ãðàäèåíò_89);}.cls-10,.cls-8{fill:#0f054c;}.cls-8{opacity:0.3;}.cls-9{fill:url(#Áåçûìÿííûé_ãðàäèåíò_55);}.cls-11,.cls-44,.cls-45,.cls-46{mix-blend-mode:lighten;}.cls-12{fill:url(#Áåçûìÿííûé_ãðàäèåíò_68);}.cls-13{fill:url(#Áåçûìÿííûé_ãðàäèåíò_68-2);}.cls-14{fill:#5351af;}.cls-16{fill:#fff;}.cls-17{fill:url(#Áåçûìÿííûé_ãðàäèåíò_54-2);}.cls-18{fill:url(#Áåçûìÿííûé_ãðàäèåíò_85);}.cls-19{fill:url(#Áåçûìÿííûé_ãðàäèåíò_55-2);}.cls-21{fill:url(#Áåçûìÿííûé_ãðàäèåíò_54-3);}.cls-22{fill:url(#Áåçûìÿííûé_ãðàäèåíò_85-2);}.cls-23{fill:url(#Áåçûìÿííûé_ãðàäèåíò_55-3);}.cls-24{fill:url(#Áåçûìÿííûé_ãðàäèåíò_54-4);}.cls-25{fill:url(#Áåçûìÿííûé_ãðàäèåíò_85-3);}.cls-26{fill:url(#Áåçûìÿííûé_ãðàäèåíò_55-4);}.cls-27{fill:url(#Áåçûìÿííûé_ãðàäèåíò_54-5);}.cls-28{fill:url(#Áåçûìÿííûé_ãðàäèåíò_85-4);}.cls-29{fill:url(#Áåçûìÿííûé_ãðàäèåíò_55-5);}.cls-30{fill:url(#Áåçûìÿííûé_ãðàäèåíò_54-6);}.cls-31{fill:url(#Áåçûìÿííûé_ãðàäèåíò_85-5);}.cls-32{fill:url(#Áåçûìÿííûé_ãðàäèåíò_55-6);}.cls-33{fill:url(#Áåçûìÿííûé_ãðàäèåíò_54-7);}.cls-34{fill:url(#Áåçûìÿííûé_ãðàäèåíò_85-6);}.cls-35{fill:url(#Áåçûìÿííûé_ãðàäèåíò_55-7);}.cls-36,.cls-37,.cls-43{fill:#7bfff5;}.cls-38{fill:url(#Áåçûìÿííûé_ãðàäèåíò_54-8);}.cls-39{fill:url(#Áåçûìÿííûé_ãðàäèåíò_89-2);}.cls-40{fill:url(#Áåçûìÿííûé_ãðàäèåíò_68-3);}.cls-41{fill:url(#Áåçûìÿííûé_ãðàäèåíò_55-8);}.cls-42{fill:#251c72;}.cls-43{opacity:0.6;}.cls-44{opacity:0.5;fill:url(#linear-gradient);}.cls-45{fill:url(#linear-gradient-2);}.cls-46{fill:url(#linear-gradient-3);}</style><radialGradient id="Áåçûìÿííûé_ãðàäèåíò_19" cx="110.4" cy="228.322" r="121.085" gradientTransform="matrix(-1, 0, 0, 1, 600, 0)" gradientUnits="userSpaceOnUse"><stop offset="0" stop-color="#ff2c9c"/><stop offset="0.03" stop-color="#f62f9f"/><stop offset="0.202" stop-color="#c63eb0"/><stop offset="0.374" stop-color="#9e4bbe"/><stop offset="0.541" stop-color="#7f54c9"/><stop offset="0.704" stop-color="#695bd1"/><stop offset="0.859" stop-color="#5c60d5"/><stop offset="1" stop-color="#5761d7"/></radialGradient><linearGradient id="Áåçûìÿííûé_ãðàäèåíò_54" x1="331.637" y1="208.649" x2="472.169" y2="289.786" gradientUnits="userSpaceOnUse"><stop offset="0" stop-color="#bcbeff"/><stop offset="0.227" stop-color="#aaadf8"/><stop offset="0.68" stop-color="#7c83e5"/><stop offset="1" stop-color="#5761d7"/></linearGradient><linearGradient id="Áåçûìÿííûé_ãðàäèåíò_89" x1="331.637" y1="208.649" x2="472.169" y2="289.786" gradientUnits="userSpaceOnUse"><stop offset="0" stop-color="#2fd3c7"/><stop offset="0.088" stop-color="#31b6bd"/><stop offset="0.229" stop-color="#338db0"/><stop offset="0.373" stop-color="#356ba5"/><stop offset="0.521" stop-color="#37519c"/><stop offset="0.671" stop-color="#383f96"/><stop offset="0.828" stop-color="#393492"/><stop offset="1" stop-color="#393091"/></linearGradient><linearGradient id="Áåçûìÿííûé_ãðàäèåíò_55" x1="312.295" y1="242.301" x2="492.886" y2="242.301" gradientUnits="userSpaceOnUse"><stop offset="0" stop-color="#e9e9fd"/><stop offset="0.36" stop-color="#d3d2f9"/><stop offset="0.706" stop-color="#c5c4f7"/><stop offset="1" stop-color="#c0bff6"/></linearGradient><radialGradient id="Áåçûìÿííûé_ãðàäèåíò_68" cx="401.811" cy="274.319" r="82.212" gradientUnits="userSpaceOnUse"><stop offset="0" stop-color="#42e8e0"/><stop offset="0.08" stop-color="#3ac4c9"/><stop offset="0.206" stop-color="#2f92a8"/><stop offset="0.336" stop-color="#25678c"/><stop offset="0.466" stop-color="#1d4375"/><stop offset="0.597" stop-color="#172863"/><stop offset="0.729" stop-color="#121556"/><stop offset="0.862" stop-color="#10094f"/><stop offset="1" stop-color="#0f054c"/></radialGradient><radialGradient id="Áåçûìÿííûé_ãðàäèåíò_68-2" cx="401.811" cy="248.506" r="81.918" xlink:href="#Áåçûìÿííûé_ãðàäèåíò_68"/><linearGradient id="Áåçûìÿííûé_ãðàäèåíò_54-2" x1="378.236" y1="211.709" x2="425.809" y2="239.175" xlink:href="#Áåçûìÿííûé_ãðàäèåíò_54"/><linearGradient id="Áåçûìÿííûé_ãðàäèåíò_85" x1="378.236" y1="211.709" x2="425.809" y2="239.175" gradientUnits="userSpaceOnUse"><stop offset="0" stop-color="#706ec4"/><stop offset="0.022" stop-color="#6d6bc2"/><stop offset="0.251" stop-color="#5651ac"/><stop offset="0.486" stop-color="#463f9d"/><stop offset="0.731" stop-color="#3c3494"/><stop offset="1" stop-color="#393091"/></linearGradient><linearGradient id="Áåçûìÿííûé_ãðàäèåíò_55-2" x1="373.391" y1="219.871" x2="431.79" y2="219.871" xlink:href="#Áåçûìÿííûé_ãðàäèåíò_55"/><linearGradient id="Áåçûìÿííûé_ãðàäèåíò_54-3" x1="378.236" y1="199.638" x2="425.809" y2="227.105" xlink:href="#Áåçûìÿííûé_ãðàäèåíò_54"/><linearGradient id="Áåçûìÿííûé_ãðàäèåíò_85-2" x1="378.236" y1="199.638" x2="425.809" y2="227.105" xlink:href="#Áåçûìÿííûé_ãðàäèåíò_85"/><linearGradient id="Áåçûìÿííûé_ãðàäèåíò_55-3" x1="373.391" y1="207.801" x2="431.79" y2="207.801" xlink:href="#Áåçûìÿííûé_ãðàäèåíò_55"/><linearGradient id="Áåçûìÿííûé_ãðàäèåíò_54-4" x1="378.236" y1="187.568" x2="425.809" y2="215.034" xlink:href="#Áåçûìÿííûé_ãðàäèåíò_54"/><linearGradient id="Áåçûìÿííûé_ãðàäèåíò_85-3" x1="378.236" y1="187.568" x2="425.809" y2="215.034" xlink:href="#Áåçûìÿííûé_ãðàäèåíò_85"/><linearGradient id="Áåçûìÿííûé_ãðàäèåíò_55-4" x1="373.391" y1="195.73" x2="431.79" y2="195.73" xlink:href="#Áåçûìÿííûé_ãðàäèåíò_55"/><linearGradient id="Áåçûìÿííûé_ãðàäèåíò_54-5" x1="378.236" y1="175.498" x2="425.809" y2="202.964" xlink:href="#Áåçûìÿííûé_ãðàäèåíò_54"/><linearGradient id="Áåçûìÿííûé_ãðàäèåíò_85-4" x1="378.236" y1="175.498" x2="425.809" y2="202.964" xlink:href="#Áåçûìÿííûé_ãðàäèåíò_85"/><linearGradient id="Áåçûìÿííûé_ãðàäèåíò_55-5" x1="373.391" y1="183.66" x2="431.79" y2="183.66" xlink:href="#Áåçûìÿííûé_ãðàäèåíò_55"/><linearGradient id="Áåçûìÿííûé_ãðàäèåíò_54-6" x1="378.236" y1="163.427" x2="425.809" y2="190.894" xlink:href="#Áåçûìÿííûé_ãðàäèåíò_54"/><linearGradient id="Áåçûìÿííûé_ãðàäèåíò_85-5" x1="378.236" y1="163.427" x2="425.809" y2="190.894" xlink:href="#Áåçûìÿííûé_ãðàäèåíò_85"/><linearGradient id="Áåçûìÿííûé_ãðàäèåíò_55-6" x1="373.391" y1="171.59" x2="431.79" y2="171.59" xlink:href="#Áåçûìÿííûé_ãðàäèåíò_55"/><linearGradient id="Áåçûìÿííûé_ãðàäèåíò_54-7" x1="378.236" y1="151.357" x2="425.809" y2="178.823" xlink:href="#Áåçûìÿííûé_ãðàäèåíò_54"/><linearGradient id="Áåçûìÿííûé_ãðàäèåíò_85-6" x1="378.236" y1="151.357" x2="425.809" y2="178.823" xlink:href="#Áåçûìÿííûé_ãðàäèåíò_85"/><linearGradient id="Áåçûìÿííûé_ãðàäèåíò_55-7" x1="373.391" y1="159.519" x2="431.79" y2="159.519" xlink:href="#Áåçûìÿííûé_ãðàäèåíò_55"/><linearGradient id="Áåçûìÿííûé_ãðàäèåíò_54-8" x1="331.637" y1="123.827" x2="472.169" y2="204.964" xlink:href="#Áåçûìÿííûé_ãðàäèåíò_54"/><linearGradient id="Áåçûìÿííûé_ãðàäèåíò_89-2" x1="331.637" y1="123.827" x2="472.169" y2="204.964" xlink:href="#Áåçûìÿííûé_ãðàäèåíò_89"/><radialGradient id="Áåçûìÿííûé_ãðàäèåíò_68-3" cx="401.811" cy="163.684" r="81.918" xlink:href="#Áåçûìÿííûé_ãðàäèåíò_68"/><linearGradient id="Áåçûìÿííûé_ãðàäèåíò_55-8" x1="312.295" y1="157.479" x2="492.886" y2="157.479" xlink:href="#Áåçûìÿííûé_ãðàäèåíò_55"/><linearGradient id="linear-gradient" x1="402.59" y1="184.593" x2="402.59" y2="66.675" gradientUnits="userSpaceOnUse"><stop offset="0" stop-color="#42e8e0"/><stop offset="0.192" stop-color="#37b8c1" stop-opacity="0.787"/><stop offset="0.59" stop-color="#225882" stop-opacity="0.367"/><stop offset="0.868" stop-color="#141c5b" stop-opacity="0.103"/><stop offset="1" stop-color="#0f054c" stop-opacity="0"/></linearGradient><linearGradient id="linear-gradient-2" x1="449.114" y1="159.944" x2="449.114" y2="66.675" gradientUnits="userSpaceOnUse"><stop offset="0" stop-color="#42e8e0"/><stop offset="0.198" stop-color="#34aab8" stop-opacity="0.727"/><stop offset="0.407" stop-color="#277092" stop-opacity="0.471"/><stop offset="0.599" stop-color="#1d4274" stop-opacity="0.267"/><stop offset="0.768" stop-color="#15215e" stop-opacity="0.121"/><stop offset="0.908" stop-color="#110c51" stop-opacity="0.032"/><stop offset="1" stop-color="#0f054c" stop-opacity="0"/></linearGradient><linearGradient id="linear-gradient-3" x1="-16.22" y1="159.944" x2="-16.22" y2="66.675" gradientTransform="matrix(-1, 0, 0, 1, 339.847, 0)" xlink:href="#linear-gradient-2"/></defs><title>device-5</title><g class="cls-1"><g id="Ñëîé_1" data-name="Ñëîé 1"><path class="cls-2" d="M485.988,261.926l-83.337,48.115-83.334-48.113,83.337-48.116Z" transform="translate(-312.295 -66.675)"/><path class="cls-3" d="M486.151,257.478,420.465,295.4l-65.683-37.923,65.685-37.922Z" transform="translate(-312.295 -66.675)"/><path class="cls-4" d="M402.592,322.856a26.4,26.4,0,0,1-12.911-3.083l-69.45-40.1c-3.491-2.015-5.413-4.714-5.414-7.6s1.923-5.583,5.413-7.6l69.448-40.1c7.118-4.111,18.7-4.111,25.822,0l69.451,40.1c3.49,2.016,5.413,4.714,5.413,7.6s-1.923,5.583-5.413,7.6l-69.449,40.1A26.39,26.39,0,0,1,402.592,322.856Zm0-101.062a25.891,25.891,0,0,0-12.661,3.022l-69.448,40.1c-3.329,1.922-5.162,4.467-5.162,7.165s1.834,5.243,5.163,7.165l69.45,40.1c6.983,4.032,18.343,4.031,25.321,0l69.449-40.1c3.328-1.922,5.162-4.466,5.162-7.164s-1.833-5.243-5.162-7.165l-69.451-40.1A25.9,25.9,0,0,0,402.589,221.794Z" transform="translate(-312.295 -66.675)"/><path class="cls-5" d="M492.886,259.077v-8.092l-4.353,1.988c1.641-9.913-12.838,12.719-17.276,13.336l-49.764,29.1-21.718,1.49-69.322-29.421,1.6-.925c-5.925-2.767-9.116-9.1-12.32-14.874l-4.667,2.783-2.773-3.226v8.092h0c0,3.083,2.033,6.166,6.1,8.513l69.45,40.1c8.132,4.694,21.363,4.694,29.5,0l69.448-40.1c4-2.309,6.032-5.33,6.1-8.363,0-.136,0-.271-.008-.407Z" transform="translate(-312.295 -66.675)"/><path class="cls-6" d="M492.886,251.684V242.3l-4.353-2.421c-1.228,7.427-9.969,12.32-17.276,13.337l-49.764,29.1-21.718,7.842-69.322-35.774,1.6-.925c-5.925-2.767-9.116-9.1-12.32-14.874l-4.667,2.784-2.773.779v9.785h0c0,3.083,2.033,6.167,6.1,8.514l69.45,40.1c8.132,4.695,21.363,4.695,29.5,0l69.448-40.1c4-2.309,6.032-5.331,6.1-8.364,0-.135,0-.271-.008-.406Z" transform="translate(-312.295 -66.675)"/><path class="cls-7" d="M492.886,251.684V242.3l-4.353-2.421c-1.228,7.427-9.969,12.32-17.276,13.337l-49.764,29.1-21.718,7.842-69.322-35.774,1.6-.925c-5.925-2.767-9.116-9.1-12.32-14.874l-4.667,2.784-2.773.779v9.785h0c0,3.083,2.033,6.167,6.1,8.514l69.45,40.1c8.132,4.695,21.363,4.695,29.5,0l69.448-40.1c4-2.309,6.032-5.331,6.1-8.364,0-.135,0-.271-.008-.406Z" transform="translate(-312.295 -66.675)"/><path class="cls-8" d="M471.257,253.217l-49.764,29.1-18.9,6.826v14.923a30.158,30.158,0,0,0,14.749-3.521l69.448-40.1c4-2.309,6.032-5.331,6.1-8.364,0-.135,0-.271-.008-.406l.01,6.356V242.3l-3.978-2.212h-.416C487.135,247.4,478.5,252.209,471.257,253.217Z" transform="translate(-312.295 -66.675)"/><path class="cls-9" d="M387.844,290.912l-69.45-40.1c-8.132-4.695-8.132-12.334,0-17.029l69.448-40.1c8.131-4.695,21.362-4.695,29.494,0l69.451,40.1c8.131,4.694,8.132,12.333,0,17.028l-69.448,40.1C409.207,295.607,395.976,295.607,387.844,290.912Z" transform="translate(-312.295 -66.675)"/><path class="cls-10" d="M394.921,267.584,358.8,246.729c-4.229-2.442-4.229-6.415,0-8.857l36.121-20.854a16.976,16.976,0,0,1,15.34,0l36.122,20.855c4.229,2.442,4.229,6.415,0,8.857l-36.121,20.854A16.976,16.976,0,0,1,394.921,267.584Z" transform="translate(-312.295 -66.675)"/><g class="cls-11"><path class="cls-12" d="M394.921,267.584,358.8,246.729c-4.229-2.442-4.229-6.415,0-8.857l36.121-20.854a16.976,16.976,0,0,1,15.34,0l36.122,20.855c4.229,2.442,4.229,6.415,0,8.857l-36.121,20.854A16.976,16.976,0,0,1,394.921,267.584Z" transform="translate(-312.295 -66.675)"/></g><path class="cls-13" d="M357.406,245.742a8.749,8.749,0,0,1,1.393-.987L394.92,223.9a16.976,16.976,0,0,1,15.34,0l36.122,20.855a8.749,8.749,0,0,1,1.393.987c2.769-2.429,2.305-5.735-1.393-7.87L410.26,217.018a16.976,16.976,0,0,0-15.34,0L358.8,237.872C355.1,240.007,354.637,243.313,357.406,245.742Z" transform="translate(-312.295 -66.675)"/><path class="cls-14" d="M402.591,292.175A28.942,28.942,0,0,1,388.44,288.8l-66.187-38.213c-3.81-2.2-5.91-5.143-5.91-8.284s2.1-6.083,5.909-8.283l66.185-38.212c7.8-4.5,20.5-4.5,28.3,0l66.187,38.213c3.811,2.2,5.909,5.142,5.909,8.283s-2.1,6.083-5.909,8.283L416.744,288.8A28.955,28.955,0,0,1,402.591,292.175Zm-13.956-3.716c7.7,4.443,20.218,4.443,27.913,0l66.185-38.212c3.685-2.128,5.715-4.949,5.715-7.945s-2.03-5.818-5.715-7.946l-66.187-38.212c-7.7-4.444-20.218-4.444-27.914,0l-66.184,38.211c-3.686,2.128-5.715,4.95-5.715,7.946s2.03,5.818,5.716,7.946Z" transform="translate(-312.295 -66.675)"/><path class="cls-14" d="M402.591,280.813a22.364,22.364,0,0,1-10.937-2.612L340.6,248.728c-2.953-1.706-4.58-3.988-4.58-6.427s1.626-4.722,4.58-6.428L391.652,206.4c6.031-3.482,15.844-3.482,21.875,0l51.05,29.474c2.954,1.706,4.58,3.988,4.58,6.428s-1.627,4.721-4.58,6.427L413.529,278.2A22.371,22.371,0,0,1,402.591,280.813Zm0-76.64a21.965,21.965,0,0,0-10.742,2.565L340.8,236.211c-2.828,1.633-4.385,3.8-4.385,6.09s1.557,4.457,4.385,6.089l51.05,29.473c5.922,3.42,15.561,3.42,21.484,0l51.048-29.472c2.828-1.632,4.386-3.795,4.386-6.089s-1.558-4.457-4.386-6.09l-51.049-29.474A21.972,21.972,0,0,0,402.589,204.173Z" transform="translate(-312.295 -66.675)"/><g class="cls-15"><path class="cls-4" d="M394.921,267.584,358.8,246.729c-4.229-2.442-4.229-6.415,0-8.857l36.121-20.854a16.976,16.976,0,0,1,15.34,0l36.122,20.855c4.229,2.442,4.229,6.415,0,8.857l-36.121,20.854A16.976,16.976,0,0,1,394.921,267.584Z" transform="translate(-312.295 -66.675)"/></g><path class="cls-16" d="M486.787,250.816l-69.448,40.1c-8.132,4.7-21.363,4.7-29.5,0l-69.45-40.1c-3.635-2.1-5.64-4.786-6.025-7.535-.477,3.4,1.528,6.9,6.025,9.5l69.45,40.1c8.132,4.695,21.363,4.695,29.5,0l69.448-40.1c4.5-2.6,6.5-6.093,6.025-9.494C492.426,246.031,490.422,248.718,486.787,250.816Z" transform="translate(-312.295 -66.675)"/><path class="cls-5" d="M486.787,206.673l-69.451-40.1c-8.132-4.695-21.363-4.695-29.494,0l-69.448,40.1c-8.132,4.694-8.132,12.333,0,17.028l69.451,40.1c8.131,4.694,21.362,4.694,29.494,0l69.448-40.1C494.919,219.007,494.918,211.368,486.787,206.673Z" transform="translate(-312.295 -66.675)"/><path class="cls-4" d="M402.043,259.608A21.147,21.147,0,0,1,391.7,257.14h0l-11.953-6.981c-2.794-1.613-4.333-3.773-4.333-6.083s1.54-4.469,4.333-6.082l13.046-7.679c5.7-3.293,14.977-3.293,20.681,0l11.954,6.981c2.794,1.612,4.333,3.773,4.333,6.082s-1.539,4.469-4.333,6.082l-13.046,7.681A21.149,21.149,0,0,1,402.043,259.608ZM391.9,256.8c5.6,3.229,14.7,3.228,20.289,0l13.046-7.681c2.67-1.541,4.14-3.581,4.14-5.745s-1.471-4.2-4.14-5.745l-11.954-6.982c-5.592-3.228-14.7-3.229-20.289,0l-13.045,7.68c-2.67,1.541-4.14,3.582-4.141,5.745s1.471,4.205,4.14,5.746Z" transform="translate(-312.295 -66.675)"/><path class="cls-5" d="M431.79,232.96v-6.482L428.3,228.07c1.314-7.941-10.285,10.189-13.84,10.684l2.723-1.127-17.4,1.194-11.851,1.571,1.284-.741c-4.746-2.217-7.3-7.289-9.87-11.915l-3.739,2.229-2.221-2.584v6.482h0c0,2.47,1.629,4.94,4.886,6.82l11.953,6.981c6.514,3.761,17.114,3.761,23.628,0l13.046-7.681c3.2-1.85,4.833-4.27,4.885-6.7,0-.109,0-.217-.007-.326Z" transform="translate(-312.295 -66.675)"/><path class="cls-17" d="M431.79,227.037v-7.516l-3.487-1.939c-.984,5.949-7.986,9.869-13.84,10.684l2.723-1.127-17.4,6.282L387.937,229.9l1.284-.741c-4.746-2.217-7.3-7.289-9.87-11.916l-3.739,2.23-2.221.624v7.839h0c0,2.47,1.629,4.94,4.886,6.821l11.953,6.98c6.514,3.761,17.114,3.762,23.628,0L426.9,234.06c3.2-1.85,4.833-4.27,4.885-6.7,0-.109,0-.217-.007-.326Z" transform="translate(-312.295 -66.675)"/><path class="cls-18" d="M431.79,227.037v-7.516l-3.487-1.939c-.984,5.949-7.986,9.869-13.84,10.684l2.723-1.127-17.4,6.282L387.937,229.9l1.284-.741c-4.746-2.217-7.3-7.289-9.87-11.916l-3.739,2.23-2.221.624v7.839h0c0,2.47,1.629,4.94,4.886,6.821l11.953,6.98c6.514,3.761,17.114,3.762,23.628,0L426.9,234.06c3.2-1.85,4.833-4.27,4.885-6.7,0-.109,0-.217-.007-.326Z" transform="translate(-312.295 -66.675)"/><path class="cls-8" d="M414.463,228.266l2.723-1.127-15.143,5.468v11.955a24.156,24.156,0,0,0,11.815-2.821L426.9,234.06c3.2-1.85,4.833-4.27,4.885-6.7,0-.109,0-.217-.007-.326l.008,5.092V219.521l-3.187-1.773h-.333C427.183,223.6,420.261,227.458,414.463,228.266Z" transform="translate(-312.295 -66.675)"/><path class="cls-19" d="M390.23,234.023l-11.953-6.981c-6.515-3.761-6.515-9.88,0-13.642l13.047-7.681c6.514-3.761,17.113-3.761,23.628,0L426.9,212.7c6.514,3.761,6.515,9.881,0,13.642l-13.046,7.681C407.344,237.784,396.744,237.784,390.23,234.023Z" transform="translate(-312.295 -66.675)"/><path class="cls-14" d="M402.11,234.951a21.4,21.4,0,0,1-10.467-2.5h0l-10.512-6.138c-2.82-1.628-4.374-3.807-4.374-6.134s1.553-4.5,4.374-6.133l11.472-6.755c5.773-3.333,15.164-3.332,20.937,0l10.511,6.139c2.82,1.628,4.373,3.806,4.373,6.133s-1.552,4.5-4.373,6.132l-11.471,6.755A21.416,21.416,0,0,1,402.11,234.951ZM391.8,232.182c5.687,3.282,14.938,3.28,20.622,0l11.472-6.755c2.721-1.572,4.219-3.654,4.219-5.863s-1.5-4.293-4.219-5.864l-10.512-6.139c-5.683-3.281-14.936-3.282-20.622,0l-11.471,6.755c-2.722,1.572-4.22,3.654-4.22,5.864s1.5,4.293,4.22,5.864Z" transform="translate(-312.295 -66.675)"/><path class="cls-16" d="M426.9,226.342l-13.046,7.681c-6.514,3.761-17.114,3.761-23.628,0l-11.953-6.981c-2.912-1.681-4.518-3.833-4.827-6.036-.383,2.725,1.224,5.527,4.827,7.607l11.953,6.981c6.514,3.761,17.114,3.761,23.628,0l13.046-7.681c3.6-2.08,5.209-4.881,4.827-7.606C431.422,222.509,429.816,224.661,426.9,226.342Z" transform="translate(-312.295 -66.675)"/><path class="cls-5" d="M387.937,233.78l1.1-.146c-.152-.074-.3-.152-.447-.232Z" transform="translate(-312.295 -66.675)"/><path class="cls-5" d="M415.245,231.837l-.055,0-.727.3A2.266,2.266,0,0,0,415.245,231.837Z" transform="translate(-312.295 -66.675)"/><path class="cls-5" d="M428.393,221.417a3.374,3.374,0,0,0,0-.626q-.024.3-.086.667Z" transform="translate(-312.295 -66.675)"/><path class="cls-20" d="M431.79,226.348l-.008,0c0,.108.009.217.007.325-.052,2.43-1.68,4.851-4.884,6.7l-13.047,7.681c-6.514,3.761-17.114,3.761-23.628,0l-11.953-6.981c-3.257-1.88-4.886-4.35-4.886-6.82h0v.689h0c0,2.47,1.629,4.94,4.886,6.82l11.953,6.981c6.514,3.761,17.114,3.761,23.628,0l13.047-7.681c3.2-1.85,4.832-4.27,4.884-6.7,0-.109,0-.217-.007-.326l.008,0Z" transform="translate(-312.295 -66.675)"/><path class="cls-5" d="M431.79,220.89v-6.483L428.3,216c1.314-7.942-10.285,10.189-13.84,10.684l2.723-1.127-17.4,1.193-11.851,1.572,1.284-.741c-4.746-2.217-7.3-7.289-9.87-11.916l-3.739,2.23-2.221-2.585v6.483h0c0,2.47,1.629,4.94,4.886,6.82l11.953,6.981c6.514,3.761,17.114,3.761,23.628,0l13.046-7.681c3.2-1.85,4.833-4.271,4.885-6.7,0-.108,0-.217-.007-.325Z" transform="translate(-312.295 -66.675)"/><path class="cls-21" d="M431.79,214.967V207.45l-3.487-1.939c-.984,5.95-7.986,9.869-13.84,10.684l2.723-1.127-17.4,6.283-11.851-3.518,1.284-.741c-4.746-2.217-7.3-7.289-9.87-11.916l-3.739,2.23-2.221.625v7.839h0c0,2.47,1.629,4.94,4.886,6.82l11.953,6.981c6.514,3.761,17.114,3.761,23.628,0L426.9,221.99c3.2-1.85,4.833-4.271,4.885-6.7,0-.108,0-.217-.007-.325Z" transform="translate(-312.295 -66.675)"/><path class="cls-22" d="M431.79,214.967V207.45l-3.487-1.939c-.984,5.95-7.986,9.869-13.84,10.684l2.723-1.127-17.4,6.283-11.851-3.518,1.284-.741c-4.746-2.217-7.3-7.289-9.87-11.916l-3.739,2.23-2.221.625v7.839h0c0,2.47,1.629,4.94,4.886,6.82l11.953,6.981c6.514,3.761,17.114,3.761,23.628,0L426.9,221.99c3.2-1.85,4.833-4.271,4.885-6.7,0-.108,0-.217-.007-.325Z" transform="translate(-312.295 -66.675)"/><path class="cls-8" d="M414.463,216.2l2.723-1.127-15.143,5.468v11.956a24.156,24.156,0,0,0,11.815-2.821L426.9,221.99c3.2-1.85,4.833-4.271,4.885-6.7,0-.108,0-.217-.007-.325l.008,5.092V207.45l-3.187-1.772h-.333C427.183,211.533,420.261,215.388,414.463,216.2Z" transform="translate(-312.295 -66.675)"/><path class="cls-23" d="M390.23,221.953l-11.953-6.981c-6.515-3.761-6.515-9.881,0-13.642l13.047-7.681c6.514-3.761,17.113-3.761,23.628,0L426.9,200.63c6.514,3.761,6.515,9.881,0,13.642l-13.046,7.681C407.344,225.714,396.744,225.714,390.23,221.953Z" transform="translate(-312.295 -66.675)"/><path class="cls-14" d="M402.11,222.881a21.4,21.4,0,0,1-10.467-2.5h0l-10.512-6.139c-2.82-1.628-4.374-3.807-4.374-6.134s1.553-4.5,4.374-6.132l11.472-6.755c5.772-3.333,15.163-3.332,20.937,0l10.511,6.139c2.82,1.628,4.373,3.807,4.373,6.133s-1.552,4.5-4.373,6.133l-11.471,6.755A21.416,21.416,0,0,1,402.11,222.881Zm-10.311-2.77c5.687,3.282,14.938,3.282,20.622,0l11.472-6.755c2.721-1.571,4.219-3.653,4.219-5.863s-1.5-4.292-4.219-5.863l-10.512-6.139c-5.684-3.282-14.935-3.283-20.622,0l-11.471,6.754c-2.722,1.571-4.22,3.653-4.22,5.863s1.5,4.293,4.22,5.865Z" transform="translate(-312.295 -66.675)"/><path class="cls-16" d="M426.9,214.272l-13.046,7.681c-6.514,3.761-17.114,3.761-23.628,0l-11.953-6.981c-2.912-1.681-4.518-3.834-4.827-6.036-.383,2.725,1.224,5.526,4.827,7.607l11.953,6.981c6.514,3.761,17.114,3.761,23.628,0l13.046-7.682c3.6-2.08,5.209-4.881,4.827-7.606C431.422,210.439,429.816,212.591,426.9,214.272Z" transform="translate(-312.295 -66.675)"/><path class="cls-5" d="M387.937,221.709l1.1-.146c-.152-.074-.3-.151-.447-.231Z" transform="translate(-312.295 -66.675)"/><path class="cls-5" d="M415.245,219.767l-.055,0-.727.3A2.287,2.287,0,0,0,415.245,219.767Z" transform="translate(-312.295 -66.675)"/><path class="cls-5" d="M428.393,209.347a3.386,3.386,0,0,0,0-.627c-.016.2-.045.42-.086.668Z" transform="translate(-312.295 -66.675)"/><path class="cls-20" d="M431.79,214.278l-.008,0c0,.109.009.218.007.326-.052,2.43-1.68,4.85-4.884,6.7l-13.047,7.682c-6.514,3.761-17.114,3.761-23.628,0L378.277,222c-3.257-1.881-4.886-4.351-4.886-6.821h0v.69h0c0,2.47,1.629,4.94,4.886,6.82l11.953,6.981c6.514,3.761,17.114,3.761,23.628,0l13.047-7.681c3.2-1.85,4.832-4.271,4.884-6.7,0-.108,0-.217-.007-.325l.008,0Z" transform="translate(-312.295 -66.675)"/><path class="cls-5" d="M431.79,208.819v-6.482l-3.487,1.592c1.314-7.941-10.285,10.19-13.84,10.684l2.723-1.127-17.4,1.194-11.851,1.571,1.284-.741c-4.746-2.217-7.3-7.289-9.87-11.915l-3.739,2.23-2.221-2.585v6.482h0c0,2.47,1.629,4.94,4.886,6.821l11.953,6.981c6.514,3.761,17.114,3.761,23.628,0l13.046-7.682c3.2-1.85,4.833-4.27,4.885-6.7,0-.109,0-.217-.007-.326Z" transform="translate(-312.295 -66.675)"/><path class="cls-24" d="M431.79,202.9V195.38l-3.487-1.939c-.984,5.949-7.986,9.869-13.84,10.684L417.186,203l-17.4,6.282-11.851-3.517,1.284-.741c-4.746-2.217-7.3-7.289-9.87-11.916l-3.739,2.23-2.221.624V203.8h0c0,2.47,1.629,4.94,4.886,6.821L390.23,217.6c6.514,3.761,17.114,3.761,23.628,0l13.046-7.682c3.2-1.85,4.833-4.27,4.885-6.7,0-.109,0-.217-.007-.326Z" transform="translate(-312.295 -66.675)"/><path class="cls-25" d="M431.79,202.9V195.38l-3.487-1.939c-.984,5.949-7.986,9.869-13.84,10.684L417.186,203l-17.4,6.282-11.851-3.517,1.284-.741c-4.746-2.217-7.3-7.289-9.87-11.916l-3.739,2.23-2.221.624V203.8h0c0,2.47,1.629,4.94,4.886,6.821L390.23,217.6c6.514,3.761,17.114,3.761,23.628,0l13.046-7.682c3.2-1.85,4.833-4.27,4.885-6.7,0-.109,0-.217-.007-.326Z" transform="translate(-312.295 -66.675)"/><path class="cls-8" d="M414.463,204.125,417.186,203l-15.143,5.468v11.955a24.156,24.156,0,0,0,11.815-2.82l13.046-7.682c3.2-1.85,4.833-4.27,4.885-6.7,0-.109,0-.217-.007-.326l.008,5.092V195.38l-3.187-1.772h-.333C427.183,199.463,420.261,203.318,414.463,204.125Z" transform="translate(-312.295 -66.675)"/><path class="cls-26" d="M390.23,209.882,378.277,202.9c-6.515-3.761-6.515-9.88,0-13.641l13.047-7.682c6.514-3.761,17.113-3.761,23.628,0L426.9,188.56c6.514,3.761,6.515,9.88,0,13.641l-13.046,7.681C407.344,213.644,396.744,213.644,390.23,209.882Z" transform="translate(-312.295 -66.675)"/><path class="cls-14" d="M402.11,210.81a21.384,21.384,0,0,1-10.467-2.5h0l-10.512-6.139c-2.82-1.628-4.374-3.806-4.374-6.132s1.553-4.5,4.374-6.134l11.472-6.754c5.772-3.333,15.163-3.333,20.937,0l10.511,6.14c2.82,1.628,4.373,3.806,4.373,6.133s-1.552,4.5-4.373,6.133l-11.471,6.754A21.405,21.405,0,0,1,402.11,210.81Zm-10.31-2.769c5.685,3.281,14.937,3.281,20.621,0l11.472-6.755c2.721-1.571,4.219-3.653,4.219-5.863s-1.5-4.293-4.219-5.863l-10.512-6.14c-5.684-3.281-14.935-3.282-20.622,0l-11.471,6.754c-2.722,1.572-4.22,3.654-4.22,5.864s1.5,4.293,4.22,5.863Z" transform="translate(-312.295 -66.675)"/><path class="cls-16" d="M426.9,202.2l-13.046,7.681c-6.514,3.762-17.114,3.762-23.628,0l-11.953-6.98c-2.912-1.682-4.518-3.834-4.827-6.036-.383,2.725,1.224,5.526,4.827,7.606l11.953,6.981c6.514,3.761,17.114,3.761,23.628,0l13.046-7.681c3.6-2.08,5.209-4.881,4.827-7.606C431.422,198.368,429.816,200.52,426.9,202.2Z" transform="translate(-312.295 -66.675)"/><path class="cls-5" d="M387.937,209.639l1.1-.146c-.152-.074-.3-.152-.447-.232Z" transform="translate(-312.295 -66.675)"/><path class="cls-5" d="M415.245,207.7l-.055,0-.727.3A2.282,2.282,0,0,0,415.245,207.7Z" transform="translate(-312.295 -66.675)"/><path class="cls-5" d="M428.393,197.276a3.374,3.374,0,0,0,0-.626q-.024.3-.086.667Z" transform="translate(-312.295 -66.675)"/><path class="cls-20" d="M431.79,202.207l-.008,0c0,.109.009.217.007.326-.052,2.429-1.68,4.85-4.884,6.7l-13.047,7.681c-6.514,3.761-17.114,3.761-23.628,0l-11.953-6.981c-3.257-1.88-4.886-4.35-4.886-6.82h0v.689h0c0,2.47,1.629,4.94,4.886,6.821L390.23,217.6c6.514,3.761,17.114,3.761,23.628,0l13.047-7.682c3.2-1.85,4.832-4.27,4.884-6.7,0-.109,0-.217-.007-.326l.008,0Z" transform="translate(-312.295 -66.675)"/><path class="cls-5" d="M431.79,196.749v-6.482l-3.487,1.592c1.314-7.941-10.285,10.189-13.84,10.684l2.723-1.127-17.4,1.194-11.851,1.571,1.284-.741c-4.746-2.217-7.3-7.289-9.87-11.916l-3.739,2.23-2.221-2.585v6.483h0c0,2.47,1.629,4.94,4.886,6.82l11.953,6.981c6.514,3.761,17.114,3.761,23.628,0l13.046-7.681c3.2-1.85,4.833-4.271,4.885-6.7,0-.108,0-.217-.007-.325Z" transform="translate(-312.295 -66.675)"/><path class="cls-27" d="M431.79,190.826v-7.517L428.3,181.37c-.984,5.95-7.986,9.869-13.84,10.684l2.723-1.127-17.4,6.283-11.851-3.518,1.284-.741c-4.746-2.217-7.3-7.289-9.87-11.915l-3.739,2.229-2.221.625v7.839h0c0,2.47,1.629,4.94,4.886,6.82l11.953,6.981c6.514,3.761,17.114,3.761,23.628,0l13.046-7.681c3.2-1.85,4.833-4.271,4.885-6.7,0-.108,0-.216-.007-.325Z" transform="translate(-312.295 -66.675)"/><path class="cls-28" d="M431.79,190.826v-7.517L428.3,181.37c-.984,5.95-7.986,9.869-13.84,10.684l2.723-1.127-17.4,6.283-11.851-3.518,1.284-.741c-4.746-2.217-7.3-7.289-9.87-11.915l-3.739,2.229-2.221.625v7.839h0c0,2.47,1.629,4.94,4.886,6.82l11.953,6.981c6.514,3.761,17.114,3.761,23.628,0l13.046-7.681c3.2-1.85,4.833-4.271,4.885-6.7,0-.108,0-.216-.007-.325Z" transform="translate(-312.295 -66.675)"/><path class="cls-8" d="M414.463,192.054l2.723-1.127L402.043,196.4v11.955a24.156,24.156,0,0,0,11.815-2.821l13.046-7.681c3.2-1.85,4.833-4.271,4.885-6.7,0-.108,0-.216-.007-.325l.008,5.092V183.309l-3.187-1.772h-.333C427.183,187.392,420.261,191.247,414.463,192.054Z" transform="translate(-312.295 -66.675)"/><path class="cls-29" d="M390.23,197.812l-11.953-6.981c-6.515-3.761-6.515-9.881,0-13.642l13.047-7.681c6.514-3.761,17.113-3.761,23.628,0l11.953,6.981c6.514,3.761,6.515,9.881,0,13.642l-13.046,7.681C407.344,201.573,396.744,201.573,390.23,197.812Z" transform="translate(-312.295 -66.675)"/><path class="cls-14" d="M402.11,198.739a21.405,21.405,0,0,1-10.467-2.5h0L381.13,190.1c-2.82-1.628-4.374-3.807-4.374-6.133s1.554-4.5,4.374-6.134l11.472-6.753c5.772-3.333,15.163-3.333,20.937,0l10.511,6.139c2.821,1.629,4.373,3.807,4.373,6.133s-1.552,4.5-4.373,6.133l-11.471,6.754A21.405,21.405,0,0,1,402.11,198.739ZM391.8,195.97c5.687,3.283,14.938,3.282,20.622,0l11.472-6.754c2.721-1.571,4.219-3.653,4.219-5.864s-1.5-4.292-4.219-5.863l-10.512-6.139c-5.684-3.282-14.935-3.283-20.622,0L381.288,178.1c-2.722,1.571-4.22,3.653-4.22,5.864s1.5,4.292,4.22,5.863Z" transform="translate(-312.295 -66.675)"/><path class="cls-16" d="M426.9,190.131l-13.046,7.681c-6.514,3.761-17.114,3.761-23.628,0l-11.953-6.981c-2.912-1.681-4.518-3.834-4.827-6.036-.383,2.725,1.224,5.527,4.827,7.607l11.953,6.981c6.514,3.761,17.114,3.761,23.628,0L426.9,191.7c3.6-2.08,5.209-4.882,4.827-7.607C431.422,186.3,429.816,188.45,426.9,190.131Z" transform="translate(-312.295 -66.675)"/><path class="cls-5" d="M387.937,197.569l1.1-.146c-.152-.074-.3-.152-.447-.232Z" transform="translate(-312.295 -66.675)"/><path class="cls-5" d="M415.245,195.626l-.055,0-.727.3A2.266,2.266,0,0,0,415.245,195.626Z" transform="translate(-312.295 -66.675)"/><path class="cls-5" d="M428.393,185.206a3.386,3.386,0,0,0,0-.627c-.016.2-.045.42-.086.668Z" transform="translate(-312.295 -66.675)"/><path class="cls-20" d="M431.79,190.137l-.008,0c0,.108.009.217.007.325-.052,2.43-1.68,4.851-4.884,6.7l-13.047,7.682c-6.514,3.761-17.114,3.761-23.628,0l-11.953-6.981c-3.257-1.881-4.886-4.351-4.886-6.821h0v.69h0c0,2.47,1.629,4.94,4.886,6.82l11.953,6.981c6.514,3.761,17.114,3.761,23.628,0l13.047-7.681c3.2-1.85,4.832-4.271,4.884-6.7,0-.108,0-.217-.007-.325l.008,0Z" transform="translate(-312.295 -66.675)"/><path class="cls-5" d="M431.79,184.679V178.2l-3.487,1.593c1.314-7.942-10.285,10.189-13.84,10.684l2.723-1.128-17.4,1.194-11.851,1.571,1.284-.741c-4.746-2.216-7.3-7.288-9.87-11.915l-3.739,2.23-2.221-2.585v6.482h0c0,2.47,1.629,4.94,4.886,6.821l11.953,6.981c6.514,3.761,17.114,3.761,23.628,0L426.9,191.7c3.2-1.851,4.833-4.271,4.885-6.7,0-.109,0-.217-.007-.325Z" transform="translate(-312.295 -66.675)"/><path class="cls-30" d="M431.79,178.756v-7.517L428.3,169.3c-.984,5.949-7.986,9.869-13.84,10.684l2.723-1.127-17.4,6.282-11.851-3.517,1.284-.741c-4.746-2.217-7.3-7.289-9.87-11.916l-3.739,2.23-2.221.624v7.839h0c0,2.47,1.629,4.94,4.886,6.821l11.953,6.981c6.514,3.761,17.114,3.761,23.628,0l13.046-7.681c3.2-1.851,4.833-4.271,4.885-6.7,0-.108,0-.217-.007-.325Z" transform="translate(-312.295 -66.675)"/><path class="cls-31" d="M431.79,178.756v-7.517L428.3,169.3c-.984,5.949-7.986,9.869-13.84,10.684l2.723-1.127-17.4,6.282-11.851-3.517,1.284-.741c-4.746-2.217-7.3-7.289-9.87-11.916l-3.739,2.23-2.221.624v7.839h0c0,2.47,1.629,4.94,4.886,6.821l11.953,6.981c6.514,3.761,17.114,3.761,23.628,0l13.046-7.681c3.2-1.851,4.833-4.271,4.885-6.7,0-.108,0-.217-.007-.325Z" transform="translate(-312.295 -66.675)"/><path class="cls-8" d="M414.463,179.984l2.723-1.127-15.143,5.468V196.28a24.145,24.145,0,0,0,11.815-2.82l13.046-7.681c3.2-1.851,4.833-4.271,4.885-6.7,0-.108,0-.217-.007-.325l.008,5.092V171.239l-3.187-1.772h-.333C427.183,175.322,420.261,179.177,414.463,179.984Z" transform="translate(-312.295 -66.675)"/><path class="cls-32" d="M390.23,185.742l-11.953-6.981c-6.515-3.762-6.515-9.881,0-13.642l13.047-7.682c6.514-3.761,17.113-3.76,23.628,0l11.953,6.981c6.514,3.761,6.515,9.881,0,13.641l-13.046,7.682C407.344,189.5,396.744,189.5,390.23,185.742Z" transform="translate(-312.295 -66.675)"/><path class="cls-14" d="M402.11,186.669a21.405,21.405,0,0,1-10.467-2.5h0l-10.512-6.138c-2.82-1.629-4.374-3.807-4.374-6.133s1.554-4.5,4.374-6.134L392.6,159.01c5.772-3.333,15.163-3.333,20.937,0l10.511,6.14c2.82,1.628,4.373,3.806,4.373,6.133s-1.552,4.5-4.373,6.133l-11.471,6.754A21.405,21.405,0,0,1,402.11,186.669ZM391.8,183.9c5.687,3.284,14.938,3.283,20.622,0l11.472-6.753c2.721-1.572,4.219-3.654,4.219-5.864s-1.5-4.293-4.219-5.863l-10.512-6.14c-5.687-3.282-14.938-3.281-20.622,0l-11.471,6.754c-2.722,1.571-4.22,3.653-4.22,5.864s1.5,4.292,4.22,5.863Z" transform="translate(-312.295 -66.675)"/><path class="cls-16" d="M426.9,178.06l-13.046,7.682c-6.514,3.761-17.114,3.761-23.628,0l-11.953-6.981c-2.912-1.681-4.518-3.834-4.827-6.036-.383,2.725,1.224,5.526,4.827,7.606l11.953,6.981c6.514,3.761,17.114,3.761,23.628,0l13.046-7.681c3.6-2.08,5.209-4.881,4.827-7.606C431.422,174.227,429.816,176.38,426.9,178.06Z" transform="translate(-312.295 -66.675)"/><path class="cls-5" d="M387.937,185.5l1.1-.146c-.152-.074-.3-.152-.447-.232Z" transform="translate(-312.295 -66.675)"/><path class="cls-5" d="M415.245,183.556l-.055,0-.727.3A2.282,2.282,0,0,0,415.245,183.556Z" transform="translate(-312.295 -66.675)"/><path class="cls-5" d="M428.393,173.135a3.375,3.375,0,0,0,0-.626q-.024.3-.086.667Z" transform="translate(-312.295 -66.675)"/><path class="cls-20" d="M431.79,178.066l-.008,0c0,.109.009.217.007.326-.052,2.43-1.68,4.85-4.884,6.7l-13.047,7.681c-6.514,3.762-17.114,3.762-23.628,0l-11.953-6.98c-3.257-1.881-4.886-4.351-4.886-6.821h0v.689h0c0,2.47,1.629,4.94,4.886,6.821l11.953,6.981c6.514,3.761,17.114,3.761,23.628,0l13.047-7.682c3.2-1.849,4.832-4.27,4.884-6.7,0-.108,0-.217-.007-.325l.008,0Z" transform="translate(-312.295 -66.675)"/><path class="cls-5" d="M431.79,172.608v-6.482l-3.487,1.592c1.314-7.941-10.285,10.189-13.84,10.684l2.723-1.127-17.4,1.194-11.851,1.571,1.284-.741c-4.746-2.217-7.3-7.289-9.87-11.916l-3.739,2.23-2.221-2.584v6.482h0c0,2.47,1.629,4.94,4.886,6.82l11.953,6.981c6.514,3.761,17.114,3.761,23.628,0l13.046-7.681c3.2-1.85,4.833-4.271,4.885-6.7,0-.109,0-.217-.007-.326Z" transform="translate(-312.295 -66.675)"/><path class="cls-33" d="M431.79,166.685v-7.516l-3.487-1.94c-.984,5.95-7.986,9.87-13.84,10.685l2.723-1.128-17.4,6.283-11.851-3.518,1.284-.741c-4.746-2.216-7.3-7.289-9.87-11.915l-3.739,2.23-2.221.624v7.839h0c0,2.47,1.629,4.94,4.886,6.82l11.953,6.981c6.514,3.761,17.114,3.761,23.628,0l13.046-7.681c3.2-1.85,4.833-4.27,4.885-6.7,0-.109,0-.217-.007-.326Z" transform="translate(-312.295 -66.675)"/><path class="cls-34" d="M431.79,166.685v-7.516l-3.487-1.94c-.984,5.95-7.986,9.87-13.84,10.685l2.723-1.128-17.4,6.283-11.851-3.518,1.284-.741c-4.746-2.216-7.3-7.289-9.87-11.915l-3.739,2.23-2.221.624v7.839h0c0,2.47,1.629,4.94,4.886,6.82l11.953,6.981c6.514,3.761,17.114,3.761,23.628,0l13.046-7.681c3.2-1.85,4.833-4.27,4.885-6.7,0-.109,0-.217-.007-.326Z" transform="translate(-312.295 -66.675)"/><path class="cls-8" d="M414.463,167.914l2.723-1.128-15.143,5.469V184.21a24.156,24.156,0,0,0,11.815-2.821l13.046-7.681c3.2-1.85,4.833-4.27,4.885-6.7,0-.109,0-.217-.007-.326l.008,5.092v-12.6L428.6,157.4h-.333C427.183,163.251,420.261,167.106,414.463,167.914Z" transform="translate(-312.295 -66.675)"/><path class="cls-35" d="M390.23,173.671l-11.953-6.981c-6.515-3.761-6.515-9.881,0-13.642l13.047-7.681c6.514-3.761,17.113-3.761,23.628,0l11.953,6.981c6.514,3.761,6.515,9.881,0,13.642l-13.046,7.681C407.344,177.432,396.744,177.432,390.23,173.671Z" transform="translate(-312.295 -66.675)"/><path class="cls-14" d="M402.11,174.6a21.408,21.408,0,0,1-10.467-2.5h0L381.13,165.96c-2.82-1.628-4.374-3.806-4.374-6.133s1.553-4.5,4.374-6.134L392.6,146.94c5.772-3.334,15.163-3.333,20.937,0l10.511,6.14c2.82,1.628,4.373,3.806,4.373,6.132s-1.552,4.5-4.373,6.134L412.579,172.1A21.414,21.414,0,0,1,402.11,174.6ZM391.8,171.83c5.686,3.282,14.936,3.282,20.621,0l11.472-6.754c2.721-1.571,4.219-3.653,4.219-5.864s-1.5-4.292-4.219-5.862l-10.512-6.14c-5.684-3.282-14.935-3.283-20.622,0l-11.471,6.754c-2.722,1.572-4.22,3.654-4.22,5.864s1.5,4.293,4.22,5.863Z" transform="translate(-312.295 -66.675)"/><path class="cls-16" d="M426.9,165.99l-13.046,7.681c-6.514,3.761-17.114,3.761-23.628,0l-11.953-6.981c-2.912-1.681-4.518-3.833-4.827-6.035-.383,2.724,1.224,5.526,4.827,7.606l11.953,6.981c6.514,3.761,17.114,3.761,23.628,0l13.046-7.681c3.6-2.08,5.209-4.881,4.827-7.606C431.422,162.157,429.816,164.309,426.9,165.99Z" transform="translate(-312.295 -66.675)"/><path class="cls-5" d="M387.937,173.428l1.1-.146c-.152-.074-.3-.152-.447-.232Z" transform="translate(-312.295 -66.675)"/><path class="cls-5" d="M415.245,171.485l-.055,0-.727.3A2.266,2.266,0,0,0,415.245,171.485Z" transform="translate(-312.295 -66.675)"/><path class="cls-5" d="M428.393,161.065a3.374,3.374,0,0,0,0-.626q-.024.3-.086.667Z" transform="translate(-312.295 -66.675)"/><path class="cls-20" d="M431.79,166l-.008,0c0,.108.009.217.007.325-.052,2.43-1.68,4.851-4.884,6.7L413.858,180.7c-6.514,3.761-17.114,3.761-23.628,0l-11.953-6.981c-3.257-1.88-4.886-4.35-4.886-6.82h0v.689h0c0,2.47,1.629,4.94,4.886,6.82l11.953,6.981c6.514,3.761,17.114,3.761,23.628,0l13.047-7.681c3.2-1.85,4.832-4.27,4.884-6.7,0-.109,0-.217-.007-.326l.008,0Z" transform="translate(-312.295 -66.675)"/><path class="cls-5" d="M492.886,244.013V166.164l-4.353,1.987c1.641-9.913-12.838,12.719-17.276,13.337l-49.764,29.1-21.718,1.49-69.322-29.421,1.6-.925c-5.925-2.767-9.116-9.1-12.32-14.874l-4.667,2.783-2.773-3.226v77.849h0c0,3.084,2.033,6.167,6.1,8.514l69.45,40.1c8.132,4.695,21.363,4.695,29.5,0l69.448-40.1c4-2.309,6.032-5.33,6.1-8.364,0-.135,0-.118-.008-.253Z" transform="translate(-312.295 -66.675)"/><path class="cls-36" d="M492.886,214.837l-.01,0c0,.136.011.271.008.407-.065,3.033-2.1,6.054-6.1,8.364l-69.448,40.1c-8.132,4.694-21.363,4.694-29.494,0l-69.451-40.1c-4.066-2.347-6.1-5.43-6.1-8.514h0v29.176h0c0,3.084,2.033,6.167,6.1,8.514l69.451,40.1c8.131,4.694,21.362,4.694,29.494,0l69.448-40.1c4-2.309,6.032-5.33,6.1-8.364,0-.135,0-.27-.008-.406l.01,0Z" transform="translate(-312.295 -66.675)"/><path class="cls-37" d="M492.886,214.743l-.01,0c0,.135.011.271.008.406-.065,3.033-2.1,6.055-6.1,8.364l-69.448,40.1c-8.132,4.695-21.363,4.695-29.494,0l-69.451-40.1c-4.066-2.348-6.1-5.431-6.1-8.514h0v1.691h0c0,3.083,2.033,6.167,6.1,8.514l69.451,40.1c8.131,4.695,21.362,4.695,29.494,0l69.448-40.1c4-2.309,6.032-5.331,6.1-8.364,0-.135,0-.271-.008-.406l.01,0Z" transform="translate(-312.295 -66.675)"/><path class="cls-38" d="M492.886,166.862v-9.383l-4.353-2.42c-1.228,7.426-9.969,12.319-17.276,13.336l-49.764,29.1-21.718,7.842-69.322-35.774,1.6-.925c-5.925-2.767-9.116-9.1-12.32-14.874l-4.667,2.784-2.773.779v9.785h0c0,3.083,2.033,6.167,6.1,8.514l69.45,40.1c8.132,4.7,21.363,4.7,29.5,0l69.448-40.1c4-2.309,6.032-5.331,6.1-8.364,0-.135,0-.271-.008-.406Z" transform="translate(-312.295 -66.675)"/><path class="cls-39" d="M492.886,166.862v-9.383l-4.353-2.42c-1.228,7.426-9.969,12.319-17.276,13.336l-49.764,29.1-21.718,7.842-69.322-35.774,1.6-.925c-5.925-2.767-9.116-9.1-12.32-14.874l-4.667,2.784-2.773.779v9.785h0c0,3.083,2.033,6.167,6.1,8.514l69.45,40.1c8.132,4.7,21.363,4.7,29.5,0l69.448-40.1c4-2.309,6.032-5.331,6.1-8.364,0-.135,0-.271-.008-.406Z" transform="translate(-312.295 -66.675)"/><path class="cls-8" d="M471.257,168.4l-49.764,29.1-18.9,6.826v14.923a30.147,30.147,0,0,0,14.749-3.521l69.448-40.1c4-2.309,6.032-5.331,6.1-8.364,0-.135,0-.271-.008-.406l.01,76.267V157.479l-3.978-2.212h-.416C487.135,162.575,478.5,167.387,471.257,168.4Z" transform="translate(-312.295 -66.675)"/><path class="cls-40" d="M357.406,160.92a8.749,8.749,0,0,1,1.393-.987l36.121-20.854a16.976,16.976,0,0,1,15.34,0l36.122,20.855a8.749,8.749,0,0,1,1.393.987c2.769-2.429,2.305-5.735-1.393-7.87L410.26,132.2a16.976,16.976,0,0,0-15.34,0L358.8,153.05C355.1,155.185,354.637,158.491,357.406,160.92Z" transform="translate(-312.295 -66.675)"/><path class="cls-41" d="M486.787,148.966l-69.451-40.1c-8.132-4.695-21.363-4.695-29.494,0l-69.448,40.1c-8.132,4.695-8.132,12.334,0,17.029l69.451,40.1c8.131,4.695,21.362,4.695,29.494,0l69.448-40.1C494.919,161.3,494.918,153.66,486.787,148.966Zm-40.4,12.942-36.121,20.854a16.976,16.976,0,0,1-15.34,0L358.8,161.907c-4.229-2.442-4.229-6.415,0-8.857L394.92,132.2a16.976,16.976,0,0,1,15.34,0l36.122,20.855C450.611,155.493,450.611,159.466,446.382,161.908Z" transform="translate(-312.295 -66.675)"/><path class="cls-42" d="M479.02,149.751l-63.044-36.4c-7.382-4.261-19.392-4.262-26.774,0l-63.042,36.4c-7.381,4.262-7.381,11.2,0,15.458l63.044,36.4c7.381,4.262,19.392,4.262,26.773,0l63.043-36.4C486.4,160.947,486.4,154.013,479.02,149.751Zm-22.765,13.155-44.264,25.556c-5.183,2.993-13.617,2.993-18.8,0l-44.266-25.557c-5.183-2.992-5.184-7.861,0-10.853L393.19,126.5c5.183-2.992,13.616-2.992,18.8,0l44.266,25.557C461.438,155.045,461.438,159.914,456.255,162.906Z" transform="translate(-312.295 -66.675)"/><path class="cls-5" d="M479.02,149.751l-63.044-36.4c-7.382-4.261-19.392-4.262-26.774,0l-63.042,36.4c-7.381,4.262-7.381,11.2,0,15.458l63.044,36.4c7.381,4.262,19.392,4.262,26.773,0l63.043-36.4C486.4,160.947,486.4,154.013,479.02,149.751Zm-22.765,13.155-44.264,25.556c-5.183,2.993-13.617,2.993-18.8,0l-44.266-25.557c-5.183-2.992-5.184-7.861,0-10.853L393.19,126.5c5.183-2.992,13.616-2.992,18.8,0l44.266,25.557C461.438,155.045,461.438,159.914,456.255,162.906Z" transform="translate(-312.295 -66.675)"/><path class="cls-16" d="M486.787,165.994l-69.448,40.1c-8.132,4.695-21.363,4.695-29.5,0l-69.45-40.1c-3.635-2.1-5.64-4.786-6.025-7.535-.477,3.4,1.528,6.9,6.025,9.5l69.45,40.1c8.132,4.694,21.363,4.694,29.5,0l69.448-40.1c4.5-2.6,6.5-6.092,6.025-9.494C492.426,161.209,490.422,163.9,486.787,165.994Z" transform="translate(-312.295 -66.675)"/><path class="cls-4" d="M402.591,198.171a23.629,23.629,0,0,1-11.554-2.759l-53.954-31.15c-3.119-1.8-4.835-4.209-4.835-6.783s1.716-4.983,4.835-6.784l53.952-31.15c6.371-3.676,16.736-3.678,23.109,0L468.1,150.7c3.118,1.8,4.835,4.21,4.835,6.784s-1.718,4.982-4.835,6.783l-53.952,31.149A23.633,23.633,0,0,1,402.591,198.171Zm0-81a23.23,23.23,0,0,0-11.359,2.712l-53.952,31.15c-2.993,1.727-4.641,4.016-4.641,6.446s1.648,4.718,4.641,6.445l53.954,31.15c6.264,3.617,16.455,3.617,22.719,0L467.9,163.925c2.992-1.727,4.64-4.016,4.64-6.445s-1.648-4.718-4.64-6.446l-53.954-31.15A23.223,23.223,0,0,0,402.589,117.171Z" transform="translate(-312.295 -66.675)"/><g class="cls-15"><path class="cls-4" d="M394.921,182.762,358.8,161.907c-4.229-2.442-4.229-6.415,0-8.857L394.92,132.2a16.976,16.976,0,0,1,15.34,0l36.122,20.855c4.229,2.442,4.229,6.415,0,8.857l-36.121,20.854A16.976,16.976,0,0,1,394.921,182.762Z" transform="translate(-312.295 -66.675)"/></g><path class="cls-43" d="M431.782,211.543c0,.109.009.217.007.326-.052,2.429-1.68,4.85-4.884,6.7l-13.047,7.681c-6.514,3.761-17.114,3.761-23.628,0l-11.953-6.981c-3.257-1.88-4.886-4.35-4.886-6.82h0v21.414h0c0,2.47,1.629,4.94,4.886,6.82l11.953,6.981c6.514,3.761,17.114,3.762,23.628,0l13.047-7.681c3.2-1.85,4.832-4.271,4.884-6.7,0-.109,0-.217-.007-.326l.008,0v-5.923h0V220.89h0v-5.923h0v-3.421Z" transform="translate(-312.295 -66.675)"/><path class="cls-44" d="M449.554,66.675H355.627v90.8h0c0,1.6,1.058,3.207,3.172,4.428l36.122,20.855a16.976,16.976,0,0,0,15.34,0l36.121-20.854c2.115-1.221,3.172-2.825,3.172-4.429h0Z" transform="translate(-312.295 -66.675)"/><path class="cls-45" d="M448.675,159.944a4.137,4.137,0,0,0,.879-2.465v-90.8H448.8Z" transform="translate(-312.295 -66.675)"/><path class="cls-46" d="M356.506,159.944a4.137,4.137,0,0,1-.879-2.465v-90.8h.751Z" transform="translate(-312.295 -66.675)"/><path class="cls-4" d="M426.049,207.482l-9.406,5.43c-.274.158-.5-.01-.5-.375h0a1.188,1.188,0,0,1,.5-.948l9.406-5.43c.274-.158.5.009.5.375h0A1.188,1.188,0,0,1,426.049,207.482Z" transform="translate(-312.295 -66.675)"/><path class="cls-4" d="M445.418,196.3l-9.406,5.43c-.274.158-.5-.01-.5-.375h0a1.188,1.188,0,0,1,.5-.948l9.406-5.43c.274-.158.5.01.5.375h0A1.19,1.19,0,0,1,445.418,196.3Z" transform="translate(-312.295 -66.675)"/><path class="cls-4" d="M464.787,185.116l-9.4,5.43c-.274.158-.5-.01-.5-.375h0a1.188,1.188,0,0,1,.5-.948l9.4-5.43c.274-.158.5.01.5.375h0A1.189,1.189,0,0,1,464.787,185.116Z" transform="translate(-312.295 -66.675)"/><path class="cls-4" d="M484.157,173.933l-9.406,5.43c-.274.158-.5-.009-.5-.375h0a1.19,1.19,0,0,1,.5-.948l9.406-5.43c.274-.158.5.01.5.375h0A1.188,1.188,0,0,1,484.157,173.933Z" transform="translate(-312.295 -66.675)"/><path class="cls-4" d="M426.049,292.537l-9.406,5.43c-.274.159-.5-.009-.5-.375h0a1.186,1.186,0,0,1,.5-.947l9.406-5.431c.274-.158.5.01.5.375h0A1.188,1.188,0,0,1,426.049,292.537Z" transform="translate(-312.295 -66.675)"/><path class="cls-4" d="M445.418,281.354l-9.406,5.43c-.274.159-.5-.009-.5-.375h0a1.186,1.186,0,0,1,.5-.947l9.406-5.431c.274-.158.5.01.5.375h0A1.187,1.187,0,0,1,445.418,281.354Z" transform="translate(-312.295 -66.675)"/><path class="cls-4" d="M464.787,270.171l-9.4,5.431c-.274.158-.5-.01-.5-.375h0a1.187,1.187,0,0,1,.5-.948l9.4-5.431c.274-.158.5.01.5.375h0A1.188,1.188,0,0,1,464.787,270.171Z" transform="translate(-312.295 -66.675)"/><path class="cls-4" d="M484.157,258.988l-9.406,5.431c-.274.158-.5-.01-.5-.375h0a1.187,1.187,0,0,1,.5-.948l9.406-5.431c.274-.158.5.01.5.375h0A1.187,1.187,0,0,1,484.157,258.988Z" transform="translate(-312.295 -66.675)"/><path class="cls-4" d="M378.857,207.482l9.4,5.43c.274.158.5-.01.5-.375h0a1.188,1.188,0,0,0-.5-.948l-9.4-5.43c-.274-.158-.5.009-.5.375h0A1.188,1.188,0,0,0,378.857,207.482Z" transform="translate(-312.295 -66.675)"/><path class="cls-4" d="M359.487,196.3l9.406,5.43c.274.158.5-.01.5-.375h0a1.188,1.188,0,0,0-.5-.948l-9.406-5.43c-.274-.158-.5.01-.5.375h0A1.19,1.19,0,0,0,359.487,196.3Z" transform="translate(-312.295 -66.675)"/><path class="cls-4" d="M340.118,185.116l9.406,5.43c.274.158.5-.01.5-.375h0a1.188,1.188,0,0,0-.5-.948l-9.406-5.43c-.274-.158-.5.01-.5.375h0A1.188,1.188,0,0,0,340.118,185.116Z" transform="translate(-312.295 -66.675)"/><path class="cls-4" d="M320.749,173.933l9.4,5.43c.274.158.5-.009.5-.375h0a1.19,1.19,0,0,0-.5-.948l-9.4-5.43c-.274-.158-.5.01-.5.375h0A1.188,1.188,0,0,0,320.749,173.933Z" transform="translate(-312.295 -66.675)"/><path class="cls-4" d="M378.857,292.537l9.4,5.43c.274.159.5-.009.5-.375h0a1.186,1.186,0,0,0-.5-.947l-9.4-5.431c-.274-.158-.5.01-.5.375h0A1.188,1.188,0,0,0,378.857,292.537Z" transform="translate(-312.295 -66.675)"/><path class="cls-4" d="M359.487,281.354l9.406,5.43c.274.159.5-.009.5-.375h0a1.186,1.186,0,0,0-.5-.947l-9.406-5.431c-.274-.158-.5.01-.5.375h0A1.187,1.187,0,0,0,359.487,281.354Z" transform="translate(-312.295 -66.675)"/><path class="cls-4" d="M340.118,270.171l9.406,5.431c.274.158.5-.01.5-.375h0a1.187,1.187,0,0,0-.5-.948l-9.406-5.431c-.274-.158-.5.01-.5.375h0A1.187,1.187,0,0,0,340.118,270.171Z" transform="translate(-312.295 -66.675)"/><path class="cls-4" d="M320.749,258.988l9.4,5.431c.274.158.5-.01.5-.375h0a1.187,1.187,0,0,0-.5-.948l-9.4-5.431c-.274-.158-.5.01-.5.375h0A1.187,1.187,0,0,0,320.749,258.988Z" transform="translate(-312.295 -66.675)"/></g></g></svg>