<svg id="Ñëîé_1" data-name="Ñëîé 1" xmlns="http://www.w3.org/2000/svg" xmlns:xlink="http://www.w3.org/1999/xlink" viewBox="0 0 153.689 190.731"><defs><style>.cls-1{mask:url(#mask);}.cls-2{mix-blend-mode:multiply;fill:url(#Áåçûìÿííûé_ãðàäèåíò_222);}.cls-3,.cls-4{fill:#42e8e0;}.cls-3{opacity:0.5;}.cls-5{fill:url(#linear-gradient);}.cls-6{opacity:0.67;}.cls-7{fill:#24126a;}.cls-8{fill:url(#Áåçûìÿííûé_ãðàäèåíò_24);}.cls-9{fill:#bcbeff;}.cls-10{opacity:0.51;}.cls-11{fill:#453c9e;}.cls-12{fill:#5351af;}.cls-13{fill:url(#Áåçûìÿííûé_ãðàäèåíò_24-2);}.cls-14{fill:url(#Áåçûìÿííûé_ãðàäèåíò_24-3);}.cls-15{fill:url(#Áåçûìÿííûé_ãðàäèåíò_24-4);}.cls-16{fill:#fff;}.cls-17{mask:url(#mask-2);}.cls-18{opacity:0.78;fill:url(#Áåçûìÿííûé_ãðàäèåíò_14);}.cls-19{fill:url(#Áåçûìÿííûé_ãðàäèåíò_24-6);}.cls-20{fill:url(#Áåçûìÿííûé_ãðàäèåíò_3);}.cls-21{fill:url(#Áåçûìÿííûé_ãðàäèåíò_4);}.cls-22{fill:#6767c1;}.cls-23{fill:url(#linear-gradient-2);}.cls-24{fill:url(#linear-gradient-3);}.cls-25{fill:url(#Áåçûìÿííûé_ãðàäèåíò_24-7);}.cls-26{fill:url(#Áåçûìÿííûé_ãðàäèåíò_25);}.cls-27{fill:url(#Áåçûìÿííûé_ãðàäèåíò_24-8);}.cls-28{fill:url(#Áåçûìÿííûé_ãðàäèåíò_3-2);}.cls-29{filter:url(#luminosity-noclip-2);}.cls-30{filter:url(#luminosity-noclip);}</style><filter id="luminosity-noclip" x="322.195" y="-8417" width="38.521" height="32766" filterUnits="userSpaceOnUse" color-interpolation-filters="sRGB"><feFlood flood-color="#fff" result="bg"/><feBlend in="SourceGraphic" in2="bg"/></filter><mask id="mask" x="322.195" y="-8417" width="38.521" height="32766" maskUnits="userSpaceOnUse"><g class="cls-30"/></mask><linearGradient id="Áåçûìÿííûé_ãðàäèåíò_222" x1="322.195" y1="187.747" x2="360.716" y2="187.747" gradientUnits="userSpaceOnUse"><stop offset="0"/><stop offset="0.047" stop-color="#2f2f2f"/><stop offset="0.098" stop-color="#5a5a5a"/><stop offset="0.155" stop-color="#828282"/><stop offset="0.216" stop-color="#a4a4a4"/><stop offset="0.283" stop-color="silver"/><stop offset="0.357" stop-color="#d7d7d7"/><stop offset="0.442" stop-color="#e9e9e9"/><stop offset="0.544" stop-color="#f6f6f6"/><stop offset="0.681" stop-color="#fdfdfd"/><stop offset="1" stop-color="#fff"/></linearGradient><linearGradient id="linear-gradient" x1="317.594" y1="274.007" x2="403.838" y2="274.007" gradientUnits="userSpaceOnUse"><stop offset="0" stop-color="#42e8e0"/><stop offset="0.111" stop-color="#42e5e0" stop-opacity="0.979"/><stop offset="0.241" stop-color="#44dddf" stop-opacity="0.917"/><stop offset="0.382" stop-color="#46cfde" stop-opacity="0.814"/><stop offset="0.529" stop-color="#49bcdd" stop-opacity="0.671"/><stop offset="0.683" stop-color="#4da3db" stop-opacity="0.487"/><stop offset="0.841" stop-color="#5284d9" stop-opacity="0.262"/><stop offset="1" stop-color="#5761d7" stop-opacity="0"/></linearGradient><linearGradient id="Áåçûìÿííûé_ãðàäèåíò_24" x1="322.194" y1="260.307" x2="399.239" y2="260.307" gradientUnits="userSpaceOnUse"><stop offset="0" stop-color="#5761d7"/><stop offset="0.178" stop-color="#5c66d9"/><stop offset="0.388" stop-color="#6a73df"/><stop offset="0.613" stop-color="#8289e8"/><stop offset="0.849" stop-color="#a3a7f5"/><stop offset="1" stop-color="#bcbeff"/></linearGradient><linearGradient id="Áåçûìÿííûé_ãðàäèåíò_24-2" x1="322.194" y1="239.581" x2="399.239" y2="239.581" xlink:href="#Áåçûìÿííûé_ãðàäèåíò_24"/><linearGradient id="Áåçûìÿííûé_ãðàäèåíò_24-3" x1="322.194" y1="218.425" x2="399.239" y2="218.425" xlink:href="#Áåçûìÿííûé_ãðàäèåíò_24"/><linearGradient id="Áåçûìÿííûé_ãðàäèåíò_24-4" x1="322.194" y1="197.268" x2="399.239" y2="197.268" xlink:href="#Áåçûìÿííûé_ãðàäèåíò_24"/><filter id="luminosity-noclip-2" x="322.195" y="177.435" width="38.521" height="20.624" filterUnits="userSpaceOnUse" color-interpolation-filters="sRGB"><feFlood flood-color="#fff" result="bg"/><feBlend in="SourceGraphic" in2="bg"/></filter><mask id="mask-2" x="4.6" y="38.116" width="38.521" height="20.624" maskUnits="userSpaceOnUse"><g class="cls-29"><g transform="translate(-317.594 -139.319)"><g class="cls-1"><path class="cls-2" d="M325.744,198.06h34.972V177.435h-33.2C321.07,183.742,320.482,191.489,325.744,198.06Z"/></g></g></g></mask><linearGradient id="Áåçûìÿííûé_ãðàäèåíò_14" x1="322.195" y1="187.747" x2="360.716" y2="187.747" gradientUnits="userSpaceOnUse"><stop offset="0" stop-color="#e9e9fd"/><stop offset="0.037" stop-color="#d3d5f7"/><stop offset="0.106" stop-color="#b2b6ef"/><stop offset="0.182" stop-color="#969be7"/><stop offset="0.266" stop-color="#7f86e1"/><stop offset="0.363" stop-color="#6d75dd"/><stop offset="0.48" stop-color="#606ad9"/><stop offset="0.636" stop-color="#5963d8"/><stop offset="1" stop-color="#5761d7"/></linearGradient><linearGradient id="Áåçûìÿííûé_ãðàäèåíò_24-6" x1="340.938" y1="186.642" x2="380.494" y2="186.642" xlink:href="#Áåçûìÿííûé_ãðàäèåíò_24"/><linearGradient id="Áåçûìÿííûé_ãðàäèåíò_3" x1="23.343" y1="42.934" x2="62.9" y2="42.934" gradientUnits="userSpaceOnUse"><stop offset="0" stop-color="#c0bff6"/><stop offset="0.294" stop-color="#c5c4f7"/><stop offset="0.64" stop-color="#d3d2f9"/><stop offset="1" stop-color="#e9e9fd"/></linearGradient><linearGradient id="Áåçûìÿííûé_ãðàäèåíò_4" x1="347.399" y1="179.507" x2="374.033" y2="179.507" gradientUnits="userSpaceOnUse"><stop offset="0" stop-color="#bcbeff"/><stop offset="0.151" stop-color="#a3a7f5"/><stop offset="0.387" stop-color="#8289e8"/><stop offset="0.612" stop-color="#6a73df"/><stop offset="0.822" stop-color="#5c66d9"/><stop offset="1" stop-color="#5761d7"/></linearGradient><linearGradient id="linear-gradient-2" x1="347.273" y1="321.883" x2="373.555" y2="321.883" gradientUnits="userSpaceOnUse"><stop offset="0" stop-color="#5761d7"/><stop offset="0.125" stop-color="#537dd9" stop-opacity="0.792"/><stop offset="0.287" stop-color="#4e9ddb" stop-opacity="0.553"/><stop offset="0.447" stop-color="#49b8dd" stop-opacity="0.355"/><stop offset="0.601" stop-color="#46cdde" stop-opacity="0.2"/><stop offset="0.748" stop-color="#44dcdf" stop-opacity="0.09"/><stop offset="0.884" stop-color="#42e5e0" stop-opacity="0.023"/><stop offset="1" stop-color="#42e8e0" stop-opacity="0"/></linearGradient><linearGradient id="linear-gradient-3" x1="362.972" y1="288.629" x2="471.283" y2="288.629" xlink:href="#linear-gradient"/><linearGradient id="Áåçûìÿííûé_ãðàäèåíò_24-7" x1="257.424" y1="12.088" x2="358.476" y2="12.088" gradientTransform="matrix(0.866, -0.5, 0, 1.155, 139.79, 395.171)" xlink:href="#Áåçûìÿííûé_ãðàäèåíò_24"/><radialGradient id="Áåçûìÿííûé_ãðàäèåíò_25" cx="383.285" cy="254.149" fx="343.9184569988004" fy="240.26119072284683" r="41.745" gradientUnits="userSpaceOnUse"><stop offset="0" stop-color="#2b237c"/><stop offset="1" stop-color="#180d5b"/></radialGradient><linearGradient id="Áåçûìÿííûé_ãðàäèåíò_24-8" x1="362.719" y1="267.261" x2="463.309" y2="267.261" xlink:href="#Áåçûìÿííûé_ãðàäèåíò_24"/><linearGradient id="Áåçûìÿííûé_ãðàäèåíò_3-2" x1="277.012" y1="29.097" x2="378.065" y2="29.097" gradientTransform="matrix(0.866, -0.5, 0, 1.155, 139.79, 395.171)" xlink:href="#Áåçûìÿííûé_ãðàäèåíò_3"/></defs><title>server-6</title><polygon class="cls-3" points="84.635 6.544 76.424 1.803 76.424 0 84.635 4.74 84.635 6.544"/><polygon class="cls-3" points="88.846 8.975 85.889 7.268 85.889 5.465 88.846 7.172 88.846 8.975"/><polygon class="cls-3" points="92.109 10.859 90.1 9.699 90.1 7.896 92.109 9.056 92.109 10.859"/><polygon class="cls-3" points="80.898 8.505 76.424 5.922 76.424 4.119 80.898 6.702 80.898 8.505"/><polygon class="cls-3" points="87.635 12.395 82.153 9.229 82.153 7.426 87.635 10.592 87.635 12.395"/><polygon class="cls-3" points="90.898 14.279 88.889 13.119 88.889 11.316 90.898 12.476 90.898 14.279"/><polygon class="cls-3" points="94.004 16.072 91.995 14.912 91.995 13.109 94.004 14.268 94.004 16.072"/><polygon class="cls-4" points="79.661 11.91 76.424 10.041 76.424 8.238 79.661 10.107 79.661 11.91"/><polygon class="cls-4" points="82.022 13.273 80.916 12.634 80.916 10.831 82.022 11.47 82.022 13.273"/><polygon class="cls-3" points="85.285 15.157 83.276 13.997 83.276 12.194 85.285 13.354 85.285 15.157"/><polygon class="cls-3" points="88.372 21.058 76.424 14.16 76.424 12.357 88.372 19.255 88.372 21.058"/><polygon class="cls-3" points="92.583 23.489 89.626 21.782 89.626 19.979 92.583 21.686 92.583 23.489"/><polygon class="cls-3" points="79.661 20.148 76.424 18.279 76.424 16.476 79.661 18.345 79.661 20.148"/><polygon class="cls-3" points="87.258 24.534 80.916 20.872 80.916 19.069 87.258 22.731 87.258 24.534"/><polygon class="cls-3" points="90.521 26.418 88.512 25.258 88.512 23.455 90.521 24.615 90.521 26.418"/><polygon class="cls-3" points="83.047 26.222 76.424 22.398 76.424 20.595 83.047 24.419 83.047 26.222"/><polygon class="cls-4" points="89.091 29.711 84.302 26.946 84.302 25.143 89.091 27.908 89.091 29.711"/><polygon class="cls-3" points="93.583 32.304 90.346 30.436 90.346 28.632 93.583 30.501 93.583 32.304"/><polygon class="cls-3" points="78.661 27.808 76.424 26.517 76.424 24.714 78.661 26.005 78.661 27.808"/><polygon class="cls-3" points="82.872 30.239 79.916 28.533 79.916 26.73 82.872 28.436 82.872 30.239"/><polygon class="cls-3" points="88.889 33.714 84.126 30.964 84.126 29.16 88.889 31.911 88.889 33.714"/><polygon class="cls-3" points="83.276 34.592 76.424 30.636 76.424 28.833 83.276 32.789 83.276 34.592"/><polygon class="cls-3" points="90.951 39.023 84.531 35.316 84.531 33.513 90.951 37.22 90.951 39.023"/><polygon class="cls-4" points="94.214 40.907 92.205 39.747 92.205 37.944 94.214 39.104 94.214 40.907"/><polygon class="cls-3" points="97.346 42.715 95.337 41.555 95.337 39.752 97.346 40.912 97.346 42.715"/><polygon class="cls-3" points="80.53 37.125 76.424 34.755 76.424 32.952 80.53 35.322 80.53 37.125"/><polygon class="cls-4" points="97.699 14.086 103.392 17.373 103.392 15.57 97.699 12.283 97.699 14.086"/><polygon class="cls-3" points="98.918 18.909 103.392 21.492 103.392 19.689 98.918 17.106 98.918 18.909"/><polygon class="cls-3" points="100.155 23.742 103.392 25.611 103.392 23.808 100.155 21.939 100.155 23.742"/><polygon class="cls-3" points="98.684 27.012 103.392 29.73 103.392 27.927 98.684 25.208 98.684 27.012"/><polygon class="cls-3" points="100.155 31.98 103.392 33.849 103.392 32.046 100.155 30.177 100.155 31.98"/><polygon class="cls-3" points="99.287 35.598 103.392 37.968 103.392 36.165 99.287 33.794 99.287 35.598"/><polygon class="cls-3" points="101.155 40.795 103.392 42.087 103.392 40.284 101.155 38.992 101.155 40.795"/><polygon class="cls-3" points="99.058 43.703 103.392 46.206 103.392 44.403 99.058 41.9 99.058 43.703"/><polygon class="cls-3" points="99.287 47.955 103.392 50.325 103.392 48.522 99.287 46.151 99.287 47.955"/><polygon class="cls-3" points="83.53 38.857 81.784 37.849 81.784 36.046 83.53 37.054 83.53 38.857"/><polygon class="cls-3" points="88.714 41.85 84.784 39.581 84.784 37.778 88.714 40.047 88.714 41.85"/><polygon class="cls-3" points="116.474 24.855 108.264 20.115 108.264 18.312 116.474 23.052 116.474 24.855"/><polygon class="cls-3" points="120.685 27.286 117.729 25.58 117.729 23.776 120.685 25.483 120.685 27.286"/><polygon class="cls-4" points="123.948 29.17 121.939 28.011 121.939 26.208 123.948 27.367 123.948 29.17"/><polygon class="cls-3" points="112.737 26.817 108.264 24.234 108.264 22.431 112.737 25.014 112.737 26.817"/><polygon class="cls-3" points="119.475 30.707 113.992 27.541 113.992 25.738 119.475 28.903 119.475 30.707"/><polygon class="cls-4" points="122.738 32.591 120.729 31.431 120.729 29.628 122.738 30.787 122.738 32.591"/><polygon class="cls-3" points="125.843 34.383 123.834 33.224 123.834 31.421 125.843 32.58 125.843 34.383"/><polygon class="cls-3" points="111.501 30.222 108.264 28.353 108.264 26.55 111.501 28.419 111.501 30.222"/><polygon class="cls-3" points="113.861 31.585 112.755 30.946 112.755 29.143 113.861 29.782 113.861 31.585"/><polygon class="cls-3" points="117.125 33.469 115.116 32.309 115.116 30.506 117.125 31.666 117.125 33.469"/><polygon class="cls-3" points="120.211 39.37 108.264 32.472 108.264 30.669 120.211 37.567 120.211 39.37"/><polygon class="cls-3" points="124.422 41.801 121.466 40.094 121.466 38.291 124.422 39.998 124.422 41.801"/><polygon class="cls-3" points="111.501 38.46 108.264 36.591 108.264 34.788 111.501 36.657 111.501 38.46"/><polygon class="cls-3" points="119.097 42.846 112.755 39.184 112.755 37.381 119.097 41.043 119.097 42.846"/><polygon class="cls-3" points="122.361 44.73 120.352 43.57 120.352 41.767 122.361 42.927 122.361 44.73"/><polygon class="cls-4" points="114.887 44.534 108.264 40.71 108.264 38.907 114.887 42.731 114.887 44.534"/><polygon class="cls-3" points="120.931 48.023 116.141 45.258 116.141 43.455 120.931 46.22 120.931 48.023"/><polygon class="cls-3" points="125.422 50.616 122.185 48.747 122.185 46.944 125.422 48.813 125.422 50.616"/><polygon class="cls-3" points="110.501 46.12 108.264 44.829 108.264 43.026 110.501 44.317 110.501 46.12"/><polygon class="cls-3" points="114.711 48.551 111.755 46.845 111.755 45.041 114.711 46.748 114.711 48.551"/><polygon class="cls-4" points="120.729 52.026 115.966 49.276 115.966 47.472 120.729 50.222 120.729 52.026"/><polygon class="cls-3" points="115.116 52.904 108.264 48.948 108.264 47.145 115.116 51.101 115.116 52.904"/><polygon class="cls-3" points="122.79 57.335 116.37 53.628 116.37 51.825 122.79 55.532 122.79 57.335"/><polygon class="cls-3" points="126.053 59.219 124.045 58.059 124.045 56.256 126.053 57.416 126.053 59.219"/><polygon class="cls-3" points="129.185 61.027 127.176 59.867 127.176 58.064 129.185 59.224 129.185 61.027"/><polygon class="cls-3" points="112.369 55.437 108.264 53.067 108.264 51.264 112.369 53.634 112.369 55.437"/><polygon class="cls-4" points="129.538 32.398 135.231 35.685 135.231 33.882 129.538 30.595 129.538 32.398"/><polygon class="cls-3" points="130.758 37.221 135.231 39.804 135.231 38.001 130.758 35.418 130.758 37.221"/><polygon class="cls-3" points="131.995 42.054 135.231 43.923 135.231 42.12 131.995 40.251 131.995 42.054"/><polygon class="cls-3" points="130.523 45.323 135.231 48.042 135.231 46.239 130.523 43.52 130.523 45.323"/><polygon class="cls-3" points="131.995 50.292 135.231 52.161 135.231 50.358 131.995 48.489 131.995 50.292"/><polygon class="cls-3" points="131.126 53.91 135.231 56.28 135.231 54.477 131.126 52.106 131.126 53.91"/><polygon class="cls-3" points="132.995 59.107 135.231 60.399 135.231 58.596 132.995 57.304 132.995 59.107"/><polygon class="cls-3" points="130.897 62.015 135.231 64.518 135.231 62.715 130.897 60.212 130.897 62.015"/><polygon class="cls-3" points="131.126 66.266 135.231 68.637 135.231 66.834 131.126 64.463 131.126 66.266"/><polygon class="cls-4" points="115.369 57.169 113.623 56.161 113.623 54.358 115.369 55.366 115.369 57.169"/><polygon class="cls-3" points="120.553 60.162 116.623 57.893 116.623 56.09 120.553 58.359 120.553 60.162"/><polygon class="cls-3" points="84.635 43.638 76.424 38.898 76.424 37.095 84.635 41.835 84.635 43.638"/><polygon class="cls-3" points="88.846 46.069 85.889 44.363 85.889 42.559 88.846 44.266 88.846 46.069"/><polygon class="cls-3" points="92.109 47.953 90.1 46.794 90.1 44.99 92.109 46.15 92.109 47.953"/><polygon class="cls-3" points="80.898 45.6 76.424 43.017 76.424 41.214 80.898 43.797 80.898 45.6"/><polygon class="cls-3" points="87.635 49.489 82.153 46.324 82.153 44.521 87.635 47.686 87.635 49.489"/><polygon class="cls-3" points="90.898 51.373 88.889 50.214 88.889 48.41 90.898 49.57 90.898 51.373"/><polygon class="cls-3" points="94.004 53.166 91.995 52.006 91.995 50.203 94.004 51.363 94.004 53.166"/><polygon class="cls-3" points="79.661 49.005 76.424 47.136 76.424 45.333 79.661 47.201 79.661 49.005"/><polygon class="cls-3" points="82.022 50.368 80.916 49.729 80.916 47.926 82.022 48.564 82.022 50.368"/><polygon class="cls-3" points="85.285 52.252 83.276 51.092 83.276 49.289 85.285 50.448 85.285 52.252"/><polygon class="cls-3" points="88.372 58.153 76.424 51.255 76.424 49.452 88.372 56.35 88.372 58.153"/><polygon class="cls-3" points="92.583 60.584 89.626 58.877 89.626 57.074 92.583 58.781 92.583 60.584"/><polygon class="cls-3" points="79.661 57.243 76.424 55.374 76.424 53.571 79.661 55.439 79.661 57.243"/><polygon class="cls-3" points="87.258 61.628 80.916 57.967 80.916 56.164 87.258 59.825 87.258 61.628"/><polygon class="cls-3" points="90.521 63.512 88.512 62.353 88.512 60.55 90.521 61.709 90.521 63.512"/><polygon class="cls-3" points="83.047 63.316 76.424 59.493 76.424 57.69 83.047 61.513 83.047 63.316"/><polygon class="cls-3" points="89.091 66.806 84.302 64.041 84.302 62.238 89.091 65.003 89.091 66.806"/><polygon class="cls-3" points="93.583 69.399 90.346 67.53 90.346 65.727 93.583 67.596 93.583 69.399"/><polygon class="cls-3" points="78.661 64.903 76.424 63.612 76.424 61.809 78.661 63.1 78.661 64.903"/><polygon class="cls-3" points="82.872 67.334 79.916 65.627 79.916 63.824 82.872 65.531 82.872 67.334"/><polygon class="cls-3" points="88.889 70.808 84.126 68.058 84.126 66.255 88.889 69.005 88.889 70.808"/><polygon class="cls-3" points="83.276 71.687 76.424 67.731 76.424 65.928 83.276 69.883 83.276 71.687"/><polygon class="cls-3" points="90.951 76.118 84.531 72.411 84.531 70.608 90.951 74.314 90.951 76.118"/><polygon class="cls-3" points="94.214 78.002 92.205 76.842 92.205 75.039 94.214 76.198 94.214 78.002"/><polygon class="cls-3" points="97.346 79.81 95.337 78.65 95.337 76.847 97.346 78.006 97.346 79.81"/><polygon class="cls-3" points="80.53 74.22 76.424 71.85 76.424 70.046 80.53 72.417 80.53 74.22"/><polygon class="cls-3" points="97.699 51.181 103.392 54.468 103.392 52.665 97.699 49.378 97.699 51.181"/><polygon class="cls-3" points="98.918 56.004 103.392 58.587 103.392 56.784 98.918 54.201 98.918 56.004"/><polygon class="cls-3" points="100.155 60.837 103.392 62.706 103.392 60.903 100.155 59.034 100.155 60.837"/><polygon class="cls-3" points="98.684 64.106 103.392 66.825 103.392 65.021 98.684 62.303 98.684 64.106"/><polygon class="cls-3" points="100.155 69.075 103.392 70.944 103.392 69.14 100.155 67.272 100.155 69.075"/><polygon class="cls-3" points="99.287 72.692 103.392 75.063 103.392 73.259 99.287 70.889 99.287 72.692"/><polygon class="cls-3" points="101.155 77.89 103.392 79.182 103.392 77.378 101.155 76.087 101.155 77.89"/><polygon class="cls-3" points="99.058 80.798 103.392 83.3 103.392 81.497 99.058 78.995 99.058 80.798"/><polygon class="cls-3" points="99.287 85.049 103.392 87.419 103.392 85.616 99.287 83.246 99.287 85.049"/><polygon class="cls-3" points="83.53 75.952 81.784 74.944 81.784 73.141 83.53 74.149 83.53 75.952"/><polygon class="cls-3" points="88.714 78.945 84.784 76.676 84.784 74.873 88.714 77.142 88.714 78.945"/><polygon class="cls-3" points="91.965 92.8 85.333 88.972 85.333 87.168 91.965 90.997 91.965 92.8"/><polygon class="cls-3" points="96.507 95.423 93.895 93.915 93.895 92.112 96.507 93.62 96.507 95.423"/><polygon class="cls-3" points="116.474 61.95 108.264 57.21 108.264 55.407 116.474 60.147 116.474 61.95"/><polygon class="cls-3" points="120.685 64.381 117.729 62.674 117.729 60.871 120.685 62.578 120.685 64.381"/><polygon class="cls-3" points="123.948 66.265 121.939 65.105 121.939 63.302 123.948 64.462 123.948 66.265"/><polygon class="cls-3" points="112.737 63.912 108.264 61.329 108.264 59.526 112.737 62.108 112.737 63.912"/><polygon class="cls-3" points="119.475 67.801 113.992 64.636 113.992 62.833 119.475 65.998 119.475 67.801"/><polygon class="cls-3" points="122.738 69.685 120.729 68.525 120.729 66.722 122.738 67.882 122.738 69.685"/><polygon class="cls-3" points="125.843 71.478 123.834 70.318 123.834 68.515 125.843 69.675 125.843 71.478"/><polygon class="cls-3" points="111.501 67.316 108.264 65.448 108.264 63.645 111.501 65.513 111.501 67.316"/><polygon class="cls-3" points="113.861 68.679 112.755 68.041 112.755 66.238 113.861 66.876 113.861 68.679"/><polygon class="cls-3" points="117.125 70.563 115.116 69.404 115.116 67.601 117.125 68.76 117.125 70.563"/><polygon class="cls-3" points="120.211 76.465 108.264 69.567 108.264 67.763 120.211 74.661 120.211 76.465"/><polygon class="cls-3" points="124.422 78.896 121.466 77.189 121.466 75.386 124.422 77.092 124.422 78.896"/><polygon class="cls-3" points="111.501 75.554 108.264 73.686 108.264 71.882 111.501 73.751 111.501 75.554"/><polygon class="cls-3" points="119.097 79.94 112.755 76.279 112.755 74.476 119.097 78.137 119.097 79.94"/><polygon class="cls-3" points="122.361 81.824 120.352 80.665 120.352 78.861 122.361 80.021 122.361 81.824"/><polygon class="cls-3" points="114.887 81.628 108.264 77.805 108.264 76.001 114.887 79.825 114.887 81.628"/><polygon class="cls-3" points="120.931 85.118 116.141 82.353 116.141 80.549 120.931 83.315 120.931 85.118"/><polygon class="cls-3" points="125.422 87.711 122.185 85.842 122.185 84.039 125.422 85.908 125.422 87.711"/><polygon class="cls-3" points="110.501 83.215 108.264 81.924 108.264 80.12 110.501 81.412 110.501 83.215"/><polygon class="cls-3" points="114.711 85.646 111.755 83.939 111.755 82.136 114.711 83.843 114.711 85.646"/><polygon class="cls-3" points="120.729 89.12 115.966 86.37 115.966 84.567 120.729 87.317 120.729 89.12"/><polygon class="cls-3" points="115.116 89.998 108.264 86.042 108.264 84.239 115.116 88.195 115.116 89.998"/><polygon class="cls-3" points="122.79 94.429 116.37 90.723 116.37 88.92 122.79 92.626 122.79 94.429"/><polygon class="cls-3" points="126.053 96.313 124.045 95.154 124.045 93.35 126.053 94.51 126.053 96.313"/><polygon class="cls-3" points="129.185 98.121 127.176 96.962 127.176 95.159 129.185 96.318 129.185 98.121"/><polygon class="cls-3" points="112.369 92.532 108.264 90.161 108.264 88.358 112.369 90.729 112.369 92.532"/><polygon class="cls-3" points="129.538 69.493 135.231 72.78 135.231 70.976 129.538 67.69 129.538 69.493"/><polygon class="cls-3" points="130.758 74.316 135.231 76.899 135.231 75.095 130.758 72.512 130.758 74.316"/><polygon class="cls-3" points="131.995 79.149 135.231 81.017 135.231 79.214 131.995 77.346 131.995 79.149"/><polygon class="cls-3" points="130.523 82.418 135.231 85.136 135.231 83.333 130.523 80.615 130.523 82.418"/><polygon class="cls-3" points="131.995 87.387 135.231 89.255 135.231 87.452 131.995 85.583 131.995 87.387"/><polygon class="cls-3" points="131.126 91.004 135.231 93.374 135.231 91.571 131.126 89.201 131.126 91.004"/><polygon class="cls-3" points="132.995 96.202 135.231 97.493 135.231 95.69 132.995 94.399 132.995 96.202"/><polygon class="cls-3" points="130.897 99.11 135.231 101.612 135.231 99.809 130.897 97.307 130.897 99.11"/><polygon class="cls-3" points="131.126 103.361 135.231 105.731 135.231 103.928 131.126 101.558 131.126 103.361"/><polygon class="cls-3" points="115.369 94.264 113.623 93.256 113.623 91.453 115.369 92.461 115.369 94.264"/><polygon class="cls-3" points="120.553 97.257 116.623 94.988 116.623 93.185 120.553 95.454 120.553 97.257"/><polygon class="cls-3" points="123.804 111.112 117.173 107.284 117.173 105.48 123.804 109.309 123.804 111.112"/><polygon class="cls-3" points="128.346 113.735 125.734 112.227 125.734 110.423 128.346 111.931 128.346 113.735"/><path class="cls-5" d="M360.717,299.4c-11.422,0-22.162-2.568-30.239-7.232-8.307-4.8-12.884-11.249-12.884-18.166s4.577-13.37,12.884-18.166c16.673-9.626,43.8-9.625,60.476,0,8.308,4.8,12.884,11.25,12.884,18.167s-4.576,13.369-12.883,18.165C382.879,296.831,372.139,299.4,360.717,299.4Zm0-49.221c-10.665,0-21.327,2.343-29.445,7.03-7.8,4.5-12.091,10.465-12.091,16.793s4.294,12.291,12.091,16.792c7.84,4.527,18.3,7.02,29.446,7.02s21.606-2.493,29.445-7.02c7.8-4.5,12.091-10.463,12.091-16.791s-4.294-12.292-12.092-16.793C382.043,252.522,371.379,250.178,360.716,250.178Z" transform="translate(-317.594 -139.319)"/><g class="cls-6"><ellipse class="cls-7" cx="43.122" cy="134.682" rx="31.455" ry="18.161"/></g><path class="cls-8" d="M399.238,260.306V251.76h-2.954a26.3,26.3,0,0,0-8.329-7.179c-15.044-8.686-39.435-8.686-54.479,0a26.3,26.3,0,0,0-8.329,7.18h-2.953v8.547h0c0,5.692,3.761,11.384,11.283,15.727,15.044,8.685,39.435,8.686,54.479,0C395.478,271.691,399.239,266,399.238,260.306Z" transform="translate(-317.594 -139.319)"/><ellipse class="cls-9" cx="43.122" cy="112.441" rx="38.522" ry="22.241"/><path class="cls-7" d="M396.292,251.433V239.767h-2.728a24.276,24.276,0,0,0-7.692-6.63c-13.894-8.022-36.419-8.022-50.313,0a24.262,24.262,0,0,0-7.691,6.631H325.14v11.666h0c0,5.257,3.473,10.514,10.42,14.524,13.894,8.022,36.419,8.022,50.313,0C392.82,261.947,396.293,256.69,396.292,251.433Z" transform="translate(-317.594 -139.319)"/><g class="cls-10"><path class="cls-11" d="M396.292,248.624V236.959h-2.728a24.278,24.278,0,0,0-7.692-6.631c-13.894-8.021-36.419-8.021-50.313,0a24.262,24.262,0,0,0-7.691,6.631H325.14v11.666h0c0,5.257,3.473,10.513,10.42,14.524,13.894,8.021,36.419,8.022,50.313,0C392.82,259.139,396.293,253.881,396.292,248.624Z" transform="translate(-317.594 -139.319)"/></g><ellipse class="cls-9" cx="43.122" cy="100.448" rx="35.576" ry="20.54"/><g class="cls-10"><path class="cls-12" d="M385.225,254.883a43.5,43.5,0,0,1-21,14.18c7.9-.449,15.6-2.418,21.651-5.914,6.947-4.01,10.42-9.268,10.419-14.525v-3.485A37.349,37.349,0,0,0,385.225,254.883Z" transform="translate(-317.594 -139.319)"/></g><path class="cls-13" d="M399.238,239.58v-8.546h-2.954a26.3,26.3,0,0,0-8.329-7.179c-15.044-8.686-39.435-8.686-54.479,0a26.3,26.3,0,0,0-8.329,7.18h-2.953v8.547h0c0,5.692,3.761,11.384,11.283,15.727,15.044,8.685,39.435,8.686,54.479,0C395.478,250.965,399.239,245.273,399.238,239.58Z" transform="translate(-317.594 -139.319)"/><ellipse class="cls-9" cx="43.122" cy="91.715" rx="38.522" ry="22.241"/><path class="cls-7" d="M396.292,230.276V218.611h-2.728a24.278,24.278,0,0,0-7.692-6.631c-13.894-8.021-36.419-8.021-50.313,0a24.25,24.25,0,0,0-7.691,6.631H325.14v11.666h0c0,5.257,3.473,10.513,10.42,14.524,13.894,8.021,36.419,8.022,50.313,0C392.82,240.79,396.293,235.533,396.292,230.276Z" transform="translate(-317.594 -139.319)"/><g class="cls-10"><path class="cls-11" d="M396.292,227.608V215.942h-2.728a24.276,24.276,0,0,0-7.692-6.63c-13.894-8.022-36.419-8.022-50.313,0a24.262,24.262,0,0,0-7.691,6.631H325.14v11.667h0c0,5.256,3.473,10.513,10.42,14.523,13.894,8.022,36.419,8.022,50.313,0C392.82,238.122,396.293,232.865,396.292,227.608Z" transform="translate(-317.594 -139.319)"/></g><ellipse class="cls-9" cx="43.122" cy="79.291" rx="35.576" ry="20.54"/><g class="cls-10"><path class="cls-12" d="M385.225,232.631c-7.6,9.684-18.219,13.763-25.713,15.484,9.5.185,19.108-1.8,26.361-5.982,6.947-4.011,10.42-9.268,10.419-14.525v-4.721A37.349,37.349,0,0,0,385.225,232.631Z" transform="translate(-317.594 -139.319)"/></g><path class="cls-14" d="M399.238,218.424v-8.546h-2.954a26.3,26.3,0,0,0-8.329-7.18c-15.044-8.686-39.435-8.686-54.479,0a26.3,26.3,0,0,0-8.329,7.18h-2.953v8.547h0c0,5.692,3.761,11.383,11.283,15.726,15.044,8.686,39.435,8.686,54.479,0C395.478,229.809,399.239,224.116,399.238,218.424Z" transform="translate(-317.594 -139.319)"/><ellipse class="cls-9" cx="43.122" cy="70.558" rx="38.522" ry="22.241"/><path class="cls-7" d="M396.292,209.12V197.454h-2.728a24.276,24.276,0,0,0-7.692-6.63c-13.894-8.022-36.419-8.022-50.313,0a24.275,24.275,0,0,0-7.691,6.631H325.14v11.667h0c0,5.256,3.473,10.513,10.42,14.524,13.894,8.021,36.419,8.021,50.313,0C392.82,219.634,396.293,214.377,396.292,209.12Z" transform="translate(-317.594 -139.319)"/><g class="cls-10"><path class="cls-11" d="M396.292,205.856V194.19h-2.728a24.291,24.291,0,0,0-7.692-6.631c-13.894-8.021-36.419-8.021-50.313,0a24.262,24.262,0,0,0-7.691,6.631H325.14v11.666h0c0,5.257,3.473,10.513,10.42,14.524,13.894,8.022,36.419,8.022,50.313,0C392.82,216.37,396.293,211.113,396.292,205.856Z" transform="translate(-317.594 -139.319)"/></g><ellipse class="cls-9" cx="43.122" cy="58.135" rx="35.576" ry="20.54"/><path class="cls-15" d="M399.238,197.268v-8.547h-2.954a26.3,26.3,0,0,0-8.329-7.179c-15.044-8.686-39.435-8.686-54.479,0a26.309,26.309,0,0,0-8.329,7.18h-2.953v8.547h0c0,5.692,3.761,11.384,11.283,15.727,15.044,8.686,39.435,8.686,54.479,0C395.478,208.652,399.239,202.96,399.238,197.268Z" transform="translate(-317.594 -139.319)"/><ellipse class="cls-9" cx="43.122" cy="49.402" rx="38.522" ry="22.241"/><ellipse class="cls-9" cx="43.122" cy="49.402" rx="38.522" ry="22.241"/><g class="cls-10"><path class="cls-12" d="M385.225,210.378c-8.351,10.636-20.332,14.512-27.822,15.927,10.175.546,20.679-1.427,28.47-5.925,6.947-4.01,10.42-9.267,10.419-14.524v-5.221A37.359,37.359,0,0,0,385.225,210.378Z" transform="translate(-317.594 -139.319)"/></g><path class="cls-15" d="M399.238,197.268v-8.547h-2.954a26.3,26.3,0,0,0-8.329-7.179c-15.044-8.686-39.435-8.686-54.479,0a26.309,26.309,0,0,0-8.329,7.18h-2.953v8.547h0c0,5.692,3.761,11.384,11.283,15.727,15.044,8.686,39.435,8.686,54.479,0C395.478,208.652,399.239,202.96,399.238,197.268Z" transform="translate(-317.594 -139.319)"/><ellipse class="cls-9" cx="43.122" cy="49.402" rx="38.522" ry="22.241"/><ellipse class="cls-9" cx="43.122" cy="49.402" rx="38.522" ry="22.241"/><path class="cls-16" d="M388.175,203.773c-15.044,8.686-39.435,8.686-54.479,0-9.213-5.319-12.773-12.661-10.7-19.549-2.52,7.08.969,14.731,10.484,20.224,15.044,8.686,39.435,8.686,54.479,0,5.831-3.366,9.391-7.544,10.7-11.9C397.193,196.659,393.7,200.581,388.175,203.773Z" transform="translate(-317.594 -139.319)"/><path class="cls-16" d="M388.175,224.93c-15.044,8.685-39.435,8.685-54.479,0-9.213-5.319-12.773-12.661-10.7-19.549-2.52,7.08.969,14.731,10.484,20.224,15.044,8.686,39.435,8.686,54.479,0,5.831-3.367,9.391-7.545,10.7-11.9C397.193,217.815,393.7,221.737,388.175,224.93Z" transform="translate(-317.594 -139.319)"/><path class="cls-16" d="M388.175,246.086c-15.044,8.686-39.435,8.685-54.479,0-9.213-5.319-12.773-12.662-10.7-19.549-2.52,7.08.969,14.73,10.484,20.224,15.044,8.685,39.435,8.686,54.479,0,5.831-3.366,9.391-7.545,10.7-11.9C397.193,238.971,393.7,242.894,388.175,246.086Z" transform="translate(-317.594 -139.319)"/><path class="cls-16" d="M388.175,267.243c-15.044,8.685-39.435,8.685-54.479,0-9.213-5.319-12.773-12.661-10.7-19.549-2.52,7.08.969,14.731,10.484,20.224,15.044,8.686,39.435,8.686,54.479,0,5.831-3.367,9.391-7.545,10.7-11.905C397.193,260.128,393.7,264.05,388.175,267.243Z" transform="translate(-317.594 -139.319)"/><g class="cls-17"><path class="cls-18" d="M325.744,198.06h34.972V177.435h-33.2C321.07,183.742,320.482,191.489,325.744,198.06Z" transform="translate(-317.594 -139.319)"/></g><path class="cls-19" d="M380.494,186.642v-4.388h-1.517a13.5,13.5,0,0,0-4.276-3.686c-7.724-4.46-20.247-4.46-27.971,0a13.5,13.5,0,0,0-4.276,3.686h-1.516v4.388h0c0,2.922,1.931,5.845,5.793,8.075,7.724,4.459,20.247,4.459,27.971,0C378.564,192.487,380.5,189.564,380.494,186.642Z" transform="translate(-317.594 -139.319)"/><ellipse class="cls-9" cx="43.122" cy="42.935" rx="19.778" ry="11.419"/><ellipse class="cls-20" cx="43.122" cy="42.935" rx="19.778" ry="11.419"/><path class="cls-7" d="M370.133,187.691c-5.2,3-13.633,3-18.834,0a8.309,8.309,0,0,1-3.35-3.245c-1.343-2.616,2.013-4.514,5.59-6.579,5.2-3,8.889-3.747,14.09-.744,3.575,2.064,7.2,4.705,5.856,7.32A8.3,8.3,0,0,1,370.133,187.691Z" transform="translate(-317.594 -139.319)"/><path class="cls-21" d="M351.3,181.205c5.2-3,13.633-3,18.833,0a8.3,8.3,0,0,1,3.35,3.243c1.344-2.616.228-5.565-3.35-7.631-5.2-3-13.632-3-18.833,0-3.577,2.066-4.693,5.014-3.349,7.631A8.3,8.3,0,0,1,351.3,181.205Z" transform="translate(-317.594 -139.319)"/><g class="cls-10"><path class="cls-22" d="M382.4,221.18c-2.6,1.022-4.533.745-4.329-.618s2.472-3.3,5.067-4.318,4.533-.746,4.329.617S385,220.158,382.4,221.18Z" transform="translate(-317.594 -139.319)"/></g><g class="cls-10"><path class="cls-22" d="M382.4,242.638c-2.6,1.022-4.533.745-4.329-.618s2.472-3.3,5.067-4.318,4.533-.746,4.329.617S385,241.616,382.4,242.638Z" transform="translate(-317.594 -139.319)"/></g><g class="cls-10"><path class="cls-22" d="M382.543,264.238c-2.594,1.022-4.533.746-4.329-.617s2.472-3.3,5.067-4.318,4.534-.746,4.33.617S385.138,263.216,382.543,264.238Z" transform="translate(-317.594 -139.319)"/></g><g class="cls-10"><path class="cls-22" d="M389.791,215.794a1.072,1.072,0,1,1,.506-1.631A1.231,1.231,0,0,1,389.791,215.794Z" transform="translate(-317.594 -139.319)"/></g><g class="cls-10"><path class="cls-22" d="M389.791,237.352a1.072,1.072,0,1,1,.506-1.631A1.231,1.231,0,0,1,389.791,237.352Z" transform="translate(-317.594 -139.319)"/></g><g class="cls-10"><path class="cls-22" d="M389.791,258.83a1.072,1.072,0,1,1,.506-1.63A1.23,1.23,0,0,1,389.791,258.83Z" transform="translate(-317.594 -139.319)"/></g><path class="cls-23" d="M347.948,330.05a.674.674,0,0,1-.348-1.251l24.935-14.986a.673.673,0,1,1,.693,1.154l-24.934,14.987A.673.673,0,0,1,347.948,330.05Z" transform="translate(-317.594 -139.319)"/><path class="cls-24" d="M384.115,320.178a4.911,4.911,0,0,1-2.4-.6L364.2,309.462a2.147,2.147,0,0,1-1.231-1.775,1.754,1.754,0,0,1,.968-1.5l84.275-48.655a4.727,4.727,0,0,1,4.324.151L470.053,267.8a2.149,2.149,0,0,1,1.23,1.776,1.756,1.756,0,0,1-.968,1.5l-84.274,48.656h0A3.917,3.917,0,0,1,384.115,320.178Zm1.589-1.035h0Zm64.424-60.717a2.546,2.546,0,0,0-1.24.274l-84.274,48.655c-.185.106-.295.23-.295.332,0,.143.172.387.558.609l17.513,10.113a3.433,3.433,0,0,0,2.977.151L469.641,269.9c.185-.107.295-.231.295-.332,0-.144-.172-.387-.557-.61l-17.514-10.111A3.613,3.613,0,0,0,450.128,258.426Z" transform="translate(-317.594 -139.319)"/><path class="cls-25" d="M436.133,229.4a24.985,24.985,0,0,0-6.176,5.209c-2.589-8.315-10.485-10.894-19.826-5.5-7.728,4.462-14.464,13.238-18.027,22.537a8.384,8.384,0,0,0-3.889,1.23c-5.044,2.912-9.132,9.993-9.132,15.816,0,.126.012.241.016.363a11.032,11.032,0,0,0-4.7,1.573c-6.45,3.724-11.679,12.781-11.679,20.229s5.229,10.467,11.679,6.743l61.735-35.642c7.786-4.5,14.1-15.428,14.1-24.418S443.919,224.909,436.133,229.4Z" transform="translate(-317.594 -139.319)"/><path class="cls-26" d="M436.133,229.4a22.488,22.488,0,0,0-3.709,2.718l-6.9-3.989v0c-3.793-2.666-9.282-2.55-15.391.977-7.729,4.462-14.464,13.238-18.027,22.537a8.384,8.384,0,0,0-3.889,1.23c-5.044,2.912-9.132,9.993-9.132,15.816,0,.126.012.24.016.363a11.032,11.032,0,0,0-4.7,1.573c-6.45,3.724-11.679,12.781-11.679,20.229,0,3.691,1.287,6.29,3.368,7.524l-.006,0,.054.031.01.006,16.909,9.815,3.693-17.766,49.386-28.512c7.786-4.5,14.1-15.428,14.1-24.418S443.919,224.909,436.133,229.4Z" transform="translate(-317.594 -139.319)"/><path class="cls-27" d="M463.309,238.415l-17.132-9.954v0c-2.557-1.523-6.112-1.332-10.045.939a22.488,22.488,0,0,0-3.709,2.718l-6.9-3.989v0c-3.793-2.666-9.282-2.55-15.391.977-7.729,4.462-14.464,13.238-18.027,22.537a8.384,8.384,0,0,0-3.889,1.23c-5.044,2.912-9.132,9.993-9.132,15.816,0,.126.012.24.016.363a11.032,11.032,0,0,0-4.7,1.573c-6.45,3.724-11.679,12.781-11.679,20.229,0,3.691,1.287,6.29,3.368,7.524l-.006,0,.054.031.01.006,16.909,9.815,3.693-17.766,49.386-28.512c6.311-3.644,11.652-11.518,13.45-19.159Z" transform="translate(-317.594 -139.319)"/><path class="cls-28" d="M453.1,239.25a25.007,25.007,0,0,0-6.176,5.209c-2.588-8.315-10.484-10.894-19.826-5.5-7.728,4.462-14.464,13.239-18.027,22.537a8.4,8.4,0,0,0-3.889,1.23c-5.043,2.912-9.132,9.993-9.132,15.817,0,.125.013.24.017.362a11.045,11.045,0,0,0-4.7,1.573c-6.451,3.725-11.68,12.781-11.68,20.229s5.229,10.467,11.68,6.743L453.1,271.807c7.786-4.5,14.1-15.428,14.1-24.418S460.882,234.755,453.1,239.25Z" transform="translate(-317.594 -139.319)"/><path class="cls-16" d="M446.92,244.459a25.007,25.007,0,0,1,6.176-5.209c4.768-2.753,8.98-2.449,11.532.262-2.5-3.134-6.907-3.63-11.935-.727a24.836,24.836,0,0,0-6,5.012C446.774,244.014,446.85,244.234,446.92,244.459Z" transform="translate(-317.594 -139.319)"/><path class="cls-16" d="M379.682,300.706c0-7.448,5.229-16.5,11.68-20.229a11.045,11.045,0,0,1,4.7-1.573c0-.122-.017-.237-.017-.362,0-5.824,4.089-12.9,9.132-15.817a8.4,8.4,0,0,1,3.889-1.23c3.563-9.3,10.3-18.075,18.027-22.537,7.078-4.086,13.323-3.592,17.062.5-3.682-4.518-10.127-5.2-17.465-.966-7.728,4.461-14.463,13.238-18.027,22.536a8.386,8.386,0,0,0-3.889,1.231c-5.043,2.911-9.132,9.993-9.132,15.816,0,.125.013.24.017.362a11.034,11.034,0,0,0-4.7,1.574c-6.45,3.724-11.679,12.78-11.679,20.229a9.239,9.239,0,0,0,2.186,6.573A9.713,9.713,0,0,1,379.682,300.706Z" transform="translate(-317.594 -139.319)"/></svg>