<svg id="Ñëîé_1" data-name="Ñëîé 1" xmlns="http://www.w3.org/2000/svg" xmlns:xlink="http://www.w3.org/1999/xlink" viewBox="0 0 87.362 144.34"><defs><style>.cls-1{opacity:0.67;}.cls-2{fill:#24126a;}.cls-3{fill:url(#linear-gradient);}.cls-4{fill:#bcbeff;}.cls-5{opacity:0.51;}.cls-6{fill:#453c9e;}.cls-7{fill:#5351af;}.cls-8{fill:url(#linear-gradient-2);}.cls-9{fill:url(#linear-gradient-3);}.cls-10{fill:url(#linear-gradient-4);}.cls-11,.cls-25{fill:#fff;}.cls-12{opacity:0.78;fill:url(#linear-gradient-6);}.cls-12,.cls-17,.cls-21,.cls-22,.cls-23,.cls-24,.cls-25{isolation:isolate;}.cls-13{fill:url(#linear-gradient-7);}.cls-14{fill:url(#linear-gradient-8);}.cls-15{fill:url(#linear-gradient-9);}.cls-16{fill:#6767c1;}.cls-17,.cls-18,.cls-21,.cls-22,.cls-23,.cls-24{opacity:0.5;}.cls-17{fill:url(#linear-gradient-10);}.cls-19{fill:url(#linear-gradient-11);}.cls-20{fill:url(#linear-gradient-12);}.cls-21{fill:url(#linear-gradient-13);}.cls-22{fill:url(#linear-gradient-14);}.cls-23{fill:url(#linear-gradient-15);}.cls-24{fill:url(#linear-gradient-16);}.cls-25{opacity:0.04;}</style><linearGradient id="linear-gradient" x1="345.7" y1="-74.417" x2="433.061" y2="-74.417" gradientTransform="matrix(1, 0, 0, -1, -295.289, 33.804)" gradientUnits="userSpaceOnUse"><stop offset="0" stop-color="#5761d7"/><stop offset="0.178" stop-color="#5c66d9"/><stop offset="0.388" stop-color="#6a73df"/><stop offset="0.613" stop-color="#8289e8"/><stop offset="0.849" stop-color="#a3a7f5"/><stop offset="1" stop-color="#bcbeff"/></linearGradient><linearGradient id="linear-gradient-2" x1="345.7" y1="-50.915" x2="433.061" y2="-50.915" xlink:href="#linear-gradient"/><linearGradient id="linear-gradient-3" x1="345.7" y1="-26.926" x2="433.061" y2="-26.926" xlink:href="#linear-gradient"/><linearGradient id="linear-gradient-4" x1="345.7" y1="-2.937" x2="433.061" y2="-2.937" xlink:href="#linear-gradient"/><linearGradient id="linear-gradient-6" x1="345.7" y1="7.859" x2="389.38" y2="7.859" gradientTransform="matrix(1, 0, 0, -1, -295.289, 33.804)" gradientUnits="userSpaceOnUse"><stop offset="0" stop-color="#e9e9fd"/><stop offset="0.037" stop-color="#d3d5f7"/><stop offset="0.106" stop-color="#b2b6ef"/><stop offset="0.182" stop-color="#969be7"/><stop offset="0.266" stop-color="#7f86e1"/><stop offset="0.363" stop-color="#6d75dd"/><stop offset="0.48" stop-color="#606ad9"/><stop offset="0.636" stop-color="#5963d8"/><stop offset="1" stop-color="#5761d7"/></linearGradient><linearGradient id="linear-gradient-7" x1="366.953" y1="9.112" x2="411.807" y2="9.112" xlink:href="#linear-gradient"/><linearGradient id="linear-gradient-8" x1="366.953" y1="14.088" x2="411.808" y2="14.088" gradientTransform="matrix(1, 0, 0, -1, -295.289, 33.804)" gradientUnits="userSpaceOnUse"><stop offset="0" stop-color="#c0bff6"/><stop offset="0.294" stop-color="#c5c4f7"/><stop offset="0.64" stop-color="#d3d2f9"/><stop offset="1" stop-color="#e9e9fd"/></linearGradient><linearGradient id="linear-gradient-9" x1="374.277" y1="17.202" x2="404.481" y2="17.202" gradientTransform="matrix(1, 0, 0, -1, -295.289, 33.804)" gradientUnits="userSpaceOnUse"><stop offset="0" stop-color="#bcbeff"/><stop offset="0.151" stop-color="#a3a7f5"/><stop offset="0.387" stop-color="#8289e8"/><stop offset="0.612" stop-color="#6a73df"/><stop offset="0.822" stop-color="#5c66d9"/><stop offset="1" stop-color="#5761d7"/></linearGradient><linearGradient id="linear-gradient-10" x1="374.278" y1="14.088" x2="404.481" y2="14.088" gradientTransform="matrix(1, 0, 0, -1, -295.289, 33.804)" gradientUnits="userSpaceOnUse"><stop offset="0" stop-color="#42e8e0"/><stop offset="0.151" stop-color="#43e3e0"/><stop offset="0.328" stop-color="#45d5df"/><stop offset="0.52" stop-color="#49bddd"/><stop offset="0.721" stop-color="#4e9cdb"/><stop offset="0.927" stop-color="#5472d8"/><stop offset="1" stop-color="#5761d7"/></linearGradient><linearGradient id="linear-gradient-11" x1="78.991" y1="173.281" x2="78.991" y2="173.281" gradientTransform="matrix(1, 0, 0, -1, -50.41, 182)" xlink:href="#linear-gradient-10"/><linearGradient id="linear-gradient-12" x1="374.279" y1="15.195" x2="404.47" y2="15.195" xlink:href="#linear-gradient-10"/><linearGradient id="linear-gradient-13" x1="374.279" y1="25.084" x2="404.481" y2="25.084" xlink:href="#linear-gradient-10"/><linearGradient id="linear-gradient-14" x1="374.277" y1="23.952" x2="404.471" y2="23.952" xlink:href="#linear-gradient-10"/><linearGradient id="linear-gradient-15" x1="374.291" y1="9.624" x2="404.436" y2="9.624" xlink:href="#linear-gradient-10"/><linearGradient id="linear-gradient-16" x1="374.28" y1="14.063" x2="374.28" y2="14.063" xlink:href="#linear-gradient-10"/></defs><title>server-5</title><g class="cls-1"><ellipse class="cls-2" cx="43.681" cy="123.748" rx="35.667" ry="20.592"/></g><path class="cls-3" d="M137.772,108.22V98.529h-3.351a29.8,29.8,0,0,0-9.443-8.14c-17.059-9.849-44.716-9.849-61.774,0A29.8,29.8,0,0,0,53.76,98.53H50.411v9.692h0c0,6.454,4.266,12.908,12.8,17.832,17.058,9.849,44.715,9.849,61.774,0C133.511,121.129,137.772,114.675,137.772,108.22Z" transform="translate(-50.41 0)"/><ellipse class="cls-4" cx="43.681" cy="98.529" rx="43.681" ry="25.219"/><path class="cls-2" d="M134.431,98.158V84.93h-3.094a27.532,27.532,0,0,0-8.721-7.518c-15.755-9.1-41.3-9.1-57.05,0a27.524,27.524,0,0,0-8.722,7.518H53.751V98.159h0c0,5.96,3.939,11.921,11.816,16.468,15.754,9.1,41.3,9.1,57.049,0C130.494,110.08,134.432,104.119,134.431,98.158Z" transform="translate(-50.41 0)"/><g class="cls-5"><path class="cls-6" d="M134.431,94.974V81.746h-3.094a27.532,27.532,0,0,0-8.721-7.518c-15.755-9.1-41.3-9.1-57.05,0a27.527,27.527,0,0,0-8.722,7.519H53.751V94.976h0c0,5.96,3.939,11.92,11.816,16.468,15.754,9.1,41.3,9.1,57.049,0C130.494,106.9,134.432,100.935,134.431,94.974Z" transform="translate(-50.41 0)"/></g><ellipse class="cls-4" cx="43.681" cy="84.93" rx="40.34" ry="23.29"/><g class="cls-5"><path class="cls-7" d="M121.882,102.07c-6.935,8.832-16.08,13.553-23.816,16.079,8.962-.509,17.686-2.742,24.55-6.706,7.878-4.547,11.816-10.508,11.815-16.469V91.022A42.339,42.339,0,0,0,121.882,102.07Z" transform="translate(-50.41 0)"/></g><path class="cls-8" d="M137.772,84.719V75.028h-3.351a29.82,29.82,0,0,0-9.443-8.141c-17.059-9.849-44.716-9.849-61.774,0a29.8,29.8,0,0,0-9.444,8.141H50.411V84.72h0c0,6.453,4.266,12.907,12.8,17.832,17.058,9.848,44.715,9.849,61.774,0C133.511,97.628,137.772,91.173,137.772,84.719Z" transform="translate(-50.41 0)"/><ellipse class="cls-4" cx="43.681" cy="75.028" rx="43.681" ry="25.219"/><path class="cls-2" d="M134.431,74.169V60.941h-3.094a27.532,27.532,0,0,0-8.721-7.518c-15.755-9.1-41.3-9.1-57.05,0a27.54,27.54,0,0,0-8.722,7.519H53.751V74.171h0c0,5.96,3.939,11.92,11.816,16.468,15.754,9.1,41.3,9.1,57.049,0C130.494,86.091,134.432,80.13,134.431,74.169Z" transform="translate(-50.41 0)"/><g class="cls-5"><path class="cls-6" d="M134.431,71.143V57.915h-3.094a27.532,27.532,0,0,0-8.721-7.518c-15.755-9.1-41.3-9.1-57.05,0a27.54,27.54,0,0,0-8.722,7.519H53.751V71.144h0c0,5.96,3.939,11.921,11.816,16.468,15.754,9.1,41.3,9.1,57.049,0C130.494,83.065,134.432,77.1,134.431,71.143Z" transform="translate(-50.41 0)"/></g><ellipse class="cls-4" cx="43.681" cy="60.941" rx="40.34" ry="23.29"/><g class="cls-5"><path class="cls-7" d="M121.882,76.838C113.26,87.819,101.224,92.445,92.726,94.4c10.775.209,21.666-2.036,29.89-6.784,7.878-4.548,11.816-10.509,11.815-16.47V65.79A42.339,42.339,0,0,0,121.882,76.838Z" transform="translate(-50.41 0)"/></g><path class="cls-9" d="M137.772,60.73V51.039h-3.351a29.8,29.8,0,0,0-9.443-8.141c-17.059-9.849-44.716-9.849-61.774,0a29.8,29.8,0,0,0-9.444,8.141H50.411V60.73h0c0,6.454,4.266,12.908,12.8,17.832,17.058,9.849,44.715,9.85,61.774,0C133.511,73.639,137.772,67.184,137.772,60.73Z" transform="translate(-50.41 0)"/><ellipse class="cls-4" cx="43.681" cy="51.039" rx="43.681" ry="25.219"/><path class="cls-2" d="M134.431,50.18V36.952h-3.094a27.532,27.532,0,0,0-8.721-7.518c-15.755-9.1-41.3-9.1-57.05,0a27.5,27.5,0,0,0-8.722,7.519H53.751V50.181h0c0,5.961,3.939,11.921,11.816,16.469,15.754,9.1,41.3,9.1,57.049,0C130.494,62.1,134.432,56.141,134.431,50.18Z" transform="translate(-50.41 0)"/><g class="cls-5"><path class="cls-6" d="M134.431,46.478V33.25h-3.094a27.532,27.532,0,0,0-8.721-7.518c-15.755-9.1-41.3-9.1-57.05,0a27.524,27.524,0,0,0-8.722,7.518H53.751V46.479h0c0,5.96,3.939,11.921,11.816,16.468,15.754,9.1,41.3,9.1,57.049,0C130.494,58.4,134.432,52.439,134.431,46.478Z" transform="translate(-50.41 0)"/></g><ellipse class="cls-4" cx="43.681" cy="36.952" rx="40.34" ry="23.29"/><path class="cls-10" d="M137.772,36.74V27.05h-3.351a29.8,29.8,0,0,0-9.443-8.141c-17.059-9.849-44.716-9.849-61.774,0a29.8,29.8,0,0,0-9.444,8.142H50.411v9.691h0c0,6.454,4.266,12.908,12.8,17.832,17.058,9.849,44.715,9.849,61.774,0C133.511,49.649,137.772,43.2,137.772,36.74Z" transform="translate(-50.41 0)"/><ellipse class="cls-4" cx="43.681" cy="27.05" rx="43.681" ry="25.219"/><ellipse class="cls-4" cx="43.681" cy="27.05" rx="43.681" ry="25.219"/><g class="cls-5"><path class="cls-7" d="M121.882,51.6c-9.469,12.06-23.055,16.455-31.548,18.06,11.538.619,23.449-1.618,32.282-6.718,7.878-4.548,11.816-10.509,11.815-16.47v-5.92A42.339,42.339,0,0,0,121.882,51.6Z" transform="translate(-50.41 0)"/></g><path class="cls-10" d="M137.772,36.74V27.05h-3.351a29.8,29.8,0,0,0-9.443-8.141c-17.059-9.849-44.716-9.849-61.774,0a29.8,29.8,0,0,0-9.444,8.142H50.411v9.691h0c0,6.454,4.266,12.908,12.8,17.832,17.058,9.849,44.715,9.849,61.774,0C133.511,49.649,137.772,43.2,137.772,36.74Z" transform="translate(-50.41 0)"/><ellipse class="cls-4" cx="43.681" cy="27.05" rx="43.681" ry="25.219"/><ellipse class="cls-4" cx="43.681" cy="27.05" rx="43.681" ry="25.219"/><path class="cls-11" d="M124.979,44.1c-17.059,9.849-44.716,9.848-61.774,0C54.847,39.279,50.6,32.986,50.427,26.662c-.176,6.584,4.076,13.2,12.778,18.224,17.058,9.849,44.715,9.849,61.774,0,8.7-5.024,12.952-11.64,12.777-18.223C137.587,32.983,133.335,39.276,124.979,44.1Z" transform="translate(-50.41 0)"/><path class="cls-12" d="M54.436,37.638H94.091V14.252H56.44C49.137,21.4,48.469,30.188,54.436,37.638Z" transform="translate(-50.41 0)"/><path class="cls-13" d="M116.518,24.692V19.716H114.8a15.317,15.317,0,0,0-4.849-4.18c-8.758-5.056-22.958-5.056-31.716,0a15.294,15.294,0,0,0-4.849,4.18h-1.72v4.976h0c0,3.314,2.19,6.627,6.569,9.156,8.759,5.056,22.958,5.056,31.717,0C114.329,31.319,116.518,28,116.518,24.692Z" transform="translate(-50.41 0)"/><path class="cls-4" d="M109.95,28.872c-8.759,5.056-22.958,5.056-31.717,0s-8.758-13.255,0-18.312,22.958-5.056,31.716,0S118.711,23.816,109.95,28.872Z" transform="translate(-50.41 0)"/><path class="cls-14" d="M109.95,28.872c-8.759,5.056-22.958,5.056-31.717,0s-8.758-13.255,0-18.312,22.958-5.056,31.716,0S118.711,23.816,109.95,28.872Z" transform="translate(-50.41 0)"/><path class="cls-2" d="M104.769,25.881c-5.9,3.4-15.458,3.4-21.355,0a9.407,9.407,0,0,1-3.8-3.68c-1.523-2.966,2.284-5.117,6.339-7.459,5.9-3.405,10.079-4.248,15.977-.844,4.054,2.341,8.16,5.335,6.64,8.3A9.4,9.4,0,0,1,104.769,25.881Z" transform="translate(-50.41 0)"/><path class="cls-15" d="M83.411,18.527c5.9-3.4,15.458-3.4,21.356,0a9.406,9.406,0,0,1,3.8,3.677c1.525-2.967.259-6.31-3.8-8.652-5.9-3.4-15.459-3.4-21.356,0-4.056,2.342-5.322,5.686-3.8,8.653A9.4,9.4,0,0,1,83.411,18.527Z" transform="translate(-50.41 0)"/><g class="cls-5"><path class="cls-16" d="M118.68,63.854c-2.943,1.159-5.141.845-4.909-.7s2.8-3.738,5.746-4.9,5.14-.845,4.909.7S121.622,62.7,118.68,63.854Z" transform="translate(-50.41 0)"/></g><g class="cls-5"><path class="cls-16" d="M118.68,88.185c-2.943,1.159-5.141.846-4.909-.7s2.8-3.737,5.746-4.9,5.14-.846,4.909.7S121.622,87.026,118.68,88.185Z" transform="translate(-50.41 0)"/></g><g class="cls-5"><path class="cls-16" d="M118.841,112.678c-2.942,1.159-5.14.846-4.909-.7s2.8-3.737,5.746-4.9,5.14-.846,4.909.7S121.784,111.52,118.841,112.678Z" transform="translate(-50.41 0)"/></g><g class="cls-5"><path class="cls-16" d="M127.059,57.747a1.216,1.216,0,1,1,.574-1.849A1.394,1.394,0,0,1,127.059,57.747Z" transform="translate(-50.41 0)"/></g><g class="cls-5"><path class="cls-16" d="M127.059,82.192a1.216,1.216,0,1,1,.574-1.849A1.4,1.4,0,0,1,127.059,82.192Z" transform="translate(-50.41 0)"/></g><g class="cls-5"><path class="cls-16" d="M127.059,106.546a1.216,1.216,0,1,1,.574-1.849A1.394,1.394,0,0,1,127.059,106.546Z" transform="translate(-50.41 0)"/></g><path class="cls-17" d="M104.769,25.881c-5.9,3.405-15.458,3.405-21.356,0s-5.9-8.925,0-12.33,15.459-3.4,21.356,0S110.667,22.476,104.769,25.881Z" transform="translate(-50.41 0)"/><g class="cls-18"><polygon class="cls-19" points="28.581 8.719 28.581 8.719 28.581 8.719 28.581 8.719"/><path class="cls-20" d="M104.77,14.884c-5.9,3.405-15.459,3.405-21.357,0-2.948-1.7-4.423-3.934-4.423-6.165V19.747h0c-.016,2.244,1.455,4.491,4.42,6.2,5.9,3.4,15.459,3.405,21.357,0,3-1.731,4.463-4.008,4.413-6.276V8.83C109.135,11.024,107.669,13.21,104.77,14.884Z" transform="translate(-50.41 0)"/></g><path class="cls-21" d="M104.77,14.884c-5.9,3.405-15.459,3.405-21.357,0-2.948-1.7-4.423-3.934-4.423-6.165s1.474-4.463,4.423-6.166c5.9-3.4,15.459-3.4,21.356,0S110.667,11.479,104.77,14.884Z" transform="translate(-50.41 0)"/><path class="cls-22" d="M83.411,13.551c5.9-3.4,15.459-3.4,21.356,0,2.9,1.675,4.367,3.862,4.414,6.057V8.83c.05-2.268-1.416-4.545-4.414-6.276-5.9-3.4-15.459-3.4-21.356,0-2.949,1.7-4.423,3.934-4.423,6.165V19.7C79,17.473,80.472,15.249,83.411,13.551Z" transform="translate(-50.41 0)"/><path class="cls-23" d="M104.769,25.881c-5.9,3.405-15.458,3.405-21.356,0-2.887-1.667-4.351-3.84-4.411-6.024.031,2.207,1.494,4.409,4.411,6.094,5.9,3.4,15.459,3.405,21.357,0,2.737-1.581,4.182-3.618,4.377-5.687C108.925,22.309,107.476,24.318,104.769,25.881Z" transform="translate(-50.41 0)"/><path class="cls-24" d="M78.991,19.734v.014h0Z" transform="translate(-50.41 0)"/><path class="cls-21" d="M104.77,14.884c-5.9,3.405-15.459,3.405-21.357,0-2.948-1.7-4.423-3.934-4.423-6.165s1.474-4.463,4.423-6.166c5.9-3.4,15.459-3.4,21.356,0S110.667,11.479,104.77,14.884Z" transform="translate(-50.41 0)"/><path class="cls-25" d="M104.77,14.333c-5.9,3.4-15.459,3.4-21.357,0-2.827-1.632-4.283-3.751-4.4-5.89,0,.092-.023.184-.023.276,0,2.231,1.475,4.462,4.423,6.165,5.9,3.405,15.459,3.405,21.357,0,3.07-1.773,4.526-4.118,4.4-6.44C109.053,10.582,107.6,12.7,104.77,14.333Z" transform="translate(-50.41 0)"/></svg>