<svg id="Layer_1" data-name="Layer 1" xmlns="http://www.w3.org/2000/svg" xmlns:xlink="http://www.w3.org/1999/xlink" viewBox="0 0 248.969 189.929"><defs><style>.cls-1{fill-rule:evenodd;fill:url(#linear-gradient);}</style><linearGradient id="linear-gradient" x1="19.515" y1="95.036" x2="268.485" y2="95.036" gradientUnits="userSpaceOnUse"><stop offset="0" stop-color="#5761d7"/><stop offset="1" stop-color="#261880"/></linearGradient></defs><title>logo-1</title><path class="cls-1" d="M21.316,147.232c7.362,6.361,20.2,17.387,31.63,27.2A64.6,64.6,0,0,0,95.013,190h97.964a64.605,64.605,0,0,0,42.013-15.523c11.518-9.859,24.326-20.82,31.7-27.245a5.361,5.361,0,0,0-1.045-8.734c-1.531-.762-3.043-1.507-4.562-2.236-5.159-2.475-5.753-3.584-4.256-9.455,3.775-14.813,6.56-25.323,8.449-32.675.961-3.739-2.141-7.229-5.735-6.454-8.96,1.932-22.5,5.053-23.659,5.321-7.352,1.7-9.954,1.831-12.035-7.591-.261-1.175-.552-2.342-.863-3.514a4.845,4.845,0,0,0-8.423-2.079c-17.31,20.239-22.552,27.651-25.868,29.363-5.285,2.723-7.71-2.4-6.437-9.621,4.731-26.916,6.674-37.092,10.276-57.721.746-4.272-3.479-7.6-7.125-5.585-2.458,1.355-5.244,2.877-8.259,4.452-5.449,2.847-8.665,1.7-11.476-3.828C156.136,18.1,151.09,8.158,148.332,2.73a4.856,4.856,0,0,0-8.66,0c-2.722,5.35-7.7,15.148-17.137,33.7-3.135,6.172-6.191,7.209-12.186,4-3.307-1.766-5.835-3.132-7.78-4.192-3.65-1.991-7.858,1.342-7.1,5.608,7.331,41.3,8.627,48.58,10.468,59.383.521,3.074.649,6.336-2.476,8.2-2.124,1.266-5.119-.1-7.8-3.271-11.648-13.738-18.153-21.585-22-26.345a4.821,4.821,0,0,0-8.448,1.814c-.639,2.188-1.212,4.316-1.79,6.443-1.4,5.155-3.674,6.625-8.584,5.525-20.5-4.6-16.824-3.872-26.352-5.913-3.6-.772-6.716,2.714-5.752,6.457,2.051,7.954,5.007,19.146,8.592,33.247,1.29,5.071.533,6.5-3.755,8.564-1.737.833-3.465,1.685-5.212,2.553A5.348,5.348,0,0,0,21.316,147.232Zm125.6-22.719h43.4v11.409h-14.56v34.794H161.478V135.922h-14.56Zm-42.531,5.37q6.1-6.157,17.255-6.157,8.73,0,13.725,3.53t7.422,10.841l-12.606,2.8a10.84,10.84,0,0,0-1.387-3.088,8.225,8.225,0,0,0-2.931-2.521,9.011,9.011,0,0,0-11.314,3.021q-1.954,2.9-1.955,9.1,0,7.682,2.332,10.53a8,8,0,0,0,6.556,2.849q4.1,0,6.193-2.3a14.239,14.239,0,0,0,3.042-6.682l12.511,3.782a23.072,23.072,0,0,1-3.97,8.794,17.262,17.262,0,0,1-6.729,5.326,25.182,25.182,0,0,1-10.228,1.8q-7.531,0-12.306-2.189a19.5,19.5,0,0,1-8.242-7.7Q98.289,156.1,98.288,147.5,98.288,136.041,104.387,129.883Z" transform="translate(-19.515 -0.072)"/></svg>