<svg xmlns="http://www.w3.org/2000/svg" xmlns:xlink="http://www.w3.org/1999/xlink" viewBox="0 0 458.983 280.569"><defs><style>.cls-1{isolation:isolate;}.cls-17,.cls-2,.cls-3,.cls-30,.cls-31,.cls-39,.cls-40,.cls-41,.cls-46,.cls-47,.cls-52,.cls-53{opacity:0.4;}.cls-2,.cls-3,.cls-30,.cls-31,.cls-40,.cls-41,.cls-46,.cls-47,.cls-52,.cls-53{mix-blend-mode:lighten;}.cls-2{fill:url(#radial-gradient);}.cls-3{fill:url(#radial-gradient-2);}.cls-15,.cls-16,.cls-17,.cls-18,.cls-19,.cls-22,.cls-4,.cls-5{fill:#6ee8fc;}.cls-4{opacity:0.3;}.cls-6{fill:url(#Áåçûìÿííûé_ãðàäèåíò_388);}.cls-7{fill:#0c0f38;}.cls-16,.cls-7{opacity:0.6;}.cls-8{fill:url(#Áåçûìÿííûé_ãðàäèåíò_377);}.cls-38,.cls-9{fill:#d4088c;}.cls-10{fill:url(#Áåçûìÿííûé_ãðàäèåíò_300);}.cls-11{fill:#6de0f6;}.cls-12{fill:#18d0f7;}.cls-13{fill:#25bfec;}.cls-14{fill:#267fe5;}.cls-15,.cls-37,.cls-38{opacity:0.8;}.cls-18{opacity:0.2;}.cls-19{opacity:0.1;}.cls-20{fill:url(#Áåçûìÿííûé_ãðàäèåíò_377-2);}.cls-21{fill:url(#Áåçûìÿííûé_ãðàäèåíò_300-2);}.cls-22{opacity:0.5;}.cls-23{fill:url(#Áåçûìÿííûé_ãðàäèåíò_377-3);}.cls-24{fill:url(#Áåçûìÿííûé_ãðàäèåíò_300-3);}.cls-25{fill:url(#Áåçûìÿííûé_ãðàäèåíò_377-4);}.cls-26{fill:url(#Áåçûìÿííûé_ãðàäèåíò_300-4);}.cls-27{fill:url(#Áåçûìÿííûé_ãðàäèåíò_377-5);}.cls-28{fill:url(#Áåçûìÿííûé_ãðàäèåíò_300-5);}.cls-29,.cls-39{fill:#fff;}.cls-30{fill:url(#radial-gradient-3);}.cls-31{fill:url(#radial-gradient-4);}.cls-32{fill:url(#Áåçûìÿííûé_ãðàäèåíò_300-6);}.cls-33{fill:url(#Áåçûìÿííûé_ãðàäèåíò_300-7);}.cls-34{fill:url(#Áåçûìÿííûé_ãðàäèåíò_478);}.cls-35{fill:url(#Áåçûìÿííûé_ãðàäèåíò_377-6);}.cls-36{fill:url(#Áåçûìÿííûé_ãðàäèåíò_478-2);}.cls-37{fill:#6ee1f8;}.cls-40{fill:url(#radial-gradient-5);}.cls-41{fill:url(#radial-gradient-6);}.cls-42{fill:url(#Áåçûìÿííûé_ãðàäèåíò_102);}.cls-43{fill:url(#Áåçûìÿííûé_ãðàäèåíò_377-7);}.cls-44{fill:url(#Áåçûìÿííûé_ãðàäèåíò_388-2);}.cls-45{fill:url(#Áåçûìÿííûé_ãðàäèåíò_300-8);}.cls-46{fill:url(#radial-gradient-7);}.cls-47{fill:url(#radial-gradient-8);}.cls-48{fill:url(#Áåçûìÿííûé_ãðàäèåíò_102-2);}.cls-49{fill:url(#Áåçûìÿííûé_ãðàäèåíò_377-8);}.cls-50{fill:url(#Áåçûìÿííûé_ãðàäèåíò_388-3);}.cls-51{fill:url(#Áåçûìÿííûé_ãðàäèåíò_300-9);}.cls-52{fill:url(#radial-gradient-9);}.cls-53{fill:url(#radial-gradient-10);}.cls-54{fill:url(#Áåçûìÿííûé_ãðàäèåíò_102-3);}.cls-55{fill:url(#Áåçûìÿííûé_ãðàäèåíò_377-9);}.cls-56{fill:url(#Áåçûìÿííûé_ãðàäèåíò_388-4);}.cls-57{fill:url(#Áåçûìÿííûé_ãðàäèåíò_300-10);}</style><radialGradient id="radial-gradient" cx="-2723.946" cy="202.811" r="68.499" gradientTransform="matrix(0.866, 0.5, -0.866, 0.5, 2665.037, 1424.716)" gradientUnits="userSpaceOnUse"><stop offset="0.011" stop-color="#25bfec"/><stop offset="0.04" stop-color="#24b6e3" stop-opacity="0.948"/><stop offset="0.189" stop-color="#208bb7" stop-opacity="0.7"/><stop offset="0.338" stop-color="#1c6692" stop-opacity="0.486"/><stop offset="0.483" stop-color="#194773" stop-opacity="0.311"/><stop offset="0.625" stop-color="#16305c" stop-opacity="0.176"/><stop offset="0.76" stop-color="#141f4b" stop-opacity="0.078"/><stop offset="0.888" stop-color="#131440" stop-opacity="0.02"/><stop offset="1" stop-color="#13113d" stop-opacity="0"/></radialGradient><radialGradient id="radial-gradient-2" cx="-2746.292" cy="225.158" r="68.499" gradientTransform="matrix(0.866, 0.5, -0.866, 0.5, 2665.037, 1424.716)" gradientUnits="userSpaceOnUse"><stop offset="0.011" stop-color="#d4088c"/><stop offset="0.142" stop-color="#a90a7a" stop-opacity="0.775"/><stop offset="0.297" stop-color="#7b0c68" stop-opacity="0.541"/><stop offset="0.452" stop-color="#560e58" stop-opacity="0.347"/><stop offset="0.601" stop-color="#390f4c" stop-opacity="0.195"/><stop offset="0.745" stop-color="#241044" stop-opacity="0.087"/><stop offset="0.881" stop-color="#17113f" stop-opacity="0.022"/><stop offset="1" stop-color="#13113d" stop-opacity="0"/></radialGradient><linearGradient id="Áåçûìÿííûé_ãðàäèåíò_388" x1="217.868" y1="244.806" x2="277.238" y2="244.806" gradientUnits="userSpaceOnUse"><stop offset="0" stop-color="#d4088c"/><stop offset="0.226" stop-color="#d4088c"/><stop offset="0.511" stop-color="#6ee1f8"/><stop offset="0.78" stop-color="#6ee8fc"/><stop offset="1" stop-color="#6ee8fc"/></linearGradient><linearGradient id="Áåçûìÿííûé_ãðàäèåíò_377" x1="-35.293" y1="237.425" x2="23.751" y2="237.425" gradientTransform="translate(253.323)" gradientUnits="userSpaceOnUse"><stop offset="0" stop-color="#a31fa9"/><stop offset="0.067" stop-color="#8b17a0"/><stop offset="0.149" stop-color="#740f98"/><stop offset="0.239" stop-color="#640a92"/><stop offset="0.341" stop-color="#5b078f"/><stop offset="0.478" stop-color="#58068e"/><stop offset="0.626" stop-color="#4d22a3"/><stop offset="0.944" stop-color="#3168da"/><stop offset="1" stop-color="#2c75e4"/></linearGradient><linearGradient id="Áåçûìÿííûé_ãðàäèåíò_300" x1="290.926" y1="1046.561" x2="339.138" y2="1046.561" gradientTransform="matrix(0.866, 0.5, -0.866, 0.5, 739.708, -538.036)" gradientUnits="userSpaceOnUse"><stop offset="0" stop-color="#8d139b"/><stop offset="0.165" stop-color="#851ba1"/><stop offset="0.428" stop-color="#6e33b2"/><stop offset="0.755" stop-color="#4958cd"/><stop offset="1" stop-color="#2979e4"/></linearGradient><linearGradient id="Áåçûìÿííûé_ãðàäèåíò_377-2" x1="-35.293" y1="216.66" x2="23.751" y2="216.66" xlink:href="#Áåçûìÿííûé_ãðàäèåíò_377"/><linearGradient id="Áåçûìÿííûé_ãðàäèåíò_300-2" x1="270.161" y1="1025.795" x2="318.373" y2="1025.795" xlink:href="#Áåçûìÿííûé_ãðàäèåíò_300"/><linearGradient id="Áåçûìÿííûé_ãðàäèåíò_377-3" x1="-35.293" y1="195.894" x2="23.751" y2="195.894" xlink:href="#Áåçûìÿííûé_ãðàäèåíò_377"/><linearGradient id="Áåçûìÿííûé_ãðàäèåíò_300-3" x1="249.396" y1="1005.03" x2="297.608" y2="1005.03" xlink:href="#Áåçûìÿííûé_ãðàäèåíò_300"/><linearGradient id="Áåçûìÿííûé_ãðàäèåíò_377-4" x1="-35.293" y1="175.129" x2="23.751" y2="175.129" xlink:href="#Áåçûìÿííûé_ãðàäèåíò_377"/><linearGradient id="Áåçûìÿííûé_ãðàäèåíò_300-4" x1="228.631" y1="984.265" x2="276.842" y2="984.265" xlink:href="#Áåçûìÿííûé_ãðàäèåíò_300"/><linearGradient id="Áåçûìÿííûé_ãðàäèåíò_377-5" x1="-35.293" y1="154.364" x2="23.751" y2="154.364" xlink:href="#Áåçûìÿííûé_ãðàäèåíò_377"/><linearGradient id="Áåçûìÿííûé_ãðàäèåíò_300-5" x1="207.865" y1="963.5" x2="256.077" y2="963.5" gradientTransform="matrix(0.866, 0.5, -0.866, 0.5, 881.056, -453.035)" xlink:href="#Áåçûìÿííûé_ãðàäèåíò_300"/><radialGradient id="radial-gradient-3" cx="-2960.744" cy="-413.694" r="84.775" gradientTransform="matrix(0.866, 0.5, -0.866, 0.5, 2706.834, 1928.465)" xlink:href="#radial-gradient"/><radialGradient id="radial-gradient-4" cx="-3160.362" cy="-312.948" r="84.775" gradientTransform="matrix(0.866, 0.5, -0.866, 0.5, 2706.476, 2025.387)" xlink:href="#radial-gradient-2"/><linearGradient id="Áåçûìÿííûé_ãðàäèåíò_300-6" x1="148.466" y1="249.402" x2="644.007" y2="249.402" gradientTransform="matrix(1, 0, 0, 1, 0, 0)" xlink:href="#Áåçûìÿííûé_ãðàäèåíò_300"/><linearGradient id="Áåçûìÿííûé_ãðàäèåíò_300-7" x1="-1170.8" y1="1040.248" x2="-1035.134" y2="1040.248" gradientTransform="matrix(0.866, 0.5, -1, 0.577, 2383.642, 192.268)" xlink:href="#Áåçûìÿííûé_ãðàäèåíò_300"/><radialGradient id="Áåçûìÿííûé_ãðàäèåíò_478" cx="-1848.922" cy="-1440.34" r="269.78" gradientTransform="matrix(0.841, 0.486, -1.072, 0.619, 144.317, 1869.469)" gradientUnits="userSpaceOnUse"><stop offset="0.011" stop-color="#2c35a2"/><stop offset="0.164" stop-color="#252c88"/><stop offset="0.398" stop-color="#1b2167"/><stop offset="0.621" stop-color="#15194f"/><stop offset="0.827" stop-color="#101540"/><stop offset="1" stop-color="#0f133b"/></radialGradient><linearGradient id="Áåçûìÿííûé_ãðàäèåíò_377-6" x1="123.167" y1="156.807" x2="369.257" y2="156.807" gradientTransform="matrix(1, 0, 0, 1, 0, 0)" xlink:href="#Áåçûìÿííûé_ãðàäèåíò_377"/><radialGradient id="Áåçûìÿííûé_ãðàäèåíò_478-2" cx="-1107.464" cy="736.196" r="12.83" gradientTransform="matrix(0.866, 0.5, -0.866, 0.5, 2090.515, 361.226)" xlink:href="#Áåçûìÿííûé_ãðàäèåíò_478"/><radialGradient id="radial-gradient-5" cx="737.544" cy="1681.275" fx="721.3960357847553" fy="1688.2224364580113" r="25.249" gradientTransform="matrix(-0.856, 0.867, -0.536, -1.385, 2086.632, 1972.31)" xlink:href="#radial-gradient"/><radialGradient id="radial-gradient-6" cx="-2581.873" cy="-712.231" r="38.155" gradientTransform="matrix(0.866, 0.5, -0.866, 0.5, 1996.476, 1838.481)" xlink:href="#radial-gradient-2"/><linearGradient id="Áåçûìÿííûé_ãðàäèåíò_102" x1="514.593" y1="279.312" x2="553.532" y2="279.312" xlink:href="#Áåçûìÿííûé_ãðàäèåíò_388"/><linearGradient id="Áåçûìÿííûé_ãðàäèåíò_377-7" x1="514.844" y1="272.608" x2="554.228" y2="272.608" gradientTransform="matrix(1, 0, 0, 1, 0, 0)" xlink:href="#Áåçûìÿííûé_ãðàäèåíò_377"/><linearGradient id="Áåçûìÿííûé_ãðàäèåíò_388-2" x1="514.844" y1="276.974" x2="554.228" y2="276.974" xlink:href="#Áåçûìÿííûé_ãðàäèåíò_388"/><linearGradient id="Áåçûìÿííûé_ãðàäèåíò_300-8" x1="779.866" y1="682.706" x2="798.417" y2="666.641" gradientTransform="matrix(0.866, 0.5, -1, 0.577, 525.002, -518.494)" xlink:href="#Áåçûìÿííûé_ãðàäèåíò_300"/><radialGradient id="radial-gradient-7" cx="751.618" cy="1721.702" fx="735.4700548319263" fy="1728.649280934877" r="25.249" gradientTransform="matrix(-0.856, 0.867, -0.536, -1.385, 2072.795, 2044.244)" xlink:href="#radial-gradient"/><radialGradient id="radial-gradient-8" cx="-2581.164" cy="-656.632" r="38.155" gradientTransform="matrix(0.866, 0.5, -0.866, 0.5, 1996.476, 1838.481)" xlink:href="#radial-gradient-2"/><linearGradient id="Áåçûìÿííûé_ãðàäèåíò_102-2" x1="467.058" y1="307.466" x2="505.997" y2="307.466" xlink:href="#Áåçûìÿííûé_ãðàäèåíò_388"/><linearGradient id="Áåçûìÿííûé_ãðàäèåíò_377-8" x1="467.308" y1="300.762" x2="506.693" y2="300.762" gradientTransform="matrix(1, 0, 0, 1, 0, 0)" xlink:href="#Áåçûìÿííûé_ãðàäèåíò_377"/><linearGradient id="Áåçûìÿííûé_ãðàäèåíò_388-3" x1="467.308" y1="305.128" x2="506.693" y2="305.128" xlink:href="#Áåçûìÿííûé_ãðàäèåíò_388"/><linearGradient id="Áåçûìÿííûé_ãðàäèåíò_300-9" x1="780.574" y1="730.854" x2="799.124" y2="714.789" gradientTransform="matrix(0.866, 0.5, -1, 0.577, 525.002, -518.494)" xlink:href="#Áåçûìÿííûé_ãðàäèåíò_300"/><radialGradient id="radial-gradient-9" cx="765.692" cy="1762.129" fx="749.5440886246578" fy="1769.0761634896573" r="25.249" gradientTransform="matrix(-0.856, 0.867, -0.536, -1.385, 2058.955, 2116.181)" xlink:href="#radial-gradient"/><radialGradient id="radial-gradient-10" cx="-2580.455" cy="-601.032" r="38.155" gradientTransform="matrix(0.866, 0.5, -0.866, 0.5, 1996.476, 1838.481)" xlink:href="#radial-gradient-2"/><linearGradient id="Áåçûìÿííûé_ãðàäèåíò_102-3" x1="419.523" y1="335.621" x2="458.462" y2="335.621" xlink:href="#Áåçûìÿííûé_ãðàäèåíò_388"/><linearGradient id="Áåçûìÿííûé_ãðàäèåíò_377-9" x1="419.773" y1="328.916" x2="459.158" y2="328.916" gradientTransform="matrix(1, 0, 0, 1, 0, 0)" xlink:href="#Áåçûìÿííûé_ãðàäèåíò_377"/><linearGradient id="Áåçûìÿííûé_ãðàäèåíò_388-4" x1="419.773" y1="333.282" x2="459.158" y2="333.282" xlink:href="#Áåçûìÿííûé_ãðàäèåíò_388"/><linearGradient id="Áåçûìÿííûé_ãðàäèåíò_300-10" x1="781.281" y1="779.002" x2="799.832" y2="762.937" gradientTransform="matrix(0.866, 0.5, -1, 0.577, 525.002, -518.494)" xlink:href="#Áåçûìÿííûé_ãðàäèåíò_300"/></defs><title>performance</title><g class="cls-1"><g id="Ñëîé_1" data-name="Ñëîé 1"><ellipse class="cls-2" cx="130.466" cy="164.149" rx="83.893" ry="48.436"/><ellipse class="cls-3" cx="91.761" cy="164.149" rx="83.893" ry="48.436"/><path class="cls-4" d="M247.457,267.819a55.915,55.915,0,0,1-15.682-2.2c-10.167-2.991-17.122-8.6-19.081-15.394-1.373-4.76-.082-9.7,3.634-13.914h0l.4-.453c8.911-10.1,29.37-14.042,46.575-8.981,10.167,2.991,17.122,8.6,19.081,15.395,1.373,4.76.082,9.7-3.635,13.913l-.4.453C272.066,263.758,260.037,267.819,247.457,267.819Zm-27.6-28.388c-2.65,3-3.563,6.284-2.639,9.487,1.481,5.136,7.419,9.688,15.883,12.179,15.333,4.51,34.044,1.11,41.713-7.58l.4-.453c2.649-3,3.563-6.284,2.639-9.487-1.482-5.137-7.419-9.689-15.883-12.18-15.332-4.509-34.043-1.11-41.713,7.581Z" transform="translate(-141.348 -85.001)"/><path class="cls-5" d="M247.269,265.728a53.238,53.238,0,0,1-14.917-2.073c-9.483-2.79-15.932-7.891-17.693-14-1.189-4.123-.082-8.27,3.2-11.993l.4-.452c8.288-9.392,28.237-13.146,44.466-8.373,9.482,2.79,15.931,7.892,17.692,14,1.19,4.123.082,8.269-3.2,11.992l-.4.452C270.971,261.907,259.322,265.728,247.269,265.728Zm-28.941-27.652c-3.137,3.555-4.2,7.5-3.072,11.408,1.677,5.812,8.133,10.887,17.272,13.576,16.021,4.712,35.68,1.038,43.823-8.19l.4-.452c3.138-3.554,4.2-7.5,3.073-11.408-1.677-5.812-8.133-10.886-17.272-13.575-16.021-4.713-35.681-1.038-43.823,8.189Z" transform="translate(-141.348 -85.001)"/><path class="cls-6" d="M247.554,262c-7.591,0-15.18-1.668-20.958-5-5.628-3.25-8.728-7.58-8.728-12.193s3.1-8.943,8.728-12.193c11.556-6.672,30.357-6.672,41.913,0,5.629,3.25,8.729,7.58,8.729,12.195s-3.1,8.942-8.728,12.192C262.733,260.335,255.143,262,247.554,262Zm0-34.074c-7.53,0-15.062,1.655-20.794,4.966-5.523,3.188-8.566,7.419-8.566,11.911s3.043,8.723,8.566,11.912c11.467,6.621,30.123,6.622,41.59,0,5.523-3.189,8.565-7.419,8.565-11.911s-3.042-8.725-8.566-11.913C262.614,229.584,255.083,227.929,247.552,227.929Z" transform="translate(-141.348 -85.001)"/><ellipse class="cls-7" cx="106.204" cy="159.805" rx="24.928" ry="14.392"/><path class="cls-8" d="M277.074,237.409v-9.648h-5.226a24.123,24.123,0,0,0-3.42-2.389c-11.529-6.656-30.222-6.656-41.751,0a24,24,0,0,0-3.421,2.389H218.03v9.664h0c0,4.362,2.883,8.724,8.647,12.052,11.53,6.657,30.223,6.657,41.752,0C274.2,246.145,277.081,241.777,277.074,237.409Z" transform="translate(-141.348 -85.001)"/><path class="cls-9" d="M218.3,237.174v-9.413h-.272v9.664c0,3.905,2.328,7.8,6.948,10.967C220.533,245.1,218.3,241.14,218.3,237.174Z" transform="translate(-141.348 -85.001)"/><path class="cls-5" d="M276.608,227.761V237.1c.008,4.368-2.874,8.736-8.645,12.068-11.529,6.657-30.222,6.656-41.751,0-.587-.339-1.123-.695-1.65-1.054.657.47,1.358.927,2.115,1.364,11.53,6.657,30.223,6.657,41.752,0,5.771-3.333,8.652-7.7,8.645-12.069v-9.648Z" transform="translate(-141.348 -85.001)"/><ellipse class="cls-10" cx="106.204" cy="142.76" rx="29.523" ry="17.045"/><path class="cls-9" d="M227.474,215.885c5.856-3.381,13.506-5.088,21.181-5.138-7.919-.17-15.933,1.471-21.978,4.962-8.983,5.186-11.046,12.977-5.919,19.17C216.344,228.542,218.58,221.02,227.474,215.885Z" transform="translate(-141.348 -85.001)"/><path class="cls-5" d="M268.428,215.709a36.521,36.521,0,0,0-10.444-3.881,35.77,35.77,0,0,1,9.408,3.648c11.53,6.657,11.53,17.449,0,24.1-8.466,4.888-20.789,6.172-31.308,3.881,10.736,2.611,23.6,1.4,32.344-3.648C279.958,233.158,279.958,222.366,268.428,215.709Z" transform="translate(-141.348 -85.001)"/><ellipse class="cls-11" cx="106.061" cy="142.76" rx="18.867" ry="10.893"/><path class="cls-12" d="M234.069,225.9c7.368-4.254,19.313-4.253,26.681,0a11.544,11.544,0,0,1,4.827,4.784c1.757-3.66.157-7.745-4.827-10.622-7.368-4.254-19.313-4.254-26.681,0-4.984,2.877-6.584,6.962-4.826,10.621A11.54,11.54,0,0,1,234.069,225.9Z" transform="translate(-141.348 -85.001)"/><path class="cls-13" d="M234.069,223.835c7.368-4.254,19.313-4.254,26.681,0,2.849,1.645,4.583,3.686,5.229,5.815,1.026-3.378-.709-6.981-5.229-9.591-7.368-4.254-19.313-4.254-26.681,0-4.52,2.609-6.254,6.212-5.229,9.59C229.486,227.52,231.22,225.48,234.069,223.835Z" transform="translate(-141.348 -85.001)"/><path class="cls-14" d="M234.069,222c7.368-4.254,19.313-4.254,26.681,0,3.257,1.88,5.068,4.277,5.446,6.733.478-3.1-1.333-6.3-5.446-8.673-7.368-4.254-19.313-4.254-26.681,0-4.112,2.374-5.923,5.57-5.446,8.672C229,226.275,230.813,223.879,234.069,222Z" transform="translate(-141.348 -85.001)"/><path class="cls-5" d="M262.83,214.6a1.873,1.873,0,0,0-1.742.239c-.366.344-.181.794.414,1.005a1.874,1.874,0,0,0,1.742-.239C263.61,215.26,263.425,214.81,262.83,214.6Z" transform="translate(-141.348 -85.001)"/><path class="cls-15" d="M267,216.62a1.94,1.94,0,0,0-1.758.038c-.468.291-.439.745.065,1.015a1.943,1.943,0,0,0,1.758-.037C267.53,217.345,267.5,216.89,267,216.62Z" transform="translate(-141.348 -85.001)"/><path class="cls-16" d="M270.416,219.064a1.9,1.9,0,0,0-1.738-.161c-.557.232-.682.681-.279,1a1.9,1.9,0,0,0,1.738.161C270.694,219.834,270.819,219.385,270.416,219.064Z" transform="translate(-141.348 -85.001)"/><path class="cls-17" d="M272.943,221.846a1.715,1.715,0,0,0-1.65-.354c-.624.165-.9.591-.612.952a1.716,1.716,0,0,0,1.649.354C272.955,222.633,273.229,222.206,272.943,221.846Z" transform="translate(-141.348 -85.001)"/><path class="cls-18" d="M274.482,224.858a1.448,1.448,0,0,0-1.5-.532c-.668.091-1.081.479-.922.865a1.449,1.449,0,0,0,1.5.533C274.228,225.632,274.641,225.244,274.482,224.858Z" transform="translate(-141.348 -85.001)"/><path class="cls-19" d="M274.848,228.329c.3-.357.045-.787-.573-.961a1.748,1.748,0,0,0-1.664.33c-.3.357-.045.787.572.961A1.749,1.749,0,0,0,274.848,228.329Z" transform="translate(-141.348 -85.001)"/><path class="cls-20" d="M277.074,216.644V207h-5.226a24.041,24.041,0,0,0-3.42-2.389c-11.529-6.657-30.222-6.657-41.751,0A24,24,0,0,0,223.256,207H218.03v9.663h0c0,4.363,2.883,8.725,8.647,12.053,11.53,6.657,30.223,6.657,41.752,0C274.2,225.38,277.081,221.012,277.074,216.644Z" transform="translate(-141.348 -85.001)"/><path class="cls-9" d="M218.3,216.409V207h-.272v9.663c0,3.906,2.328,7.8,6.948,10.968C220.533,224.337,218.3,220.374,218.3,216.409Z" transform="translate(-141.348 -85.001)"/><path class="cls-5" d="M276.608,207v9.338c.008,4.367-2.874,8.736-8.645,12.068-11.529,6.656-30.222,6.656-41.751,0-.587-.338-1.123-.694-1.65-1.053.657.47,1.358.927,2.115,1.364,11.53,6.657,30.223,6.657,41.752,0,5.771-3.332,8.652-7.7,8.645-12.068V207Z" transform="translate(-141.348 -85.001)"/><ellipse class="cls-21" cx="106.204" cy="121.995" rx="29.523" ry="17.045"/><path class="cls-9" d="M227.474,195.12c5.856-3.381,13.506-5.088,21.181-5.138-7.919-.171-15.933,1.471-21.978,4.961-8.983,5.186-11.046,12.978-5.919,19.171C216.344,207.776,218.58,200.255,227.474,195.12Z" transform="translate(-141.348 -85.001)"/><path class="cls-5" d="M268.428,194.944a36.462,36.462,0,0,0-10.444-3.881,35.77,35.77,0,0,1,9.408,3.648c11.53,6.657,11.53,17.449,0,24.1-8.466,4.888-20.789,6.172-31.308,3.881,10.736,2.611,23.6,1.4,32.344-3.648C279.958,212.393,279.958,201.6,268.428,194.944Z" transform="translate(-141.348 -85.001)"/><path class="cls-11" d="M260.751,214.7c-7.368,4.254-19.314,4.253-26.682,0s-7.368-11.15,0-15.4,19.313-4.254,26.681,0S268.119,210.445,260.751,214.7Z" transform="translate(-141.348 -85.001)"/><path class="cls-12" d="M234.069,205.132c7.368-4.254,19.313-4.254,26.681,0a11.539,11.539,0,0,1,4.827,4.784c1.757-3.66.157-7.745-4.827-10.622-7.368-4.254-19.313-4.254-26.681,0-4.984,2.877-6.584,6.961-4.826,10.621A11.54,11.54,0,0,1,234.069,205.132Z" transform="translate(-141.348 -85.001)"/><path class="cls-13" d="M234.069,203.07c7.368-4.254,19.313-4.254,26.681,0,2.849,1.645,4.583,3.685,5.229,5.815,1.026-3.379-.709-6.982-5.229-9.591-7.368-4.254-19.313-4.254-26.681,0-4.52,2.609-6.254,6.212-5.229,9.59C229.486,206.755,231.22,204.714,234.069,203.07Z" transform="translate(-141.348 -85.001)"/><path class="cls-14" d="M234.069,201.234c7.368-4.254,19.313-4.254,26.681,0,3.257,1.88,5.068,4.276,5.446,6.733.478-3.1-1.333-6.3-5.446-8.673-7.368-4.254-19.313-4.254-26.681,0-4.112,2.373-5.923,5.57-5.446,8.672C229,205.51,230.813,203.113,234.069,201.234Z" transform="translate(-141.348 -85.001)"/><path class="cls-5" d="M262.83,193.833a1.873,1.873,0,0,0-1.742.239c-.366.343-.181.794.414,1a1.874,1.874,0,0,0,1.742-.239C263.61,194.5,263.425,194.044,262.83,193.833Z" transform="translate(-141.348 -85.001)"/><path class="cls-15" d="M267,195.855a1.943,1.943,0,0,0-1.758.037c-.468.291-.439.746.065,1.016a1.94,1.94,0,0,0,1.758-.038C267.53,196.579,267.5,196.125,267,195.855Z" transform="translate(-141.348 -85.001)"/><path class="cls-16" d="M270.416,198.3a1.9,1.9,0,0,0-1.738-.161c-.557.233-.682.682-.279,1a1.9,1.9,0,0,0,1.738.161C270.694,199.069,270.819,198.62,270.416,198.3Z" transform="translate(-141.348 -85.001)"/><path class="cls-17" d="M272.943,201.08a1.72,1.72,0,0,0-1.65-.354c-.624.166-.9.592-.612.953a1.716,1.716,0,0,0,1.649.354C272.955,201.867,273.229,201.441,272.943,201.08Z" transform="translate(-141.348 -85.001)"/><path class="cls-18" d="M274.482,204.093a1.45,1.45,0,0,0-1.5-.533c-.668.092-1.081.479-.922.866a1.448,1.448,0,0,0,1.5.532C274.228,204.867,274.641,204.479,274.482,204.093Z" transform="translate(-141.348 -85.001)"/><path class="cls-19" d="M274.848,207.563c.3-.356.045-.786-.573-.961a1.745,1.745,0,0,0-1.664.331c-.3.356-.045.787.572.961A1.747,1.747,0,0,0,274.848,207.563Z" transform="translate(-141.348 -85.001)"/><path class="cls-22" d="M277.075,194.777l-9.141-.1c-11.118-6.134-28.486-6.287-39.912-.455l-10.006-.114v12.425h.033c-.213,4.517,2.658,9.073,8.628,12.52,11.53,6.656,30.222,6.656,41.752,0,5.97-3.447,8.84-8,8.627-12.52h.019Z" transform="translate(-141.348 -85.001)"/><path class="cls-23" d="M277.074,195.879v-9.648h-5.226a23.96,23.96,0,0,0-3.42-2.389c-11.529-6.657-30.222-6.657-41.751,0a24,24,0,0,0-3.421,2.39H218.03v9.663h0c0,4.362,2.883,8.724,8.647,12.053,11.53,6.656,30.223,6.656,41.752,0C274.2,204.615,277.081,200.246,277.074,195.879Z" transform="translate(-141.348 -85.001)"/><path class="cls-9" d="M218.3,195.644v-9.413h-.272v9.663c0,3.905,2.328,7.8,6.948,10.967C220.533,203.572,218.3,199.609,218.3,195.644Z" transform="translate(-141.348 -85.001)"/><path class="cls-5" d="M276.608,186.231v9.338c.008,4.367-2.874,8.736-8.645,12.068-11.529,6.656-30.222,6.656-41.751,0-.587-.338-1.123-.695-1.65-1.053.657.47,1.358.927,2.115,1.364,11.53,6.656,30.223,6.656,41.752,0,5.771-3.332,8.652-7.7,8.645-12.068v-9.648Z" transform="translate(-141.348 -85.001)"/><ellipse class="cls-24" cx="106.204" cy="101.23" rx="29.523" ry="17.045"/><path class="cls-9" d="M227.474,174.355c5.856-3.382,13.506-5.089,21.181-5.139-7.919-.17-15.933,1.472-21.978,4.962-8.983,5.186-11.046,12.978-5.919,19.171C216.344,187.011,218.58,179.49,227.474,174.355Z" transform="translate(-141.348 -85.001)"/><path class="cls-5" d="M268.428,174.178a36.521,36.521,0,0,0-10.444-3.881,35.737,35.737,0,0,1,9.408,3.649c11.53,6.656,11.53,17.449,0,24.1-8.466,4.888-20.789,6.172-31.308,3.881,10.736,2.611,23.6,1.4,32.344-3.648C279.958,191.627,279.958,180.835,268.428,174.178Z" transform="translate(-141.348 -85.001)"/><ellipse class="cls-11" cx="106.061" cy="101.23" rx="18.867" ry="10.893"/><path class="cls-12" d="M234.069,184.367c7.368-4.254,19.313-4.254,26.681,0a11.543,11.543,0,0,1,4.827,4.783c1.757-3.659.157-7.744-4.827-10.621-7.368-4.254-19.313-4.254-26.681,0-4.984,2.877-6.584,6.962-4.826,10.622A11.534,11.534,0,0,1,234.069,184.367Z" transform="translate(-141.348 -85.001)"/><path class="cls-13" d="M234.069,182.305c7.368-4.254,19.313-4.254,26.681,0,2.849,1.644,4.583,3.685,5.229,5.814,1.026-3.378-.709-6.981-5.229-9.59-7.368-4.254-19.313-4.254-26.681,0-4.52,2.61-6.254,6.212-5.229,9.591C229.486,185.99,231.22,183.949,234.069,182.305Z" transform="translate(-141.348 -85.001)"/><path class="cls-14" d="M234.069,180.468c7.368-4.254,19.313-4.253,26.681,0,3.257,1.881,5.068,4.277,5.446,6.733.478-3.1-1.333-6.3-5.446-8.672-7.368-4.254-19.313-4.254-26.681,0-4.112,2.374-5.923,5.571-5.446,8.672C229,184.744,230.813,182.348,234.069,180.468Z" transform="translate(-141.348 -85.001)"/><path class="cls-5" d="M262.83,173.068a1.876,1.876,0,0,0-1.742.238c-.366.344-.181.794.414,1.006a1.874,1.874,0,0,0,1.742-.239C263.61,173.729,263.425,173.279,262.83,173.068Z" transform="translate(-141.348 -85.001)"/><path class="cls-15" d="M267,175.09a1.943,1.943,0,0,0-1.758.037c-.468.291-.439.746.065,1.016a1.94,1.94,0,0,0,1.758-.038C267.53,175.814,267.5,175.36,267,175.09Z" transform="translate(-141.348 -85.001)"/><path class="cls-16" d="M270.416,177.533a1.9,1.9,0,0,0-1.738-.161c-.557.233-.682.682-.279,1a1.9,1.9,0,0,0,1.738.161C270.694,178.3,270.819,177.855,270.416,177.533Z" transform="translate(-141.348 -85.001)"/><path class="cls-17" d="M272.943,180.315a1.718,1.718,0,0,0-1.65-.354c-.624.166-.9.592-.612.953a1.716,1.716,0,0,0,1.649.353C272.955,181.1,273.229,180.676,272.943,180.315Z" transform="translate(-141.348 -85.001)"/><path class="cls-18" d="M274.482,183.328a1.449,1.449,0,0,0-1.5-.533c-.668.092-1.081.479-.922.865a1.447,1.447,0,0,0,1.5.533C274.228,184.1,274.641,183.714,274.482,183.328Z" transform="translate(-141.348 -85.001)"/><path class="cls-19" d="M274.848,186.8c.3-.356.045-.787-.573-.961a1.748,1.748,0,0,0-1.664.33c-.3.357-.045.787.572.961A1.746,1.746,0,0,0,274.848,186.8Z" transform="translate(-141.348 -85.001)"/><path class="cls-25" d="M277.074,175.114v-9.648h-5.226a23.96,23.96,0,0,0-3.42-2.389c-11.529-6.657-30.222-6.657-41.751,0a24,24,0,0,0-3.421,2.39H218.03v9.663h0c0,4.362,2.883,8.724,8.647,12.052,11.53,6.657,30.223,6.657,41.752,0C274.2,183.85,277.081,179.481,277.074,175.114Z" transform="translate(-141.348 -85.001)"/><path class="cls-9" d="M218.3,174.878v-9.412h-.272v9.663c0,3.905,2.328,7.8,6.948,10.967C220.533,182.807,218.3,178.844,218.3,174.878Z" transform="translate(-141.348 -85.001)"/><path class="cls-5" d="M276.608,165.466V174.8c.008,4.368-2.874,8.736-8.645,12.068-11.529,6.657-30.222,6.657-41.751,0-.587-.339-1.123-.7-1.65-1.054.657.471,1.358.927,2.115,1.364,11.53,6.657,30.223,6.657,41.752,0,5.771-3.332,8.652-7.7,8.645-12.068v-9.648Z" transform="translate(-141.348 -85.001)"/><ellipse class="cls-26" cx="106.204" cy="80.465" rx="29.523" ry="17.045"/><path class="cls-9" d="M227.474,153.589c5.856-3.381,13.506-5.088,21.181-5.138-7.919-.17-15.933,1.471-21.978,4.962-8.983,5.186-11.046,12.978-5.919,19.17C216.344,166.246,218.58,158.725,227.474,153.589Z" transform="translate(-141.348 -85.001)"/><path class="cls-5" d="M268.428,153.413a36.521,36.521,0,0,0-10.444-3.881,35.77,35.77,0,0,1,9.408,3.648c11.53,6.657,11.53,17.449,0,24.106-8.466,4.888-20.789,6.172-31.308,3.88,10.736,2.612,23.6,1.4,32.344-3.648C279.958,170.862,279.958,160.07,268.428,153.413Z" transform="translate(-141.348 -85.001)"/><path class="cls-11" d="M260.751,173.168c-7.368,4.254-19.314,4.254-26.682,0s-7.368-11.151,0-15.4,19.313-4.253,26.681,0S268.119,168.914,260.751,173.168Z" transform="translate(-141.348 -85.001)"/><path class="cls-12" d="M234.069,163.6c7.368-4.253,19.313-4.253,26.681,0a11.543,11.543,0,0,1,4.827,4.783c1.757-3.66.157-7.744-4.827-10.622-7.368-4.254-19.313-4.254-26.681,0-4.984,2.877-6.584,6.962-4.826,10.622A11.536,11.536,0,0,1,234.069,163.6Z" transform="translate(-141.348 -85.001)"/><path class="cls-13" d="M234.069,161.539c7.368-4.253,19.313-4.253,26.681,0,2.849,1.644,4.583,3.685,5.229,5.814,1.026-3.378-.709-6.981-5.229-9.591-7.368-4.254-19.313-4.254-26.681,0-4.52,2.61-6.254,6.212-5.229,9.59C229.486,165.224,231.22,163.184,234.069,161.539Z" transform="translate(-141.348 -85.001)"/><path class="cls-14" d="M234.069,159.7c7.368-4.254,19.313-4.254,26.681,0,3.257,1.88,5.068,4.277,5.446,6.733.478-3.1-1.333-6.3-5.446-8.673-7.368-4.254-19.313-4.254-26.681,0-4.112,2.374-5.923,5.571-5.446,8.672C229,163.979,230.813,161.583,234.069,159.7Z" transform="translate(-141.348 -85.001)"/><path class="cls-5" d="M262.83,152.3a1.879,1.879,0,0,0-1.742.239c-.366.344-.181.794.414,1.006a1.88,1.88,0,0,0,1.742-.239C263.61,152.964,263.425,152.514,262.83,152.3Z" transform="translate(-141.348 -85.001)"/><path class="cls-15" d="M267,154.324a1.94,1.94,0,0,0-1.758.038c-.468.291-.439.745.065,1.015a1.94,1.94,0,0,0,1.758-.037C267.53,155.049,267.5,154.594,267,154.324Z" transform="translate(-141.348 -85.001)"/><path class="cls-16" d="M270.416,156.768a1.9,1.9,0,0,0-1.738-.161c-.557.232-.682.681-.279,1a1.9,1.9,0,0,0,1.738.161C270.694,157.539,270.819,157.09,270.416,156.768Z" transform="translate(-141.348 -85.001)"/><path class="cls-17" d="M272.943,159.55a1.718,1.718,0,0,0-1.65-.354c-.624.165-.9.592-.612.952a1.716,1.716,0,0,0,1.649.354C272.955,160.337,273.229,159.91,272.943,159.55Z" transform="translate(-141.348 -85.001)"/><path class="cls-18" d="M274.482,162.563a1.449,1.449,0,0,0-1.5-.533c-.668.092-1.081.479-.922.865a1.447,1.447,0,0,0,1.5.533C274.228,163.336,274.641,162.949,274.482,162.563Z" transform="translate(-141.348 -85.001)"/><path class="cls-19" d="M274.848,166.033c.3-.357.045-.787-.573-.961a1.748,1.748,0,0,0-1.664.33c-.3.357-.045.787.572.961A1.749,1.749,0,0,0,274.848,166.033Z" transform="translate(-141.348 -85.001)"/><path class="cls-22" d="M277.075,153.246l-9.141-.1c-11.118-6.134-28.486-6.286-39.912-.455l-10.006-.114V165h.033c-.213,4.516,2.658,9.072,8.628,12.519,11.53,6.657,30.222,6.657,41.752,0,5.97-3.448,8.84-8,8.627-12.52h.019Z" transform="translate(-141.348 -85.001)"/><path class="cls-27" d="M277.074,154.349V144.7h-5.226a24.041,24.041,0,0,0-3.42-2.389c-11.529-6.656-30.222-6.656-41.751,0a24,24,0,0,0-3.421,2.389H218.03v9.664h0c0,4.362,2.883,8.724,8.647,12.052,11.53,6.657,30.223,6.657,41.752,0C274.2,163.084,277.081,158.716,277.074,154.349Z" transform="translate(-141.348 -85.001)"/><path class="cls-9" d="M218.3,154.113V144.7h-.272v9.664c0,3.905,2.328,7.8,6.948,10.967C220.533,162.042,218.3,158.079,218.3,154.113Z" transform="translate(-141.348 -85.001)"/><path class="cls-5" d="M276.608,144.7v9.338c.008,4.367-2.874,8.736-8.645,12.068-11.529,6.657-30.222,6.656-41.751,0-.587-.339-1.123-.695-1.65-1.054.657.47,1.358.927,2.115,1.364,11.53,6.657,30.223,6.657,41.752,0,5.771-3.333,8.652-7.7,8.645-12.068V144.7Z" transform="translate(-141.348 -85.001)"/><path class="cls-28" d="M268.429,156.753c-11.53,6.657-30.222,6.656-41.752,0s-11.53-17.449,0-24.1,30.222-6.657,41.751,0S279.958,150.1,268.429,156.753Z" transform="translate(-141.348 -85.001)"/><path class="cls-9" d="M227.474,132.824c5.856-3.381,13.506-5.088,21.181-5.138-7.919-.17-15.933,1.471-21.978,4.962-8.983,5.185-11.046,12.977-5.919,19.17C216.344,145.481,218.58,137.959,227.474,132.824Z" transform="translate(-141.348 -85.001)"/><path class="cls-5" d="M268.428,132.648a36.521,36.521,0,0,0-10.444-3.881,35.77,35.77,0,0,1,9.408,3.648c11.53,6.657,11.53,17.449,0,24.105-8.466,4.888-20.789,6.172-31.308,3.881,10.736,2.611,23.6,1.4,32.344-3.648C279.958,150.1,279.958,139.305,268.428,132.648Z" transform="translate(-141.348 -85.001)"/><ellipse class="cls-11" cx="106.061" cy="59.699" rx="18.867" ry="10.893"/><path class="cls-12" d="M234.069,142.836c7.368-4.254,19.313-4.253,26.681,0a11.531,11.531,0,0,1,4.827,4.783c1.757-3.66.157-7.745-4.827-10.622-7.368-4.254-19.313-4.254-26.681,0-4.984,2.877-6.584,6.961-4.826,10.621A11.54,11.54,0,0,1,234.069,142.836Z" transform="translate(-141.348 -85.001)"/><path class="cls-13" d="M234.069,140.774c7.368-4.254,19.313-4.254,26.681,0,2.849,1.645,4.583,3.686,5.229,5.815,1.026-3.378-.709-6.981-5.229-9.591-7.368-4.254-19.313-4.254-26.681,0-4.52,2.609-6.254,6.212-5.229,9.59C229.486,144.459,231.22,142.419,234.069,140.774Z" transform="translate(-141.348 -85.001)"/><path class="cls-14" d="M234.069,138.938c7.368-4.254,19.313-4.254,26.681,0,3.257,1.88,5.068,4.277,5.446,6.733.478-3.1-1.333-6.3-5.446-8.673-7.368-4.254-19.313-4.254-26.681,0-4.112,2.374-5.923,5.57-5.446,8.672C229,143.214,230.813,140.818,234.069,138.938Z" transform="translate(-141.348 -85.001)"/><path class="cls-5" d="M262.83,131.537a1.873,1.873,0,0,0-1.742.239c-.366.344-.181.794.414,1.006a1.877,1.877,0,0,0,1.742-.24C263.61,132.2,263.425,131.749,262.83,131.537Z" transform="translate(-141.348 -85.001)"/><path class="cls-15" d="M267,133.559a1.94,1.94,0,0,0-1.758.038c-.468.291-.439.745.065,1.015a1.94,1.94,0,0,0,1.758-.038C267.53,134.284,267.5,133.829,267,133.559Z" transform="translate(-141.348 -85.001)"/><path class="cls-16" d="M270.416,136a1.9,1.9,0,0,0-1.738-.161c-.557.232-.682.681-.279,1a1.9,1.9,0,0,0,1.738.161C270.694,136.773,270.819,136.324,270.416,136Z" transform="translate(-141.348 -85.001)"/><path class="cls-17" d="M272.943,138.784a1.718,1.718,0,0,0-1.65-.353c-.624.165-.9.592-.612.952a1.716,1.716,0,0,0,1.649.354C272.955,139.572,273.229,139.145,272.943,138.784Z" transform="translate(-141.348 -85.001)"/><path class="cls-18" d="M274.482,141.8a1.448,1.448,0,0,0-1.5-.532c-.668.091-1.081.479-.922.865a1.449,1.449,0,0,0,1.5.533C274.228,142.571,274.641,142.183,274.482,141.8Z" transform="translate(-141.348 -85.001)"/><path class="cls-19" d="M274.848,145.268c.3-.357.045-.787-.573-.961a1.745,1.745,0,0,0-1.664.33c-.3.357-.045.787.572.961A1.749,1.749,0,0,0,274.848,145.268Z" transform="translate(-141.348 -85.001)"/><circle class="cls-11" cx="106.626" cy="81.435" r="1.854"/><path class="cls-14" d="M247.974,167.6a1.853,1.853,0,0,1-1.819-1.507,1.9,1.9,0,0,0-.035.348,1.855,1.855,0,1,0,3.709,0,1.9,1.9,0,0,0-.035-.348A1.854,1.854,0,0,1,247.974,167.6Z" transform="translate(-141.348 -85.001)"/><circle class="cls-11" cx="106.626" cy="102.2" r="1.854"/><path class="cls-14" d="M247.974,188.36a1.853,1.853,0,0,1-1.819-1.506,1.892,1.892,0,0,0-.035.348,1.855,1.855,0,0,0,3.709,0,1.892,1.892,0,0,0-.035-.348A1.854,1.854,0,0,1,247.974,188.36Z" transform="translate(-141.348 -85.001)"/><circle class="cls-11" cx="106.626" cy="122.966" r="1.854"/><path class="cls-14" d="M247.974,209.126a1.854,1.854,0,0,1-1.819-1.507,1.892,1.892,0,0,0-.035.348,1.855,1.855,0,0,0,3.709,0,1.892,1.892,0,0,0-.035-.348A1.855,1.855,0,0,1,247.974,209.126Z" transform="translate(-141.348 -85.001)"/><circle class="cls-11" cx="106.626" cy="143.731" r="1.854"/><path class="cls-14" d="M247.974,229.891a1.853,1.853,0,0,1-1.819-1.507,1.9,1.9,0,0,0-.035.348,1.855,1.855,0,0,0,3.709,0,1.9,1.9,0,0,0-.035-.348A1.854,1.854,0,0,1,247.974,229.891Z" transform="translate(-141.348 -85.001)"/><circle class="cls-11" cx="106.626" cy="164.496" r="1.854"/><path class="cls-14" d="M247.974,250.656a1.853,1.853,0,0,1-1.819-1.507,1.9,1.9,0,0,0-.035.348,1.855,1.855,0,1,0,3.709,0,1.9,1.9,0,0,0-.035-.348A1.854,1.854,0,0,1,247.974,250.656Z" transform="translate(-141.348 -85.001)"/><path class="cls-4" d="M406.412,353.534a9.483,9.483,0,0,1-4.653-1.13l-47-27.179a1.343,1.343,0,0,1,1.344-2.325l47,27.179a7.432,7.432,0,0,0,6.617,0l148.618-85.2c.609-.351.975-.776.975-1.134s-.366-.781-.978-1.135l-47-27.179a1.342,1.342,0,1,1,1.344-2.324l47,27.178a3.742,3.742,0,0,1,0,6.922l-148.618,85.2A9.465,9.465,0,0,1,406.412,353.534Z" transform="translate(-141.348 -85.001)"/><path class="cls-5" d="M406.411,352.456a8.424,8.424,0,0,1-4.114-.982l-47-27.18.268-.463,47,27.179a8.508,8.508,0,0,0,7.693,0l148.615-85.2a2.166,2.166,0,0,0,0-4.132l-47-27.18.268-.463,47,27.179a2.687,2.687,0,0,1,0,5.061l-148.615,85.2A8.408,8.408,0,0,1,406.411,352.456Z" transform="translate(-141.348 -85.001)"/><path class="cls-29" d="M518.27,237.883a1.205,1.205,0,1,1-.44-1.647A1.206,1.206,0,0,1,518.27,237.883Z" transform="translate(-141.348 -85.001)"/><path class="cls-29" d="M524.53,241.5a1.205,1.205,0,1,1-.44-1.647A1.206,1.206,0,0,1,524.53,241.5Z" transform="translate(-141.348 -85.001)"/><path class="cls-29" d="M530.79,245.123a1.205,1.205,0,1,1-.44-1.647A1.2,1.2,0,0,1,530.79,245.123Z" transform="translate(-141.348 -85.001)"/><path class="cls-29" d="M537.05,248.744a1.205,1.205,0,1,1-.44-1.647A1.206,1.206,0,0,1,537.05,248.744Z" transform="translate(-141.348 -85.001)"/><path class="cls-29" d="M543.31,252.364a1.205,1.205,0,1,1-.44-1.647A1.206,1.206,0,0,1,543.31,252.364Z" transform="translate(-141.348 -85.001)"/><path class="cls-29" d="M549.57,255.984a1.205,1.205,0,1,1-.44-1.647A1.206,1.206,0,0,1,549.57,255.984Z" transform="translate(-141.348 -85.001)"/><path class="cls-29" d="M555.83,259.6a1.205,1.205,0,1,1-.44-1.647A1.2,1.2,0,0,1,555.83,259.6Z" transform="translate(-141.348 -85.001)"/><path class="cls-29" d="M560.559,264.331a2.79,2.79,0,0,1-.769-.455c-.2-.154-.343-.236-.379-.363a1.874,1.874,0,0,1,.508-1.375.919.919,0,0,1,.9-.259,1.317,1.317,0,0,1,.883.9,1.384,1.384,0,0,1-.227,1.32A.846.846,0,0,1,560.559,264.331Z" transform="translate(-141.348 -85.001)"/><path class="cls-29" d="M554.781,268.46a1.205,1.205,0,1,1,1.645.446A1.205,1.205,0,0,1,554.781,268.46Z" transform="translate(-141.348 -85.001)"/><path class="cls-29" d="M548.508,272.057a1.205,1.205,0,1,1,1.645.446A1.2,1.2,0,0,1,548.508,272.057Z" transform="translate(-141.348 -85.001)"/><path class="cls-29" d="M542.234,275.654a1.205,1.205,0,1,1,1.645.446A1.207,1.207,0,0,1,542.234,275.654Z" transform="translate(-141.348 -85.001)"/><path class="cls-29" d="M535.96,279.251a1.206,1.206,0,1,1,1.645.446A1.207,1.207,0,0,1,535.96,279.251Z" transform="translate(-141.348 -85.001)"/><path class="cls-29" d="M529.687,282.847a1.205,1.205,0,1,1,1.645.447A1.2,1.2,0,0,1,529.687,282.847Z" transform="translate(-141.348 -85.001)"/><path class="cls-29" d="M523.413,286.444a1.205,1.205,0,1,1,1.645.446A1.206,1.206,0,0,1,523.413,286.444Z" transform="translate(-141.348 -85.001)"/><path class="cls-29" d="M517.14,290.041a1.205,1.205,0,1,1,1.645.446A1.2,1.2,0,0,1,517.14,290.041Z" transform="translate(-141.348 -85.001)"/><path class="cls-29" d="M510.866,293.638a1.205,1.205,0,1,1,1.645.446A1.207,1.207,0,0,1,510.866,293.638Z" transform="translate(-141.348 -85.001)"/><path class="cls-29" d="M504.592,297.234a1.205,1.205,0,1,1,1.645.447A1.206,1.206,0,0,1,504.592,297.234Z" transform="translate(-141.348 -85.001)"/><path class="cls-29" d="M498.319,300.831a1.205,1.205,0,1,1,1.645.447A1.2,1.2,0,0,1,498.319,300.831Z" transform="translate(-141.348 -85.001)"/><path class="cls-29" d="M492.045,304.428a1.205,1.205,0,1,1,1.645.446A1.205,1.205,0,0,1,492.045,304.428Z" transform="translate(-141.348 -85.001)"/><path class="cls-29" d="M485.771,308.025a1.206,1.206,0,1,1,1.646.446A1.206,1.206,0,0,1,485.771,308.025Z" transform="translate(-141.348 -85.001)"/><path class="cls-29" d="M479.5,311.622a1.205,1.205,0,1,1,1.645.446A1.206,1.206,0,0,1,479.5,311.622Z" transform="translate(-141.348 -85.001)"/><path class="cls-29" d="M473.224,315.218a1.205,1.205,0,1,1,1.645.447A1.206,1.206,0,0,1,473.224,315.218Z" transform="translate(-141.348 -85.001)"/><path class="cls-29" d="M466.951,318.815a1.205,1.205,0,1,1,1.645.446A1.2,1.2,0,0,1,466.951,318.815Z" transform="translate(-141.348 -85.001)"/><path class="cls-29" d="M460.677,322.412a1.205,1.205,0,1,1,1.645.446A1.205,1.205,0,0,1,460.677,322.412Z" transform="translate(-141.348 -85.001)"/><path class="cls-29" d="M454.4,326.009a1.206,1.206,0,1,1,1.646.446A1.207,1.207,0,0,1,454.4,326.009Z" transform="translate(-141.348 -85.001)"/><path class="cls-29" d="M448.13,329.605a1.205,1.205,0,1,1,1.645.447A1.2,1.2,0,0,1,448.13,329.605Z" transform="translate(-141.348 -85.001)"/><path class="cls-29" d="M441.856,333.2a1.205,1.205,0,1,1,1.645.447A1.206,1.206,0,0,1,441.856,333.2Z" transform="translate(-141.348 -85.001)"/><path class="cls-29" d="M435.583,336.8a1.205,1.205,0,1,1,1.645.446A1.2,1.2,0,0,1,435.583,336.8Z" transform="translate(-141.348 -85.001)"/><path class="cls-29" d="M429.309,340.4a1.205,1.205,0,1,1,1.645.446A1.205,1.205,0,0,1,429.309,340.4Z" transform="translate(-141.348 -85.001)"/><path class="cls-29" d="M423.035,343.993a1.206,1.206,0,1,1,1.646.446A1.207,1.207,0,0,1,423.035,343.993Z" transform="translate(-141.348 -85.001)"/><path class="cls-29" d="M416.762,347.589a1.205,1.205,0,1,1,1.645.447A1.2,1.2,0,0,1,416.762,347.589Z" transform="translate(-141.348 -85.001)"/><path class="cls-29" d="M410.488,351.186a1.205,1.205,0,1,1,1.645.446A1.206,1.206,0,0,1,410.488,351.186Z" transform="translate(-141.348 -85.001)"/><path class="cls-29" d="M403.479,351.714a1.3,1.3,0,0,1,1.389-.872,1.284,1.284,0,0,1,.969,1.333,1.2,1.2,0,1,1-2.358-.461Z" transform="translate(-141.348 -85.001)"/><path class="cls-29" d="M397.168,348.2a1.205,1.205,0,1,1,.44,1.647A1.205,1.205,0,0,1,397.168,348.2Z" transform="translate(-141.348 -85.001)"/><path class="cls-29" d="M390.908,344.577a1.205,1.205,0,1,1,.44,1.648A1.206,1.206,0,0,1,390.908,344.577Z" transform="translate(-141.348 -85.001)"/><path class="cls-29" d="M384.648,340.957a1.205,1.205,0,1,1,.44,1.647A1.206,1.206,0,0,1,384.648,340.957Z" transform="translate(-141.348 -85.001)"/><path class="cls-29" d="M378.388,337.337a1.205,1.205,0,1,1,.44,1.647A1.206,1.206,0,0,1,378.388,337.337Z" transform="translate(-141.348 -85.001)"/><path class="cls-29" d="M372.128,333.717a1.2,1.2,0,1,1,.439,1.647A1.2,1.2,0,0,1,372.128,333.717Z" transform="translate(-141.348 -85.001)"/><path class="cls-29" d="M365.867,330.1a1.205,1.205,0,1,1,.44,1.647A1.206,1.206,0,0,1,365.867,330.1Z" transform="translate(-141.348 -85.001)"/><path class="cls-29" d="M359.607,326.476a1.205,1.205,0,1,1,.44,1.647A1.206,1.206,0,0,1,359.607,326.476Z" transform="translate(-141.348 -85.001)"/><ellipse class="cls-30" cx="501.075" cy="241.37" rx="103.827" ry="59.944" transform="translate(-194.64 111.496) rotate(-21.093)"/><ellipse class="cls-31" cx="240.604" cy="288.87" rx="103.827" ry="59.944" transform="translate(-229.185 20.941) rotate(-21.093)"/><path class="cls-7" d="M326.963,364.565,218.82,302.129c-2.578-1.489-2.255-4.088.722-5.807L439.43,169.369c2.977-1.718,7.479-1.905,10.057-.417l108.144,62.437c2.578,1.489,2.255,4.088-.722,5.807L337.02,364.148C334.044,365.867,329.541,366.054,326.963,364.565Z" transform="translate(-141.348 -85.001)"/><path class="cls-32" d="M559.371,208.545l-5.51,3.311L449.487,151.6c-2.578-1.489-7.08-1.3-10.057.416L223,276.966l-5.922-2.648v8.063l0,0a3.042,3.042,0,0,0,1.735,2.394l108.143,62.437c2.578,1.488,7.081,1.3,10.057-.418L556.909,219.839c1.675-.967,2.51-2.213,2.46-3.383h0Z" transform="translate(-141.348 -85.001)"/><path class="cls-9" d="M223,276.966l-5.922-2.648v8.063l0,0a3.042,3.042,0,0,0,1.735,2.394l.229.132a2.474,2.474,0,0,1-.518-1.354l0,0V275.49l5.922,2.648,8.361-4.827c-.385-.45-.775-.895-1.179-1.326Z" transform="translate(-141.348 -85.001)"/><path class="cls-5" d="M553.861,211.856l-51.235-29.581-1.551,1.008,51.39,29.67,5.51-3.311v7.912l0,0a3.1,3.1,0,0,1-.952,2.215c1.6-.957,2.4-2.169,2.348-3.311h0v-7.912Z" transform="translate(-141.348 -85.001)"/><path class="cls-33" d="M326.963,339.23,218.82,276.793c-2.578-1.488-2.255-4.088.722-5.806L439.43,144.034c2.977-1.719,7.479-1.905,10.057-.417l108.144,62.437c2.578,1.488,2.255,4.088-.722,5.806L337.02,338.813C334.044,340.532,329.541,340.718,326.963,339.23Z" transform="translate(-141.348 -85.001)"/><path class="cls-9" d="M328.459,339.23,220.316,276.793c-2.578-1.488-2.255-4.088.722-5.806L440.926,144.034a11.476,11.476,0,0,1,4.988-1.393,11.858,11.858,0,0,0-6.484,1.393L219.542,270.987c-2.977,1.718-3.3,4.318-.722,5.806L326.963,339.23a9.354,9.354,0,0,0,5.069.976A8.364,8.364,0,0,1,328.459,339.23Z" transform="translate(-141.348 -85.001)"/><path class="cls-5" d="M557.631,206.054,449.487,143.617a9.35,9.35,0,0,0-5.063-.976,8.38,8.38,0,0,1,3.617.976l108.144,62.437c2.578,1.488,2.254,4.088-.722,5.806L335.574,338.813a11.457,11.457,0,0,1-4.994,1.393,11.835,11.835,0,0,0,6.44-1.393L556.909,211.86C559.886,210.142,560.209,207.542,557.631,206.054Z" transform="translate(-141.348 -85.001)"/><polygon class="cls-34" points="197.948 250.391 84.119 184.672 294.476 63.222 408.305 128.941 197.948 250.391"/><polygon class="cls-35" points="209.574 227.847 123.167 177.959 282.849 85.767 369.257 135.654 209.574 227.847"/><path class="cls-36" d="M503.317,182.061l-12.273-7.085c-.463-.268-.4-.735.13-1.044h0a2.008,2.008,0,0,1,1.808-.075l12.272,7.086c.463.267.4.734-.13,1.043h0A2.006,2.006,0,0,1,503.317,182.061Z" transform="translate(-141.348 -85.001)"/><path class="cls-37" d="M321.017,191.485s5.278-58.318,16.59-51.763,5.847,40.365,17.58,47.138c11.547,6.667,5.257-96.563,22.693-86.5,12.514,7.225,8.511,85.63,19.678,92.078,12.538,7.238,8.95-22.3,20.062-20.959,6.376.767,9.726,19.945,18.775,24.279s4.733-78.76,19.041-70.5c14.481,8.361,18.664,154.681,18.664,154.681Z" transform="translate(-141.348 -85.001)"/><path class="cls-29" d="M338.111,139.173a2.4,2.4,0,1,1-2.4-2.4A2.4,2.4,0,0,1,338.111,139.173Z" transform="translate(-141.348 -85.001)"/><path class="cls-29" d="M377.986,99.672a2.4,2.4,0,1,1-2.4-2.4A2.4,2.4,0,0,1,377.986,99.672Z" transform="translate(-141.348 -85.001)"/><path class="cls-29" d="M419.7,171.3a2.4,2.4,0,1,1-2.4-2.4A2.4,2.4,0,0,1,419.7,171.3Z" transform="translate(-141.348 -85.001)"/><path class="cls-29" d="M455.954,124.439a2.4,2.4,0,1,1-2.4-2.4A2.4,2.4,0,0,1,455.954,124.439Z" transform="translate(-141.348 -85.001)"/><path class="cls-38" d="M285.906,208.812s3.94-57.932,12.382-53.035,4.363,38.81,13.12,43.866c8.618,4.975,3.923-84.081,16.936-76.569,9.339,5.393,6.352,35.2,14.686,40.009,9.356,5.4,7.738-9.411,14.972-5.235s7.258,23.033,14.012,26.058,3.532-64.453,14.21-58.288c10.807,6.239,13.929,149.229,13.929,149.229Z" transform="translate(-141.348 -85.001)"/><path class="cls-29" d="M300,155.52a2.4,2.4,0,1,1-2.4-2.4A2.4,2.4,0,0,1,300,155.52Z" transform="translate(-141.348 -85.001)"/><path class="cls-29" d="M329.333,122.624a2.4,2.4,0,1,1-2.4-2.4A2.4,2.4,0,0,1,329.333,122.624Z" transform="translate(-141.348 -85.001)"/><path class="cls-29" d="M358.111,157.24a2.4,2.4,0,1,1-2.4-2.4A2.4,2.4,0,0,1,358.111,157.24Z" transform="translate(-141.348 -85.001)"/><path class="cls-29" d="M387.194,125.407a2.4,2.4,0,1,1-2.4-2.4A2.4,2.4,0,0,1,387.194,125.407Z" transform="translate(-141.348 -85.001)"/><polygon class="cls-37" points="190.997 194.312 173.703 184.327 179.752 180.834 197.046 190.819 190.997 194.312"/><polygon class="cls-38" points="201.773 188.175 184.479 178.19 190.529 174.698 207.823 184.682 201.773 188.175"/><path class="cls-39" d="M297.6,216.068a.5.5,0,0,1-.5-.5V155.52a.5.5,0,1,1,1,0v60.048A.5.5,0,0,1,297.6,216.068Z" transform="translate(-141.348 -85.001)"/><path class="cls-39" d="M326.929,233.023a.5.5,0,0,1-.5-.5v-109.9a.5.5,0,0,1,1,0v109.9A.5.5,0,0,1,326.929,233.023Z" transform="translate(-141.348 -85.001)"/><path class="cls-39" d="M355.707,249.656a.5.5,0,0,1-.5-.5V157.24a.5.5,0,0,1,1,0v91.916A.5.5,0,0,1,355.707,249.656Z" transform="translate(-141.348 -85.001)"/><path class="cls-39" d="M384.79,266.344a.5.5,0,0,1-.5-.5V125.618a.5.5,0,0,1,1,0V265.844A.5.5,0,0,1,384.79,266.344Z" transform="translate(-141.348 -85.001)"/><path class="cls-29" d="M262.166,181.114a.5.5,0,0,1-.289-.908l35.384-25.061,29.295-32.854a.512.512,0,0,1,.382-.167.5.5,0,0,1,.376.18l28.411,34.176,28.7-31.411,34.07-39.894a.5.5,0,1,1,.76.65L385.17,125.731l-29.094,31.847a.487.487,0,0,1-.38.162.5.5,0,0,1-.373-.18l-28.408-34.17-28.946,32.462a.5.5,0,0,1-.084.076l-35.43,25.1A.5.5,0,0,1,262.166,181.114Z" transform="translate(-141.348 -85.001)"/><ellipse class="cls-40" cx="555.079" cy="283.378" rx="25.49" ry="41.245" transform="translate(65.331 715.13) rotate(-83.057)"/><ellipse class="cls-41" cx="377.366" cy="191.429" rx="46.73" ry="26.98"/><path class="cls-7" d="M531.172,288.067,518.9,280.991c-1.489-.86-1.3-2.362.417-3.355l11.821-6.837a6.463,6.463,0,0,1,5.812-.24l12.268,7.075c1.489.86,1.3,2.362-.417,3.355l-11.821,6.837A6.464,6.464,0,0,1,531.172,288.067Z" transform="translate(-141.348 -85.001)"/><path class="cls-42" d="M533.627,290.675a6.379,6.379,0,0,1-3.141-.723l-14.552-8.392a2.339,2.339,0,0,1-1.341-1.984,3.13,3.13,0,0,1,1.836-2.509l14.021-8.109a7.993,7.993,0,0,1,7.19-.285l14.552,8.392a2.338,2.338,0,0,1,1.34,1.985,3.126,3.126,0,0,1-1.835,2.508l-14.021,8.109A8.321,8.321,0,0,1,533.627,290.675Zm.871-22.141a7.723,7.723,0,0,0-3.751.938l-14.021,8.109a2.579,2.579,0,0,0-1.539,2,1.78,1.78,0,0,0,1.044,1.471l14.551,8.392a7.354,7.354,0,0,0,6.6-.286l14.021-8.109a2.582,2.582,0,0,0,1.539-1.994,1.783,1.783,0,0,0-1.044-1.472l-14.552-8.392A5.812,5.812,0,0,0,534.5,268.534Z" transform="translate(-141.348 -85.001)"/><path class="cls-43" d="M550.227,265.511H539.838l-2.884-1.657a6.461,6.461,0,0,0-5.812.241l-2.855,1.66H517.9v6.975h0a1.686,1.686,0,0,0,1,1.557l12.268,7.075a6.461,6.461,0,0,0,5.812-.241l11.821-6.837a2.468,2.468,0,0,0,1.415-1.8h.007Z" transform="translate(-141.348 -85.001)"/><path class="cls-44" d="M548.8,273.8l-11.821,6.837a6.461,6.461,0,0,1-5.812.241L518.9,273.806a1.685,1.685,0,0,1-1-1.557h0v.481h0a1.686,1.686,0,0,0,1,1.557l12.268,7.075a6.461,6.461,0,0,0,5.812-.241l11.821-6.837a2.468,2.468,0,0,0,1.415-1.8h.007v-.481h-.007A2.464,2.464,0,0,1,548.8,273.8Z" transform="translate(-141.348 -85.001)"/><path class="cls-9" d="M518.562,273.21h0v-6.974h10.384l2.855-1.66a6.458,6.458,0,0,1,5.811-.241l2.884,1.657h9.734v-.481H539.838l-2.884-1.657a6.461,6.461,0,0,0-5.812.241l-2.855,1.66H517.9v6.975h0a1.686,1.686,0,0,0,1,1.557l.118.068A1.462,1.462,0,0,1,518.562,273.21Z" transform="translate(-141.348 -85.001)"/><path class="cls-45" d="M531.172,274.387,518.9,267.312c-1.489-.86-1.3-2.362.417-3.355l11.821-6.837a6.461,6.461,0,0,1,5.812-.241l12.268,7.075c1.489.86,1.3,2.362-.417,3.355l-11.821,6.837A6.461,6.461,0,0,1,531.172,274.387Z" transform="translate(-141.348 -85.001)"/><path class="cls-5" d="M549.222,263.954l-12.268-7.075a5.417,5.417,0,0,0-2.933-.567,4.861,4.861,0,0,1,2.113.567l12.268,7.075c1.49.86,1.3,2.362-.417,3.355l-11.821,6.837a6.607,6.607,0,0,1-2.879.807,6.839,6.839,0,0,0,3.7-.807l11.821-6.837C550.525,266.316,550.711,264.814,549.222,263.954Z" transform="translate(-141.348 -85.001)"/><path class="cls-9" d="M532.112,274.387l-12.268-7.075c-1.49-.86-1.3-2.362.417-3.355l11.821-6.837a6.6,6.6,0,0,1,2.833-.8,6.847,6.847,0,0,0-3.773.8l-11.821,6.837c-1.72.993-1.906,2.5-.417,3.355l12.268,7.075a5.427,5.427,0,0,0,2.979.563A4.8,4.8,0,0,1,532.112,274.387Z" transform="translate(-141.348 -85.001)"/><path class="cls-5" d="M540.061,269.1a13.255,13.255,0,0,1-12,0c-3.313-1.913-3.313-5.014,0-6.926a13.255,13.255,0,0,1,12,0C543.374,264.083,543.374,267.183,540.061,269.1Z" transform="translate(-141.348 -85.001)"/><path class="cls-14" d="M528.065,264a13.255,13.255,0,0,1,12,0,4.842,4.842,0,0,1,2.335,2.551c.5-1.538-.275-3.187-2.335-4.376a13.255,13.255,0,0,0-12,0c-2.061,1.189-2.838,2.838-2.335,4.375A4.843,4.843,0,0,1,528.065,264Z" transform="translate(-141.348 -85.001)"/><ellipse class="cls-46" cx="507.544" cy="311.532" rx="25.49" ry="41.245" transform="translate(-4.407 692.693) rotate(-83.057)"/><ellipse class="cls-47" cx="329.831" cy="219.584" rx="46.73" ry="26.98"/><path class="cls-7" d="M483.637,316.221l-12.268-7.075c-1.49-.86-1.3-2.363.417-3.356l11.821-6.836a6.461,6.461,0,0,1,5.812-.241l12.268,7.075c1.489.86,1.3,2.362-.418,3.355l-11.821,6.837A6.458,6.458,0,0,1,483.637,316.221Z" transform="translate(-141.348 -85.001)"/><path class="cls-48" d="M486.092,318.829a6.385,6.385,0,0,1-3.142-.723L468.4,309.715a2.337,2.337,0,0,1-1.341-1.985,3.13,3.13,0,0,1,1.836-2.508l14.021-8.11a8,8,0,0,1,7.19-.285l14.552,8.392A2.338,2.338,0,0,1,506,307.2a3.128,3.128,0,0,1-1.836,2.508l-14.02,8.109A8.321,8.321,0,0,1,486.092,318.829Zm.871-22.14a7.717,7.717,0,0,0-3.751.937l-14.021,8.109a2.579,2.579,0,0,0-1.539,2A1.779,1.779,0,0,0,468.7,309.2l14.551,8.392a7.353,7.353,0,0,0,6.6-.285l14.021-8.11A2.58,2.58,0,0,0,505.4,307.2a1.786,1.786,0,0,0-1.044-1.472l-14.552-8.391A5.8,5.8,0,0,0,486.963,296.689Z" transform="translate(-141.348 -85.001)"/><path class="cls-49" d="M502.692,293.665H492.3l-2.883-1.657a6.461,6.461,0,0,0-5.812.241l-2.855,1.66H470.368v6.975h0a1.685,1.685,0,0,0,1,1.557l12.268,7.075a6.458,6.458,0,0,0,5.811-.241l11.821-6.836a2.467,2.467,0,0,0,1.416-1.8h.007Z" transform="translate(-141.348 -85.001)"/><path class="cls-50" d="M501.269,301.958l-11.821,6.836a6.455,6.455,0,0,1-5.811.241l-12.268-7.075a1.685,1.685,0,0,1-1-1.557h0v.481h0a1.685,1.685,0,0,0,1,1.557l12.268,7.075a6.458,6.458,0,0,0,5.811-.241l11.821-6.836a2.467,2.467,0,0,0,1.416-1.8h.007v-.481h-.007A2.467,2.467,0,0,1,501.269,301.958Z" transform="translate(-141.348 -85.001)"/><path class="cls-9" d="M471.027,301.365h0V294.39h10.385l2.855-1.66a6.458,6.458,0,0,1,5.811-.241l2.884,1.657h9.734v-.481H492.3l-2.883-1.657a6.461,6.461,0,0,0-5.812.241l-2.855,1.66H470.368v6.975h0a1.685,1.685,0,0,0,1,1.557l.118.068A1.461,1.461,0,0,1,471.027,301.365Z" transform="translate(-141.348 -85.001)"/><path class="cls-51" d="M483.637,302.541l-12.268-7.075c-1.49-.86-1.3-2.362.417-3.355l11.821-6.837a6.461,6.461,0,0,1,5.812-.241l12.268,7.076c1.489.86,1.3,2.362-.418,3.355L489.448,302.3A6.458,6.458,0,0,1,483.637,302.541Z" transform="translate(-141.348 -85.001)"/><path class="cls-5" d="M501.687,292.109l-12.268-7.076a5.408,5.408,0,0,0-2.933-.566,4.861,4.861,0,0,1,2.113.566l12.268,7.076c1.489.86,1.3,2.362-.417,3.355L488.629,302.3a6.626,6.626,0,0,1-2.879.808,6.834,6.834,0,0,0,3.7-.808l11.821-6.836C502.989,294.471,503.176,292.969,501.687,292.109Z" transform="translate(-141.348 -85.001)"/><path class="cls-9" d="M484.577,302.541l-12.268-7.075c-1.49-.86-1.3-2.362.417-3.355l11.821-6.837a6.611,6.611,0,0,1,2.833-.8,6.862,6.862,0,0,0-3.773.8l-11.821,6.837c-1.72.993-1.907,2.5-.417,3.355l12.268,7.075a5.436,5.436,0,0,0,2.979.564A4.8,4.8,0,0,1,484.577,302.541Z" transform="translate(-141.348 -85.001)"/><path class="cls-5" d="M492.526,297.25a13.255,13.255,0,0,1-12,0c-3.313-1.912-3.313-5.013,0-6.926a13.261,13.261,0,0,1,12,0C495.839,292.237,495.839,295.338,492.526,297.25Z" transform="translate(-141.348 -85.001)"/><path class="cls-14" d="M480.53,292.149a13.255,13.255,0,0,1,12,0,4.846,4.846,0,0,1,2.335,2.551c.5-1.537-.275-3.186-2.335-4.376a13.261,13.261,0,0,0-12,0c-2.061,1.19-2.838,2.838-2.335,4.376A4.842,4.842,0,0,1,480.53,292.149Z" transform="translate(-141.348 -85.001)"/><ellipse class="cls-52" cx="460.009" cy="339.686" rx="25.49" ry="41.245" transform="translate(-74.144 670.257) rotate(-83.057)"/><ellipse class="cls-53" cx="282.296" cy="247.738" rx="46.73" ry="26.98"/><path class="cls-7" d="M436.1,344.375,423.834,337.3c-1.49-.86-1.3-2.362.417-3.355l11.821-6.837a6.458,6.458,0,0,1,5.811-.241l12.268,7.075c1.49.86,1.3,2.363-.417,3.356l-11.821,6.836A6.458,6.458,0,0,1,436.1,344.375Z" transform="translate(-141.348 -85.001)"/><path class="cls-54" d="M438.557,346.983a6.4,6.4,0,0,1-3.142-.722l-14.551-8.392a2.337,2.337,0,0,1-1.341-1.984,3.13,3.13,0,0,1,1.836-2.509l14.021-8.109a8,8,0,0,1,7.19-.286l14.551,8.392a2.337,2.337,0,0,1,1.341,1.985,3.128,3.128,0,0,1-1.836,2.508l-14.02,8.11A8.323,8.323,0,0,1,438.557,346.983Zm.871-22.14a7.717,7.717,0,0,0-3.751.937l-14.021,8.11a2.579,2.579,0,0,0-1.54,2,1.781,1.781,0,0,0,1.044,1.47l14.552,8.392a7.35,7.35,0,0,0,6.6-.285l14.02-8.109a2.581,2.581,0,0,0,1.539-2,1.781,1.781,0,0,0-1.044-1.471L442.273,325.5A5.815,5.815,0,0,0,439.428,324.843Z" transform="translate(-141.348 -85.001)"/><path class="cls-55" d="M455.157,321.82h-10.39l-2.884-1.657a6.455,6.455,0,0,0-5.811.241l-2.855,1.659H422.833v6.975h0a1.683,1.683,0,0,0,1,1.557L436.1,337.67a6.458,6.458,0,0,0,5.811-.24l11.821-6.837a2.463,2.463,0,0,0,1.415-1.8h.008Z" transform="translate(-141.348 -85.001)"/><path class="cls-56" d="M453.734,330.112l-11.821,6.837a6.458,6.458,0,0,1-5.811.241l-12.268-7.076a1.682,1.682,0,0,1-1-1.556h0v.48h0a1.683,1.683,0,0,0,1,1.557L436.1,337.67a6.458,6.458,0,0,0,5.811-.24l11.821-6.837a2.463,2.463,0,0,0,1.415-1.8h.008v-.481h-.008A2.463,2.463,0,0,1,453.734,330.112Z" transform="translate(-141.348 -85.001)"/><path class="cls-9" d="M423.492,329.519h0v-6.975h10.385l2.855-1.66a6.458,6.458,0,0,1,5.811-.241l2.884,1.658h9.734v-.481h-10.39l-2.884-1.657a6.455,6.455,0,0,0-5.811.241l-2.855,1.659H422.833v6.975h0a1.683,1.683,0,0,0,1,1.557l.118.068A1.458,1.458,0,0,1,423.492,329.519Z" transform="translate(-141.348 -85.001)"/><path class="cls-57" d="M436.1,330.7l-12.268-7.075c-1.49-.86-1.3-2.362.417-3.355l11.821-6.836a6.455,6.455,0,0,1,5.811-.241l12.268,7.075c1.49.86,1.3,2.362-.417,3.355l-11.821,6.837A6.455,6.455,0,0,1,436.1,330.7Z" transform="translate(-141.348 -85.001)"/><path class="cls-5" d="M454.151,320.263l-12.268-7.075a5.4,5.4,0,0,0-2.932-.567,4.865,4.865,0,0,1,2.113.567l12.268,7.075c1.489.86,1.3,2.362-.418,3.355l-11.821,6.837a6.634,6.634,0,0,1-2.878.807,6.833,6.833,0,0,0,3.7-.807l11.821-6.837C455.454,322.625,455.641,321.123,454.151,320.263Z" transform="translate(-141.348 -85.001)"/><path class="cls-9" d="M437.042,330.7l-12.268-7.075c-1.49-.86-1.3-2.362.417-3.355l11.821-6.836a6.607,6.607,0,0,1,2.832-.8,6.853,6.853,0,0,0-3.772.8l-11.821,6.836c-1.72.993-1.907,2.5-.417,3.355L436.1,330.7a5.436,5.436,0,0,0,2.979.564A4.8,4.8,0,0,1,437.042,330.7Z" transform="translate(-141.348 -85.001)"/><path class="cls-5" d="M444.991,325.4a13.261,13.261,0,0,1-12,0c-3.313-1.913-3.313-5.014,0-6.927a13.26,13.26,0,0,1,12,0C448.3,320.391,448.3,323.492,444.991,325.4Z" transform="translate(-141.348 -85.001)"/><path class="cls-14" d="M432.994,320.3a13.263,13.263,0,0,1,12,0,4.853,4.853,0,0,1,2.335,2.551c.5-1.537-.275-3.186-2.335-4.375a13.26,13.26,0,0,0-12,0c-2.06,1.19-2.837,2.839-2.335,4.376A4.85,4.85,0,0,1,432.994,320.3Z" transform="translate(-141.348 -85.001)"/></g></g></svg>