<svg xmlns="http://www.w3.org/2000/svg" xmlns:xlink="http://www.w3.org/1999/xlink" viewBox="0 0 309.606 261.89"><defs><style>.cls-1{opacity:0.5;fill:url(#Áåçûìÿííûé_ãðàäèåíò_45);}.cls-1,.cls-21{mix-blend-mode:lighten;}.cls-2{fill:none;}.cls-3{isolation:isolate;}.cls-4{fill:#42e8e0;}.cls-5{fill:url(#Áåçûìÿííûé_ãðàäèåíò_24);}.cls-6{fill:url(#Áåçûìÿííûé_ãðàäèåíò_2);}.cls-11,.cls-26,.cls-7{fill:#24126a;}.cls-17,.cls-7{opacity:0.3;}.cls-8{fill:#fff;}.cls-9{fill:url(#Áåçûìÿííûé_ãðàäèåíò_2-2);}.cls-10{fill:url(#Áåçûìÿííûé_ãðàäèåíò_24-2);}.cls-12,.cls-16{opacity:0.51;}.cls-13,.cls-16{fill:#453c9e;}.cls-14{fill:url(#Áåçûìÿííûé_ãðàäèåíò_24-3);}.cls-15{fill:url(#Áåçûìÿííûé_ãðàäèåíò_2-3);}.cls-18{clip-path:url(#clip-path);}.cls-19{fill:#2fd3c7;}.cls-20{fill:#18b2a3;opacity:0.7;}.cls-21{opacity:0.8;fill:url(#Áåçûìÿííûé_ãðàäèåíò_56);}.cls-22{opacity:0.15;}.cls-23{clip-path:url(#clip-path-2);}.cls-24{fill:url(#Áåçûìÿííûé_ãðàäèåíò_24-4);}.cls-25{fill:url(#Áåçûìÿííûé_ãðàäèåíò_2-4);}.cls-26{opacity:0.4;}.cls-27{fill:#9ffff8;}</style><radialGradient id="Áåçûìÿííûé_ãðàäèåíò_45" cx="402.584" cy="229.492" r="160.992" gradientUnits="userSpaceOnUse"><stop offset="0" stop-color="#42e8e0"/><stop offset="0.106" stop-color="#37b6bf"/><stop offset="0.22" stop-color="#2c87a1"/><stop offset="0.338" stop-color="#235f87"/><stop offset="0.459" stop-color="#1c3f72"/><stop offset="0.582" stop-color="#162561"/><stop offset="0.711" stop-color="#121355"/><stop offset="0.846" stop-color="#10084e"/><stop offset="1" stop-color="#0f054c"/></radialGradient><linearGradient id="Áåçûìÿííûé_ãðàäèåíò_24" x1="503.616" y1="261.858" x2="288.069" y2="261.858" gradientUnits="userSpaceOnUse"><stop offset="0" stop-color="#5761d7"/><stop offset="0.178" stop-color="#5c66d9"/><stop offset="0.388" stop-color="#6a73df"/><stop offset="0.613" stop-color="#8289e8"/><stop offset="0.849" stop-color="#a3a7f5"/><stop offset="1" stop-color="#bcbeff"/></linearGradient><linearGradient id="Áåçûìÿííûé_ãðàäèåíò_2" x1="273.906" y1="256.84" x2="489.453" y2="256.84" gradientTransform="matrix(-1, 0, 0, 1, 709.138, 0)" gradientUnits="userSpaceOnUse"><stop offset="0" stop-color="#c0bff6"/><stop offset="0.294" stop-color="#c5c4f7"/><stop offset="0.64" stop-color="#d3d2f9"/><stop offset="1" stop-color="#e9e9fd"/></linearGradient><linearGradient id="Áåçûìÿííûé_ãðàäèåíò_2-2" x1="181.084" y1="162.288" x2="333.621" y2="162.288" xlink:href="#Áåçûìÿííûé_ãðàäèåíò_2"/><linearGradient id="Áåçûìÿííûé_ãðàäèåíò_24-2" x1="181.085" y1="201.407" x2="207.277" y2="201.407" gradientTransform="matrix(-1, 0, 0, 1, 709.138, 0)" xlink:href="#Áåçûìÿííûé_ãðàäèåíò_24"/><linearGradient id="Áåçûìÿííûé_ãðàäèåíò_24-3" x1="201.52" y1="244.089" x2="416.952" y2="244.089" gradientTransform="matrix(-1, 0, 0, 1, 709.138, 0)" xlink:href="#Áåçûìÿííûé_ãðàäèåíò_24"/><linearGradient id="Áåçûìÿííûé_ãðàäèåíò_2-3" x1="273.906" y1="238.198" x2="489.453" y2="238.198" xlink:href="#Áåçûìÿííûé_ãðàäèåíò_2"/><clipPath id="clip-path" transform="translate(-280.897 -70.427)"><path class="cls-1" d="M293.3,221.5,424,296.96a5.371,5.371,0,0,0,4.834.2l77.994-45.029c1.239-.716,1.083-1.965-.347-2.791l-130.7-75.459a5.374,5.374,0,0,0-4.834-.2l-77.993,45.03C291.714,219.425,291.869,220.674,293.3,221.5Z"/></clipPath><linearGradient id="Áåçûìÿííûé_ãðàäèåíò_56" x1="291.808" y1="235.42" x2="507.971" y2="235.42" xlink:href="#Áåçûìÿííûé_ãðàäèåíò_45"/><clipPath id="clip-path-2" transform="translate(-280.897 -70.427)"><polygon class="cls-2" points="524.417 151.752 391.754 75.194 375.086 174.295 507.663 250.804 524.417 151.752"/></clipPath><linearGradient id="Áåçûìÿííûé_ãðàäèåíò_24-4" x1="118.68" y1="196.676" x2="334.112" y2="196.676" gradientTransform="matrix(-1, 0, 0, 1, 709.138, 0)" xlink:href="#Áåçûìÿííûé_ãðàäèåíò_24"/><linearGradient id="Áåçûìÿííûé_ãðàäèåíò_2-4" x1="191.066" y1="190.786" x2="406.613" y2="190.786" xlink:href="#Áåçûìÿííûé_ãðàäèåíò_2"/></defs><title>security</title><g class="cls-3"><g id="Ñëîé_1" data-name="Ñëîé 1"><path class="cls-4" d="M426.735,332.317a5.846,5.846,0,0,1-2.847-.708l-130.7-75.46a2.207,2.207,0,0,1-1.294-1.77,1.654,1.654,0,0,1,.948-1.405l77.993-45.03a5.624,5.624,0,0,1,5.056.2l130.7,75.46a2.209,2.209,0,0,1,1.3,1.771,1.654,1.654,0,0,1-.949,1.4L428.945,331.81A4.522,4.522,0,0,1,426.735,332.317ZM293.411,255.765l130.7,75.46a5.141,5.141,0,0,0,4.611.2l77.993-45.03a1.235,1.235,0,0,0,.726-1.02,1.8,1.8,0,0,0-1.073-1.386l-130.7-75.46a5.135,5.135,0,0,0-4.611-.2l-77.993,45.029a1.238,1.238,0,0,0-.726,1.021,1.8,1.8,0,0,0,1.073,1.386Z" transform="translate(-280.897 -70.427)"/><path class="cls-5" d="M507.663,272.328l-7.2-1.035L375.78,199.306a5.374,5.374,0,0,0-4.834-.2l-74.259,42.874-4.571-.657v6.066l.014,0a1.978,1.978,0,0,0,1.17,1.561L424,324.41a5.374,5.374,0,0,0,4.834.2l77.994-45.03a1.412,1.412,0,0,0,.822-1.234l.014,0Z" transform="translate(-280.897 -70.427)"/><path class="cls-6" d="M293.3,242.921,424,318.38a5.374,5.374,0,0,0,4.834.2l77.994-45.03c1.239-.715,1.083-1.965-.347-2.791L375.78,195.3a5.374,5.374,0,0,0-4.834-.2l-77.993,45.03C291.714,240.845,291.869,242.1,293.3,242.921Z" transform="translate(-280.897 -70.427)"/><path class="cls-7" d="M304.618,244.4l116.821,67.447a4.805,4.805,0,0,0,4.321.179l69.712-40.248c1.107-.64.968-1.757-.31-2.5L378.34,201.835a4.805,4.805,0,0,0-4.321-.179L304.307,241.9C303.2,242.544,303.339,243.66,304.618,244.4Z" transform="translate(-280.897 -70.427)"/><path class="cls-8" d="M506.827,272.9l-77.994,45.03a5.374,5.374,0,0,1-4.834-.2L293.3,242.265a2.248,2.248,0,0,1-1.121-1.251c-.2.637.179,1.363,1.121,1.907L424,318.38a5.374,5.374,0,0,0,4.834.2l77.994-45.03a1.324,1.324,0,0,0,.773-1.54A1.581,1.581,0,0,1,506.827,272.9Z" transform="translate(-280.897 -70.427)"/><path class="cls-9" d="M375.545,171.775l16.522-98.021-1.329-.56,2-1.144,0,.011a1.435,1.435,0,0,1,1.538.107L526.312,148.4a3.728,3.728,0,0,1,1.714,3.355l-16.653,98.8a1.238,1.238,0,0,1-.695,1.006h0l-1.954,1.129-.335-1.824.111.034L377.259,175.129A3.726,3.726,0,0,1,375.545,171.775Z" transform="translate(-280.897 -70.427)"/><path class="cls-10" d="M525.576,151.083l2.171-.961a2.982,2.982,0,0,1,.279,1.635l-16.653,98.8a1.238,1.238,0,0,1-.695,1.006h0l-1.954,1.129-.335-1.824.111.034-6.641-3.834Z" transform="translate(-280.897 -70.427)"/><path class="cls-11" d="M375.188,176.317,507.23,252.552c1.02.589,1.893.249,2.072-.806l16.653-98.8a3.727,3.727,0,0,0-1.715-3.354L392.2,73.356c-1.02-.589-1.893-.249-2.072.807l-16.653,98.8A3.727,3.727,0,0,0,375.188,176.317Z" transform="translate(-280.897 -70.427)"/><g class="cls-12"><polygon class="cls-13" points="110.857 4.767 243.519 81.325 226.766 180.377 94.188 103.868 110.857 4.767"/></g><path class="cls-14" d="M292.186,223.093l7.206,3.764,72.256-41.718a5.243,5.243,0,0,1,4.717.2l124.623,71.951c1.192-.667,6.63-3.282,6.63-3.282l-2.638,4.287-.011-.008a1.569,1.569,0,0,1-.737.818l-76.1,43.937a5.243,5.243,0,0,1-4.717-.2L295.886,229.214a2.284,2.284,0,0,1-1.07-1.138l-.01.007Z" transform="translate(-280.897 -70.427)"/><path class="cls-15" d="M293.3,224.278,424,299.738a5.374,5.374,0,0,0,4.834.2l77.994-45.029c1.239-.716,1.083-1.965-.347-2.791l-130.7-75.46a5.374,5.374,0,0,0-4.834-.2l-77.993,45.029C291.714,222.2,291.869,223.452,293.3,224.278Z" transform="translate(-280.897 -70.427)"/><path class="cls-11" d="M293.3,224.278,424,299.738a5.374,5.374,0,0,0,4.834.2l77.994-45.029c1.239-.716,1.083-1.965-.347-2.791l-130.7-75.46a5.374,5.374,0,0,0-4.834-.2l-77.993,45.029C291.714,222.2,291.869,223.452,293.3,224.278Z" transform="translate(-280.897 -70.427)"/><path class="cls-16" d="M293.3,224.278,424,299.738a5.374,5.374,0,0,0,4.834.2l77.994-45.029c1.239-.716,1.083-1.965-.347-2.791l-130.7-75.46a5.374,5.374,0,0,0-4.834-.2l-77.993,45.029C291.714,222.2,291.869,223.452,293.3,224.278Z" transform="translate(-280.897 -70.427)"/><g class="cls-17"><path class="cls-1" d="M293.3,221.5,424,296.96a5.371,5.371,0,0,0,4.834.2l77.994-45.029c1.239-.716,1.083-1.965-.347-2.791l-130.7-75.459a5.374,5.374,0,0,0-4.834-.2l-77.993,45.03C291.714,219.425,291.869,220.674,293.3,221.5Z" transform="translate(-280.897 -70.427)"/><g class="cls-18"><polygon class="cls-4" points="122.96 129.164 109.367 121.316 109.367 137.011 122.96 144.859 136.553 137.011 136.553 121.316 122.96 129.164"/><polygon class="cls-4" points="122.96 144.859 109.367 137.012 109.367 121.316 122.96 129.164 122.96 144.859"/><polygon class="cls-19" points="136.553 137.012 122.96 144.859 122.96 129.164 136.553 121.316 136.553 137.012"/><polygon class="cls-4" points="122.96 129.164 109.367 121.316 122.96 113.469 136.553 121.316 122.96 129.164"/><polygon class="cls-8" points="122.96 129.164 109.957 121.657 109.367 121.997 122.96 129.845 136.553 121.997 135.963 121.657 122.96 129.164"/><polygon class="cls-4" points="140.617 139.238 127.024 131.39 127.024 147.086 140.617 154.934 154.209 147.086 154.209 131.39 140.617 139.238"/><polygon class="cls-4" points="140.617 154.934 127.024 147.086 127.024 131.39 140.617 139.238 140.617 154.934"/><polygon class="cls-19" points="154.209 147.086 140.617 154.934 140.617 139.238 154.209 131.39 154.209 147.086"/><polygon class="cls-4" points="140.617 139.238 127.024 131.39 140.616 123.543 154.209 131.391 140.617 139.238"/><polygon class="cls-8" points="140.617 139.238 127.613 131.731 127.024 132.071 140.617 139.919 154.209 132.071 153.62 131.731 140.617 139.238"/><polygon class="cls-4" points="158.273 149.313 144.68 141.465 144.68 157.16 158.273 165.008 171.866 157.16 171.866 141.465 158.273 149.313"/><polygon class="cls-4" points="158.273 165.008 144.68 157.16 144.68 141.465 158.273 149.313 158.273 165.008"/><polygon class="cls-19" points="171.866 157.16 158.273 165.008 158.273 149.313 171.866 141.465 171.866 157.16"/><polygon class="cls-4" points="158.273 149.313 144.68 141.465 158.273 133.617 171.865 141.465 158.273 149.313"/><polygon class="cls-8" points="158.273 149.313 145.269 141.805 144.68 142.145 158.273 149.993 171.865 142.146 171.866 141.465 158.273 149.313"/><polygon class="cls-4" points="105.304 139.919 91.711 132.071 91.711 147.767 105.304 155.614 118.897 147.767 118.897 132.071 105.304 139.919"/><polygon class="cls-4" points="105.304 155.614 91.711 147.767 91.711 132.071 105.304 139.919 105.304 155.614"/><polygon class="cls-19" points="118.897 147.767 105.304 155.614 105.304 139.919 118.897 132.071 118.897 147.767"/><polygon class="cls-4" points="105.304 139.919 91.711 132.071 105.304 124.224 118.896 132.072 105.304 139.919"/><polygon class="cls-8" points="105.304 139.919 92.301 132.412 91.711 132.752 105.304 140.6 118.896 132.752 118.307 132.412 105.304 139.919"/><polygon class="cls-4" points="122.96 149.993 109.367 142.146 109.367 157.841 122.96 165.689 136.553 157.841 136.553 142.146 122.96 149.993"/><polygon class="cls-4" points="122.96 165.689 109.367 157.841 109.367 142.146 122.96 149.993 122.96 165.689"/><polygon class="cls-19" points="136.553 157.841 122.96 165.689 122.96 149.993 136.553 142.146 136.553 157.841"/><polygon class="cls-4" points="122.96 149.993 109.367 142.146 122.96 134.298 136.553 142.146 122.96 149.993"/><polygon class="cls-8" points="122.96 149.993 109.957 142.486 109.367 142.826 122.96 150.674 136.553 142.827 135.963 142.486 122.96 149.993"/><polygon class="cls-4" points="140.617 160.068 127.024 152.22 127.024 167.915 140.617 175.763 154.209 167.915 154.209 152.22 140.617 160.068"/><polygon class="cls-4" points="140.617 175.763 127.024 167.915 127.024 152.22 140.617 160.068 140.617 175.763"/><polygon class="cls-19" points="154.21 167.915 140.617 175.763 140.617 160.068 154.21 152.22 154.21 167.915"/><polygon class="cls-4" points="140.617 160.068 127.024 152.22 140.616 144.372 154.209 152.22 140.617 160.068"/><polygon class="cls-8" points="140.617 160.068 127.613 152.56 127.024 152.9 140.617 160.748 154.209 152.901 154.209 152.22 140.617 160.068"/><polygon class="cls-4" points="87.648 150.674 74.055 142.826 74.055 158.522 87.648 166.37 101.241 158.522 101.241 142.826 87.648 150.674"/><polygon class="cls-4" points="87.648 166.37 74.055 158.522 74.055 142.826 87.648 150.674 87.648 166.37"/><polygon class="cls-19" points="101.241 158.522 87.648 166.37 87.648 150.674 101.241 142.826 101.241 158.522"/><polygon class="cls-4" points="87.648 150.674 74.055 142.826 87.647 134.979 101.24 142.827 87.648 150.674"/><polygon class="cls-8" points="87.648 150.674 74.055 142.826 74.055 143.507 87.648 151.355 101.24 143.507 100.651 143.167 87.648 150.674"/><polygon class="cls-4" points="105.304 160.749 91.711 152.901 91.711 168.596 105.304 176.444 118.897 168.596 118.897 152.901 105.304 160.749"/><polygon class="cls-4" points="105.304 176.444 91.711 168.596 91.711 152.901 105.304 160.749 105.304 176.444"/><polygon class="cls-19" points="118.897 168.596 105.304 176.444 105.304 160.749 118.897 152.901 118.897 168.596"/><polygon class="cls-4" points="105.304 160.749 91.711 152.901 105.304 145.053 118.896 152.901 105.304 160.749"/><polygon class="cls-8" points="105.304 160.749 91.711 152.901 91.711 153.581 105.304 161.429 118.896 153.582 118.307 153.241 105.304 160.749"/><polygon class="cls-4" points="122.96 170.823 109.367 162.975 109.367 178.67 122.96 186.518 136.553 178.67 136.553 162.975 122.96 170.823"/><polygon class="cls-4" points="122.96 186.518 109.367 178.67 109.367 162.975 122.96 170.823 122.96 186.518"/><polygon class="cls-19" points="136.553 178.67 122.96 186.518 122.96 170.823 136.553 162.975 136.553 178.67"/><polygon class="cls-4" points="122.96 170.823 109.367 162.975 122.96 155.127 136.553 162.975 122.96 170.823"/><polygon class="cls-8" points="122.96 170.823 109.367 162.975 109.367 163.656 122.96 171.504 136.553 163.656 136.553 162.975 122.96 170.823"/><polygon class="cls-4" points="122.96 108.335 109.367 100.487 109.367 116.182 122.96 124.03 136.553 116.182 136.553 100.487 122.96 108.335"/><polygon class="cls-4" points="122.96 124.03 109.367 116.182 109.367 100.487 122.96 108.335 122.96 124.03"/><polygon class="cls-19" points="136.553 116.182 122.96 124.03 122.96 108.335 136.553 100.487 136.553 116.182"/><polygon class="cls-4" points="122.96 108.335 109.367 100.487 122.96 92.639 136.553 100.487 122.96 108.335"/><polygon class="cls-8" points="122.96 108.335 109.957 100.827 109.367 101.168 122.96 109.016 136.553 101.168 135.963 100.828 122.96 108.335"/><polygon class="cls-20" points="122.96 168.267 113.688 162.913 122.96 157.56 132.232 162.913 122.96 168.267"/><polygon class="cls-20" points="105.304 158.192 96.032 152.839 105.304 147.486 114.576 152.839 105.304 158.192"/><polygon class="cls-20" points="140.617 157.512 131.344 152.158 140.616 146.805 149.889 152.158 140.617 157.512"/><polygon class="cls-20" points="158.307 146.88 149.034 141.526 158.306 136.173 167.579 141.526 158.307 146.88"/><polygon class="cls-20" points="87.648 148.118 78.375 142.765 87.647 137.411 96.92 142.765 87.648 148.118"/><polygon class="cls-4" points="140.617 118.409 127.024 110.561 127.024 126.257 140.617 134.104 154.209 126.257 154.209 110.561 140.617 118.409"/><polygon class="cls-4" points="140.617 134.104 127.024 126.257 127.024 110.561 140.617 118.409 140.617 134.104"/><polygon class="cls-19" points="154.209 126.257 140.617 134.104 140.617 118.409 154.209 110.561 154.209 126.257"/><polygon class="cls-4" points="140.617 118.409 127.024 110.561 140.616 102.714 154.209 110.561 140.617 118.409"/><polygon class="cls-8" points="140.617 118.409 127.613 110.902 127.024 111.242 140.617 119.09 154.209 111.242 153.62 110.902 140.617 118.409"/><polygon class="cls-4" points="158.273 128.483 144.68 120.635 144.68 136.331 158.273 144.179 171.866 136.331 171.866 120.635 158.273 128.483"/><polygon class="cls-4" points="158.273 144.179 144.68 136.331 144.68 120.635 158.273 128.483 158.273 144.179"/><polygon class="cls-19" points="171.866 136.331 158.273 144.179 158.273 128.483 171.866 120.635 171.866 136.331"/><polygon class="cls-4" points="158.273 128.483 144.68 120.635 158.273 112.788 171.865 120.636 158.273 128.483"/><polygon class="cls-8" points="158.273 128.483 145.269 120.976 144.68 121.316 158.273 129.164 171.865 121.316 171.866 120.635 158.273 128.483"/><polygon class="cls-4" points="105.304 119.09 91.711 111.242 91.711 126.937 105.304 134.785 118.897 126.937 118.897 111.242 105.304 119.09"/><polygon class="cls-4" points="105.304 134.785 91.711 126.937 91.711 111.242 105.304 119.09 105.304 134.785"/><polygon class="cls-19" points="118.897 126.937 105.304 134.785 105.304 119.09 118.897 111.242 118.897 126.937"/><polygon class="cls-4" points="105.304 119.09 91.711 111.242 105.304 103.394 118.896 111.242 105.304 119.09"/><polygon class="cls-8" points="105.304 119.09 92.301 111.582 91.711 111.923 105.304 119.771 118.896 111.923 118.307 111.583 105.304 119.09"/><polygon class="cls-4" points="122.96 129.164 109.367 121.316 109.367 137.012 122.96 144.859 136.553 137.012 136.553 121.316 122.96 129.164"/><polygon class="cls-4" points="122.96 144.86 109.367 137.012 109.367 121.316 122.96 129.164 122.96 144.86"/><polygon class="cls-19" points="136.553 137.012 122.96 144.86 122.96 129.164 136.553 121.316 136.553 137.012"/><polygon class="cls-4" points="122.96 129.164 109.367 121.316 122.96 113.469 136.553 121.317 122.96 129.164"/><polygon class="cls-8" points="122.96 129.164 109.957 121.657 109.367 121.997 122.96 129.845 136.553 121.997 135.963 121.657 122.96 129.164"/><polygon class="cls-4" points="140.617 139.239 127.024 131.391 127.024 147.086 140.617 154.934 154.209 147.086 154.209 131.391 140.617 139.239"/><polygon class="cls-4" points="140.617 154.934 127.024 147.086 127.024 131.391 140.617 139.238 140.617 154.934"/><polygon class="cls-19" points="154.21 147.086 140.617 154.934 140.617 139.238 154.21 131.391 154.21 147.086"/><polygon class="cls-4" points="140.617 139.238 127.024 131.391 140.616 123.543 154.209 131.391 140.617 139.238"/><polygon class="cls-8" points="140.617 139.239 127.613 131.731 127.024 132.071 140.617 139.919 154.209 132.072 154.209 131.391 140.617 139.239"/><polygon class="cls-4" points="87.648 129.845 74.055 121.997 74.055 137.692 87.648 145.54 101.241 137.692 101.241 121.997 87.648 129.845"/><polygon class="cls-4" points="87.648 145.54 74.055 137.693 74.055 121.997 87.648 129.845 87.648 145.54"/><polygon class="cls-19" points="101.241 137.693 87.648 145.54 87.648 129.845 101.241 121.997 101.241 137.693"/><polygon class="cls-4" points="87.648 129.845 74.055 121.997 87.647 114.15 101.24 121.997 87.648 129.845"/><polygon class="cls-8" points="87.648 129.845 74.644 122.338 74.055 122.678 87.648 130.526 101.24 122.678 100.651 122.338 87.648 129.845"/><polygon class="cls-4" points="105.304 139.919 91.711 132.071 91.711 147.767 105.304 155.615 118.897 147.767 118.897 132.071 105.304 139.919"/><polygon class="cls-4" points="105.304 155.615 91.711 147.767 91.711 132.071 105.304 139.919 105.304 155.615"/><polygon class="cls-19" points="118.897 147.767 105.304 155.615 105.304 139.919 118.897 132.071 118.897 147.767"/><polygon class="cls-4" points="105.304 139.919 91.711 132.071 105.304 124.224 118.896 132.072 105.304 139.919"/><polygon class="cls-8" points="105.304 139.919 91.711 132.071 91.711 132.752 105.304 140.6 118.896 132.752 118.307 132.412 105.304 139.919"/><polygon class="cls-4" points="122.96 149.994 109.367 142.146 109.367 157.841 122.96 165.689 136.553 157.841 136.553 142.146 122.96 149.994"/><polygon class="cls-4" points="122.96 165.689 109.367 157.841 109.367 142.146 122.96 149.994 122.96 165.689"/><polygon class="cls-19" points="136.553 157.841 122.96 165.689 122.96 149.994 136.553 142.146 136.553 157.841"/><polygon class="cls-4" points="122.96 149.994 109.367 142.146 122.96 134.298 136.553 142.146 122.96 149.994"/><polygon class="cls-8" points="122.96 149.994 109.367 142.146 109.367 142.826 122.96 150.674 136.553 142.827 136.553 142.146 122.96 149.994"/><polygon class="cls-20" points="158.307 126.143 149.034 120.789 158.306 115.436 167.579 120.789 158.307 126.143"/><polygon class="cls-20" points="87.648 127.381 78.375 122.028 87.647 116.674 96.92 122.028 87.648 127.381"/><polygon class="cls-4" points="122.96 87.506 109.367 79.658 109.367 95.353 122.96 103.201 136.553 95.353 136.553 79.658 122.96 87.506"/><polygon class="cls-4" points="122.96 103.201 109.367 95.353 109.367 79.658 122.96 87.506 122.96 103.201"/><polygon class="cls-19" points="136.553 95.353 122.96 103.201 122.96 87.506 136.553 79.658 136.553 95.353"/><polygon class="cls-4" points="122.96 87.506 109.367 79.658 122.96 71.81 136.553 79.658 122.96 87.506"/><polygon class="cls-8" points="122.96 87.506 109.367 79.658 109.367 80.338 122.96 88.186 136.553 80.339 136.553 79.658 122.96 87.506"/><polygon class="cls-4" points="140.617 97.58 127.024 89.732 127.024 105.427 140.617 113.275 154.209 105.427 154.209 89.732 140.617 97.58"/><polygon class="cls-4" points="140.617 113.275 127.024 105.427 127.024 89.732 140.617 97.58 140.617 113.275"/><polygon class="cls-19" points="154.209 105.427 140.617 113.275 140.617 97.58 154.209 89.732 154.209 105.427"/><polygon class="cls-4" points="140.617 97.58 127.024 89.732 140.616 81.884 154.209 89.732 140.617 97.58"/><polygon class="cls-8" points="140.617 97.58 127.024 89.732 127.024 90.413 140.617 98.261 154.209 90.413 154.209 89.732 140.617 97.58"/><polygon class="cls-4" points="158.273 107.654 144.68 99.806 144.68 115.502 158.273 123.349 171.866 115.502 171.866 99.806 158.273 107.654"/><polygon class="cls-4" points="158.273 123.349 144.68 115.502 144.68 99.806 158.273 107.654 158.273 123.349"/><polygon class="cls-19" points="171.866 115.502 158.273 123.349 158.273 107.654 171.866 99.806 171.866 115.502"/><polygon class="cls-4" points="158.273 107.654 144.68 99.806 158.273 91.959 171.865 99.807 158.273 107.654"/><polygon class="cls-8" points="158.273 107.654 144.68 99.806 144.68 100.487 158.273 108.335 171.865 100.487 171.866 99.806 158.273 107.654"/><polygon class="cls-4" points="105.304 98.261 91.711 90.413 91.711 106.108 105.304 113.956 118.897 106.108 118.897 90.413 105.304 98.261"/><polygon class="cls-4" points="105.304 113.956 91.711 106.108 91.711 90.413 105.304 98.261 105.304 113.956"/><polygon class="cls-19" points="118.897 106.108 105.304 113.956 105.304 98.261 118.897 90.413 118.897 106.108"/><polygon class="cls-4" points="105.304 98.261 91.711 90.413 105.304 82.565 118.896 90.413 105.304 98.261"/><polygon class="cls-8" points="105.304 98.261 91.711 90.413 91.711 91.094 105.304 98.942 118.896 91.094 118.897 90.413 105.304 98.261"/><polygon class="cls-4" points="87.648 109.016 74.055 101.168 74.055 116.863 87.648 124.711 101.241 116.863 101.241 101.168 87.648 109.016"/><polygon class="cls-4" points="87.648 124.711 74.055 116.863 74.055 101.168 87.648 109.016 87.648 124.711"/><polygon class="cls-19" points="101.241 116.863 87.648 124.711 87.648 109.016 101.241 101.168 101.241 116.863"/><polygon class="cls-4" points="87.648 109.016 74.055 101.168 87.647 93.32 101.24 101.168 87.648 109.016"/><polygon class="cls-8" points="87.648 109.016 74.055 101.168 74.055 101.849 87.648 109.697 101.24 101.849 101.241 101.168 87.648 109.016"/><polygon class="cls-4" points="122.96 193.86 109.367 186.012 109.367 201.707 122.96 209.555 136.553 201.707 136.553 186.012 122.96 193.86"/><polygon class="cls-4" points="122.96 209.555 109.367 201.707 109.367 186.012 122.96 193.86 122.96 209.555"/><polygon class="cls-19" points="136.553 201.707 122.96 209.555 122.96 193.86 136.553 186.012 136.553 201.707"/><polygon class="cls-4" points="122.96 193.86 109.367 186.012 122.96 178.164 136.553 186.012 122.96 193.86"/><polygon class="cls-8" points="122.96 193.86 109.957 186.352 109.367 186.693 122.96 194.541 136.553 186.693 135.963 186.352 122.96 193.86"/><polygon class="cls-4" points="140.617 203.934 127.024 196.086 127.024 211.781 140.617 219.629 154.209 211.781 154.209 196.086 140.617 203.934"/><polygon class="cls-4" points="140.617 219.629 127.024 211.781 127.024 196.086 140.617 203.934 140.617 219.629"/><polygon class="cls-19" points="154.209 211.781 140.617 219.629 140.617 203.934 154.209 196.086 154.209 211.781"/><polygon class="cls-4" points="140.617 203.934 127.024 196.086 140.616 188.238 154.209 196.086 140.617 203.934"/><polygon class="cls-8" points="140.617 203.934 127.613 196.426 127.024 196.767 140.617 204.615 154.209 196.767 153.62 196.427 140.617 203.934"/><polygon class="cls-4" points="158.273 214.008 144.68 206.16 144.68 221.856 158.273 229.703 171.866 221.856 171.866 206.16 158.273 214.008"/><polygon class="cls-4" points="158.273 229.704 144.68 221.856 144.68 206.16 158.273 214.008 158.273 229.704"/><polygon class="cls-19" points="171.866 221.856 158.273 229.704 158.273 214.008 171.866 206.16 171.866 221.856"/><polygon class="cls-4" points="158.273 214.008 144.68 206.16 158.273 198.313 171.865 206.161 158.273 214.008"/><polygon class="cls-8" points="158.273 214.008 145.269 206.501 144.68 206.841 158.273 214.689 171.865 206.841 171.866 206.16 158.273 214.008"/><polygon class="cls-4" points="105.304 204.615 91.711 196.767 91.711 212.462 105.304 220.31 118.897 212.462 118.897 196.767 105.304 204.615"/><polygon class="cls-4" points="105.304 220.31 91.711 212.462 91.711 196.767 105.304 204.615 105.304 220.31"/><polygon class="cls-19" points="118.897 212.462 105.304 220.31 105.304 204.615 118.897 196.767 118.897 212.462"/><polygon class="cls-4" points="105.304 204.615 91.711 196.767 105.304 188.919 118.896 196.767 105.304 204.615"/><polygon class="cls-8" points="105.304 204.615 92.301 197.107 91.711 197.448 105.304 205.296 118.896 197.448 118.307 197.108 105.304 204.615"/><polygon class="cls-4" points="122.96 214.689 109.367 206.841 109.367 222.536 122.96 230.384 136.553 222.536 136.553 206.841 122.96 214.689"/><polygon class="cls-4" points="122.96 230.384 109.367 222.537 109.367 206.841 122.96 214.689 122.96 230.384"/><polygon class="cls-19" points="136.553 222.537 122.96 230.384 122.96 214.689 136.553 206.841 136.553 222.537"/><polygon class="cls-4" points="122.96 214.689 109.367 206.841 122.96 198.994 136.553 206.841 122.96 214.689"/><polygon class="cls-8" points="122.96 214.689 109.957 207.182 109.367 207.522 122.96 215.37 136.553 207.522 135.963 207.182 122.96 214.689"/><polygon class="cls-4" points="140.617 224.763 127.024 216.915 127.024 232.611 140.617 240.459 154.209 232.611 154.209 216.915 140.617 224.763"/><polygon class="cls-4" points="140.617 240.459 127.024 232.611 127.024 216.915 140.617 224.763 140.617 240.459"/><polygon class="cls-19" points="154.21 232.611 140.617 240.459 140.617 224.763 154.21 216.915 154.21 232.611"/><polygon class="cls-4" points="140.617 224.763 127.024 216.915 140.616 209.068 154.209 216.916 140.617 224.763"/><polygon class="cls-8" points="140.617 224.763 127.613 217.256 127.024 217.596 140.617 225.444 154.209 217.596 154.209 216.915 140.617 224.763"/><polygon class="cls-4" points="87.648 215.37 74.055 207.522 74.055 223.217 87.648 231.065 101.241 223.217 101.241 207.522 87.648 215.37"/><polygon class="cls-4" points="87.648 231.065 74.055 223.217 74.055 207.522 87.648 215.37 87.648 231.065"/><polygon class="cls-19" points="101.241 223.217 87.648 231.065 87.648 215.37 101.241 207.522 101.241 223.217"/><polygon class="cls-4" points="87.648 215.37 74.055 207.522 87.647 199.674 101.24 207.522 87.648 215.37"/><polygon class="cls-8" points="87.648 215.37 74.055 207.522 74.055 208.203 87.648 216.051 101.24 208.203 100.651 207.863 87.648 215.37"/><polygon class="cls-4" points="105.304 225.444 91.711 217.596 91.711 233.292 105.304 241.139 118.897 233.292 118.897 217.596 105.304 225.444"/><polygon class="cls-4" points="105.304 241.139 91.711 233.292 91.711 217.596 105.304 225.444 105.304 241.139"/><polygon class="cls-19" points="118.897 233.292 105.304 241.139 105.304 225.444 118.897 217.596 118.897 233.292"/><polygon class="cls-4" points="105.304 225.444 91.711 217.596 105.304 209.749 118.896 217.597 105.304 225.444"/><polygon class="cls-8" points="105.304 225.444 91.711 217.596 91.711 218.277 105.304 226.125 118.896 218.277 118.307 217.937 105.304 225.444"/><polygon class="cls-4" points="122.96 235.518 109.367 227.671 109.367 243.366 122.96 251.214 136.553 243.366 136.553 227.671 122.96 235.518"/><polygon class="cls-4" points="122.96 251.214 109.367 243.366 109.367 227.671 122.96 235.518 122.96 251.214"/><polygon class="cls-19" points="136.553 243.366 122.96 251.214 122.96 235.518 136.553 227.671 136.553 243.366"/><polygon class="cls-4" points="122.96 235.518 109.367 227.671 122.96 219.823 136.553 227.671 122.96 235.518"/><polygon class="cls-8" points="122.96 235.518 109.367 227.67 109.367 228.351 122.96 236.199 136.553 228.351 136.553 227.671 122.96 235.518"/><polygon class="cls-4" points="122.96 173.031 109.367 165.183 109.367 180.878 122.96 188.726 136.553 180.878 136.553 165.183 122.96 173.031"/><polygon class="cls-4" points="122.96 188.726 109.367 180.878 109.367 165.183 122.96 173.031 122.96 188.726"/><polygon class="cls-19" points="136.553 180.878 122.96 188.726 122.96 173.031 136.553 165.183 136.553 180.878"/><polygon class="cls-4" points="122.96 173.031 109.367 165.183 122.96 157.335 136.553 165.183 122.96 173.031"/><polygon class="cls-8" points="122.96 173.031 109.957 165.523 109.367 165.863 122.96 173.711 136.553 165.864 135.963 165.523 122.96 173.031"/><polygon class="cls-20" points="122.96 232.962 113.688 227.609 122.96 222.255 132.232 227.609 122.96 232.962"/><polygon class="cls-20" points="105.304 222.888 96.032 217.535 105.304 212.181 114.576 217.535 105.304 222.888"/><polygon class="cls-20" points="140.617 222.207 131.344 216.854 140.616 211.5 149.889 216.854 140.617 222.207"/><polygon class="cls-20" points="158.307 211.575 149.034 206.222 158.306 200.869 167.579 206.222 158.307 211.575"/><polygon class="cls-20" points="87.648 212.814 78.375 207.46 87.647 202.107 96.92 207.46 87.648 212.814"/><polygon class="cls-4" points="140.617 183.105 127.024 175.257 127.024 190.952 140.617 198.8 154.209 190.952 154.209 175.257 140.617 183.105"/><polygon class="cls-4" points="140.617 198.8 127.024 190.952 127.024 175.257 140.617 183.105 140.617 198.8"/><polygon class="cls-19" points="154.209 190.952 140.617 198.8 140.617 183.105 154.209 175.257 154.209 190.952"/><polygon class="cls-4" points="140.617 183.105 127.024 175.257 140.616 167.409 154.209 175.257 140.617 183.105"/><polygon class="cls-8" points="140.617 183.105 127.613 175.597 127.024 175.938 140.617 183.786 154.209 175.938 153.62 175.597 140.617 183.105"/><polygon class="cls-4" points="158.273 193.179 144.68 185.331 144.68 201.026 158.273 208.874 171.866 201.026 171.866 185.331 158.273 193.179"/><polygon class="cls-4" points="158.273 208.874 144.68 201.026 144.68 185.331 158.273 193.179 158.273 208.874"/><polygon class="cls-19" points="171.866 201.026 158.273 208.874 158.273 193.179 171.866 185.331 171.866 201.026"/><polygon class="cls-4" points="158.273 193.179 144.68 185.331 158.273 177.484 171.865 185.331 158.273 193.179"/><polygon class="cls-8" points="158.273 193.179 145.269 185.671 144.68 186.012 158.273 193.86 171.865 186.012 171.866 185.331 158.273 193.179"/><polygon class="cls-4" points="105.304 183.786 91.711 175.938 91.711 191.633 105.304 199.481 118.897 191.633 118.897 175.938 105.304 183.786"/><polygon class="cls-4" points="105.304 199.481 91.711 191.633 91.711 175.938 105.304 183.786 105.304 199.481"/><polygon class="cls-19" points="118.897 191.633 105.304 199.481 105.304 183.786 118.897 175.938 118.897 191.633"/><polygon class="cls-4" points="105.304 183.786 91.711 175.938 105.304 168.09 118.896 175.938 105.304 183.786"/><polygon class="cls-8" points="105.304 183.786 92.301 176.278 91.711 176.618 105.304 184.466 118.896 176.619 118.307 176.278 105.304 183.786"/><polygon class="cls-4" points="122.96 193.86 109.367 186.012 109.367 201.707 122.96 209.555 136.553 201.707 136.553 186.012 122.96 193.86"/><polygon class="cls-4" points="122.96 209.555 109.367 201.707 109.367 186.012 122.96 193.86 122.96 209.555"/><polygon class="cls-19" points="136.553 201.707 122.96 209.555 122.96 193.86 136.553 186.012 136.553 201.707"/><polygon class="cls-4" points="122.96 193.86 109.367 186.012 122.96 178.164 136.553 186.012 122.96 193.86"/><polygon class="cls-8" points="122.96 193.86 109.957 186.352 109.367 186.693 122.96 194.541 136.553 186.693 135.963 186.353 122.96 193.86"/><polygon class="cls-4" points="140.617 203.934 127.024 196.086 127.024 211.781 140.617 219.629 154.209 211.781 154.209 196.086 140.617 203.934"/><polygon class="cls-4" points="140.617 219.629 127.024 211.782 127.024 196.086 140.617 203.934 140.617 219.629"/><polygon class="cls-19" points="154.21 211.782 140.617 219.629 140.617 203.934 154.21 196.086 154.21 211.782"/><polygon class="cls-4" points="140.617 203.934 127.024 196.086 140.616 188.239 154.209 196.086 140.617 203.934"/><polygon class="cls-8" points="140.617 203.934 127.613 196.427 127.024 196.767 140.617 204.615 154.209 196.767 154.209 196.086 140.617 203.934"/><polygon class="cls-4" points="87.648 194.541 74.055 186.693 74.055 202.388 87.648 210.236 101.241 202.388 101.241 186.693 87.648 194.541"/><polygon class="cls-4" points="87.648 210.236 74.055 202.388 74.055 186.693 87.648 194.541 87.648 210.236"/><polygon class="cls-19" points="101.241 202.388 87.648 210.236 87.648 194.541 101.241 186.693 101.241 202.388"/><polygon class="cls-4" points="87.648 194.541 74.055 186.693 87.647 178.845 101.24 186.693 87.648 194.541"/><polygon class="cls-8" points="87.648 194.541 74.644 187.033 74.055 187.374 87.648 195.222 101.24 187.374 100.651 187.033 87.648 194.541"/><polygon class="cls-4" points="105.304 204.615 91.711 196.767 91.711 212.462 105.304 220.31 118.897 212.462 118.897 196.767 105.304 204.615"/><polygon class="cls-4" points="105.304 220.31 91.711 212.462 91.711 196.767 105.304 204.615 105.304 220.31"/><polygon class="cls-19" points="118.897 212.462 105.304 220.31 105.304 204.615 118.897 196.767 118.897 212.462"/><polygon class="cls-4" points="105.304 204.615 91.711 196.767 105.304 188.919 118.896 196.767 105.304 204.615"/><polygon class="cls-8" points="105.304 204.615 91.711 196.767 91.711 197.448 105.304 205.296 118.896 197.448 118.307 197.108 105.304 204.615"/><polygon class="cls-4" points="122.96 214.689 109.367 206.841 109.367 222.537 122.96 230.384 136.553 222.537 136.553 206.841 122.96 214.689"/><polygon class="cls-4" points="122.96 230.385 109.367 222.537 109.367 206.841 122.96 214.689 122.96 230.385"/><polygon class="cls-19" points="136.553 222.537 122.96 230.385 122.96 214.689 136.553 206.841 136.553 222.537"/><polygon class="cls-4" points="122.96 214.689 109.367 206.841 122.96 198.994 136.553 206.842 122.96 214.689"/><polygon class="cls-8" points="122.96 214.689 109.367 206.841 109.367 207.522 122.96 215.37 136.553 207.522 136.553 206.841 122.96 214.689"/><polygon class="cls-20" points="158.307 190.838 149.034 185.485 158.306 180.131 167.579 185.485 158.307 190.838"/><polygon class="cls-20" points="87.648 192.077 78.375 186.723 87.647 181.37 96.92 186.723 87.648 192.077"/><polygon class="cls-4" points="122.96 152.201 109.367 144.353 109.367 160.049 122.96 167.897 136.553 160.049 136.553 144.353 122.96 152.201"/><polygon class="cls-4" points="122.96 167.897 109.367 160.049 109.367 144.353 122.96 152.201 122.96 167.897"/><polygon class="cls-19" points="136.553 160.049 122.96 167.897 122.96 152.201 136.553 144.353 136.553 160.049"/><polygon class="cls-4" points="122.96 152.201 109.367 144.353 122.96 136.506 136.553 144.354 122.96 152.201"/><polygon class="cls-8" points="122.96 152.201 109.367 144.353 109.367 145.034 122.96 152.882 136.553 145.034 136.553 144.353 122.96 152.201"/><polygon class="cls-4" points="140.617 162.276 127.024 154.428 127.024 170.123 140.617 177.971 154.209 170.123 154.209 154.428 140.617 162.276"/><polygon class="cls-4" points="140.617 177.971 127.024 170.123 127.024 154.428 140.617 162.276 140.617 177.971"/><polygon class="cls-19" points="154.209 170.123 140.617 177.971 140.617 162.276 154.209 154.428 154.209 170.123"/><polygon class="cls-4" points="140.617 162.276 127.024 154.428 140.616 146.58 154.209 154.428 140.617 162.276"/><polygon class="cls-8" points="140.617 162.276 127.024 154.428 127.024 155.108 140.617 162.956 154.209 155.109 154.209 154.428 140.617 162.276"/><polygon class="cls-4" points="158.273 172.35 144.68 164.502 144.68 180.197 158.273 188.045 171.866 180.197 171.866 164.502 158.273 172.35"/><polygon class="cls-4" points="158.273 188.045 144.68 180.197 144.68 164.502 158.273 172.35 158.273 188.045"/><polygon class="cls-19" points="171.866 180.197 158.273 188.045 158.273 172.35 171.866 164.502 171.866 180.197"/><polygon class="cls-4" points="158.273 172.35 144.68 164.502 158.273 156.654 171.865 164.502 158.273 172.35"/><polygon class="cls-8" points="158.273 172.35 144.68 164.502 144.68 165.183 158.273 173.031 171.865 165.183 171.866 164.502 158.273 172.35"/><polygon class="cls-4" points="105.304 162.956 91.711 155.109 91.711 170.804 105.304 178.652 118.897 170.804 118.897 155.109 105.304 162.956"/><polygon class="cls-4" points="105.304 178.652 91.711 170.804 91.711 155.109 105.304 162.956 105.304 178.652"/><polygon class="cls-19" points="118.897 170.804 105.304 178.652 105.304 162.956 118.897 155.109 118.897 170.804"/><polygon class="cls-4" points="105.304 162.956 91.711 155.109 105.304 147.261 118.896 155.109 105.304 162.956"/><polygon class="cls-8" points="105.304 162.956 91.711 155.109 91.711 155.789 105.304 163.637 118.896 155.789 118.897 155.109 105.304 162.956"/><polygon class="cls-4" points="87.648 173.712 74.055 165.864 74.055 181.559 87.648 189.407 101.241 181.559 101.241 165.864 87.648 173.712"/><polygon class="cls-4" points="87.648 189.407 74.055 181.559 74.055 165.864 87.648 173.712 87.648 189.407"/><polygon class="cls-19" points="101.241 181.559 87.648 189.407 87.648 173.712 101.241 165.864 101.241 181.559"/><polygon class="cls-4" points="87.648 173.712 74.055 165.864 87.647 158.016 101.24 165.864 87.648 173.712"/><polygon class="cls-8" points="87.648 173.712 74.055 165.864 74.055 166.544 87.648 174.392 101.24 166.545 101.241 165.864 87.648 173.712"/><polygon class="cls-4" points="122.96 173.371 109.367 165.523 109.367 181.218 122.96 189.066 136.553 181.218 136.553 165.523 122.96 173.371"/><polygon class="cls-4" points="122.96 189.066 109.367 181.218 109.367 165.523 122.96 173.371 122.96 189.066"/><polygon class="cls-19" points="136.553 181.218 122.96 189.066 122.96 173.371 136.553 165.523 136.553 181.218"/><polygon class="cls-4" points="122.96 173.371 109.367 165.523 122.96 157.675 136.553 165.523 122.96 173.371"/><polygon class="cls-8" points="122.96 173.371 109.957 165.863 109.367 166.204 122.96 174.052 136.553 166.204 135.963 165.864 122.96 173.371"/><polygon class="cls-4" points="140.617 183.445 127.024 175.597 127.024 191.293 140.617 199.14 154.209 191.293 154.209 175.597 140.617 183.445"/><polygon class="cls-4" points="140.617 199.141 127.024 191.293 127.024 175.597 140.617 183.445 140.617 199.141"/><polygon class="cls-19" points="154.21 191.293 140.617 199.141 140.617 183.445 154.21 175.597 154.21 191.293"/><polygon class="cls-4" points="140.617 183.445 127.024 175.597 140.616 167.75 154.209 175.598 140.617 183.445"/><polygon class="cls-8" points="140.617 183.445 127.613 175.938 127.024 176.278 140.617 184.126 154.209 176.278 154.209 175.597 140.617 183.445"/><polygon class="cls-4" points="105.304 184.126 91.711 176.278 91.711 191.973 105.304 199.821 118.897 191.973 118.897 176.278 105.304 184.126"/><polygon class="cls-4" points="105.304 199.821 91.711 191.973 91.711 176.278 105.304 184.126 105.304 199.821"/><polygon class="cls-19" points="118.897 191.973 105.304 199.821 105.304 184.126 118.897 176.278 118.897 191.973"/><polygon class="cls-4" points="105.304 184.126 91.711 176.278 105.304 168.431 118.896 176.278 105.304 184.126"/><polygon class="cls-8" points="105.304 184.126 91.711 176.278 91.711 176.959 105.304 184.807 118.896 176.959 118.897 176.278 105.304 184.126"/><polygon class="cls-4" points="122.96 194.2 109.367 186.352 109.367 202.048 122.96 209.896 136.553 202.048 136.553 186.352 122.96 194.2"/><polygon class="cls-4" points="122.96 209.896 109.367 202.048 109.367 186.352 122.96 194.2 122.96 209.896"/><polygon class="cls-19" points="136.553 202.048 122.96 209.896 122.96 194.2 136.553 186.352 136.553 202.048"/><polygon class="cls-4" points="122.96 194.2 109.367 186.352 122.96 178.505 136.553 186.353 122.96 194.2"/><polygon class="cls-8" points="122.96 194.2 109.367 186.352 109.367 187.033 122.96 194.881 136.553 187.033 136.553 186.352 122.96 194.2"/></g></g><path class="cls-21" d="M426.728,297.956a5.9,5.9,0,0,1-2.883-.729l-130.7-75.46a2.287,2.287,0,0,1-1.337-1.845,1.74,1.74,0,0,1,.991-1.48l77.993-45.029a5.639,5.639,0,0,1,5.142.2l130.7,75.46a2.288,2.288,0,0,1,1.337,1.845,1.739,1.739,0,0,1-.99,1.48l-77.993,45.029A4.59,4.59,0,0,1,426.728,297.956ZM373.045,173.5a3.968,3.968,0,0,0-1.945.445l-77.993,45.03a1.171,1.171,0,0,0-.682.945c0,.456.375.934,1.029,1.311h0l130.7,75.46a5.046,5.046,0,0,0,4.525.2l77.993-45.03a1.172,1.172,0,0,0,.683-.946c0-.455-.375-.934-1.03-1.311l-130.7-75.459A5.3,5.3,0,0,0,373.045,173.5Z" transform="translate(-280.897 -70.427)"/><path class="cls-8" d="M293.3,223.693,424,299.152a5.372,5.372,0,0,0,4.833.2l77.994-45.03a1.572,1.572,0,0,0,.785-.914,1.335,1.335,0,0,1-.785,1.5l-77.994,45.029a5.372,5.372,0,0,1-4.833-.2l-130.7-75.46c-.927-.535-1.309-1.247-1.133-1.877A2.212,2.212,0,0,0,293.3,223.693Z" transform="translate(-280.897 -70.427)"/><g class="cls-22"><g class="cls-23"><path class="cls-24" d="M375.026,175.681l7.206,3.764,72.257-41.718a5.241,5.241,0,0,1,4.716.2l124.623,71.951c1.193-.667,6.63-3.282,6.63-3.282l-2.638,4.287-.01-.008a1.575,1.575,0,0,1-.738.818l-76.1,43.937a5.241,5.241,0,0,1-4.716-.2L378.726,181.8a2.277,2.277,0,0,1-1.069-1.138l-.01.007Z" transform="translate(-280.897 -70.427)"/><path class="cls-25" d="M376.14,176.866l130.7,75.46a5.372,5.372,0,0,0,4.833.2l77.994-45.03c1.239-.715,1.084-1.964-.347-2.79l-130.7-75.46a5.369,5.369,0,0,0-4.833-.2l-77.994,45.029C374.554,174.791,374.709,176.04,376.14,176.866Z" transform="translate(-280.897 -70.427)"/><path class="cls-11" d="M376.14,176.866l130.7,75.46a5.372,5.372,0,0,0,4.833.2l77.994-45.03c1.239-.715,1.084-1.964-.347-2.79l-130.7-75.46a5.369,5.369,0,0,0-4.833-.2l-77.994,45.029C374.554,174.791,374.709,176.04,376.14,176.866Z" transform="translate(-280.897 -70.427)"/><path class="cls-16" d="M376.14,176.866l130.7,75.46a5.372,5.372,0,0,0,4.833.2l77.994-45.03c1.239-.715,1.084-1.964-.347-2.79l-130.7-75.46a5.369,5.369,0,0,0-4.833-.2l-77.994,45.029C374.554,174.791,374.709,176.04,376.14,176.866Z" transform="translate(-280.897 -70.427)"/><path class="cls-8" d="M589.32,204.706l-130.7-75.46a5.7,5.7,0,0,0-3.23-.657,5.461,5.461,0,0,1,2.267.657l130.7,75.46c1.431.826,1.586,2.075.347,2.79l-77.993,45.03a3.935,3.935,0,0,1-1.6.456,4.566,4.566,0,0,0,2.566-.456l77.994-45.03C590.906,206.781,590.751,205.532,589.32,204.706Z" transform="translate(-280.897 -70.427)"/><path class="cls-26" d="M472.462,219.585,434.95,197.927c-3.808-2.2-3.808-5.776,0-7.974L472.461,168.3a15.29,15.29,0,0,1,13.812,0l37.512,21.658c3.807,2.2,3.807,5.775,0,7.974l-37.511,21.657A15.29,15.29,0,0,1,472.462,219.585Z" transform="translate(-280.897 -70.427)"/><polygon class="cls-4" points="189.522 91.429 175.929 83.581 175.929 99.277 189.522 107.125 203.115 99.277 203.115 83.581 189.522 91.429"/><polygon class="cls-4" points="189.522 107.125 175.929 99.277 175.929 83.581 189.522 91.429 189.522 107.125"/><polygon class="cls-19" points="203.115 99.277 189.522 107.125 189.522 91.429 203.115 83.581 203.115 99.277"/><polygon class="cls-4" points="189.522 91.429 175.929 83.581 189.522 75.734 203.115 83.582 189.522 91.429"/><polygon class="cls-8" points="189.522 91.429 176.519 83.922 175.929 84.262 189.522 92.11 203.115 84.262 202.525 83.922 189.522 91.429"/><polygon class="cls-4" points="207.178 101.504 193.586 93.656 193.586 109.351 207.178 117.199 220.771 109.351 220.771 93.656 207.178 101.504"/><polygon class="cls-4" points="207.178 117.199 193.586 109.351 193.586 93.656 207.178 101.504 207.178 117.199"/><polygon class="cls-19" points="220.771 109.351 207.178 117.199 207.178 101.504 220.771 93.656 220.771 109.351"/><polygon class="cls-4" points="207.178 101.504 193.586 93.656 207.178 85.808 220.771 93.656 207.178 101.504"/><polygon class="cls-8" points="207.178 101.504 194.175 93.996 193.586 94.336 207.178 102.184 220.771 94.337 220.181 93.996 207.178 101.504"/><polygon class="cls-4" points="224.835 111.578 211.242 103.73 211.242 119.425 224.835 127.273 238.428 119.425 238.428 103.73 224.835 111.578"/><polygon class="cls-4" points="224.835 127.273 211.242 119.425 211.242 103.73 224.835 111.578 224.835 127.273"/><polygon class="cls-19" points="238.428 119.425 224.835 127.273 224.835 111.578 238.428 103.73 238.428 119.425"/><polygon class="cls-4" points="224.835 111.578 211.242 103.73 224.834 95.882 238.427 103.73 224.835 111.578"/><polygon class="cls-8" points="224.835 111.578 211.831 104.07 211.242 104.411 224.835 112.259 238.427 104.411 238.428 103.73 224.835 111.578"/><polygon class="cls-4" points="171.866 102.184 158.273 94.337 158.273 110.032 171.866 117.88 185.459 110.032 185.459 94.337 171.866 102.184"/><polygon class="cls-4" points="171.866 117.88 158.273 110.032 158.273 94.337 171.866 102.184 171.866 117.88"/><polygon class="cls-19" points="185.459 110.032 171.866 117.88 171.866 102.184 185.459 94.337 185.459 110.032"/><polygon class="cls-4" points="171.866 102.184 158.273 94.337 171.865 86.489 185.458 94.337 171.866 102.184"/><polygon class="cls-8" points="171.866 102.184 158.862 94.677 158.273 95.017 171.866 102.865 185.458 95.017 184.869 94.677 171.866 102.184"/><polygon class="cls-4" points="189.522 112.259 175.929 104.411 175.929 120.106 189.522 127.954 203.115 120.106 203.115 104.411 189.522 112.259"/><polygon class="cls-4" points="189.522 127.954 175.929 120.106 175.929 104.411 189.522 112.259 189.522 127.954"/><polygon class="cls-19" points="203.115 120.106 189.522 127.954 189.522 112.259 203.115 104.411 203.115 120.106"/><polygon class="cls-4" points="189.522 112.259 175.929 104.411 189.522 96.563 203.115 104.411 189.522 112.259"/><polygon class="cls-8" points="189.522 112.259 176.519 104.751 175.929 105.091 189.522 112.939 203.115 105.092 202.525 104.751 189.522 112.259"/><polygon class="cls-4" points="207.178 122.333 193.586 114.485 193.586 130.18 207.178 138.028 220.771 130.18 220.771 114.485 207.178 122.333"/><polygon class="cls-4" points="207.178 138.028 193.586 130.18 193.586 114.485 207.178 122.333 207.178 138.028"/><polygon class="cls-19" points="220.771 130.18 207.178 138.028 207.178 122.333 220.771 114.485 220.771 130.18"/><polygon class="cls-4" points="207.178 122.333 193.586 114.485 207.178 106.637 220.771 114.485 207.178 122.333"/><polygon class="cls-8" points="207.178 122.333 194.175 114.825 193.586 115.166 207.178 123.014 220.771 115.166 220.771 114.485 207.178 122.333"/><polygon class="cls-4" points="154.21 112.94 140.617 105.092 140.617 120.787 154.21 128.635 167.802 120.787 167.802 105.092 154.21 112.94"/><polygon class="cls-4" points="154.21 128.635 140.617 120.787 140.617 105.092 154.21 112.94 154.21 128.635"/><polygon class="cls-19" points="167.802 120.787 154.21 128.635 154.21 112.94 167.802 105.092 167.802 120.787"/><polygon class="cls-4" points="154.21 112.94 140.617 105.092 154.209 97.244 167.802 105.092 154.21 112.94"/><polygon class="cls-8" points="154.21 112.94 140.617 105.092 140.617 105.772 154.21 113.62 167.802 105.773 167.213 105.432 154.21 112.94"/><polygon class="cls-4" points="171.866 123.014 158.273 115.166 158.273 130.861 171.866 138.709 185.459 130.861 185.459 115.166 171.866 123.014"/><polygon class="cls-4" points="171.866 138.709 158.273 130.861 158.273 115.166 171.866 123.014 171.866 138.709"/><polygon class="cls-19" points="185.459 130.861 171.866 138.709 171.866 123.014 185.459 115.166 185.459 130.861"/><polygon class="cls-4" points="171.866 123.014 158.273 115.166 171.865 107.318 185.458 115.166 171.866 123.014"/><polygon class="cls-8" points="171.866 123.014 158.273 115.166 158.273 115.847 171.866 123.695 185.458 115.847 184.869 115.506 171.866 123.014"/><polygon class="cls-4" points="189.522 133.088 175.929 125.24 175.929 140.935 189.522 148.783 203.115 140.935 203.115 125.24 189.522 133.088"/><polygon class="cls-4" points="189.522 148.783 175.929 140.935 175.929 125.24 189.522 133.088 189.522 148.783"/><polygon class="cls-19" points="203.115 140.935 189.522 148.783 189.522 133.088 203.115 125.24 203.115 140.935"/><polygon class="cls-4" points="189.522 133.088 175.929 125.24 189.522 117.392 203.115 125.24 189.522 133.088"/><polygon class="cls-8" points="189.522 133.088 175.929 125.24 175.929 125.921 189.522 133.769 203.115 125.921 203.115 125.24 189.522 133.088"/><polygon class="cls-4" points="189.522 70.6 175.929 62.752 175.929 78.447 189.522 86.295 203.115 78.447 203.115 62.752 189.522 70.6"/><polygon class="cls-4" points="189.522 86.295 175.929 78.448 175.929 62.752 189.522 70.6 189.522 86.295"/><polygon class="cls-19" points="203.115 78.448 189.522 86.295 189.522 70.6 203.115 62.752 203.115 78.448"/><polygon class="cls-4" points="189.522 70.6 175.929 62.752 189.522 54.905 203.115 62.752 189.522 70.6"/><polygon class="cls-8" points="189.522 70.6 176.519 63.093 175.929 63.433 189.522 71.281 203.115 63.433 202.525 63.093 189.522 70.6"/><polygon class="cls-20" points="189.522 130.532 180.25 125.178 189.522 119.825 198.794 125.179 189.522 130.532"/><polygon class="cls-20" points="171.866 120.458 162.593 115.104 171.866 109.751 181.138 115.104 171.866 120.458"/><polygon class="cls-20" points="207.178 119.777 197.906 114.423 207.178 109.07 216.451 114.423 207.178 119.777"/><polygon class="cls-20" points="224.869 109.145 215.596 103.791 224.868 98.438 234.141 103.792 224.869 109.145"/><polygon class="cls-20" points="154.209 110.383 144.937 105.03 154.209 99.677 163.482 105.03 154.209 110.383"/><polygon class="cls-4" points="207.178 80.674 193.586 72.826 193.586 88.522 207.178 96.37 220.771 88.522 220.771 72.826 207.178 80.674"/><polygon class="cls-4" points="207.178 96.37 193.586 88.522 193.586 72.826 207.178 80.674 207.178 96.37"/><polygon class="cls-19" points="220.771 88.522 207.178 96.37 207.178 80.674 220.771 72.826 220.771 88.522"/><polygon class="cls-4" points="207.178 80.674 193.586 72.826 207.178 64.979 220.771 72.827 207.178 80.674"/><polygon class="cls-8" points="207.178 80.674 194.175 73.167 193.586 73.507 207.178 81.355 220.771 73.507 220.181 73.167 207.178 80.674"/><polygon class="cls-4" points="224.835 90.749 211.242 82.901 211.242 98.596 224.835 106.444 238.428 98.596 238.428 82.901 224.835 90.749"/><polygon class="cls-4" points="224.835 106.444 211.242 98.596 211.242 82.901 224.835 90.749 224.835 106.444"/><polygon class="cls-19" points="238.428 98.596 224.835 106.444 224.835 90.749 238.428 82.901 238.428 98.596"/><polygon class="cls-4" points="224.835 90.749 211.242 82.901 224.834 75.053 238.427 82.901 224.835 90.749"/><polygon class="cls-8" points="224.835 90.749 211.831 83.241 211.242 83.581 224.835 91.429 238.427 83.582 238.428 82.901 224.835 90.749"/><polygon class="cls-4" points="171.866 81.355 158.273 73.507 158.273 89.203 171.866 97.05 185.459 89.203 185.459 73.507 171.866 81.355"/><polygon class="cls-4" points="171.866 97.05 158.273 89.203 158.273 73.507 171.866 81.355 171.866 97.05"/><polygon class="cls-19" points="185.459 89.203 171.866 97.05 171.866 81.355 185.459 73.507 185.459 89.203"/><polygon class="cls-4" points="171.866 81.355 158.273 73.507 171.865 65.66 185.458 73.508 171.866 81.355"/><polygon class="cls-8" points="171.866 81.355 158.862 73.848 158.273 74.188 171.866 82.036 185.458 74.188 184.869 73.848 171.866 81.355"/><polygon class="cls-4" points="189.522 91.429 175.929 83.582 175.929 99.277 189.522 107.125 203.115 99.277 203.115 83.582 189.522 91.429"/><polygon class="cls-4" points="189.522 107.125 175.929 99.277 175.929 83.582 189.522 91.429 189.522 107.125"/><polygon class="cls-19" points="203.115 99.277 189.522 107.125 189.522 91.429 203.115 83.582 203.115 99.277"/><polygon class="cls-4" points="189.522 91.429 175.929 83.582 189.522 75.734 203.115 83.582 189.522 91.429"/><polygon class="cls-8" points="189.522 91.429 176.519 83.922 175.929 84.262 189.522 92.11 203.115 84.263 202.525 83.922 189.522 91.429"/><polygon class="cls-4" points="207.178 101.504 193.586 93.656 193.586 109.351 207.178 117.199 220.771 109.351 220.771 93.656 207.178 101.504"/><polygon class="cls-4" points="207.178 117.199 193.586 109.351 193.586 93.656 207.178 101.504 207.178 117.199"/><polygon class="cls-19" points="220.771 109.351 207.178 117.199 207.178 101.504 220.771 93.656 220.771 109.351"/><polygon class="cls-4" points="207.178 101.504 193.586 93.656 207.178 85.808 220.771 93.656 207.178 101.504"/><polygon class="cls-8" points="207.178 101.504 194.175 93.996 193.586 94.336 207.178 102.184 220.771 94.337 220.771 93.656 207.178 101.504"/><polygon class="cls-4" points="154.21 92.11 140.617 84.262 140.617 99.958 154.21 107.806 167.802 99.958 167.802 84.262 154.21 92.11"/><polygon class="cls-4" points="154.21 107.806 140.617 99.958 140.617 84.262 154.21 92.11 154.21 107.806"/><polygon class="cls-19" points="167.802 99.958 154.21 107.806 154.21 92.11 167.802 84.262 167.802 99.958"/><polygon class="cls-4" points="154.21 92.11 140.617 84.262 154.209 76.415 167.802 84.263 154.21 92.11"/><polygon class="cls-8" points="154.21 92.11 141.206 84.603 140.617 84.943 154.21 92.791 167.802 84.943 167.213 84.603 154.21 92.11"/><polygon class="cls-4" points="171.866 102.185 158.273 94.337 158.273 110.032 171.866 117.88 185.459 110.032 185.459 94.337 171.866 102.185"/><polygon class="cls-4" points="171.866 117.88 158.273 110.032 158.273 94.337 171.866 102.185 171.866 117.88"/><polygon class="cls-19" points="185.459 110.032 171.866 117.88 171.866 102.185 185.459 94.337 185.459 110.032"/><polygon class="cls-4" points="171.866 102.185 158.273 94.337 171.865 86.489 185.458 94.337 171.866 102.185"/><polygon class="cls-8" points="171.866 102.185 158.273 94.337 158.273 95.017 171.866 102.865 185.458 95.018 184.869 94.677 171.866 102.185"/><polygon class="cls-4" points="189.522 112.259 175.929 104.411 175.929 120.106 189.522 127.954 203.115 120.106 203.115 104.411 189.522 112.259"/><polygon class="cls-4" points="189.522 127.954 175.929 120.106 175.929 104.411 189.522 112.259 189.522 127.954"/><polygon class="cls-19" points="203.115 120.106 189.522 127.954 189.522 112.259 203.115 104.411 203.115 120.106"/><polygon class="cls-4" points="189.522 112.259 175.929 104.411 189.522 96.563 203.115 104.411 189.522 112.259"/><polygon class="cls-8" points="189.522 112.259 175.929 104.411 175.929 105.092 189.522 112.94 203.115 105.092 203.115 104.411 189.522 112.259"/><polygon class="cls-20" points="154.209 89.646 144.937 84.293 154.209 78.939 163.482 84.293 154.209 89.646"/><polygon class="cls-4" points="189.522 49.771 175.929 41.923 175.929 57.618 189.522 65.466 203.115 57.618 203.115 41.923 189.522 49.771"/><polygon class="cls-4" points="189.522 65.466 175.929 57.618 175.929 41.923 189.522 49.771 189.522 65.466"/><polygon class="cls-19" points="203.115 57.618 189.522 65.466 189.522 49.771 203.115 41.923 203.115 57.618"/><polygon class="cls-4" points="189.522 49.771 175.929 41.923 189.522 34.075 203.115 41.923 189.522 49.771"/><polygon class="cls-8" points="189.522 49.771 175.929 41.923 175.929 42.604 189.522 50.452 203.115 42.604 203.115 41.923 189.522 49.771"/><polygon class="cls-4" points="171.866 60.526 158.273 52.678 158.273 68.373 171.866 76.221 185.459 68.373 185.459 52.678 171.866 60.526"/><polygon class="cls-4" points="171.866 76.221 158.273 68.373 158.273 52.678 171.866 60.526 171.866 76.221"/><polygon class="cls-19" points="185.459 68.373 171.866 76.221 171.866 60.526 185.459 52.678 185.459 68.373"/><polygon class="cls-4" points="171.866 60.526 158.273 52.678 171.865 44.83 185.458 52.678 171.866 60.526"/><polygon class="cls-8" points="171.866 60.526 158.273 52.678 158.273 53.359 171.866 61.207 185.458 53.359 185.459 52.678 171.866 60.526"/><polygon class="cls-4" points="154.21 71.281 140.617 63.433 140.617 79.128 154.21 86.976 167.802 79.128 167.802 63.433 154.21 71.281"/><polygon class="cls-4" points="154.21 86.976 140.617 79.129 140.617 63.433 154.21 71.281 154.21 86.976"/><polygon class="cls-19" points="167.802 79.129 154.21 86.976 154.21 71.281 167.802 63.433 167.802 79.129"/><polygon class="cls-4" points="154.21 71.281 140.617 63.433 154.209 55.586 167.802 63.433 154.21 71.281"/><polygon class="cls-8" points="154.21 71.281 140.617 63.433 140.617 64.114 154.21 71.962 167.802 64.114 167.802 63.433 154.21 71.281"/><polygon class="cls-4" points="171.866 82.006 158.273 74.158 158.273 89.853 171.866 97.701 185.459 89.853 185.459 74.158 171.866 82.006"/><polygon class="cls-4" points="171.866 97.701 158.273 89.853 158.273 74.158 171.866 82.006 171.866 97.701"/><polygon class="cls-19" points="185.459 89.853 171.866 97.701 171.866 82.006 185.459 74.158 185.459 89.853"/><polygon class="cls-4" points="171.866 82.006 158.273 74.158 171.865 66.31 185.458 74.158 171.866 82.006"/><polygon class="cls-8" points="171.866 82.006 158.273 74.158 158.273 74.839 171.866 82.687 185.458 74.839 185.459 74.158 171.866 82.006"/><polygon class="cls-4" points="189.522 92.08 175.929 84.232 175.929 99.927 189.522 107.775 203.115 99.927 203.115 84.232 189.522 92.08"/><polygon class="cls-4" points="189.522 107.775 175.929 99.927 175.929 84.232 189.522 92.08 189.522 107.775"/><polygon class="cls-19" points="203.115 99.927 189.522 107.775 189.522 92.08 203.115 84.232 203.115 99.927"/><polygon class="cls-4" points="189.522 92.08 175.929 84.232 189.522 76.384 203.115 84.232 189.522 92.08"/><polygon class="cls-8" points="189.522 92.08 175.929 84.232 175.929 84.913 189.522 92.761 203.115 84.913 203.115 84.232 189.522 92.08"/></g></g><path class="cls-4" d="M502.015,156.562a1.944,1.944,0,0,1-.966-.278,2.832,2.832,0,0,1-1.355-2.859,1.43,1.43,0,0,1,.812-1.032,1.713,1.713,0,0,1,1.538.162,2.792,2.792,0,0,1,1.354,2.859,1.428,1.428,0,0,1-.812,1.032A1.408,1.408,0,0,1,502.015,156.562Zm-.937-3.84a.942.942,0,0,0-.951.8,2.362,2.362,0,0,0,1.144,2.374,1.274,1.274,0,0,0,1.138.14,1,1,0,0,0,.557-.725,2.363,2.363,0,0,0-1.144-2.374A1.5,1.5,0,0,0,501.078,152.722Z" transform="translate(-280.897 -70.427)"/><path class="cls-4" d="M507.3,159.612a1.95,1.95,0,0,1-.966-.278,2.831,2.831,0,0,1-1.355-2.858,1.432,1.432,0,0,1,.812-1.033,1.713,1.713,0,0,1,1.538.163,2.79,2.79,0,0,1,1.354,2.858,1.385,1.385,0,0,1-1.383,1.148Zm-.936-3.84a.978.978,0,0,0-.4.079,1,1,0,0,0-.557.724,2.362,2.362,0,0,0,1.144,2.374,1.271,1.271,0,0,0,1.138.14,1,1,0,0,0,.557-.725,2.363,2.363,0,0,0-1.144-2.374A1.51,1.51,0,0,0,506.362,155.772Z" transform="translate(-280.897 -70.427)"/><path class="cls-4" d="M513.748,161.465a1.263,1.263,0,0,1-2.022.727,2.593,2.593,0,0,1-1.249-2.616,1.263,1.263,0,0,1,2.022-.728A2.591,2.591,0,0,1,513.748,161.465Z" transform="translate(-280.897 -70.427)"/><polygon class="cls-4" points="131.551 32.742 128.725 31.11 128.944 29.804 131.77 31.435 131.551 32.742"/><polygon class="cls-4" points="135.658 35.113 132.833 33.482 133.052 32.175 135.877 33.807 135.658 35.113"/><polygon class="cls-4" points="127.486 30.395 121.289 26.817 121.508 25.511 127.705 29.088 127.486 30.395"/><path class="cls-4" d="M403.859,275.331l-.112-.064-65.127-37.6L403.857,200l.111.065,65.127,37.6Zm-64.35-37.665,64.35,37.151,64.347-37.15-64.349-37.152Z" transform="translate(-280.897 -70.427)"/><path class="cls-8" d="M373.446,220.628a.221.221,0,0,1-.108-.029l-.2-.123a.208.208,0,0,1-.071-.286.211.211,0,0,1,.285-.072l.2.123a.208.208,0,0,1-.107.387Zm-3.942-2.37a.218.218,0,0,1-.107-.029l-3.737-2.247a.209.209,0,0,1,.215-.358l3.737,2.247a.208.208,0,0,1-.108.387Zm-7.473-4.494a.212.212,0,0,1-.108-.03l-3.737-2.248a.209.209,0,0,1-.071-.286.211.211,0,0,1,.286-.071l3.737,2.248a.208.208,0,0,1-.107.387Zm-7.474-4.5a.212.212,0,0,1-.108-.03l-3.736-2.247a.208.208,0,0,1-.072-.286.211.211,0,0,1,.286-.071l3.737,2.247a.208.208,0,0,1,.072.286A.211.211,0,0,1,354.557,209.269Zm-7.474-4.5a.21.21,0,0,1-.107-.029l-3.737-2.247a.208.208,0,0,1-.071-.286.211.211,0,0,1,.286-.071l3.737,2.247a.208.208,0,0,1-.108.386Zm-7.473-4.494a.205.205,0,0,1-.107-.029L335.766,198a.209.209,0,0,1-.071-.286.211.211,0,0,1,.286-.071l3.737,2.247a.209.209,0,0,1,.071.286A.212.212,0,0,1,339.61,200.28Zm-7.474-4.5a.221.221,0,0,1-.107-.029l-3.737-2.247a.209.209,0,0,1-.071-.286.212.212,0,0,1,.286-.072l3.737,2.248a.208.208,0,0,1-.108.386Zm-7.473-4.494a.221.221,0,0,1-.108-.029l-3.736-2.247a.209.209,0,0,1-.072-.286.212.212,0,0,1,.286-.072l3.737,2.247a.208.208,0,0,1-.107.387Z" transform="translate(-280.897 -70.427)"/><polygon class="cls-4" points="122.96 129.164 109.367 121.316 109.367 137.011 122.96 144.859 136.553 137.011 136.553 121.316 122.96 129.164"/><polygon class="cls-4" points="122.96 144.859 109.367 137.012 109.367 121.316 122.96 129.164 122.96 144.859"/><polygon class="cls-19" points="136.553 137.012 122.96 144.859 122.96 129.164 136.553 121.316 136.553 137.012"/><polygon class="cls-4" points="122.96 129.164 109.367 121.316 122.96 113.469 136.553 121.316 122.96 129.164"/><polygon class="cls-8" points="122.96 129.164 109.957 121.657 109.367 121.997 122.96 129.845 136.553 121.997 135.963 121.657 122.96 129.164"/><polygon class="cls-4" points="140.617 139.238 127.024 131.39 127.024 147.086 140.617 154.934 154.209 147.086 154.209 131.39 140.617 139.238"/><polygon class="cls-4" points="140.617 154.934 127.024 147.086 127.024 131.39 140.617 139.238 140.617 154.934"/><polygon class="cls-19" points="154.209 147.086 140.617 154.934 140.617 139.238 154.209 131.39 154.209 147.086"/><polygon class="cls-4" points="140.617 139.238 127.024 131.39 140.616 123.543 154.209 131.391 140.617 139.238"/><polygon class="cls-8" points="140.617 139.238 127.613 131.731 127.024 132.071 140.617 139.919 154.209 132.071 153.62 131.731 140.617 139.238"/><polygon class="cls-4" points="158.273 149.313 144.68 141.465 144.68 157.16 158.273 165.008 171.866 157.16 171.866 141.465 158.273 149.313"/><polygon class="cls-4" points="158.273 165.008 144.68 157.16 144.68 141.465 158.273 149.313 158.273 165.008"/><polygon class="cls-19" points="171.866 157.16 158.273 165.008 158.273 149.313 171.866 141.465 171.866 157.16"/><polygon class="cls-4" points="158.273 149.313 144.68 141.465 158.273 133.617 171.865 141.465 158.273 149.313"/><polygon class="cls-8" points="158.273 149.313 145.269 141.805 144.68 142.145 158.273 149.993 171.865 142.146 171.866 141.465 158.273 149.313"/><polygon class="cls-4" points="105.304 139.919 91.711 132.071 91.711 147.767 105.304 155.614 118.897 147.767 118.897 132.071 105.304 139.919"/><polygon class="cls-4" points="105.304 155.614 91.711 147.767 91.711 132.071 105.304 139.919 105.304 155.614"/><polygon class="cls-19" points="118.897 147.767 105.304 155.614 105.304 139.919 118.897 132.071 118.897 147.767"/><polygon class="cls-4" points="105.304 139.919 91.711 132.071 105.304 124.224 118.896 132.072 105.304 139.919"/><polygon class="cls-8" points="105.304 139.919 92.301 132.412 91.711 132.752 105.304 140.6 118.896 132.752 118.307 132.412 105.304 139.919"/><polygon class="cls-4" points="122.96 149.993 109.367 142.146 109.367 157.841 122.96 165.689 136.553 157.841 136.553 142.146 122.96 149.993"/><polygon class="cls-4" points="122.96 165.689 109.367 157.841 109.367 142.146 122.96 149.993 122.96 165.689"/><polygon class="cls-19" points="136.553 157.841 122.96 165.689 122.96 149.993 136.553 142.146 136.553 157.841"/><polygon class="cls-4" points="122.96 149.993 109.367 142.146 122.96 134.298 136.553 142.146 122.96 149.993"/><polygon class="cls-8" points="122.96 149.993 109.957 142.486 109.367 142.826 122.96 150.674 136.553 142.827 135.963 142.486 122.96 149.993"/><polygon class="cls-4" points="140.617 160.068 127.024 152.22 127.024 167.915 140.617 175.763 154.209 167.915 154.209 152.22 140.617 160.068"/><polygon class="cls-4" points="140.617 175.763 127.024 167.915 127.024 152.22 140.617 160.068 140.617 175.763"/><polygon class="cls-19" points="154.21 167.915 140.617 175.763 140.617 160.068 154.21 152.22 154.21 167.915"/><polygon class="cls-4" points="140.617 160.068 127.024 152.22 140.616 144.372 154.209 152.22 140.617 160.068"/><polygon class="cls-8" points="140.617 160.068 127.613 152.56 127.024 152.9 140.617 160.748 154.209 152.901 154.209 152.22 140.617 160.068"/><polygon class="cls-4" points="87.648 150.674 74.055 142.826 74.055 158.522 87.648 166.37 101.241 158.522 101.241 142.826 87.648 150.674"/><polygon class="cls-4" points="87.648 166.37 74.055 158.522 74.055 142.826 87.648 150.674 87.648 166.37"/><polygon class="cls-19" points="101.241 158.522 87.648 166.37 87.648 150.674 101.241 142.826 101.241 158.522"/><polygon class="cls-4" points="87.648 150.674 74.055 142.826 87.647 134.979 101.24 142.827 87.648 150.674"/><polygon class="cls-8" points="87.648 150.674 74.055 142.826 74.055 143.507 87.648 151.355 101.24 143.507 100.651 143.167 87.648 150.674"/><polygon class="cls-4" points="105.304 160.749 91.711 152.901 91.711 168.596 105.304 176.444 118.897 168.596 118.897 152.901 105.304 160.749"/><polygon class="cls-4" points="105.304 176.444 91.711 168.596 91.711 152.901 105.304 160.749 105.304 176.444"/><polygon class="cls-19" points="118.897 168.596 105.304 176.444 105.304 160.749 118.897 152.901 118.897 168.596"/><polygon class="cls-4" points="105.304 160.749 91.711 152.901 105.304 145.053 118.896 152.901 105.304 160.749"/><polygon class="cls-8" points="105.304 160.749 91.711 152.901 91.711 153.581 105.304 161.429 118.896 153.582 118.307 153.241 105.304 160.749"/><polygon class="cls-4" points="122.96 170.823 109.367 162.975 109.367 178.67 122.96 186.518 136.553 178.67 136.553 162.975 122.96 170.823"/><polygon class="cls-4" points="122.96 186.518 109.367 178.67 109.367 162.975 122.96 170.823 122.96 186.518"/><polygon class="cls-19" points="136.553 178.67 122.96 186.518 122.96 170.823 136.553 162.975 136.553 178.67"/><polygon class="cls-4" points="122.96 170.823 109.367 162.975 122.96 155.127 136.553 162.975 122.96 170.823"/><polygon class="cls-8" points="122.96 170.823 109.367 162.975 109.367 163.656 122.96 171.504 136.553 163.656 136.553 162.975 122.96 170.823"/><polygon class="cls-4" points="122.96 108.335 109.367 100.487 109.367 116.182 122.96 124.03 136.553 116.182 136.553 100.487 122.96 108.335"/><polygon class="cls-4" points="122.96 124.03 109.367 116.182 109.367 100.487 122.96 108.335 122.96 124.03"/><polygon class="cls-19" points="136.553 116.182 122.96 124.03 122.96 108.335 136.553 100.487 136.553 116.182"/><polygon class="cls-4" points="122.96 108.335 109.367 100.487 122.96 92.639 136.553 100.487 122.96 108.335"/><polygon class="cls-8" points="122.96 108.335 109.957 100.827 109.367 101.168 122.96 109.016 136.553 101.168 135.963 100.828 122.96 108.335"/><polygon class="cls-20" points="122.96 168.267 113.688 162.913 122.96 157.56 132.232 162.913 122.96 168.267"/><polygon class="cls-20" points="105.304 158.192 96.032 152.839 105.304 147.486 114.576 152.839 105.304 158.192"/><polygon class="cls-20" points="140.617 157.512 131.344 152.158 140.616 146.805 149.889 152.158 140.617 157.512"/><polygon class="cls-20" points="158.307 146.88 149.034 141.526 158.306 136.173 167.579 141.526 158.307 146.88"/><polygon class="cls-20" points="87.648 148.118 78.375 142.765 87.647 137.411 96.92 142.765 87.648 148.118"/><polygon class="cls-4" points="140.617 118.409 127.024 110.561 127.024 126.257 140.617 134.104 154.209 126.257 154.209 110.561 140.617 118.409"/><polygon class="cls-4" points="140.617 134.104 127.024 126.257 127.024 110.561 140.617 118.409 140.617 134.104"/><polygon class="cls-19" points="154.209 126.257 140.617 134.104 140.617 118.409 154.209 110.561 154.209 126.257"/><polygon class="cls-4" points="140.617 118.409 127.024 110.561 140.616 102.714 154.209 110.561 140.617 118.409"/><polygon class="cls-8" points="140.617 118.409 127.613 110.902 127.024 111.242 140.617 119.09 154.209 111.242 153.62 110.902 140.617 118.409"/><polygon class="cls-4" points="158.273 128.483 144.68 120.635 144.68 136.331 158.273 144.179 171.866 136.331 171.866 120.635 158.273 128.483"/><polygon class="cls-4" points="158.273 144.179 144.68 136.331 144.68 120.635 158.273 128.483 158.273 144.179"/><polygon class="cls-19" points="171.866 136.331 158.273 144.179 158.273 128.483 171.866 120.635 171.866 136.331"/><polygon class="cls-4" points="158.273 128.483 144.68 120.635 158.273 112.788 171.865 120.636 158.273 128.483"/><polygon class="cls-8" points="158.273 128.483 145.269 120.976 144.68 121.316 158.273 129.164 171.865 121.316 171.866 120.635 158.273 128.483"/><polygon class="cls-4" points="105.304 119.09 91.711 111.242 91.711 126.937 105.304 134.785 118.897 126.937 118.897 111.242 105.304 119.09"/><polygon class="cls-4" points="105.304 134.785 91.711 126.937 91.711 111.242 105.304 119.09 105.304 134.785"/><polygon class="cls-19" points="118.897 126.937 105.304 134.785 105.304 119.09 118.897 111.242 118.897 126.937"/><polygon class="cls-4" points="105.304 119.09 91.711 111.242 105.304 103.394 118.896 111.242 105.304 119.09"/><polygon class="cls-8" points="105.304 119.09 92.301 111.582 91.711 111.923 105.304 119.771 118.896 111.923 118.307 111.583 105.304 119.09"/><polygon class="cls-4" points="122.96 129.164 109.367 121.316 109.367 137.012 122.96 144.859 136.553 137.012 136.553 121.316 122.96 129.164"/><polygon class="cls-4" points="122.96 144.86 109.367 137.012 109.367 121.316 122.96 129.164 122.96 144.86"/><polygon class="cls-19" points="136.553 137.012 122.96 144.86 122.96 129.164 136.553 121.316 136.553 137.012"/><polygon class="cls-4" points="122.96 129.164 109.367 121.316 122.96 113.469 136.553 121.317 122.96 129.164"/><polygon class="cls-8" points="122.96 129.164 109.957 121.657 109.367 121.997 122.96 129.845 136.553 121.997 135.963 121.657 122.96 129.164"/><polygon class="cls-4" points="140.617 139.239 127.024 131.391 127.024 147.086 140.617 154.934 154.209 147.086 154.209 131.391 140.617 139.239"/><polygon class="cls-4" points="140.617 154.934 127.024 147.086 127.024 131.391 140.617 139.238 140.617 154.934"/><polygon class="cls-19" points="154.21 147.086 140.617 154.934 140.617 139.238 154.21 131.391 154.21 147.086"/><polygon class="cls-4" points="140.617 139.238 127.024 131.391 140.616 123.543 154.209 131.391 140.617 139.238"/><polygon class="cls-8" points="140.617 139.239 127.613 131.731 127.024 132.071 140.617 139.919 154.209 132.072 154.209 131.391 140.617 139.239"/><polygon class="cls-4" points="87.648 129.845 74.055 121.997 74.055 137.692 87.648 145.54 101.241 137.692 101.241 121.997 87.648 129.845"/><polygon class="cls-4" points="87.648 145.54 74.055 137.693 74.055 121.997 87.648 129.845 87.648 145.54"/><polygon class="cls-19" points="101.241 137.693 87.648 145.54 87.648 129.845 101.241 121.997 101.241 137.693"/><polygon class="cls-4" points="87.648 129.845 74.055 121.997 87.647 114.15 101.24 121.997 87.648 129.845"/><polygon class="cls-8" points="87.648 129.845 74.644 122.338 74.055 122.678 87.648 130.526 101.24 122.678 100.651 122.338 87.648 129.845"/><polygon class="cls-4" points="105.304 139.919 91.711 132.071 91.711 147.767 105.304 155.615 118.897 147.767 118.897 132.071 105.304 139.919"/><polygon class="cls-4" points="105.304 155.615 91.711 147.767 91.711 132.071 105.304 139.919 105.304 155.615"/><polygon class="cls-19" points="118.897 147.767 105.304 155.615 105.304 139.919 118.897 132.071 118.897 147.767"/><polygon class="cls-4" points="105.304 139.919 91.711 132.071 105.304 124.224 118.896 132.072 105.304 139.919"/><polygon class="cls-8" points="105.304 139.919 91.711 132.071 91.711 132.752 105.304 140.6 118.896 132.752 118.307 132.412 105.304 139.919"/><polygon class="cls-4" points="122.96 149.994 109.367 142.146 109.367 157.841 122.96 165.689 136.553 157.841 136.553 142.146 122.96 149.994"/><polygon class="cls-4" points="122.96 165.689 109.367 157.841 109.367 142.146 122.96 149.994 122.96 165.689"/><polygon class="cls-19" points="136.553 157.841 122.96 165.689 122.96 149.994 136.553 142.146 136.553 157.841"/><polygon class="cls-4" points="122.96 149.994 109.367 142.146 122.96 134.298 136.553 142.146 122.96 149.994"/><polygon class="cls-8" points="122.96 149.994 109.367 142.146 109.367 142.826 122.96 150.674 136.553 142.827 136.553 142.146 122.96 149.994"/><polygon class="cls-20" points="158.307 126.143 149.034 120.789 158.306 115.436 167.579 120.789 158.307 126.143"/><polygon class="cls-20" points="87.648 127.381 78.375 122.028 87.647 116.674 96.92 122.028 87.648 127.381"/><polygon class="cls-4" points="122.96 87.506 109.367 79.658 109.367 95.353 122.96 103.201 136.553 95.353 136.553 79.658 122.96 87.506"/><polygon class="cls-4" points="122.96 103.201 109.367 95.353 109.367 79.658 122.96 87.506 122.96 103.201"/><polygon class="cls-19" points="136.553 95.353 122.96 103.201 122.96 87.506 136.553 79.658 136.553 95.353"/><polygon class="cls-4" points="122.96 87.506 109.367 79.658 122.96 71.81 136.553 79.658 122.96 87.506"/><polygon class="cls-8" points="122.96 87.506 109.367 79.658 109.367 80.338 122.96 88.186 136.553 80.339 136.553 79.658 122.96 87.506"/><polygon class="cls-4" points="140.617 97.58 127.024 89.732 127.024 105.427 140.617 113.275 154.209 105.427 154.209 89.732 140.617 97.58"/><polygon class="cls-4" points="140.617 113.275 127.024 105.427 127.024 89.732 140.617 97.58 140.617 113.275"/><polygon class="cls-19" points="154.209 105.427 140.617 113.275 140.617 97.58 154.209 89.732 154.209 105.427"/><polygon class="cls-4" points="140.617 97.58 127.024 89.732 140.616 81.884 154.209 89.732 140.617 97.58"/><polygon class="cls-8" points="140.617 97.58 127.024 89.732 127.024 90.413 140.617 98.261 154.209 90.413 154.209 89.732 140.617 97.58"/><polygon class="cls-4" points="158.273 107.654 144.68 99.806 144.68 115.502 158.273 123.349 171.866 115.502 171.866 99.806 158.273 107.654"/><polygon class="cls-4" points="158.273 123.349 144.68 115.502 144.68 99.806 158.273 107.654 158.273 123.349"/><polygon class="cls-19" points="171.866 115.502 158.273 123.349 158.273 107.654 171.866 99.806 171.866 115.502"/><polygon class="cls-4" points="158.273 107.654 144.68 99.806 158.273 91.959 171.865 99.807 158.273 107.654"/><polygon class="cls-8" points="158.273 107.654 144.68 99.806 144.68 100.487 158.273 108.335 171.865 100.487 171.866 99.806 158.273 107.654"/><polygon class="cls-4" points="105.304 98.261 91.711 90.413 91.711 106.108 105.304 113.956 118.897 106.108 118.897 90.413 105.304 98.261"/><polygon class="cls-4" points="105.304 113.956 91.711 106.108 91.711 90.413 105.304 98.261 105.304 113.956"/><polygon class="cls-19" points="118.897 106.108 105.304 113.956 105.304 98.261 118.897 90.413 118.897 106.108"/><polygon class="cls-4" points="105.304 98.261 91.711 90.413 105.304 82.565 118.896 90.413 105.304 98.261"/><polygon class="cls-8" points="105.304 98.261 91.711 90.413 91.711 91.094 105.304 98.942 118.896 91.094 118.897 90.413 105.304 98.261"/><polygon class="cls-4" points="87.648 109.016 74.055 101.168 74.055 116.863 87.648 124.711 101.241 116.863 101.241 101.168 87.648 109.016"/><polygon class="cls-4" points="87.648 124.711 74.055 116.863 74.055 101.168 87.648 109.016 87.648 124.711"/><polygon class="cls-19" points="101.241 116.863 87.648 124.711 87.648 109.016 101.241 101.168 101.241 116.863"/><polygon class="cls-4" points="87.648 109.016 74.055 101.168 87.647 93.32 101.24 101.168 87.648 109.016"/><polygon class="cls-8" points="87.648 109.016 74.055 101.168 74.055 101.849 87.648 109.697 101.24 101.849 101.241 101.168 87.648 109.016"/><path class="cls-8" d="M291.278,204.252a15.905,15.905,0,0,1-3.609-.416.21.21,0,0,1-.156-.251.214.214,0,0,1,.25-.155,15.489,15.489,0,0,0,3.515.406,5.561,5.561,0,0,0,.756-.019.208.208,0,0,1,.022.416c-.253.013-.509.019-.766.019Zm4.989-1a.208.208,0,0,1-.09-.4c.168-.081.331-.166.487-.256l3.777-2.181a.207.207,0,0,1,.284.076.21.21,0,0,1-.076.285l-3.777,2.181c-.165.095-.338.185-.515.27A.2.2,0,0,1,296.267,203.256ZM283.7,202.192a.2.2,0,0,1-.113-.033,5.526,5.526,0,0,1-2.689-3.49.208.208,0,0,1,.411-.068,5.123,5.123,0,0,0,2.5,3.209.208.208,0,0,1-.114.382Zm20.619-3.56a.208.208,0,0,1-.1-.389l3.776-2.18a.208.208,0,0,1,.208.361l-3.776,2.181A.218.218,0,0,1,304.321,198.632Zm-21.219-3.36a.211.211,0,0,1-.177-.1.208.208,0,0,1,.068-.286c.049-.031.1-.061.151-.09l3.63-2.1a.209.209,0,0,1,.208.362l-3.631,2.095-.139.082A.2.2,0,0,1,283.1,195.272Zm28.771-1a.209.209,0,0,1-.1-.389l3.777-2.181a.209.209,0,0,1,.208.362l-3.777,2.18A.2.2,0,0,1,311.873,194.272Zm-21.219-3.363a.208.208,0,0,1-.1-.388l3.776-2.181a.208.208,0,1,1,.208.361l-3.776,2.181A.215.215,0,0,1,290.654,190.909Zm28.772-1a.207.207,0,0,1-.1-.388l3.776-2.181a.208.208,0,0,1,.208.361l-3.776,2.181A.218.218,0,0,1,319.426,189.911Zm-21.22-3.362a.209.209,0,0,1-.1-.389l3.777-2.18a.207.207,0,0,1,.284.076.21.21,0,0,1-.076.285l-3.777,2.181A.212.212,0,0,1,298.206,186.549Zm28.772-1a.209.209,0,0,1-.1-.389l3.777-2.179a.208.208,0,0,1,.208.361l-3.777,2.18A.212.212,0,0,1,326.978,185.55Zm-21.219-3.361a.209.209,0,0,1-.1-.389l3.776-2.181a.209.209,0,0,1,.208.362l-3.776,2.18A.206.206,0,0,1,305.759,182.189Zm28.772-1a.208.208,0,0,1-.1-.389l3.776-2.18a.208.208,0,0,1,.208.361l-3.776,2.18A.208.208,0,0,1,334.531,181.19Zm-21.22-3.362a.208.208,0,0,1-.1-.388l3.777-2.181a.206.206,0,0,1,.284.077.209.209,0,0,1-.076.284l-3.777,2.18A.2.2,0,0,1,313.311,177.828Zm28.764-1.012a.207.207,0,0,1-.172-.092.209.209,0,0,1,.056-.289,3.354,3.354,0,0,0,1.707-2.751,2.878,2.878,0,0,0-.093-.719.209.209,0,0,1,.4-.1,3.331,3.331,0,0,1,.106.823,3.752,3.752,0,0,1-1.891,3.1A.21.21,0,0,1,342.075,176.816Zm-21.211-3.348a.209.209,0,0,1-.1-.389l3.776-2.18a.208.208,0,1,1,.208.36l-3.776,2.181A.206.206,0,0,1,320.864,173.468ZM341,169.9a.212.212,0,0,1-.108-.03q-.1-.063-.207-.123a13.179,13.179,0,0,0-3.778-1.411.208.208,0,0,1-.161-.247.2.2,0,0,1,.247-.16,13.565,13.565,0,0,1,3.9,1.457c.073.041.144.084.215.127a.208.208,0,0,1-.108.387Zm-12.578-.785a.208.208,0,0,1-.1-.393,10.948,10.948,0,0,1,4.273-1.11.212.212,0,0,1,.223.193.208.208,0,0,1-.193.222,10.55,10.55,0,0,0-4.11,1.064A.2.2,0,0,1,328.419,169.112Z" transform="translate(-280.897 -70.427)"/><path class="cls-4" d="M343.872,110.68v54.066h0a3.757,3.757,0,0,1-2.177,3.126L296.768,193.81c-3.233,1.867-8.881,1.632-12.615-.523h0c-2.094-1.209-3.14-2.766-3.086-4.229h0V134.979Z" transform="translate(-280.897 -70.427)"/><path class="cls-27" d="M296.768,139.744l44.924-25.937c3.233-1.867,2.828-5.128-.906-7.283h0c-3.734-2.156-9.382-2.39-12.615-.523l-44.924,25.936c-3.233,1.867-2.828,5.128.906,7.284h0C287.887,141.376,293.535,141.611,296.768,139.744Z" transform="translate(-280.897 -70.427)"/><path class="cls-4" d="M292.284,136.267a3.882,3.882,0,0,0,3.882-3.883V108.362c0-8.192,6-18.575,13.09-22.671l10.309-5.952c2.723-1.573,5.183-1.955,6.747-1.053s2.461,3.224,2.461,6.368v24.022a3.882,3.882,0,0,0,7.764,0V85.054c0-6.081-2.253-10.731-6.343-13.092s-9.245-1.988-14.511,1.053l-10.309,5.952c-9.517,5.494-16.972,18.406-16.972,29.395v24.022A3.882,3.882,0,0,0,292.284,136.267Z" transform="translate(-280.897 -70.427)"/></g></g></svg>